G04 MADE WITH FRITZING*
G04 WWW.FRITZING.ORG*
G04 DOUBLE SIDED*
G04 HOLES PLATED*
G04 CONTOUR ON CENTER OF CONTOUR VECTOR*
%ASAXBY*%
%FSLAX23Y23*%
%MOIN*%
%OFA0B0*%
%SFA1.0B1.0*%
%ADD10R,2.160000X1.744240X2.144000X1.728240*%
%ADD11C,0.008000*%
%ADD12R,0.001000X0.001000*%
%LNSILK0*%
G90*
G70*
G54D11*
X4Y1740D02*
X2156Y1740D01*
X2156Y4D01*
X4Y4D01*
X4Y1740D01*
D02*
G54D12*
X1483Y1511D02*
X1493Y1511D01*
X1481Y1510D02*
X1495Y1510D01*
X1480Y1509D02*
X1496Y1509D01*
X1479Y1508D02*
X1496Y1508D01*
X1838Y1508D02*
X1847Y1508D01*
X1479Y1507D02*
X1497Y1507D01*
X1838Y1507D02*
X1847Y1507D01*
X534Y1506D02*
X580Y1506D01*
X1111Y1506D02*
X1114Y1506D01*
X1479Y1506D02*
X1497Y1506D01*
X1670Y1506D02*
X1672Y1506D01*
X1838Y1506D02*
X1847Y1506D01*
X530Y1505D02*
X582Y1505D01*
X1107Y1505D02*
X1118Y1505D01*
X1479Y1505D02*
X1497Y1505D01*
X1665Y1505D02*
X1676Y1505D01*
X1838Y1505D02*
X1847Y1505D01*
X528Y1504D02*
X583Y1504D01*
X1105Y1504D02*
X1120Y1504D01*
X1479Y1504D02*
X1497Y1504D01*
X1663Y1504D02*
X1679Y1504D01*
X1838Y1504D02*
X1847Y1504D01*
X527Y1503D02*
X584Y1503D01*
X1103Y1503D02*
X1121Y1503D01*
X1479Y1503D02*
X1497Y1503D01*
X1662Y1503D02*
X1680Y1503D01*
X1838Y1503D02*
X1847Y1503D01*
X525Y1502D02*
X585Y1502D01*
X1102Y1502D02*
X1123Y1502D01*
X1479Y1502D02*
X1497Y1502D01*
X1660Y1502D02*
X1681Y1502D01*
X1838Y1502D02*
X1847Y1502D01*
X525Y1501D02*
X585Y1501D01*
X1101Y1501D02*
X1124Y1501D01*
X1479Y1501D02*
X1497Y1501D01*
X1659Y1501D02*
X1683Y1501D01*
X1838Y1501D02*
X1847Y1501D01*
X524Y1500D02*
X585Y1500D01*
X1100Y1500D02*
X1125Y1500D01*
X1479Y1500D02*
X1497Y1500D01*
X1658Y1500D02*
X1683Y1500D01*
X1838Y1500D02*
X1847Y1500D01*
X523Y1499D02*
X585Y1499D01*
X1099Y1499D02*
X1126Y1499D01*
X1479Y1499D02*
X1497Y1499D01*
X1658Y1499D02*
X1684Y1499D01*
X1838Y1499D02*
X1847Y1499D01*
X523Y1498D02*
X585Y1498D01*
X1098Y1498D02*
X1126Y1498D01*
X1479Y1498D02*
X1497Y1498D01*
X1657Y1498D02*
X1685Y1498D01*
X1838Y1498D02*
X1847Y1498D01*
X522Y1497D02*
X585Y1497D01*
X1098Y1497D02*
X1127Y1497D01*
X1479Y1497D02*
X1497Y1497D01*
X1656Y1497D02*
X1686Y1497D01*
X1838Y1497D02*
X1847Y1497D01*
X522Y1496D02*
X584Y1496D01*
X1097Y1496D02*
X1127Y1496D01*
X1480Y1496D02*
X1496Y1496D01*
X1656Y1496D02*
X1686Y1496D01*
X1838Y1496D02*
X1847Y1496D01*
X522Y1495D02*
X583Y1495D01*
X1097Y1495D02*
X1128Y1495D01*
X1481Y1495D02*
X1495Y1495D01*
X1655Y1495D02*
X1687Y1495D01*
X1838Y1495D02*
X1847Y1495D01*
X522Y1494D02*
X582Y1494D01*
X1096Y1494D02*
X1128Y1494D01*
X1482Y1494D02*
X1494Y1494D01*
X1655Y1494D02*
X1687Y1494D01*
X1838Y1494D02*
X1847Y1494D01*
X522Y1493D02*
X534Y1493D01*
X1096Y1493D02*
X1111Y1493D01*
X1113Y1493D02*
X1129Y1493D01*
X1654Y1493D02*
X1670Y1493D01*
X1672Y1493D02*
X1688Y1493D01*
X1838Y1493D02*
X1847Y1493D01*
X522Y1492D02*
X534Y1492D01*
X1095Y1492D02*
X1109Y1492D01*
X1115Y1492D02*
X1129Y1492D01*
X1654Y1492D02*
X1668Y1492D01*
X1674Y1492D02*
X1688Y1492D01*
X1838Y1492D02*
X1847Y1492D01*
X522Y1491D02*
X534Y1491D01*
X1095Y1491D02*
X1108Y1491D01*
X1116Y1491D02*
X1130Y1491D01*
X1653Y1491D02*
X1667Y1491D01*
X1675Y1491D02*
X1689Y1491D01*
X1838Y1491D02*
X1847Y1491D01*
X522Y1490D02*
X534Y1490D01*
X1094Y1490D02*
X1108Y1490D01*
X1117Y1490D02*
X1130Y1490D01*
X1653Y1490D02*
X1667Y1490D01*
X1675Y1490D02*
X1689Y1490D01*
X1838Y1490D02*
X1847Y1490D01*
X522Y1489D02*
X534Y1489D01*
X1094Y1489D02*
X1107Y1489D01*
X1117Y1489D02*
X1131Y1489D01*
X1652Y1489D02*
X1666Y1489D01*
X1676Y1489D02*
X1690Y1489D01*
X1838Y1489D02*
X1847Y1489D01*
X522Y1488D02*
X534Y1488D01*
X1093Y1488D02*
X1107Y1488D01*
X1118Y1488D02*
X1131Y1488D01*
X1652Y1488D02*
X1666Y1488D01*
X1676Y1488D02*
X1690Y1488D01*
X1838Y1488D02*
X1847Y1488D01*
X458Y1487D02*
X463Y1487D01*
X522Y1487D02*
X534Y1487D01*
X1093Y1487D02*
X1106Y1487D01*
X1118Y1487D02*
X1132Y1487D01*
X1651Y1487D02*
X1665Y1487D01*
X1677Y1487D02*
X1691Y1487D01*
X1838Y1487D02*
X1847Y1487D01*
X456Y1486D02*
X464Y1486D01*
X522Y1486D02*
X534Y1486D01*
X1092Y1486D02*
X1106Y1486D01*
X1119Y1486D02*
X1132Y1486D01*
X1651Y1486D02*
X1665Y1486D01*
X1677Y1486D02*
X1691Y1486D01*
X1838Y1486D02*
X1847Y1486D01*
X456Y1485D02*
X465Y1485D01*
X522Y1485D02*
X534Y1485D01*
X1092Y1485D02*
X1105Y1485D01*
X1119Y1485D02*
X1133Y1485D01*
X1650Y1485D02*
X1664Y1485D01*
X1678Y1485D02*
X1692Y1485D01*
X1838Y1485D02*
X1847Y1485D01*
X455Y1484D02*
X466Y1484D01*
X522Y1484D02*
X534Y1484D01*
X1091Y1484D02*
X1105Y1484D01*
X1120Y1484D02*
X1133Y1484D01*
X1650Y1484D02*
X1664Y1484D01*
X1678Y1484D02*
X1692Y1484D01*
X1838Y1484D02*
X1847Y1484D01*
X455Y1483D02*
X466Y1483D01*
X522Y1483D02*
X534Y1483D01*
X1091Y1483D02*
X1104Y1483D01*
X1120Y1483D02*
X1134Y1483D01*
X1649Y1483D02*
X1663Y1483D01*
X1679Y1483D02*
X1693Y1483D01*
X1838Y1483D02*
X1847Y1483D01*
X454Y1482D02*
X466Y1482D01*
X522Y1482D02*
X534Y1482D01*
X1090Y1482D02*
X1104Y1482D01*
X1121Y1482D02*
X1134Y1482D01*
X1649Y1482D02*
X1663Y1482D01*
X1679Y1482D02*
X1693Y1482D01*
X1838Y1482D02*
X1847Y1482D01*
X454Y1481D02*
X466Y1481D01*
X522Y1481D02*
X534Y1481D01*
X1090Y1481D02*
X1103Y1481D01*
X1121Y1481D02*
X1135Y1481D01*
X1648Y1481D02*
X1662Y1481D01*
X1680Y1481D02*
X1694Y1481D01*
X1838Y1481D02*
X1847Y1481D01*
X454Y1480D02*
X466Y1480D01*
X522Y1480D02*
X534Y1480D01*
X1089Y1480D02*
X1103Y1480D01*
X1122Y1480D02*
X1135Y1480D01*
X1648Y1480D02*
X1662Y1480D01*
X1680Y1480D02*
X1694Y1480D01*
X1838Y1480D02*
X1847Y1480D01*
X454Y1479D02*
X466Y1479D01*
X522Y1479D02*
X534Y1479D01*
X1089Y1479D02*
X1102Y1479D01*
X1122Y1479D02*
X1136Y1479D01*
X1647Y1479D02*
X1661Y1479D01*
X1681Y1479D02*
X1695Y1479D01*
X1838Y1479D02*
X1847Y1479D01*
X454Y1478D02*
X466Y1478D01*
X522Y1478D02*
X534Y1478D01*
X724Y1478D02*
X755Y1478D01*
X805Y1478D02*
X809Y1478D01*
X827Y1478D02*
X845Y1478D01*
X913Y1478D02*
X939Y1478D01*
X1001Y1478D02*
X1006Y1478D01*
X1024Y1478D02*
X1032Y1478D01*
X1044Y1478D02*
X1048Y1478D01*
X1088Y1478D02*
X1102Y1478D01*
X1123Y1478D02*
X1136Y1478D01*
X1283Y1478D02*
X1299Y1478D01*
X1322Y1478D02*
X1326Y1478D01*
X1379Y1478D02*
X1404Y1478D01*
X1482Y1478D02*
X1506Y1478D01*
X1562Y1478D02*
X1579Y1478D01*
X1601Y1478D02*
X1606Y1478D01*
X1647Y1478D02*
X1661Y1478D01*
X1681Y1478D02*
X1695Y1478D01*
X1838Y1478D02*
X1847Y1478D01*
X454Y1477D02*
X466Y1477D01*
X522Y1477D02*
X534Y1477D01*
X721Y1477D02*
X756Y1477D01*
X803Y1477D02*
X811Y1477D01*
X824Y1477D02*
X848Y1477D01*
X910Y1477D02*
X941Y1477D01*
X998Y1477D02*
X1009Y1477D01*
X1022Y1477D02*
X1035Y1477D01*
X1042Y1477D02*
X1050Y1477D01*
X1088Y1477D02*
X1101Y1477D01*
X1123Y1477D02*
X1137Y1477D01*
X1280Y1477D02*
X1302Y1477D01*
X1320Y1477D02*
X1328Y1477D01*
X1376Y1477D02*
X1407Y1477D01*
X1481Y1477D02*
X1508Y1477D01*
X1559Y1477D02*
X1581Y1477D01*
X1600Y1477D02*
X1607Y1477D01*
X1646Y1477D02*
X1660Y1477D01*
X1682Y1477D02*
X1696Y1477D01*
X1838Y1477D02*
X1847Y1477D01*
X454Y1476D02*
X466Y1476D01*
X522Y1476D02*
X534Y1476D01*
X719Y1476D02*
X757Y1476D01*
X802Y1476D02*
X812Y1476D01*
X822Y1476D02*
X850Y1476D01*
X909Y1476D02*
X943Y1476D01*
X996Y1476D02*
X1011Y1476D01*
X1020Y1476D02*
X1037Y1476D01*
X1041Y1476D02*
X1050Y1476D01*
X1087Y1476D02*
X1101Y1476D01*
X1124Y1476D02*
X1137Y1476D01*
X1278Y1476D02*
X1304Y1476D01*
X1319Y1476D02*
X1329Y1476D01*
X1374Y1476D02*
X1409Y1476D01*
X1480Y1476D02*
X1509Y1476D01*
X1557Y1476D02*
X1583Y1476D01*
X1599Y1476D02*
X1608Y1476D01*
X1646Y1476D02*
X1660Y1476D01*
X1682Y1476D02*
X1696Y1476D01*
X1838Y1476D02*
X1847Y1476D01*
X454Y1475D02*
X466Y1475D01*
X522Y1475D02*
X534Y1475D01*
X718Y1475D02*
X758Y1475D01*
X802Y1475D02*
X812Y1475D01*
X821Y1475D02*
X852Y1475D01*
X907Y1475D02*
X945Y1475D01*
X994Y1475D02*
X1012Y1475D01*
X1019Y1475D02*
X1038Y1475D01*
X1041Y1475D02*
X1051Y1475D01*
X1087Y1475D02*
X1100Y1475D01*
X1124Y1475D02*
X1138Y1475D01*
X1276Y1475D02*
X1306Y1475D01*
X1319Y1475D02*
X1329Y1475D01*
X1373Y1475D02*
X1410Y1475D01*
X1479Y1475D02*
X1509Y1475D01*
X1556Y1475D02*
X1585Y1475D01*
X1598Y1475D02*
X1609Y1475D01*
X1645Y1475D02*
X1659Y1475D01*
X1683Y1475D02*
X1697Y1475D01*
X1838Y1475D02*
X1847Y1475D01*
X454Y1474D02*
X466Y1474D01*
X522Y1474D02*
X534Y1474D01*
X716Y1474D02*
X758Y1474D01*
X801Y1474D02*
X813Y1474D01*
X819Y1474D02*
X853Y1474D01*
X906Y1474D02*
X946Y1474D01*
X993Y1474D02*
X1014Y1474D01*
X1018Y1474D02*
X1051Y1474D01*
X1086Y1474D02*
X1100Y1474D01*
X1125Y1474D02*
X1138Y1474D01*
X1275Y1474D02*
X1307Y1474D01*
X1318Y1474D02*
X1330Y1474D01*
X1371Y1474D02*
X1412Y1474D01*
X1479Y1474D02*
X1510Y1474D01*
X1555Y1474D02*
X1587Y1474D01*
X1598Y1474D02*
X1609Y1474D01*
X1645Y1474D02*
X1659Y1474D01*
X1683Y1474D02*
X1697Y1474D01*
X1838Y1474D02*
X1847Y1474D01*
X454Y1473D02*
X466Y1473D01*
X522Y1473D02*
X534Y1473D01*
X715Y1473D02*
X758Y1473D01*
X801Y1473D02*
X813Y1473D01*
X818Y1473D02*
X854Y1473D01*
X904Y1473D02*
X947Y1473D01*
X992Y1473D02*
X1015Y1473D01*
X1017Y1473D02*
X1052Y1473D01*
X1086Y1473D02*
X1099Y1473D01*
X1125Y1473D02*
X1139Y1473D01*
X1274Y1473D02*
X1309Y1473D01*
X1318Y1473D02*
X1330Y1473D01*
X1370Y1473D02*
X1413Y1473D01*
X1479Y1473D02*
X1510Y1473D01*
X1553Y1473D02*
X1588Y1473D01*
X1597Y1473D02*
X1609Y1473D01*
X1644Y1473D02*
X1658Y1473D01*
X1684Y1473D02*
X1698Y1473D01*
X1838Y1473D02*
X1847Y1473D01*
X454Y1472D02*
X466Y1472D01*
X522Y1472D02*
X534Y1472D01*
X714Y1472D02*
X759Y1472D01*
X801Y1472D02*
X813Y1472D01*
X817Y1472D02*
X855Y1472D01*
X903Y1472D02*
X948Y1472D01*
X991Y1472D02*
X1052Y1472D01*
X1085Y1472D02*
X1099Y1472D01*
X1126Y1472D02*
X1139Y1472D01*
X1273Y1472D02*
X1310Y1472D01*
X1318Y1472D02*
X1330Y1472D01*
X1369Y1472D02*
X1414Y1472D01*
X1479Y1472D02*
X1510Y1472D01*
X1553Y1472D02*
X1590Y1472D01*
X1597Y1472D02*
X1609Y1472D01*
X1644Y1472D02*
X1658Y1472D01*
X1684Y1472D02*
X1698Y1472D01*
X1838Y1472D02*
X1847Y1472D01*
X454Y1471D02*
X466Y1471D01*
X522Y1471D02*
X534Y1471D01*
X714Y1471D02*
X758Y1471D01*
X801Y1471D02*
X813Y1471D01*
X816Y1471D02*
X857Y1471D01*
X902Y1471D02*
X950Y1471D01*
X991Y1471D02*
X1052Y1471D01*
X1085Y1471D02*
X1098Y1471D01*
X1126Y1471D02*
X1140Y1471D01*
X1272Y1471D02*
X1312Y1471D01*
X1318Y1471D02*
X1330Y1471D01*
X1368Y1471D02*
X1415Y1471D01*
X1479Y1471D02*
X1510Y1471D01*
X1552Y1471D02*
X1591Y1471D01*
X1597Y1471D02*
X1609Y1471D01*
X1643Y1471D02*
X1657Y1471D01*
X1685Y1471D02*
X1699Y1471D01*
X1838Y1471D02*
X1847Y1471D01*
X454Y1470D02*
X466Y1470D01*
X522Y1470D02*
X534Y1470D01*
X713Y1470D02*
X758Y1470D01*
X801Y1470D02*
X858Y1470D01*
X901Y1470D02*
X951Y1470D01*
X990Y1470D02*
X1052Y1470D01*
X1084Y1470D02*
X1098Y1470D01*
X1127Y1470D02*
X1140Y1470D01*
X1272Y1470D02*
X1313Y1470D01*
X1318Y1470D02*
X1330Y1470D01*
X1367Y1470D02*
X1416Y1470D01*
X1479Y1470D02*
X1510Y1470D01*
X1551Y1470D02*
X1593Y1470D01*
X1597Y1470D02*
X1609Y1470D01*
X1643Y1470D02*
X1657Y1470D01*
X1685Y1470D02*
X1699Y1470D01*
X1838Y1470D02*
X1847Y1470D01*
X454Y1469D02*
X466Y1469D01*
X522Y1469D02*
X534Y1469D01*
X712Y1469D02*
X758Y1469D01*
X801Y1469D02*
X859Y1469D01*
X900Y1469D02*
X952Y1469D01*
X990Y1469D02*
X1052Y1469D01*
X1084Y1469D02*
X1097Y1469D01*
X1127Y1469D02*
X1141Y1469D01*
X1271Y1469D02*
X1315Y1469D01*
X1318Y1469D02*
X1330Y1469D01*
X1366Y1469D02*
X1417Y1469D01*
X1479Y1469D02*
X1509Y1469D01*
X1550Y1469D02*
X1594Y1469D01*
X1597Y1469D02*
X1609Y1469D01*
X1642Y1469D02*
X1656Y1469D01*
X1686Y1469D02*
X1699Y1469D01*
X1838Y1469D02*
X1847Y1469D01*
X454Y1468D02*
X466Y1468D01*
X522Y1468D02*
X534Y1468D01*
X712Y1468D02*
X757Y1468D01*
X801Y1468D02*
X860Y1468D01*
X899Y1468D02*
X953Y1468D01*
X989Y1468D02*
X1052Y1468D01*
X1083Y1468D02*
X1097Y1468D01*
X1128Y1468D02*
X1141Y1468D01*
X1270Y1468D02*
X1330Y1468D01*
X1365Y1468D02*
X1418Y1468D01*
X1479Y1468D02*
X1508Y1468D01*
X1550Y1468D02*
X1609Y1468D01*
X1642Y1468D02*
X1656Y1468D01*
X1686Y1468D02*
X1700Y1468D01*
X1838Y1468D02*
X1847Y1468D01*
X454Y1467D02*
X466Y1467D01*
X522Y1467D02*
X534Y1467D01*
X711Y1467D02*
X756Y1467D01*
X801Y1467D02*
X861Y1467D01*
X898Y1467D02*
X954Y1467D01*
X989Y1467D02*
X1052Y1467D01*
X1083Y1467D02*
X1096Y1467D01*
X1128Y1467D02*
X1142Y1467D01*
X1270Y1467D02*
X1330Y1467D01*
X1364Y1467D02*
X1419Y1467D01*
X1479Y1467D02*
X1507Y1467D01*
X1549Y1467D02*
X1609Y1467D01*
X1642Y1467D02*
X1655Y1467D01*
X1687Y1467D02*
X1700Y1467D01*
X1838Y1467D02*
X1847Y1467D01*
X454Y1466D02*
X466Y1466D01*
X522Y1466D02*
X534Y1466D01*
X711Y1466D02*
X754Y1466D01*
X801Y1466D02*
X861Y1466D01*
X898Y1466D02*
X954Y1466D01*
X989Y1466D02*
X1052Y1466D01*
X1082Y1466D02*
X1096Y1466D01*
X1129Y1466D02*
X1142Y1466D01*
X1270Y1466D02*
X1330Y1466D01*
X1363Y1466D02*
X1420Y1466D01*
X1479Y1466D02*
X1506Y1466D01*
X1549Y1466D02*
X1609Y1466D01*
X1641Y1466D02*
X1654Y1466D01*
X1687Y1466D02*
X1701Y1466D01*
X1838Y1466D02*
X1847Y1466D01*
X454Y1465D02*
X466Y1465D01*
X522Y1465D02*
X534Y1465D01*
X711Y1465D02*
X725Y1465D01*
X801Y1465D02*
X828Y1465D01*
X844Y1465D02*
X862Y1465D01*
X897Y1465D02*
X915Y1465D01*
X937Y1465D02*
X955Y1465D01*
X989Y1465D02*
X1001Y1465D01*
X1005Y1465D02*
X1026Y1465D01*
X1031Y1465D02*
X1052Y1465D01*
X1082Y1465D02*
X1095Y1465D01*
X1129Y1465D02*
X1142Y1465D01*
X1269Y1465D02*
X1284Y1465D01*
X1298Y1465D02*
X1330Y1465D01*
X1363Y1465D02*
X1380Y1465D01*
X1403Y1465D02*
X1420Y1465D01*
X1479Y1465D02*
X1491Y1465D01*
X1549Y1465D02*
X1564Y1465D01*
X1577Y1465D02*
X1609Y1465D01*
X1641Y1465D02*
X1654Y1465D01*
X1688Y1465D02*
X1701Y1465D01*
X1838Y1465D02*
X1847Y1465D01*
X454Y1464D02*
X466Y1464D01*
X522Y1464D02*
X534Y1464D01*
X710Y1464D02*
X724Y1464D01*
X801Y1464D02*
X827Y1464D01*
X846Y1464D02*
X862Y1464D01*
X896Y1464D02*
X913Y1464D01*
X939Y1464D02*
X955Y1464D01*
X988Y1464D02*
X1000Y1464D01*
X1006Y1464D02*
X1025Y1464D01*
X1032Y1464D02*
X1052Y1464D01*
X1082Y1464D02*
X1095Y1464D01*
X1130Y1464D02*
X1143Y1464D01*
X1269Y1464D02*
X1283Y1464D01*
X1300Y1464D02*
X1330Y1464D01*
X1362Y1464D02*
X1378Y1464D01*
X1405Y1464D02*
X1421Y1464D01*
X1479Y1464D02*
X1491Y1464D01*
X1548Y1464D02*
X1562Y1464D01*
X1579Y1464D02*
X1609Y1464D01*
X1641Y1464D02*
X1653Y1464D01*
X1688Y1464D02*
X1701Y1464D01*
X1838Y1464D02*
X1847Y1464D01*
X454Y1463D02*
X466Y1463D01*
X522Y1463D02*
X534Y1463D01*
X710Y1463D02*
X723Y1463D01*
X801Y1463D02*
X825Y1463D01*
X847Y1463D02*
X863Y1463D01*
X896Y1463D02*
X911Y1463D01*
X940Y1463D02*
X956Y1463D01*
X988Y1463D02*
X1000Y1463D01*
X1007Y1463D02*
X1025Y1463D01*
X1033Y1463D02*
X1052Y1463D01*
X1081Y1463D02*
X1094Y1463D01*
X1130Y1463D02*
X1143Y1463D01*
X1269Y1463D02*
X1282Y1463D01*
X1301Y1463D02*
X1330Y1463D01*
X1361Y1463D02*
X1377Y1463D01*
X1406Y1463D02*
X1421Y1463D01*
X1479Y1463D02*
X1491Y1463D01*
X1548Y1463D02*
X1561Y1463D01*
X1580Y1463D02*
X1609Y1463D01*
X1640Y1463D02*
X1653Y1463D01*
X1689Y1463D02*
X1702Y1463D01*
X1838Y1463D02*
X1847Y1463D01*
X433Y1462D02*
X487Y1462D01*
X522Y1462D02*
X574Y1462D01*
X710Y1462D02*
X723Y1462D01*
X801Y1462D02*
X824Y1462D01*
X848Y1462D02*
X863Y1462D01*
X895Y1462D02*
X910Y1462D01*
X941Y1462D02*
X956Y1462D01*
X988Y1462D02*
X1000Y1462D01*
X1009Y1462D02*
X1025Y1462D01*
X1034Y1462D02*
X1052Y1462D01*
X1081Y1462D02*
X1094Y1462D01*
X1131Y1462D02*
X1143Y1462D01*
X1269Y1462D02*
X1281Y1462D01*
X1303Y1462D02*
X1330Y1462D01*
X1361Y1462D02*
X1376Y1462D01*
X1407Y1462D02*
X1422Y1462D01*
X1479Y1462D02*
X1491Y1462D01*
X1548Y1462D02*
X1561Y1462D01*
X1582Y1462D02*
X1609Y1462D01*
X1640Y1462D02*
X1653Y1462D01*
X1689Y1462D02*
X1702Y1462D01*
X1838Y1462D02*
X1847Y1462D01*
X431Y1461D02*
X489Y1461D01*
X522Y1461D02*
X577Y1461D01*
X710Y1461D02*
X722Y1461D01*
X801Y1461D02*
X823Y1461D01*
X849Y1461D02*
X864Y1461D01*
X895Y1461D02*
X909Y1461D01*
X942Y1461D02*
X957Y1461D01*
X988Y1461D02*
X1000Y1461D01*
X1010Y1461D02*
X1025Y1461D01*
X1035Y1461D02*
X1052Y1461D01*
X1081Y1461D02*
X1094Y1461D01*
X1131Y1461D02*
X1143Y1461D01*
X1269Y1461D02*
X1281Y1461D01*
X1304Y1461D02*
X1330Y1461D01*
X1361Y1461D02*
X1375Y1461D01*
X1408Y1461D02*
X1422Y1461D01*
X1479Y1461D02*
X1491Y1461D01*
X1548Y1461D02*
X1560Y1461D01*
X1584Y1461D02*
X1609Y1461D01*
X1640Y1461D02*
X1652Y1461D01*
X1690Y1461D02*
X1702Y1461D01*
X1838Y1461D02*
X1847Y1461D01*
X430Y1460D02*
X490Y1460D01*
X522Y1460D02*
X579Y1460D01*
X710Y1460D02*
X722Y1460D01*
X801Y1460D02*
X822Y1460D01*
X850Y1460D02*
X864Y1460D01*
X895Y1460D02*
X908Y1460D01*
X943Y1460D02*
X957Y1460D01*
X988Y1460D02*
X1000Y1460D01*
X1011Y1460D02*
X1025Y1460D01*
X1037Y1460D02*
X1052Y1460D01*
X1081Y1460D02*
X1093Y1460D01*
X1131Y1460D02*
X1144Y1460D01*
X1268Y1460D02*
X1281Y1460D01*
X1306Y1460D02*
X1330Y1460D01*
X1360Y1460D02*
X1374Y1460D01*
X1409Y1460D02*
X1423Y1460D01*
X1479Y1460D02*
X1491Y1460D01*
X1548Y1460D02*
X1560Y1460D01*
X1585Y1460D02*
X1609Y1460D01*
X1640Y1460D02*
X1652Y1460D01*
X1690Y1460D02*
X1702Y1460D01*
X1838Y1460D02*
X1847Y1460D01*
X430Y1459D02*
X491Y1459D01*
X522Y1459D02*
X580Y1459D01*
X710Y1459D02*
X722Y1459D01*
X801Y1459D02*
X821Y1459D01*
X851Y1459D02*
X864Y1459D01*
X895Y1459D02*
X907Y1459D01*
X944Y1459D02*
X957Y1459D01*
X988Y1459D02*
X1000Y1459D01*
X1012Y1459D02*
X1025Y1459D01*
X1038Y1459D02*
X1052Y1459D01*
X1081Y1459D02*
X1093Y1459D01*
X1131Y1459D02*
X1144Y1459D01*
X1268Y1459D02*
X1280Y1459D01*
X1307Y1459D02*
X1330Y1459D01*
X1360Y1459D02*
X1373Y1459D01*
X1410Y1459D02*
X1423Y1459D01*
X1479Y1459D02*
X1491Y1459D01*
X1548Y1459D02*
X1560Y1459D01*
X1587Y1459D02*
X1609Y1459D01*
X1639Y1459D02*
X1652Y1459D01*
X1690Y1459D02*
X1702Y1459D01*
X1838Y1459D02*
X1847Y1459D01*
X429Y1458D02*
X492Y1458D01*
X522Y1458D02*
X582Y1458D01*
X710Y1458D02*
X722Y1458D01*
X801Y1458D02*
X820Y1458D01*
X852Y1458D02*
X864Y1458D01*
X894Y1458D02*
X907Y1458D01*
X945Y1458D02*
X957Y1458D01*
X988Y1458D02*
X1000Y1458D01*
X1013Y1458D02*
X1025Y1458D01*
X1039Y1458D02*
X1052Y1458D01*
X1081Y1458D02*
X1093Y1458D01*
X1132Y1458D02*
X1144Y1458D01*
X1268Y1458D02*
X1280Y1458D01*
X1309Y1458D02*
X1330Y1458D01*
X1360Y1458D02*
X1373Y1458D01*
X1411Y1458D02*
X1423Y1458D01*
X1479Y1458D02*
X1491Y1458D01*
X1548Y1458D02*
X1560Y1458D01*
X1588Y1458D02*
X1609Y1458D01*
X1639Y1458D02*
X1651Y1458D01*
X1690Y1458D02*
X1702Y1458D01*
X1838Y1458D02*
X1847Y1458D01*
X429Y1457D02*
X492Y1457D01*
X523Y1457D02*
X582Y1457D01*
X710Y1457D02*
X722Y1457D01*
X801Y1457D02*
X818Y1457D01*
X852Y1457D02*
X864Y1457D01*
X894Y1457D02*
X907Y1457D01*
X945Y1457D02*
X958Y1457D01*
X988Y1457D02*
X1000Y1457D01*
X1013Y1457D02*
X1025Y1457D01*
X1040Y1457D02*
X1052Y1457D01*
X1081Y1457D02*
X1093Y1457D01*
X1132Y1457D02*
X1144Y1457D01*
X1268Y1457D02*
X1280Y1457D01*
X1310Y1457D02*
X1330Y1457D01*
X1360Y1457D02*
X1372Y1457D01*
X1411Y1457D02*
X1423Y1457D01*
X1479Y1457D02*
X1491Y1457D01*
X1548Y1457D02*
X1560Y1457D01*
X1590Y1457D02*
X1609Y1457D01*
X1639Y1457D02*
X1651Y1457D01*
X1690Y1457D02*
X1703Y1457D01*
X1838Y1457D02*
X1847Y1457D01*
X429Y1456D02*
X492Y1456D01*
X523Y1456D02*
X583Y1456D01*
X710Y1456D02*
X722Y1456D01*
X801Y1456D02*
X817Y1456D01*
X852Y1456D02*
X864Y1456D01*
X894Y1456D02*
X906Y1456D01*
X945Y1456D02*
X958Y1456D01*
X988Y1456D02*
X1000Y1456D01*
X1013Y1456D02*
X1025Y1456D01*
X1040Y1456D02*
X1052Y1456D01*
X1080Y1456D02*
X1093Y1456D01*
X1132Y1456D02*
X1144Y1456D01*
X1268Y1456D02*
X1280Y1456D01*
X1312Y1456D02*
X1330Y1456D01*
X1360Y1456D02*
X1372Y1456D01*
X1411Y1456D02*
X1423Y1456D01*
X1479Y1456D02*
X1491Y1456D01*
X1548Y1456D02*
X1560Y1456D01*
X1591Y1456D02*
X1609Y1456D01*
X1639Y1456D02*
X1651Y1456D01*
X1691Y1456D02*
X1703Y1456D01*
X1838Y1456D02*
X1847Y1456D01*
X429Y1455D02*
X492Y1455D01*
X524Y1455D02*
X584Y1455D01*
X709Y1455D02*
X722Y1455D01*
X801Y1455D02*
X816Y1455D01*
X853Y1455D02*
X864Y1455D01*
X894Y1455D02*
X906Y1455D01*
X946Y1455D02*
X958Y1455D01*
X988Y1455D02*
X1000Y1455D01*
X1013Y1455D02*
X1025Y1455D01*
X1040Y1455D02*
X1052Y1455D01*
X1080Y1455D02*
X1093Y1455D01*
X1132Y1455D02*
X1144Y1455D01*
X1268Y1455D02*
X1280Y1455D01*
X1313Y1455D02*
X1330Y1455D01*
X1360Y1455D02*
X1372Y1455D01*
X1411Y1455D02*
X1423Y1455D01*
X1479Y1455D02*
X1491Y1455D01*
X1548Y1455D02*
X1560Y1455D01*
X1593Y1455D02*
X1609Y1455D01*
X1639Y1455D02*
X1651Y1455D01*
X1690Y1455D02*
X1703Y1455D01*
X1838Y1455D02*
X1847Y1455D01*
X429Y1454D02*
X492Y1454D01*
X525Y1454D02*
X584Y1454D01*
X709Y1454D02*
X722Y1454D01*
X801Y1454D02*
X815Y1454D01*
X853Y1454D02*
X864Y1454D01*
X894Y1454D02*
X906Y1454D01*
X946Y1454D02*
X958Y1454D01*
X988Y1454D02*
X1000Y1454D01*
X1013Y1454D02*
X1025Y1454D01*
X1040Y1454D02*
X1052Y1454D01*
X1081Y1454D02*
X1093Y1454D01*
X1132Y1454D02*
X1144Y1454D01*
X1268Y1454D02*
X1280Y1454D01*
X1315Y1454D02*
X1330Y1454D01*
X1360Y1454D02*
X1372Y1454D01*
X1411Y1454D02*
X1423Y1454D01*
X1479Y1454D02*
X1491Y1454D01*
X1548Y1454D02*
X1560Y1454D01*
X1594Y1454D02*
X1609Y1454D01*
X1639Y1454D02*
X1651Y1454D01*
X1690Y1454D02*
X1703Y1454D01*
X1838Y1454D02*
X1847Y1454D01*
X429Y1453D02*
X491Y1453D01*
X526Y1453D02*
X584Y1453D01*
X709Y1453D02*
X721Y1453D01*
X801Y1453D02*
X814Y1453D01*
X853Y1453D02*
X864Y1453D01*
X894Y1453D02*
X906Y1453D01*
X946Y1453D02*
X958Y1453D01*
X988Y1453D02*
X1000Y1453D01*
X1013Y1453D02*
X1025Y1453D01*
X1040Y1453D02*
X1052Y1453D01*
X1081Y1453D02*
X1093Y1453D01*
X1132Y1453D02*
X1144Y1453D01*
X1268Y1453D02*
X1280Y1453D01*
X1317Y1453D02*
X1330Y1453D01*
X1360Y1453D02*
X1372Y1453D01*
X1411Y1453D02*
X1423Y1453D01*
X1479Y1453D02*
X1491Y1453D01*
X1548Y1453D02*
X1560Y1453D01*
X1596Y1453D02*
X1609Y1453D01*
X1639Y1453D02*
X1652Y1453D01*
X1690Y1453D02*
X1702Y1453D01*
X1838Y1453D02*
X1847Y1453D01*
X430Y1452D02*
X491Y1452D01*
X527Y1452D02*
X585Y1452D01*
X709Y1452D02*
X721Y1452D01*
X801Y1452D02*
X814Y1452D01*
X853Y1452D02*
X864Y1452D01*
X894Y1452D02*
X906Y1452D01*
X946Y1452D02*
X958Y1452D01*
X988Y1452D02*
X1000Y1452D01*
X1013Y1452D02*
X1025Y1452D01*
X1040Y1452D02*
X1052Y1452D01*
X1081Y1452D02*
X1093Y1452D01*
X1131Y1452D02*
X1144Y1452D01*
X1268Y1452D02*
X1280Y1452D01*
X1318Y1452D02*
X1330Y1452D01*
X1360Y1452D02*
X1372Y1452D01*
X1411Y1452D02*
X1423Y1452D01*
X1479Y1452D02*
X1491Y1452D01*
X1547Y1452D02*
X1560Y1452D01*
X1597Y1452D02*
X1609Y1452D01*
X1639Y1452D02*
X1652Y1452D01*
X1690Y1452D02*
X1702Y1452D01*
X1838Y1452D02*
X1847Y1452D01*
X431Y1451D02*
X490Y1451D01*
X528Y1451D02*
X585Y1451D01*
X709Y1451D02*
X721Y1451D01*
X725Y1451D02*
X755Y1451D01*
X801Y1451D02*
X813Y1451D01*
X853Y1451D02*
X864Y1451D01*
X894Y1451D02*
X906Y1451D01*
X946Y1451D02*
X958Y1451D01*
X988Y1451D02*
X1000Y1451D01*
X1013Y1451D02*
X1025Y1451D01*
X1040Y1451D02*
X1052Y1451D01*
X1081Y1451D02*
X1093Y1451D01*
X1131Y1451D02*
X1143Y1451D01*
X1268Y1451D02*
X1280Y1451D01*
X1318Y1451D02*
X1330Y1451D01*
X1360Y1451D02*
X1372Y1451D01*
X1411Y1451D02*
X1423Y1451D01*
X1479Y1451D02*
X1491Y1451D01*
X1547Y1451D02*
X1560Y1451D01*
X1597Y1451D02*
X1609Y1451D01*
X1640Y1451D02*
X1652Y1451D01*
X1690Y1451D02*
X1702Y1451D01*
X1838Y1451D02*
X1847Y1451D01*
X432Y1450D02*
X488Y1450D01*
X530Y1450D02*
X585Y1450D01*
X709Y1450D02*
X759Y1450D01*
X801Y1450D02*
X813Y1450D01*
X853Y1450D02*
X864Y1450D01*
X894Y1450D02*
X906Y1450D01*
X946Y1450D02*
X958Y1450D01*
X988Y1450D02*
X1000Y1450D01*
X1013Y1450D02*
X1025Y1450D01*
X1040Y1450D02*
X1052Y1450D01*
X1081Y1450D02*
X1094Y1450D01*
X1131Y1450D02*
X1143Y1450D01*
X1268Y1450D02*
X1280Y1450D01*
X1318Y1450D02*
X1330Y1450D01*
X1360Y1450D02*
X1372Y1450D01*
X1411Y1450D02*
X1423Y1450D01*
X1479Y1450D02*
X1491Y1450D01*
X1547Y1450D02*
X1559Y1450D01*
X1597Y1450D02*
X1609Y1450D01*
X1640Y1450D02*
X1652Y1450D01*
X1689Y1450D02*
X1702Y1450D01*
X1838Y1450D02*
X1847Y1450D01*
X454Y1449D02*
X467Y1449D01*
X573Y1449D02*
X585Y1449D01*
X709Y1449D02*
X761Y1449D01*
X801Y1449D02*
X813Y1449D01*
X853Y1449D02*
X864Y1449D01*
X894Y1449D02*
X906Y1449D01*
X946Y1449D02*
X958Y1449D01*
X988Y1449D02*
X1000Y1449D01*
X1013Y1449D02*
X1025Y1449D01*
X1040Y1449D02*
X1052Y1449D01*
X1081Y1449D02*
X1094Y1449D01*
X1130Y1449D02*
X1143Y1449D01*
X1268Y1449D02*
X1280Y1449D01*
X1318Y1449D02*
X1330Y1449D01*
X1360Y1449D02*
X1372Y1449D01*
X1411Y1449D02*
X1423Y1449D01*
X1479Y1449D02*
X1491Y1449D01*
X1547Y1449D02*
X1559Y1449D01*
X1597Y1449D02*
X1609Y1449D01*
X1640Y1449D02*
X1653Y1449D01*
X1689Y1449D02*
X1702Y1449D01*
X1838Y1449D02*
X1847Y1449D01*
X454Y1448D02*
X466Y1448D01*
X573Y1448D02*
X585Y1448D01*
X709Y1448D02*
X763Y1448D01*
X801Y1448D02*
X813Y1448D01*
X853Y1448D02*
X864Y1448D01*
X894Y1448D02*
X906Y1448D01*
X946Y1448D02*
X958Y1448D01*
X988Y1448D02*
X1000Y1448D01*
X1013Y1448D02*
X1025Y1448D01*
X1040Y1448D02*
X1052Y1448D01*
X1082Y1448D02*
X1094Y1448D01*
X1130Y1448D02*
X1143Y1448D01*
X1268Y1448D02*
X1280Y1448D01*
X1318Y1448D02*
X1330Y1448D01*
X1360Y1448D02*
X1372Y1448D01*
X1411Y1448D02*
X1423Y1448D01*
X1479Y1448D02*
X1491Y1448D01*
X1547Y1448D02*
X1559Y1448D01*
X1597Y1448D02*
X1609Y1448D01*
X1640Y1448D02*
X1653Y1448D01*
X1689Y1448D02*
X1702Y1448D01*
X1838Y1448D02*
X1847Y1448D01*
X454Y1447D02*
X466Y1447D01*
X573Y1447D02*
X585Y1447D01*
X709Y1447D02*
X764Y1447D01*
X801Y1447D02*
X813Y1447D01*
X853Y1447D02*
X864Y1447D01*
X894Y1447D02*
X906Y1447D01*
X946Y1447D02*
X958Y1447D01*
X988Y1447D02*
X1000Y1447D01*
X1013Y1447D02*
X1025Y1447D01*
X1040Y1447D02*
X1052Y1447D01*
X1082Y1447D02*
X1095Y1447D01*
X1130Y1447D02*
X1143Y1447D01*
X1268Y1447D02*
X1280Y1447D01*
X1318Y1447D02*
X1330Y1447D01*
X1360Y1447D02*
X1372Y1447D01*
X1411Y1447D02*
X1423Y1447D01*
X1479Y1447D02*
X1491Y1447D01*
X1547Y1447D02*
X1559Y1447D01*
X1597Y1447D02*
X1609Y1447D01*
X1641Y1447D02*
X1654Y1447D01*
X1688Y1447D02*
X1701Y1447D01*
X1838Y1447D02*
X1847Y1447D01*
X454Y1446D02*
X466Y1446D01*
X573Y1446D02*
X585Y1446D01*
X709Y1446D02*
X765Y1446D01*
X801Y1446D02*
X813Y1446D01*
X853Y1446D02*
X864Y1446D01*
X894Y1446D02*
X906Y1446D01*
X945Y1446D02*
X958Y1446D01*
X988Y1446D02*
X1000Y1446D01*
X1013Y1446D02*
X1025Y1446D01*
X1040Y1446D02*
X1052Y1446D01*
X1082Y1446D02*
X1095Y1446D01*
X1129Y1446D02*
X1142Y1446D01*
X1268Y1446D02*
X1280Y1446D01*
X1318Y1446D02*
X1330Y1446D01*
X1360Y1446D02*
X1372Y1446D01*
X1411Y1446D02*
X1423Y1446D01*
X1479Y1446D02*
X1491Y1446D01*
X1547Y1446D02*
X1559Y1446D01*
X1597Y1446D02*
X1609Y1446D01*
X1641Y1446D02*
X1654Y1446D01*
X1688Y1446D02*
X1701Y1446D01*
X1838Y1446D02*
X1847Y1446D01*
X454Y1445D02*
X466Y1445D01*
X573Y1445D02*
X585Y1445D01*
X709Y1445D02*
X766Y1445D01*
X801Y1445D02*
X813Y1445D01*
X853Y1445D02*
X864Y1445D01*
X894Y1445D02*
X958Y1445D01*
X988Y1445D02*
X1000Y1445D01*
X1013Y1445D02*
X1025Y1445D01*
X1040Y1445D02*
X1052Y1445D01*
X1083Y1445D02*
X1096Y1445D01*
X1128Y1445D02*
X1142Y1445D01*
X1268Y1445D02*
X1280Y1445D01*
X1318Y1445D02*
X1330Y1445D01*
X1360Y1445D02*
X1372Y1445D01*
X1411Y1445D02*
X1423Y1445D01*
X1479Y1445D02*
X1491Y1445D01*
X1547Y1445D02*
X1559Y1445D01*
X1597Y1445D02*
X1609Y1445D01*
X1641Y1445D02*
X1655Y1445D01*
X1687Y1445D02*
X1701Y1445D01*
X1838Y1445D02*
X1847Y1445D01*
X454Y1444D02*
X466Y1444D01*
X573Y1444D02*
X585Y1444D01*
X709Y1444D02*
X767Y1444D01*
X801Y1444D02*
X813Y1444D01*
X853Y1444D02*
X864Y1444D01*
X894Y1444D02*
X958Y1444D01*
X988Y1444D02*
X1000Y1444D01*
X1013Y1444D02*
X1025Y1444D01*
X1040Y1444D02*
X1052Y1444D01*
X1083Y1444D02*
X1096Y1444D01*
X1128Y1444D02*
X1141Y1444D01*
X1268Y1444D02*
X1280Y1444D01*
X1318Y1444D02*
X1330Y1444D01*
X1360Y1444D02*
X1372Y1444D01*
X1411Y1444D02*
X1423Y1444D01*
X1479Y1444D02*
X1491Y1444D01*
X1547Y1444D02*
X1559Y1444D01*
X1597Y1444D02*
X1609Y1444D01*
X1642Y1444D02*
X1655Y1444D01*
X1687Y1444D02*
X1700Y1444D01*
X1838Y1444D02*
X1847Y1444D01*
X454Y1443D02*
X466Y1443D01*
X573Y1443D02*
X585Y1443D01*
X709Y1443D02*
X768Y1443D01*
X801Y1443D02*
X813Y1443D01*
X853Y1443D02*
X864Y1443D01*
X894Y1443D02*
X958Y1443D01*
X988Y1443D02*
X1000Y1443D01*
X1013Y1443D02*
X1025Y1443D01*
X1040Y1443D02*
X1052Y1443D01*
X1083Y1443D02*
X1097Y1443D01*
X1127Y1443D02*
X1141Y1443D01*
X1268Y1443D02*
X1280Y1443D01*
X1318Y1443D02*
X1330Y1443D01*
X1360Y1443D02*
X1372Y1443D01*
X1411Y1443D02*
X1423Y1443D01*
X1479Y1443D02*
X1491Y1443D01*
X1547Y1443D02*
X1559Y1443D01*
X1597Y1443D02*
X1609Y1443D01*
X1642Y1443D02*
X1656Y1443D01*
X1686Y1443D02*
X1700Y1443D01*
X1838Y1443D02*
X1847Y1443D01*
X454Y1442D02*
X466Y1442D01*
X573Y1442D02*
X585Y1442D01*
X709Y1442D02*
X768Y1442D01*
X801Y1442D02*
X813Y1442D01*
X853Y1442D02*
X864Y1442D01*
X894Y1442D02*
X958Y1442D01*
X988Y1442D02*
X1000Y1442D01*
X1013Y1442D02*
X1025Y1442D01*
X1040Y1442D02*
X1052Y1442D01*
X1084Y1442D02*
X1097Y1442D01*
X1127Y1442D02*
X1141Y1442D01*
X1268Y1442D02*
X1280Y1442D01*
X1318Y1442D02*
X1330Y1442D01*
X1360Y1442D02*
X1372Y1442D01*
X1411Y1442D02*
X1423Y1442D01*
X1479Y1442D02*
X1491Y1442D01*
X1547Y1442D02*
X1559Y1442D01*
X1597Y1442D02*
X1609Y1442D01*
X1643Y1442D02*
X1656Y1442D01*
X1686Y1442D02*
X1699Y1442D01*
X1838Y1442D02*
X1847Y1442D01*
X454Y1441D02*
X466Y1441D01*
X573Y1441D02*
X585Y1441D01*
X709Y1441D02*
X769Y1441D01*
X801Y1441D02*
X813Y1441D01*
X853Y1441D02*
X864Y1441D01*
X894Y1441D02*
X958Y1441D01*
X988Y1441D02*
X1000Y1441D01*
X1013Y1441D02*
X1025Y1441D01*
X1040Y1441D02*
X1052Y1441D01*
X1084Y1441D02*
X1098Y1441D01*
X1126Y1441D02*
X1140Y1441D01*
X1268Y1441D02*
X1280Y1441D01*
X1318Y1441D02*
X1330Y1441D01*
X1360Y1441D02*
X1372Y1441D01*
X1411Y1441D02*
X1423Y1441D01*
X1479Y1441D02*
X1491Y1441D01*
X1547Y1441D02*
X1559Y1441D01*
X1597Y1441D02*
X1609Y1441D01*
X1643Y1441D02*
X1657Y1441D01*
X1685Y1441D02*
X1699Y1441D01*
X1838Y1441D02*
X1847Y1441D01*
X454Y1440D02*
X466Y1440D01*
X573Y1440D02*
X585Y1440D01*
X709Y1440D02*
X770Y1440D01*
X801Y1440D02*
X813Y1440D01*
X853Y1440D02*
X864Y1440D01*
X894Y1440D02*
X958Y1440D01*
X987Y1440D02*
X999Y1440D01*
X1013Y1440D02*
X1025Y1440D01*
X1040Y1440D02*
X1052Y1440D01*
X1085Y1440D02*
X1098Y1440D01*
X1126Y1440D02*
X1140Y1440D01*
X1268Y1440D02*
X1280Y1440D01*
X1318Y1440D02*
X1330Y1440D01*
X1360Y1440D02*
X1372Y1440D01*
X1411Y1440D02*
X1423Y1440D01*
X1479Y1440D02*
X1491Y1440D01*
X1547Y1440D02*
X1559Y1440D01*
X1597Y1440D02*
X1609Y1440D01*
X1644Y1440D02*
X1657Y1440D01*
X1685Y1440D02*
X1698Y1440D01*
X1838Y1440D02*
X1847Y1440D01*
X454Y1439D02*
X466Y1439D01*
X573Y1439D02*
X585Y1439D01*
X709Y1439D02*
X770Y1439D01*
X801Y1439D02*
X813Y1439D01*
X853Y1439D02*
X864Y1439D01*
X894Y1439D02*
X958Y1439D01*
X987Y1439D02*
X999Y1439D01*
X1013Y1439D02*
X1025Y1439D01*
X1040Y1439D02*
X1052Y1439D01*
X1085Y1439D02*
X1099Y1439D01*
X1125Y1439D02*
X1139Y1439D01*
X1268Y1439D02*
X1280Y1439D01*
X1318Y1439D02*
X1330Y1439D01*
X1360Y1439D02*
X1372Y1439D01*
X1411Y1439D02*
X1423Y1439D01*
X1479Y1439D02*
X1491Y1439D01*
X1547Y1439D02*
X1559Y1439D01*
X1597Y1439D02*
X1609Y1439D01*
X1644Y1439D02*
X1658Y1439D01*
X1684Y1439D02*
X1698Y1439D01*
X1838Y1439D02*
X1847Y1439D01*
X454Y1438D02*
X466Y1438D01*
X573Y1438D02*
X585Y1438D01*
X709Y1438D02*
X726Y1438D01*
X755Y1438D02*
X770Y1438D01*
X801Y1438D02*
X813Y1438D01*
X853Y1438D02*
X864Y1438D01*
X894Y1438D02*
X958Y1438D01*
X987Y1438D02*
X999Y1438D01*
X1013Y1438D02*
X1025Y1438D01*
X1040Y1438D02*
X1052Y1438D01*
X1086Y1438D02*
X1099Y1438D01*
X1125Y1438D02*
X1139Y1438D01*
X1268Y1438D02*
X1280Y1438D01*
X1318Y1438D02*
X1330Y1438D01*
X1360Y1438D02*
X1372Y1438D01*
X1411Y1438D02*
X1423Y1438D01*
X1479Y1438D02*
X1491Y1438D01*
X1547Y1438D02*
X1559Y1438D01*
X1597Y1438D02*
X1609Y1438D01*
X1645Y1438D02*
X1658Y1438D01*
X1684Y1438D02*
X1697Y1438D01*
X1838Y1438D02*
X1847Y1438D01*
X454Y1437D02*
X466Y1437D01*
X573Y1437D02*
X585Y1437D01*
X709Y1437D02*
X724Y1437D01*
X756Y1437D02*
X771Y1437D01*
X801Y1437D02*
X814Y1437D01*
X853Y1437D02*
X864Y1437D01*
X895Y1437D02*
X958Y1437D01*
X987Y1437D02*
X999Y1437D01*
X1013Y1437D02*
X1025Y1437D01*
X1040Y1437D02*
X1052Y1437D01*
X1086Y1437D02*
X1100Y1437D01*
X1124Y1437D02*
X1138Y1437D01*
X1268Y1437D02*
X1280Y1437D01*
X1318Y1437D02*
X1330Y1437D01*
X1360Y1437D02*
X1372Y1437D01*
X1411Y1437D02*
X1423Y1437D01*
X1479Y1437D02*
X1491Y1437D01*
X1547Y1437D02*
X1559Y1437D01*
X1597Y1437D02*
X1609Y1437D01*
X1645Y1437D02*
X1659Y1437D01*
X1683Y1437D02*
X1697Y1437D01*
X1838Y1437D02*
X1847Y1437D01*
X454Y1436D02*
X466Y1436D01*
X573Y1436D02*
X585Y1436D01*
X709Y1436D02*
X723Y1436D01*
X758Y1436D02*
X771Y1436D01*
X801Y1436D02*
X814Y1436D01*
X853Y1436D02*
X864Y1436D01*
X895Y1436D02*
X958Y1436D01*
X987Y1436D02*
X999Y1436D01*
X1013Y1436D02*
X1025Y1436D01*
X1040Y1436D02*
X1052Y1436D01*
X1087Y1436D02*
X1100Y1436D01*
X1124Y1436D02*
X1138Y1436D01*
X1268Y1436D02*
X1280Y1436D01*
X1318Y1436D02*
X1330Y1436D01*
X1360Y1436D02*
X1372Y1436D01*
X1411Y1436D02*
X1423Y1436D01*
X1479Y1436D02*
X1491Y1436D01*
X1547Y1436D02*
X1559Y1436D01*
X1597Y1436D02*
X1609Y1436D01*
X1646Y1436D02*
X1659Y1436D01*
X1683Y1436D02*
X1696Y1436D01*
X1838Y1436D02*
X1847Y1436D01*
X454Y1435D02*
X466Y1435D01*
X573Y1435D02*
X585Y1435D01*
X709Y1435D02*
X722Y1435D01*
X758Y1435D02*
X771Y1435D01*
X801Y1435D02*
X815Y1435D01*
X853Y1435D02*
X864Y1435D01*
X896Y1435D02*
X958Y1435D01*
X987Y1435D02*
X999Y1435D01*
X1013Y1435D02*
X1025Y1435D01*
X1040Y1435D02*
X1052Y1435D01*
X1087Y1435D02*
X1101Y1435D01*
X1123Y1435D02*
X1137Y1435D01*
X1268Y1435D02*
X1280Y1435D01*
X1318Y1435D02*
X1330Y1435D01*
X1360Y1435D02*
X1372Y1435D01*
X1411Y1435D02*
X1423Y1435D01*
X1479Y1435D02*
X1491Y1435D01*
X1547Y1435D02*
X1559Y1435D01*
X1597Y1435D02*
X1609Y1435D01*
X1646Y1435D02*
X1660Y1435D01*
X1682Y1435D02*
X1696Y1435D01*
X1838Y1435D02*
X1847Y1435D01*
X454Y1434D02*
X466Y1434D01*
X573Y1434D02*
X585Y1434D01*
X709Y1434D02*
X721Y1434D01*
X759Y1434D02*
X771Y1434D01*
X801Y1434D02*
X816Y1434D01*
X853Y1434D02*
X864Y1434D01*
X897Y1434D02*
X958Y1434D01*
X987Y1434D02*
X999Y1434D01*
X1013Y1434D02*
X1025Y1434D01*
X1040Y1434D02*
X1052Y1434D01*
X1088Y1434D02*
X1101Y1434D01*
X1123Y1434D02*
X1137Y1434D01*
X1268Y1434D02*
X1280Y1434D01*
X1318Y1434D02*
X1330Y1434D01*
X1360Y1434D02*
X1372Y1434D01*
X1411Y1434D02*
X1423Y1434D01*
X1479Y1434D02*
X1491Y1434D01*
X1547Y1434D02*
X1559Y1434D01*
X1597Y1434D02*
X1609Y1434D01*
X1647Y1434D02*
X1660Y1434D01*
X1682Y1434D02*
X1695Y1434D01*
X1838Y1434D02*
X1847Y1434D01*
X454Y1433D02*
X466Y1433D01*
X573Y1433D02*
X585Y1433D01*
X709Y1433D02*
X721Y1433D01*
X759Y1433D02*
X771Y1433D01*
X801Y1433D02*
X818Y1433D01*
X852Y1433D02*
X864Y1433D01*
X899Y1433D02*
X958Y1433D01*
X987Y1433D02*
X999Y1433D01*
X1013Y1433D02*
X1025Y1433D01*
X1040Y1433D02*
X1052Y1433D01*
X1088Y1433D02*
X1102Y1433D01*
X1122Y1433D02*
X1136Y1433D01*
X1268Y1433D02*
X1280Y1433D01*
X1318Y1433D02*
X1330Y1433D01*
X1360Y1433D02*
X1372Y1433D01*
X1411Y1433D02*
X1423Y1433D01*
X1479Y1433D02*
X1491Y1433D01*
X1547Y1433D02*
X1559Y1433D01*
X1597Y1433D02*
X1609Y1433D01*
X1647Y1433D02*
X1661Y1433D01*
X1681Y1433D02*
X1695Y1433D01*
X1838Y1433D02*
X1847Y1433D01*
X454Y1432D02*
X466Y1432D01*
X573Y1432D02*
X585Y1432D01*
X709Y1432D02*
X721Y1432D01*
X759Y1432D02*
X771Y1432D01*
X801Y1432D02*
X819Y1432D01*
X852Y1432D02*
X864Y1432D01*
X946Y1432D02*
X958Y1432D01*
X987Y1432D02*
X999Y1432D01*
X1013Y1432D02*
X1025Y1432D01*
X1040Y1432D02*
X1052Y1432D01*
X1089Y1432D02*
X1102Y1432D01*
X1122Y1432D02*
X1136Y1432D01*
X1267Y1432D02*
X1279Y1432D01*
X1318Y1432D02*
X1330Y1432D01*
X1360Y1432D02*
X1372Y1432D01*
X1411Y1432D02*
X1423Y1432D01*
X1479Y1432D02*
X1491Y1432D01*
X1547Y1432D02*
X1559Y1432D01*
X1597Y1432D02*
X1609Y1432D01*
X1648Y1432D02*
X1661Y1432D01*
X1681Y1432D02*
X1694Y1432D01*
X1838Y1432D02*
X1847Y1432D01*
X454Y1431D02*
X466Y1431D01*
X573Y1431D02*
X585Y1431D01*
X709Y1431D02*
X721Y1431D01*
X759Y1431D02*
X771Y1431D01*
X801Y1431D02*
X820Y1431D01*
X852Y1431D02*
X864Y1431D01*
X946Y1431D02*
X958Y1431D01*
X987Y1431D02*
X999Y1431D01*
X1013Y1431D02*
X1025Y1431D01*
X1040Y1431D02*
X1052Y1431D01*
X1089Y1431D02*
X1103Y1431D01*
X1121Y1431D02*
X1135Y1431D01*
X1267Y1431D02*
X1279Y1431D01*
X1318Y1431D02*
X1330Y1431D01*
X1360Y1431D02*
X1372Y1431D01*
X1411Y1431D02*
X1423Y1431D01*
X1479Y1431D02*
X1491Y1431D01*
X1547Y1431D02*
X1559Y1431D01*
X1597Y1431D02*
X1609Y1431D01*
X1648Y1431D02*
X1662Y1431D01*
X1680Y1431D02*
X1694Y1431D01*
X1838Y1431D02*
X1847Y1431D01*
X454Y1430D02*
X466Y1430D01*
X573Y1430D02*
X585Y1430D01*
X709Y1430D02*
X721Y1430D01*
X759Y1430D02*
X771Y1430D01*
X801Y1430D02*
X821Y1430D01*
X851Y1430D02*
X864Y1430D01*
X946Y1430D02*
X958Y1430D01*
X987Y1430D02*
X999Y1430D01*
X1013Y1430D02*
X1025Y1430D01*
X1040Y1430D02*
X1052Y1430D01*
X1090Y1430D02*
X1103Y1430D01*
X1121Y1430D02*
X1135Y1430D01*
X1267Y1430D02*
X1279Y1430D01*
X1318Y1430D02*
X1330Y1430D01*
X1360Y1430D02*
X1372Y1430D01*
X1411Y1430D02*
X1423Y1430D01*
X1479Y1430D02*
X1491Y1430D01*
X1547Y1430D02*
X1559Y1430D01*
X1597Y1430D02*
X1609Y1430D01*
X1649Y1430D02*
X1662Y1430D01*
X1680Y1430D02*
X1693Y1430D01*
X1838Y1430D02*
X1847Y1430D01*
X454Y1429D02*
X466Y1429D01*
X573Y1429D02*
X585Y1429D01*
X709Y1429D02*
X721Y1429D01*
X759Y1429D02*
X771Y1429D01*
X801Y1429D02*
X822Y1429D01*
X850Y1429D02*
X864Y1429D01*
X946Y1429D02*
X958Y1429D01*
X987Y1429D02*
X999Y1429D01*
X1013Y1429D02*
X1025Y1429D01*
X1040Y1429D02*
X1052Y1429D01*
X1090Y1429D02*
X1104Y1429D01*
X1120Y1429D02*
X1134Y1429D01*
X1267Y1429D02*
X1279Y1429D01*
X1318Y1429D02*
X1330Y1429D01*
X1360Y1429D02*
X1372Y1429D01*
X1411Y1429D02*
X1423Y1429D01*
X1479Y1429D02*
X1491Y1429D01*
X1547Y1429D02*
X1559Y1429D01*
X1597Y1429D02*
X1609Y1429D01*
X1649Y1429D02*
X1663Y1429D01*
X1679Y1429D02*
X1693Y1429D01*
X1838Y1429D02*
X1847Y1429D01*
X455Y1428D02*
X466Y1428D01*
X573Y1428D02*
X585Y1428D01*
X709Y1428D02*
X721Y1428D01*
X759Y1428D02*
X771Y1428D01*
X801Y1428D02*
X823Y1428D01*
X849Y1428D02*
X863Y1428D01*
X945Y1428D02*
X958Y1428D01*
X987Y1428D02*
X999Y1428D01*
X1013Y1428D02*
X1025Y1428D01*
X1040Y1428D02*
X1052Y1428D01*
X1091Y1428D02*
X1104Y1428D01*
X1120Y1428D02*
X1134Y1428D01*
X1267Y1428D02*
X1279Y1428D01*
X1318Y1428D02*
X1330Y1428D01*
X1360Y1428D02*
X1372Y1428D01*
X1411Y1428D02*
X1423Y1428D01*
X1479Y1428D02*
X1491Y1428D01*
X1547Y1428D02*
X1559Y1428D01*
X1597Y1428D02*
X1609Y1428D01*
X1650Y1428D02*
X1663Y1428D01*
X1679Y1428D02*
X1692Y1428D01*
X1838Y1428D02*
X1847Y1428D01*
X455Y1427D02*
X466Y1427D01*
X573Y1427D02*
X585Y1427D01*
X708Y1427D02*
X721Y1427D01*
X759Y1427D02*
X771Y1427D01*
X801Y1427D02*
X825Y1427D01*
X848Y1427D02*
X863Y1427D01*
X945Y1427D02*
X958Y1427D01*
X987Y1427D02*
X999Y1427D01*
X1013Y1427D02*
X1025Y1427D01*
X1040Y1427D02*
X1052Y1427D01*
X1091Y1427D02*
X1105Y1427D01*
X1119Y1427D02*
X1133Y1427D01*
X1267Y1427D02*
X1279Y1427D01*
X1318Y1427D02*
X1330Y1427D01*
X1360Y1427D02*
X1372Y1427D01*
X1411Y1427D02*
X1423Y1427D01*
X1479Y1427D02*
X1491Y1427D01*
X1547Y1427D02*
X1559Y1427D01*
X1597Y1427D02*
X1609Y1427D01*
X1650Y1427D02*
X1664Y1427D01*
X1678Y1427D02*
X1692Y1427D01*
X1838Y1427D02*
X1847Y1427D01*
X456Y1426D02*
X465Y1426D01*
X573Y1426D02*
X585Y1426D01*
X708Y1426D02*
X722Y1426D01*
X759Y1426D02*
X771Y1426D01*
X801Y1426D02*
X826Y1426D01*
X847Y1426D02*
X863Y1426D01*
X945Y1426D02*
X957Y1426D01*
X987Y1426D02*
X999Y1426D01*
X1013Y1426D02*
X1025Y1426D01*
X1040Y1426D02*
X1052Y1426D01*
X1092Y1426D02*
X1105Y1426D01*
X1119Y1426D02*
X1133Y1426D01*
X1267Y1426D02*
X1279Y1426D01*
X1318Y1426D02*
X1330Y1426D01*
X1360Y1426D02*
X1372Y1426D01*
X1411Y1426D02*
X1423Y1426D01*
X1479Y1426D02*
X1491Y1426D01*
X1547Y1426D02*
X1559Y1426D01*
X1597Y1426D02*
X1609Y1426D01*
X1651Y1426D02*
X1664Y1426D01*
X1678Y1426D02*
X1691Y1426D01*
X1838Y1426D02*
X1847Y1426D01*
X457Y1425D02*
X464Y1425D01*
X573Y1425D02*
X585Y1425D01*
X708Y1425D02*
X723Y1425D01*
X759Y1425D02*
X771Y1425D01*
X801Y1425D02*
X827Y1425D01*
X846Y1425D02*
X862Y1425D01*
X944Y1425D02*
X957Y1425D01*
X987Y1425D02*
X999Y1425D01*
X1013Y1425D02*
X1025Y1425D01*
X1040Y1425D02*
X1052Y1425D01*
X1092Y1425D02*
X1106Y1425D01*
X1118Y1425D02*
X1132Y1425D01*
X1267Y1425D02*
X1279Y1425D01*
X1318Y1425D02*
X1330Y1425D01*
X1360Y1425D02*
X1373Y1425D01*
X1410Y1425D02*
X1423Y1425D01*
X1479Y1425D02*
X1491Y1425D01*
X1547Y1425D02*
X1559Y1425D01*
X1597Y1425D02*
X1609Y1425D01*
X1651Y1425D02*
X1665Y1425D01*
X1677Y1425D02*
X1691Y1425D01*
X1838Y1425D02*
X1847Y1425D01*
X458Y1424D02*
X462Y1424D01*
X573Y1424D02*
X585Y1424D01*
X708Y1424D02*
X725Y1424D01*
X759Y1424D02*
X771Y1424D01*
X801Y1424D02*
X829Y1424D01*
X843Y1424D02*
X862Y1424D01*
X944Y1424D02*
X957Y1424D01*
X987Y1424D02*
X999Y1424D01*
X1013Y1424D02*
X1025Y1424D01*
X1040Y1424D02*
X1052Y1424D01*
X1093Y1424D02*
X1106Y1424D01*
X1118Y1424D02*
X1132Y1424D01*
X1267Y1424D02*
X1279Y1424D01*
X1318Y1424D02*
X1330Y1424D01*
X1360Y1424D02*
X1374Y1424D01*
X1409Y1424D02*
X1423Y1424D01*
X1479Y1424D02*
X1491Y1424D01*
X1547Y1424D02*
X1559Y1424D01*
X1597Y1424D02*
X1609Y1424D01*
X1652Y1424D02*
X1665Y1424D01*
X1677Y1424D02*
X1690Y1424D01*
X1838Y1424D02*
X1847Y1424D01*
X573Y1423D02*
X585Y1423D01*
X708Y1423D02*
X727Y1423D01*
X759Y1423D02*
X771Y1423D01*
X801Y1423D02*
X861Y1423D01*
X943Y1423D02*
X957Y1423D01*
X987Y1423D02*
X999Y1423D01*
X1013Y1423D02*
X1025Y1423D01*
X1040Y1423D02*
X1052Y1423D01*
X1093Y1423D02*
X1107Y1423D01*
X1117Y1423D02*
X1131Y1423D01*
X1267Y1423D02*
X1279Y1423D01*
X1318Y1423D02*
X1330Y1423D01*
X1361Y1423D02*
X1375Y1423D01*
X1408Y1423D02*
X1422Y1423D01*
X1479Y1423D02*
X1491Y1423D01*
X1547Y1423D02*
X1559Y1423D01*
X1597Y1423D02*
X1609Y1423D01*
X1652Y1423D02*
X1666Y1423D01*
X1676Y1423D02*
X1690Y1423D01*
X1838Y1423D02*
X1847Y1423D01*
X573Y1422D02*
X585Y1422D01*
X708Y1422D02*
X728Y1422D01*
X759Y1422D02*
X771Y1422D01*
X801Y1422D02*
X860Y1422D01*
X941Y1422D02*
X956Y1422D01*
X987Y1422D02*
X999Y1422D01*
X1013Y1422D02*
X1025Y1422D01*
X1040Y1422D02*
X1052Y1422D01*
X1094Y1422D02*
X1107Y1422D01*
X1117Y1422D02*
X1131Y1422D01*
X1267Y1422D02*
X1279Y1422D01*
X1318Y1422D02*
X1330Y1422D01*
X1361Y1422D02*
X1376Y1422D01*
X1407Y1422D02*
X1422Y1422D01*
X1479Y1422D02*
X1491Y1422D01*
X1547Y1422D02*
X1558Y1422D01*
X1597Y1422D02*
X1609Y1422D01*
X1653Y1422D02*
X1666Y1422D01*
X1676Y1422D02*
X1689Y1422D01*
X1838Y1422D02*
X1847Y1422D01*
X573Y1421D02*
X585Y1421D01*
X708Y1421D02*
X730Y1421D01*
X758Y1421D02*
X771Y1421D01*
X801Y1421D02*
X859Y1421D01*
X940Y1421D02*
X956Y1421D01*
X987Y1421D02*
X999Y1421D01*
X1013Y1421D02*
X1025Y1421D01*
X1040Y1421D02*
X1052Y1421D01*
X1094Y1421D02*
X1108Y1421D01*
X1116Y1421D02*
X1130Y1421D01*
X1267Y1421D02*
X1279Y1421D01*
X1318Y1421D02*
X1330Y1421D01*
X1361Y1421D02*
X1377Y1421D01*
X1406Y1421D02*
X1422Y1421D01*
X1479Y1421D02*
X1491Y1421D01*
X1546Y1421D02*
X1558Y1421D01*
X1597Y1421D02*
X1609Y1421D01*
X1653Y1421D02*
X1667Y1421D01*
X1675Y1421D02*
X1689Y1421D01*
X1838Y1421D02*
X1847Y1421D01*
X573Y1420D02*
X585Y1420D01*
X708Y1420D02*
X732Y1420D01*
X757Y1420D02*
X771Y1420D01*
X801Y1420D02*
X858Y1420D01*
X939Y1420D02*
X956Y1420D01*
X987Y1420D02*
X999Y1420D01*
X1013Y1420D02*
X1025Y1420D01*
X1040Y1420D02*
X1052Y1420D01*
X1095Y1420D02*
X1108Y1420D01*
X1116Y1420D02*
X1130Y1420D01*
X1267Y1420D02*
X1279Y1420D01*
X1318Y1420D02*
X1330Y1420D01*
X1362Y1420D02*
X1378Y1420D01*
X1404Y1420D02*
X1421Y1420D01*
X1479Y1420D02*
X1491Y1420D01*
X1546Y1420D02*
X1558Y1420D01*
X1597Y1420D02*
X1609Y1420D01*
X1654Y1420D02*
X1667Y1420D01*
X1675Y1420D02*
X1688Y1420D01*
X1838Y1420D02*
X1847Y1420D01*
X573Y1419D02*
X585Y1419D01*
X708Y1419D02*
X733Y1419D01*
X756Y1419D02*
X770Y1419D01*
X801Y1419D02*
X813Y1419D01*
X815Y1419D02*
X857Y1419D01*
X937Y1419D02*
X955Y1419D01*
X987Y1419D02*
X999Y1419D01*
X1013Y1419D02*
X1025Y1419D01*
X1040Y1419D02*
X1052Y1419D01*
X1095Y1419D02*
X1109Y1419D01*
X1115Y1419D02*
X1129Y1419D01*
X1267Y1419D02*
X1279Y1419D01*
X1318Y1419D02*
X1330Y1419D01*
X1362Y1419D02*
X1380Y1419D01*
X1403Y1419D02*
X1421Y1419D01*
X1479Y1419D02*
X1491Y1419D01*
X1546Y1419D02*
X1558Y1419D01*
X1597Y1419D02*
X1609Y1419D01*
X1654Y1419D02*
X1668Y1419D01*
X1674Y1419D02*
X1688Y1419D01*
X1838Y1419D02*
X1847Y1419D01*
X526Y1418D02*
X585Y1418D01*
X708Y1418D02*
X770Y1418D01*
X801Y1418D02*
X813Y1418D01*
X816Y1418D02*
X856Y1418D01*
X899Y1418D02*
X954Y1418D01*
X987Y1418D02*
X999Y1418D01*
X1013Y1418D02*
X1025Y1418D01*
X1040Y1418D02*
X1052Y1418D01*
X1096Y1418D02*
X1129Y1418D01*
X1267Y1418D02*
X1279Y1418D01*
X1318Y1418D02*
X1330Y1418D01*
X1363Y1418D02*
X1420Y1418D01*
X1464Y1418D02*
X1505Y1418D01*
X1546Y1418D02*
X1558Y1418D01*
X1597Y1418D02*
X1609Y1418D01*
X1655Y1418D02*
X1687Y1418D01*
X1838Y1418D02*
X1847Y1418D01*
X525Y1417D02*
X585Y1417D01*
X708Y1417D02*
X770Y1417D01*
X801Y1417D02*
X813Y1417D01*
X817Y1417D02*
X855Y1417D01*
X897Y1417D02*
X954Y1417D01*
X987Y1417D02*
X999Y1417D01*
X1013Y1417D02*
X1025Y1417D01*
X1040Y1417D02*
X1052Y1417D01*
X1096Y1417D02*
X1128Y1417D01*
X1267Y1417D02*
X1279Y1417D01*
X1318Y1417D02*
X1330Y1417D01*
X1364Y1417D02*
X1419Y1417D01*
X1462Y1417D02*
X1507Y1417D01*
X1546Y1417D02*
X1558Y1417D01*
X1597Y1417D02*
X1609Y1417D01*
X1655Y1417D02*
X1687Y1417D01*
X1838Y1417D02*
X1847Y1417D01*
X523Y1416D02*
X585Y1416D01*
X708Y1416D02*
X769Y1416D01*
X801Y1416D02*
X813Y1416D01*
X818Y1416D02*
X854Y1416D01*
X896Y1416D02*
X953Y1416D01*
X987Y1416D02*
X999Y1416D01*
X1013Y1416D02*
X1025Y1416D01*
X1040Y1416D02*
X1052Y1416D01*
X1097Y1416D02*
X1128Y1416D01*
X1267Y1416D02*
X1279Y1416D01*
X1318Y1416D02*
X1330Y1416D01*
X1365Y1416D02*
X1419Y1416D01*
X1461Y1416D02*
X1508Y1416D01*
X1546Y1416D02*
X1558Y1416D01*
X1597Y1416D02*
X1609Y1416D01*
X1656Y1416D02*
X1686Y1416D01*
X1838Y1416D02*
X1847Y1416D01*
X523Y1415D02*
X585Y1415D01*
X708Y1415D02*
X769Y1415D01*
X801Y1415D02*
X813Y1415D01*
X819Y1415D02*
X852Y1415D01*
X895Y1415D02*
X952Y1415D01*
X987Y1415D02*
X999Y1415D01*
X1013Y1415D02*
X1025Y1415D01*
X1040Y1415D02*
X1052Y1415D01*
X1097Y1415D02*
X1127Y1415D01*
X1267Y1415D02*
X1279Y1415D01*
X1318Y1415D02*
X1330Y1415D01*
X1366Y1415D02*
X1418Y1415D01*
X1460Y1415D02*
X1509Y1415D01*
X1546Y1415D02*
X1558Y1415D01*
X1597Y1415D02*
X1609Y1415D01*
X1656Y1415D02*
X1686Y1415D01*
X1838Y1415D02*
X1847Y1415D01*
X522Y1414D02*
X585Y1414D01*
X708Y1414D02*
X768Y1414D01*
X801Y1414D02*
X813Y1414D01*
X821Y1414D02*
X851Y1414D01*
X895Y1414D02*
X951Y1414D01*
X986Y1414D02*
X999Y1414D01*
X1013Y1414D02*
X1025Y1414D01*
X1040Y1414D02*
X1052Y1414D01*
X1098Y1414D02*
X1127Y1414D01*
X1267Y1414D02*
X1279Y1414D01*
X1318Y1414D02*
X1330Y1414D01*
X1367Y1414D02*
X1417Y1414D01*
X1460Y1414D02*
X1510Y1414D01*
X1546Y1414D02*
X1558Y1414D01*
X1597Y1414D02*
X1609Y1414D01*
X1657Y1414D02*
X1685Y1414D01*
X1838Y1414D02*
X1847Y1414D01*
X522Y1413D02*
X585Y1413D01*
X708Y1413D02*
X767Y1413D01*
X801Y1413D02*
X813Y1413D01*
X823Y1413D02*
X849Y1413D01*
X894Y1413D02*
X950Y1413D01*
X986Y1413D02*
X999Y1413D01*
X1013Y1413D02*
X1025Y1413D01*
X1040Y1413D02*
X1052Y1413D01*
X1098Y1413D02*
X1126Y1413D01*
X1267Y1413D02*
X1279Y1413D01*
X1318Y1413D02*
X1330Y1413D01*
X1368Y1413D02*
X1415Y1413D01*
X1460Y1413D02*
X1510Y1413D01*
X1546Y1413D02*
X1558Y1413D01*
X1597Y1413D02*
X1609Y1413D01*
X1657Y1413D02*
X1685Y1413D01*
X1838Y1413D02*
X1847Y1413D01*
X522Y1412D02*
X585Y1412D01*
X708Y1412D02*
X767Y1412D01*
X801Y1412D02*
X813Y1412D01*
X825Y1412D02*
X848Y1412D01*
X894Y1412D02*
X949Y1412D01*
X986Y1412D02*
X998Y1412D01*
X1013Y1412D02*
X1025Y1412D01*
X1040Y1412D02*
X1052Y1412D01*
X1099Y1412D02*
X1125Y1412D01*
X1267Y1412D02*
X1279Y1412D01*
X1318Y1412D02*
X1330Y1412D01*
X1369Y1412D02*
X1414Y1412D01*
X1459Y1412D02*
X1510Y1412D01*
X1546Y1412D02*
X1558Y1412D01*
X1597Y1412D02*
X1609Y1412D01*
X1658Y1412D02*
X1684Y1412D01*
X1838Y1412D02*
X1847Y1412D01*
X522Y1411D02*
X585Y1411D01*
X708Y1411D02*
X720Y1411D01*
X722Y1411D02*
X766Y1411D01*
X801Y1411D02*
X813Y1411D01*
X829Y1411D02*
X844Y1411D01*
X894Y1411D02*
X948Y1411D01*
X986Y1411D02*
X998Y1411D01*
X1013Y1411D02*
X1025Y1411D01*
X1040Y1411D02*
X1052Y1411D01*
X1100Y1411D02*
X1124Y1411D01*
X1267Y1411D02*
X1279Y1411D01*
X1318Y1411D02*
X1330Y1411D01*
X1370Y1411D02*
X1413Y1411D01*
X1459Y1411D02*
X1510Y1411D01*
X1546Y1411D02*
X1558Y1411D01*
X1597Y1411D02*
X1609Y1411D01*
X1659Y1411D02*
X1683Y1411D01*
X1838Y1411D02*
X1847Y1411D01*
X522Y1410D02*
X585Y1410D01*
X708Y1410D02*
X720Y1410D01*
X724Y1410D02*
X765Y1410D01*
X801Y1410D02*
X813Y1410D01*
X894Y1410D02*
X946Y1410D01*
X987Y1410D02*
X998Y1410D01*
X1013Y1410D02*
X1025Y1410D01*
X1040Y1410D02*
X1051Y1410D01*
X1101Y1410D02*
X1123Y1410D01*
X1267Y1410D02*
X1279Y1410D01*
X1318Y1410D02*
X1330Y1410D01*
X1371Y1410D02*
X1412Y1410D01*
X1460Y1410D02*
X1510Y1410D01*
X1546Y1410D02*
X1558Y1410D01*
X1598Y1410D02*
X1609Y1410D01*
X1660Y1410D02*
X1682Y1410D01*
X1838Y1410D02*
X1847Y1410D01*
X522Y1409D02*
X585Y1409D01*
X709Y1409D02*
X719Y1409D01*
X726Y1409D02*
X763Y1409D01*
X801Y1409D02*
X813Y1409D01*
X895Y1409D02*
X945Y1409D01*
X987Y1409D02*
X998Y1409D01*
X1014Y1409D02*
X1024Y1409D01*
X1040Y1409D02*
X1051Y1409D01*
X1102Y1409D02*
X1122Y1409D01*
X1268Y1409D02*
X1278Y1409D01*
X1319Y1409D02*
X1329Y1409D01*
X1373Y1409D02*
X1410Y1409D01*
X1460Y1409D02*
X1509Y1409D01*
X1547Y1409D02*
X1557Y1409D01*
X1598Y1409D02*
X1609Y1409D01*
X1661Y1409D02*
X1681Y1409D01*
X1838Y1409D02*
X1847Y1409D01*
X523Y1408D02*
X585Y1408D01*
X709Y1408D02*
X719Y1408D01*
X727Y1408D02*
X762Y1408D01*
X801Y1408D02*
X813Y1408D01*
X896Y1408D02*
X944Y1408D01*
X988Y1408D02*
X997Y1408D01*
X1014Y1408D02*
X1024Y1408D01*
X1041Y1408D02*
X1050Y1408D01*
X1104Y1408D02*
X1121Y1408D01*
X1268Y1408D02*
X1277Y1408D01*
X1319Y1408D02*
X1329Y1408D01*
X1374Y1408D02*
X1409Y1408D01*
X1461Y1408D02*
X1509Y1408D01*
X1548Y1408D02*
X1557Y1408D01*
X1599Y1408D02*
X1608Y1408D01*
X1662Y1408D02*
X1680Y1408D01*
X1838Y1408D02*
X1847Y1408D01*
X524Y1407D02*
X585Y1407D01*
X710Y1407D02*
X718Y1407D01*
X729Y1407D02*
X760Y1407D01*
X801Y1407D02*
X813Y1407D01*
X896Y1407D02*
X942Y1407D01*
X989Y1407D02*
X996Y1407D01*
X1015Y1407D02*
X1023Y1407D01*
X1042Y1407D02*
X1050Y1407D01*
X1105Y1407D02*
X1119Y1407D01*
X1269Y1407D02*
X1277Y1407D01*
X1320Y1407D02*
X1328Y1407D01*
X1376Y1407D02*
X1407Y1407D01*
X1462Y1407D02*
X1508Y1407D01*
X1548Y1407D02*
X1556Y1407D01*
X1600Y1407D02*
X1607Y1407D01*
X1664Y1407D02*
X1678Y1407D01*
X1838Y1407D02*
X1847Y1407D01*
X525Y1406D02*
X585Y1406D01*
X712Y1406D02*
X716Y1406D01*
X731Y1406D02*
X757Y1406D01*
X801Y1406D02*
X813Y1406D01*
X898Y1406D02*
X939Y1406D01*
X990Y1406D02*
X995Y1406D01*
X1017Y1406D02*
X1021Y1406D01*
X1043Y1406D02*
X1048Y1406D01*
X1108Y1406D02*
X1117Y1406D01*
X1270Y1406D02*
X1275Y1406D01*
X1322Y1406D02*
X1327Y1406D01*
X1379Y1406D02*
X1404Y1406D01*
X1463Y1406D02*
X1506Y1406D01*
X1550Y1406D02*
X1555Y1406D01*
X1601Y1406D02*
X1606Y1406D01*
X1666Y1406D02*
X1675Y1406D01*
X1838Y1406D02*
X1847Y1406D01*
X801Y1405D02*
X813Y1405D01*
X1838Y1405D02*
X1847Y1405D01*
X801Y1404D02*
X813Y1404D01*
X1838Y1404D02*
X1847Y1404D01*
X801Y1403D02*
X813Y1403D01*
X1838Y1403D02*
X1847Y1403D01*
X801Y1402D02*
X813Y1402D01*
X1838Y1402D02*
X1847Y1402D01*
X801Y1401D02*
X813Y1401D01*
X1838Y1401D02*
X1847Y1401D01*
X801Y1400D02*
X813Y1400D01*
X1838Y1400D02*
X1847Y1400D01*
X801Y1399D02*
X814Y1399D01*
X1838Y1399D02*
X1847Y1399D01*
X801Y1398D02*
X814Y1398D01*
X1838Y1398D02*
X1847Y1398D01*
X801Y1397D02*
X815Y1397D01*
X1838Y1397D02*
X1847Y1397D01*
X802Y1396D02*
X816Y1396D01*
X1838Y1396D02*
X1847Y1396D01*
X802Y1395D02*
X817Y1395D01*
X1838Y1395D02*
X1847Y1395D01*
X803Y1394D02*
X818Y1394D01*
X1838Y1394D02*
X1847Y1394D01*
X803Y1393D02*
X819Y1393D01*
X1838Y1393D02*
X1847Y1393D01*
X804Y1392D02*
X821Y1392D01*
X1838Y1392D02*
X1847Y1392D01*
X804Y1391D02*
X823Y1391D01*
X1838Y1391D02*
X1847Y1391D01*
X805Y1390D02*
X855Y1390D01*
X1838Y1390D02*
X1847Y1390D01*
X806Y1389D02*
X856Y1389D01*
X1838Y1389D02*
X1847Y1389D01*
X807Y1388D02*
X857Y1388D01*
X1838Y1388D02*
X1847Y1388D01*
X808Y1387D02*
X858Y1387D01*
X1838Y1387D02*
X1847Y1387D01*
X809Y1386D02*
X858Y1386D01*
X1838Y1386D02*
X1847Y1386D01*
X810Y1385D02*
X858Y1385D01*
X1838Y1385D02*
X1847Y1385D01*
X811Y1384D02*
X858Y1384D01*
X1838Y1384D02*
X1847Y1384D01*
X812Y1383D02*
X858Y1383D01*
X1838Y1383D02*
X1847Y1383D01*
X813Y1382D02*
X858Y1382D01*
X1838Y1382D02*
X1847Y1382D01*
X815Y1381D02*
X857Y1381D01*
X1838Y1381D02*
X1847Y1381D01*
X816Y1380D02*
X856Y1380D01*
X1838Y1380D02*
X1847Y1380D01*
X819Y1379D02*
X855Y1379D01*
X1838Y1379D02*
X1847Y1379D01*
X823Y1378D02*
X853Y1378D01*
X1838Y1378D02*
X1847Y1378D01*
X1838Y1377D02*
X1847Y1377D01*
X1838Y1376D02*
X1847Y1376D01*
X1838Y1375D02*
X1847Y1375D01*
X1838Y1374D02*
X1847Y1374D01*
X1838Y1373D02*
X1847Y1373D01*
X1838Y1372D02*
X1847Y1372D01*
X1838Y1371D02*
X1847Y1371D01*
X1838Y1370D02*
X1847Y1370D01*
X1838Y1369D02*
X1847Y1369D01*
X1838Y1368D02*
X1847Y1368D01*
X1838Y1367D02*
X1847Y1367D01*
X1838Y1366D02*
X1847Y1366D01*
X1838Y1365D02*
X1847Y1365D01*
X1838Y1364D02*
X1838Y1364D01*
X1847Y1364D02*
X1847Y1364D01*
X1838Y1263D02*
X1847Y1263D01*
X1838Y1262D02*
X1847Y1262D01*
X1838Y1261D02*
X1847Y1261D01*
X1838Y1260D02*
X1847Y1260D01*
X1838Y1259D02*
X1847Y1259D01*
X1838Y1258D02*
X1847Y1258D01*
X1838Y1257D02*
X1847Y1257D01*
X1838Y1256D02*
X1847Y1256D01*
X1838Y1255D02*
X1847Y1255D01*
X1838Y1254D02*
X1847Y1254D01*
X1838Y1253D02*
X1847Y1253D01*
X1838Y1252D02*
X1847Y1252D01*
X1838Y1251D02*
X1847Y1251D01*
X1838Y1250D02*
X1847Y1250D01*
X1838Y1249D02*
X1847Y1249D01*
X1838Y1248D02*
X1847Y1248D01*
X1838Y1247D02*
X1847Y1247D01*
X1838Y1246D02*
X1847Y1246D01*
X1838Y1245D02*
X1847Y1245D01*
X1838Y1244D02*
X1847Y1244D01*
X1838Y1243D02*
X1847Y1243D01*
X1838Y1242D02*
X1847Y1242D01*
X1838Y1241D02*
X1847Y1241D01*
X1838Y1240D02*
X1847Y1240D01*
X1838Y1239D02*
X1847Y1239D01*
X1838Y1238D02*
X1847Y1238D01*
X1838Y1237D02*
X1847Y1237D01*
X1838Y1236D02*
X1847Y1236D01*
X1838Y1235D02*
X1847Y1235D01*
X1838Y1234D02*
X1847Y1234D01*
X1838Y1233D02*
X1847Y1233D01*
X1838Y1232D02*
X1847Y1232D01*
X1838Y1231D02*
X1847Y1231D01*
X1838Y1230D02*
X1847Y1230D01*
X1838Y1229D02*
X1847Y1229D01*
X1838Y1228D02*
X1847Y1228D01*
X1838Y1227D02*
X1847Y1227D01*
X1838Y1226D02*
X1847Y1226D01*
X1838Y1225D02*
X1847Y1225D01*
X1838Y1224D02*
X1847Y1224D01*
X1838Y1223D02*
X1847Y1223D01*
X1838Y1222D02*
X1847Y1222D01*
X1838Y1221D02*
X1847Y1221D01*
X1838Y1220D02*
X1847Y1220D01*
X1838Y1219D02*
X1847Y1219D01*
X1838Y1218D02*
X1847Y1218D01*
X1838Y1217D02*
X1847Y1217D01*
X1838Y1216D02*
X1847Y1216D01*
X1838Y1215D02*
X1847Y1215D01*
X1838Y1214D02*
X1847Y1214D01*
X1838Y1213D02*
X1847Y1213D01*
X1838Y1212D02*
X1847Y1212D01*
X1838Y1211D02*
X1847Y1211D01*
X1838Y1210D02*
X1847Y1210D01*
X1838Y1209D02*
X1847Y1209D01*
X1838Y1208D02*
X1847Y1208D01*
X1838Y1207D02*
X1847Y1207D01*
X1838Y1206D02*
X1847Y1206D01*
X1838Y1205D02*
X1847Y1205D01*
X1838Y1204D02*
X1847Y1204D01*
X1838Y1203D02*
X1847Y1203D01*
X1838Y1202D02*
X1847Y1202D01*
X1838Y1201D02*
X1847Y1201D01*
X1838Y1200D02*
X1847Y1200D01*
X1838Y1199D02*
X1847Y1199D01*
X1838Y1198D02*
X1847Y1198D01*
X1838Y1197D02*
X1847Y1197D01*
X1838Y1196D02*
X1847Y1196D01*
X1838Y1195D02*
X1847Y1195D01*
X1838Y1194D02*
X1847Y1194D01*
X1838Y1193D02*
X1847Y1193D01*
X1838Y1192D02*
X1847Y1192D01*
X1838Y1191D02*
X1847Y1191D01*
X1838Y1190D02*
X1847Y1190D01*
X1838Y1189D02*
X1847Y1189D01*
X1838Y1188D02*
X1847Y1188D01*
X1838Y1187D02*
X1847Y1187D01*
X1838Y1186D02*
X1847Y1186D01*
X1838Y1185D02*
X1847Y1185D01*
X1838Y1184D02*
X1847Y1184D01*
X1838Y1183D02*
X1847Y1183D01*
X1838Y1182D02*
X1847Y1182D01*
X1838Y1181D02*
X1847Y1181D01*
X1838Y1180D02*
X1847Y1180D01*
X1838Y1179D02*
X1847Y1179D01*
X1838Y1178D02*
X1847Y1178D01*
X1838Y1177D02*
X1847Y1177D01*
X1838Y1176D02*
X1847Y1176D01*
X1838Y1175D02*
X1847Y1175D01*
X1838Y1174D02*
X1847Y1174D01*
X1838Y1173D02*
X1847Y1173D01*
X1838Y1172D02*
X1847Y1172D01*
X1838Y1171D02*
X1847Y1171D01*
X1838Y1170D02*
X1847Y1170D01*
X1838Y1169D02*
X1847Y1169D01*
X1838Y1168D02*
X1847Y1168D01*
X1838Y1167D02*
X1847Y1167D01*
X1838Y1166D02*
X1847Y1166D01*
X1838Y1165D02*
X1847Y1165D01*
X1838Y1164D02*
X1847Y1164D01*
X1838Y1163D02*
X1847Y1163D01*
X1838Y1162D02*
X1847Y1162D01*
X1838Y1161D02*
X1847Y1161D01*
X1838Y1160D02*
X1847Y1160D01*
X1838Y1159D02*
X1847Y1159D01*
X1838Y1158D02*
X1847Y1158D01*
X1838Y1157D02*
X1847Y1157D01*
X1838Y1156D02*
X1847Y1156D01*
X1838Y1155D02*
X1847Y1155D01*
X1838Y1154D02*
X1847Y1154D01*
X1838Y1153D02*
X1847Y1153D01*
X1838Y1152D02*
X1847Y1152D01*
X1838Y1151D02*
X1847Y1151D01*
X1838Y1150D02*
X1847Y1150D01*
X1838Y1149D02*
X1847Y1149D01*
X1838Y1148D02*
X1847Y1148D01*
X1838Y1147D02*
X1847Y1147D01*
X1838Y1146D02*
X1847Y1146D01*
X1838Y1145D02*
X1847Y1145D01*
X1838Y1144D02*
X1847Y1144D01*
X1838Y1143D02*
X1847Y1143D01*
X1838Y1142D02*
X1847Y1142D01*
X1838Y1141D02*
X1847Y1141D01*
X1838Y1140D02*
X1847Y1140D01*
X1838Y1139D02*
X1847Y1139D01*
X1838Y1138D02*
X1847Y1138D01*
X1838Y1137D02*
X1847Y1137D01*
X1838Y1136D02*
X1847Y1136D01*
X1838Y1135D02*
X1847Y1135D01*
X1838Y1134D02*
X1847Y1134D01*
X1838Y1133D02*
X1847Y1133D01*
X1838Y1132D02*
X1847Y1132D01*
X1838Y1131D02*
X1847Y1131D01*
X1838Y1130D02*
X1847Y1130D01*
X1838Y1129D02*
X1847Y1129D01*
X1838Y1128D02*
X1847Y1128D01*
X1838Y1127D02*
X1847Y1127D01*
X1838Y1126D02*
X1847Y1126D01*
X1838Y1125D02*
X1847Y1125D01*
X1838Y1124D02*
X1847Y1124D01*
X1838Y1123D02*
X1847Y1123D01*
X1838Y1122D02*
X1847Y1122D01*
X1838Y1121D02*
X1847Y1121D01*
X1838Y1120D02*
X1847Y1120D01*
X1838Y1119D02*
X1848Y1119D01*
X1838Y1118D02*
X1892Y1118D01*
X1838Y1117D02*
X1892Y1117D01*
X1838Y1116D02*
X1892Y1116D01*
X1838Y1115D02*
X1892Y1115D01*
X1838Y1114D02*
X1892Y1114D01*
X1838Y1113D02*
X1892Y1113D01*
X1839Y1112D02*
X1892Y1112D01*
X1839Y1111D02*
X1892Y1111D01*
X1840Y1110D02*
X1892Y1110D01*
X1843Y1109D02*
X1892Y1109D01*
X1129Y1083D02*
X1137Y1083D01*
X1127Y1082D02*
X1139Y1082D01*
X1126Y1081D02*
X1139Y1081D01*
X1126Y1080D02*
X1140Y1080D01*
X358Y1079D02*
X372Y1079D01*
X732Y1079D02*
X755Y1079D01*
X904Y1079D02*
X920Y1079D01*
X1126Y1079D02*
X1140Y1079D01*
X1406Y1079D02*
X1457Y1079D01*
X1566Y1079D02*
X1604Y1079D01*
X1641Y1079D02*
X1679Y1079D01*
X1717Y1079D02*
X1754Y1079D01*
X1796Y1079D02*
X1824Y1079D01*
X1873Y1079D02*
X1906Y1079D01*
X356Y1078D02*
X377Y1078D01*
X730Y1078D02*
X755Y1078D01*
X902Y1078D02*
X922Y1078D01*
X1126Y1078D02*
X1140Y1078D01*
X1406Y1078D02*
X1457Y1078D01*
X1563Y1078D02*
X1606Y1078D01*
X1638Y1078D02*
X1681Y1078D01*
X1714Y1078D02*
X1757Y1078D01*
X1792Y1078D02*
X1827Y1078D01*
X1868Y1078D02*
X1907Y1078D01*
X355Y1077D02*
X379Y1077D01*
X731Y1077D02*
X754Y1077D01*
X901Y1077D02*
X923Y1077D01*
X1125Y1077D02*
X1140Y1077D01*
X1406Y1077D02*
X1457Y1077D01*
X1561Y1077D02*
X1607Y1077D01*
X1637Y1077D02*
X1682Y1077D01*
X1712Y1077D02*
X1758Y1077D01*
X1790Y1077D02*
X1829Y1077D01*
X1867Y1077D02*
X1908Y1077D01*
X354Y1076D02*
X381Y1076D01*
X731Y1076D02*
X754Y1076D01*
X900Y1076D02*
X924Y1076D01*
X1125Y1076D02*
X1140Y1076D01*
X1406Y1076D02*
X1457Y1076D01*
X1560Y1076D02*
X1608Y1076D01*
X1636Y1076D02*
X1683Y1076D01*
X1711Y1076D02*
X1758Y1076D01*
X1789Y1076D02*
X1830Y1076D01*
X1865Y1076D02*
X1909Y1076D01*
X354Y1075D02*
X382Y1075D01*
X731Y1075D02*
X754Y1075D01*
X900Y1075D02*
X924Y1075D01*
X1125Y1075D02*
X1140Y1075D01*
X1406Y1075D02*
X1457Y1075D01*
X1559Y1075D02*
X1608Y1075D01*
X1635Y1075D02*
X1683Y1075D01*
X1710Y1075D02*
X1759Y1075D01*
X1787Y1075D02*
X1831Y1075D01*
X1864Y1075D02*
X1910Y1075D01*
X354Y1074D02*
X383Y1074D01*
X611Y1074D02*
X615Y1074D01*
X732Y1074D02*
X754Y1074D01*
X899Y1074D02*
X924Y1074D01*
X1126Y1074D02*
X1140Y1074D01*
X1406Y1074D02*
X1457Y1074D01*
X1559Y1074D02*
X1608Y1074D01*
X1634Y1074D02*
X1683Y1074D01*
X1709Y1074D02*
X1759Y1074D01*
X1786Y1074D02*
X1832Y1074D01*
X1863Y1074D02*
X1910Y1074D01*
X354Y1073D02*
X384Y1073D01*
X610Y1073D02*
X616Y1073D01*
X732Y1073D02*
X753Y1073D01*
X899Y1073D02*
X924Y1073D01*
X1126Y1073D02*
X1140Y1073D01*
X1406Y1073D02*
X1457Y1073D01*
X1558Y1073D02*
X1608Y1073D01*
X1633Y1073D02*
X1683Y1073D01*
X1709Y1073D02*
X1759Y1073D01*
X1786Y1073D02*
X1833Y1073D01*
X1862Y1073D02*
X1910Y1073D01*
X354Y1072D02*
X385Y1072D01*
X609Y1072D02*
X617Y1072D01*
X732Y1072D02*
X753Y1072D01*
X899Y1072D02*
X924Y1072D01*
X1126Y1072D02*
X1140Y1072D01*
X1406Y1072D02*
X1457Y1072D01*
X1558Y1072D02*
X1608Y1072D01*
X1633Y1072D02*
X1683Y1072D01*
X1708Y1072D02*
X1758Y1072D01*
X1785Y1072D02*
X1833Y1072D01*
X1861Y1072D02*
X1910Y1072D01*
X355Y1071D02*
X386Y1071D01*
X609Y1071D02*
X618Y1071D01*
X732Y1071D02*
X753Y1071D01*
X899Y1071D02*
X924Y1071D01*
X1126Y1071D02*
X1139Y1071D01*
X1406Y1071D02*
X1457Y1071D01*
X1557Y1071D02*
X1607Y1071D01*
X1633Y1071D02*
X1682Y1071D01*
X1708Y1071D02*
X1758Y1071D01*
X1784Y1071D02*
X1834Y1071D01*
X1861Y1071D02*
X1910Y1071D01*
X355Y1070D02*
X387Y1070D01*
X608Y1070D02*
X618Y1070D01*
X732Y1070D02*
X753Y1070D01*
X899Y1070D02*
X923Y1070D01*
X1127Y1070D02*
X1138Y1070D01*
X1406Y1070D02*
X1457Y1070D01*
X1557Y1070D02*
X1606Y1070D01*
X1632Y1070D02*
X1682Y1070D01*
X1708Y1070D02*
X1757Y1070D01*
X1784Y1070D02*
X1834Y1070D01*
X1860Y1070D02*
X1910Y1070D01*
X357Y1069D02*
X387Y1069D01*
X608Y1069D02*
X618Y1069D01*
X733Y1069D02*
X753Y1069D01*
X899Y1069D02*
X921Y1069D01*
X1129Y1069D02*
X1137Y1069D01*
X1406Y1069D02*
X1457Y1069D01*
X1557Y1069D02*
X1605Y1069D01*
X1632Y1069D02*
X1680Y1069D01*
X1708Y1069D02*
X1756Y1069D01*
X1784Y1069D02*
X1834Y1069D01*
X1860Y1069D02*
X1910Y1069D01*
X375Y1068D02*
X388Y1068D01*
X608Y1068D02*
X618Y1068D01*
X749Y1068D02*
X752Y1068D01*
X899Y1068D02*
X909Y1068D01*
X1406Y1068D02*
X1416Y1068D01*
X1427Y1068D02*
X1437Y1068D01*
X1448Y1068D02*
X1457Y1068D01*
X1557Y1068D02*
X1567Y1068D01*
X1632Y1068D02*
X1642Y1068D01*
X1708Y1068D02*
X1717Y1068D01*
X1783Y1068D02*
X1794Y1068D01*
X1824Y1068D02*
X1834Y1068D01*
X1859Y1068D02*
X1871Y1068D01*
X1900Y1068D02*
X1910Y1068D01*
X376Y1067D02*
X388Y1067D01*
X608Y1067D02*
X618Y1067D01*
X749Y1067D02*
X752Y1067D01*
X899Y1067D02*
X909Y1067D01*
X1406Y1067D02*
X1416Y1067D01*
X1427Y1067D02*
X1437Y1067D01*
X1448Y1067D02*
X1457Y1067D01*
X1557Y1067D02*
X1567Y1067D01*
X1632Y1067D02*
X1642Y1067D01*
X1708Y1067D02*
X1717Y1067D01*
X1783Y1067D02*
X1793Y1067D01*
X1825Y1067D02*
X1834Y1067D01*
X1859Y1067D02*
X1870Y1067D01*
X1900Y1067D02*
X1910Y1067D01*
X377Y1066D02*
X388Y1066D01*
X608Y1066D02*
X618Y1066D01*
X749Y1066D02*
X752Y1066D01*
X899Y1066D02*
X909Y1066D01*
X1406Y1066D02*
X1416Y1066D01*
X1427Y1066D02*
X1437Y1066D01*
X1448Y1066D02*
X1457Y1066D01*
X1557Y1066D02*
X1567Y1066D01*
X1632Y1066D02*
X1642Y1066D01*
X1708Y1066D02*
X1717Y1066D01*
X1783Y1066D02*
X1793Y1066D01*
X1824Y1066D02*
X1834Y1066D01*
X1859Y1066D02*
X1869Y1066D01*
X1900Y1066D02*
X1910Y1066D01*
X378Y1065D02*
X389Y1065D01*
X608Y1065D02*
X618Y1065D01*
X749Y1065D02*
X752Y1065D01*
X899Y1065D02*
X909Y1065D01*
X1406Y1065D02*
X1416Y1065D01*
X1427Y1065D02*
X1437Y1065D01*
X1448Y1065D02*
X1457Y1065D01*
X1557Y1065D02*
X1567Y1065D01*
X1632Y1065D02*
X1642Y1065D01*
X1708Y1065D02*
X1717Y1065D01*
X1783Y1065D02*
X1793Y1065D01*
X1823Y1065D02*
X1834Y1065D01*
X1859Y1065D02*
X1868Y1065D01*
X1900Y1065D02*
X1910Y1065D01*
X379Y1064D02*
X389Y1064D01*
X608Y1064D02*
X618Y1064D01*
X749Y1064D02*
X752Y1064D01*
X899Y1064D02*
X909Y1064D01*
X1406Y1064D02*
X1416Y1064D01*
X1427Y1064D02*
X1437Y1064D01*
X1448Y1064D02*
X1457Y1064D01*
X1557Y1064D02*
X1567Y1064D01*
X1632Y1064D02*
X1642Y1064D01*
X1708Y1064D02*
X1717Y1064D01*
X1783Y1064D02*
X1792Y1064D01*
X1822Y1064D02*
X1834Y1064D01*
X1859Y1064D02*
X1868Y1064D01*
X1900Y1064D02*
X1910Y1064D01*
X379Y1063D02*
X389Y1063D01*
X608Y1063D02*
X618Y1063D01*
X749Y1063D02*
X752Y1063D01*
X899Y1063D02*
X909Y1063D01*
X1407Y1063D02*
X1415Y1063D01*
X1427Y1063D02*
X1437Y1063D01*
X1448Y1063D02*
X1457Y1063D01*
X1557Y1063D02*
X1567Y1063D01*
X1632Y1063D02*
X1642Y1063D01*
X1708Y1063D02*
X1717Y1063D01*
X1784Y1063D02*
X1792Y1063D01*
X1822Y1063D02*
X1833Y1063D01*
X1858Y1063D02*
X1868Y1063D01*
X1900Y1063D02*
X1910Y1063D01*
X379Y1062D02*
X389Y1062D01*
X608Y1062D02*
X618Y1062D01*
X749Y1062D02*
X752Y1062D01*
X899Y1062D02*
X909Y1062D01*
X1407Y1062D02*
X1415Y1062D01*
X1427Y1062D02*
X1437Y1062D01*
X1449Y1062D02*
X1456Y1062D01*
X1557Y1062D02*
X1567Y1062D01*
X1632Y1062D02*
X1642Y1062D01*
X1708Y1062D02*
X1717Y1062D01*
X1784Y1062D02*
X1792Y1062D01*
X1821Y1062D02*
X1833Y1062D01*
X1858Y1062D02*
X1868Y1062D01*
X1900Y1062D02*
X1910Y1062D01*
X380Y1061D02*
X389Y1061D01*
X608Y1061D02*
X618Y1061D01*
X749Y1061D02*
X752Y1061D01*
X899Y1061D02*
X909Y1061D01*
X1408Y1061D02*
X1414Y1061D01*
X1427Y1061D02*
X1437Y1061D01*
X1450Y1061D02*
X1455Y1061D01*
X1557Y1061D02*
X1567Y1061D01*
X1632Y1061D02*
X1642Y1061D01*
X1708Y1061D02*
X1717Y1061D01*
X1785Y1061D02*
X1791Y1061D01*
X1820Y1061D02*
X1832Y1061D01*
X1858Y1061D02*
X1868Y1061D01*
X1900Y1061D02*
X1910Y1061D01*
X380Y1060D02*
X389Y1060D01*
X608Y1060D02*
X618Y1060D01*
X749Y1060D02*
X752Y1060D01*
X899Y1060D02*
X909Y1060D01*
X1410Y1060D02*
X1412Y1060D01*
X1427Y1060D02*
X1437Y1060D01*
X1451Y1060D02*
X1454Y1060D01*
X1557Y1060D02*
X1567Y1060D01*
X1632Y1060D02*
X1642Y1060D01*
X1708Y1060D02*
X1717Y1060D01*
X1787Y1060D02*
X1789Y1060D01*
X1819Y1060D02*
X1832Y1060D01*
X1858Y1060D02*
X1868Y1060D01*
X1900Y1060D02*
X1910Y1060D01*
X380Y1059D02*
X389Y1059D01*
X608Y1059D02*
X618Y1059D01*
X749Y1059D02*
X753Y1059D01*
X899Y1059D02*
X909Y1059D01*
X1427Y1059D02*
X1437Y1059D01*
X1557Y1059D02*
X1567Y1059D01*
X1632Y1059D02*
X1642Y1059D01*
X1708Y1059D02*
X1717Y1059D01*
X1819Y1059D02*
X1831Y1059D01*
X1858Y1059D02*
X1868Y1059D01*
X1900Y1059D02*
X1910Y1059D01*
X380Y1058D02*
X389Y1058D01*
X608Y1058D02*
X618Y1058D01*
X749Y1058D02*
X753Y1058D01*
X899Y1058D02*
X909Y1058D01*
X1427Y1058D02*
X1437Y1058D01*
X1557Y1058D02*
X1567Y1058D01*
X1632Y1058D02*
X1642Y1058D01*
X1708Y1058D02*
X1717Y1058D01*
X1818Y1058D02*
X1830Y1058D01*
X1858Y1058D02*
X1868Y1058D01*
X1900Y1058D02*
X1910Y1058D01*
X379Y1057D02*
X390Y1057D01*
X608Y1057D02*
X618Y1057D01*
X749Y1057D02*
X753Y1057D01*
X899Y1057D02*
X909Y1057D01*
X1427Y1057D02*
X1437Y1057D01*
X1557Y1057D02*
X1567Y1057D01*
X1632Y1057D02*
X1642Y1057D01*
X1708Y1057D02*
X1717Y1057D01*
X1817Y1057D02*
X1830Y1057D01*
X1859Y1057D02*
X1868Y1057D01*
X1900Y1057D02*
X1910Y1057D01*
X139Y1056D02*
X162Y1056D01*
X203Y1056D02*
X232Y1056D01*
X287Y1056D02*
X314Y1056D01*
X366Y1056D02*
X397Y1056D01*
X437Y1056D02*
X454Y1056D01*
X470Y1056D02*
X475Y1056D01*
X516Y1056D02*
X539Y1056D01*
X585Y1056D02*
X626Y1056D01*
X749Y1056D02*
X753Y1056D01*
X899Y1056D02*
X909Y1056D01*
X966Y1056D02*
X992Y1056D01*
X1041Y1056D02*
X1057Y1056D01*
X1073Y1056D02*
X1078Y1056D01*
X1128Y1056D02*
X1148Y1056D01*
X1190Y1056D02*
X1196Y1056D01*
X1209Y1056D02*
X1217Y1056D01*
X1225Y1056D02*
X1230Y1056D01*
X1266Y1056D02*
X1284Y1056D01*
X1299Y1056D02*
X1304Y1056D01*
X1345Y1056D02*
X1368Y1056D01*
X1427Y1056D02*
X1437Y1056D01*
X1557Y1056D02*
X1567Y1056D01*
X1632Y1056D02*
X1642Y1056D01*
X1708Y1056D02*
X1717Y1056D01*
X1816Y1056D02*
X1829Y1056D01*
X1859Y1056D02*
X1868Y1056D01*
X1900Y1056D02*
X1910Y1056D01*
X137Y1055D02*
X164Y1055D01*
X201Y1055D02*
X234Y1055D01*
X285Y1055D02*
X315Y1055D01*
X365Y1055D02*
X398Y1055D01*
X435Y1055D02*
X456Y1055D01*
X469Y1055D02*
X476Y1055D01*
X514Y1055D02*
X541Y1055D01*
X584Y1055D02*
X627Y1055D01*
X749Y1055D02*
X753Y1055D01*
X899Y1055D02*
X909Y1055D01*
X963Y1055D02*
X993Y1055D01*
X1039Y1055D02*
X1059Y1055D01*
X1072Y1055D02*
X1079Y1055D01*
X1127Y1055D02*
X1149Y1055D01*
X1187Y1055D02*
X1199Y1055D01*
X1207Y1055D02*
X1219Y1055D01*
X1224Y1055D02*
X1231Y1055D01*
X1264Y1055D02*
X1285Y1055D01*
X1298Y1055D02*
X1305Y1055D01*
X1343Y1055D02*
X1370Y1055D01*
X1427Y1055D02*
X1437Y1055D01*
X1557Y1055D02*
X1567Y1055D01*
X1632Y1055D02*
X1642Y1055D01*
X1708Y1055D02*
X1717Y1055D01*
X1815Y1055D02*
X1828Y1055D01*
X1859Y1055D02*
X1869Y1055D01*
X1900Y1055D02*
X1910Y1055D01*
X135Y1054D02*
X165Y1054D01*
X201Y1054D02*
X236Y1054D01*
X283Y1054D02*
X316Y1054D01*
X365Y1054D02*
X399Y1054D01*
X433Y1054D02*
X457Y1054D01*
X468Y1054D02*
X477Y1054D01*
X512Y1054D02*
X542Y1054D01*
X583Y1054D02*
X628Y1054D01*
X749Y1054D02*
X754Y1054D01*
X899Y1054D02*
X909Y1054D01*
X962Y1054D02*
X994Y1054D01*
X1037Y1054D02*
X1061Y1054D01*
X1071Y1054D02*
X1080Y1054D01*
X1126Y1054D02*
X1150Y1054D01*
X1186Y1054D02*
X1200Y1054D01*
X1206Y1054D02*
X1221Y1054D01*
X1223Y1054D02*
X1231Y1054D01*
X1262Y1054D02*
X1286Y1054D01*
X1298Y1054D02*
X1306Y1054D01*
X1341Y1054D02*
X1372Y1054D01*
X1427Y1054D02*
X1437Y1054D01*
X1557Y1054D02*
X1567Y1054D01*
X1632Y1054D02*
X1642Y1054D01*
X1708Y1054D02*
X1717Y1054D01*
X1815Y1054D02*
X1827Y1054D01*
X1859Y1054D02*
X1870Y1054D01*
X1900Y1054D02*
X1910Y1054D01*
X134Y1053D02*
X167Y1053D01*
X200Y1053D02*
X237Y1053D01*
X282Y1053D02*
X316Y1053D01*
X364Y1053D02*
X399Y1053D01*
X432Y1053D02*
X458Y1053D01*
X468Y1053D02*
X477Y1053D01*
X511Y1053D02*
X544Y1053D01*
X583Y1053D02*
X628Y1053D01*
X749Y1053D02*
X754Y1053D01*
X899Y1053D02*
X909Y1053D01*
X961Y1053D02*
X994Y1053D01*
X1036Y1053D02*
X1062Y1053D01*
X1071Y1053D02*
X1080Y1053D01*
X1126Y1053D02*
X1150Y1053D01*
X1185Y1053D02*
X1201Y1053D01*
X1205Y1053D02*
X1232Y1053D01*
X1261Y1053D02*
X1287Y1053D01*
X1297Y1053D02*
X1306Y1053D01*
X1340Y1053D02*
X1373Y1053D01*
X1427Y1053D02*
X1437Y1053D01*
X1557Y1053D02*
X1567Y1053D01*
X1632Y1053D02*
X1642Y1053D01*
X1708Y1053D02*
X1717Y1053D01*
X1814Y1053D02*
X1826Y1053D01*
X1859Y1053D02*
X1871Y1053D01*
X1900Y1053D02*
X1910Y1053D01*
X133Y1052D02*
X168Y1052D01*
X200Y1052D02*
X239Y1052D01*
X281Y1052D02*
X316Y1052D01*
X364Y1052D02*
X399Y1052D01*
X431Y1052D02*
X459Y1052D01*
X468Y1052D02*
X477Y1052D01*
X510Y1052D02*
X545Y1052D01*
X582Y1052D02*
X628Y1052D01*
X749Y1052D02*
X754Y1052D01*
X899Y1052D02*
X909Y1052D01*
X960Y1052D02*
X995Y1052D01*
X1035Y1052D02*
X1064Y1052D01*
X1071Y1052D02*
X1080Y1052D01*
X1126Y1052D02*
X1151Y1052D01*
X1184Y1052D02*
X1232Y1052D01*
X1260Y1052D02*
X1288Y1052D01*
X1297Y1052D02*
X1306Y1052D01*
X1339Y1052D02*
X1374Y1052D01*
X1427Y1052D02*
X1437Y1052D01*
X1557Y1052D02*
X1567Y1052D01*
X1632Y1052D02*
X1642Y1052D01*
X1708Y1052D02*
X1717Y1052D01*
X1813Y1052D02*
X1826Y1052D01*
X1860Y1052D02*
X1910Y1052D01*
X131Y1051D02*
X169Y1051D01*
X200Y1051D02*
X240Y1051D01*
X280Y1051D02*
X316Y1051D01*
X364Y1051D02*
X399Y1051D01*
X430Y1051D02*
X460Y1051D01*
X468Y1051D02*
X477Y1051D01*
X508Y1051D02*
X546Y1051D01*
X582Y1051D02*
X628Y1051D01*
X749Y1051D02*
X754Y1051D01*
X899Y1051D02*
X909Y1051D01*
X959Y1051D02*
X995Y1051D01*
X1034Y1051D02*
X1065Y1051D01*
X1071Y1051D02*
X1080Y1051D01*
X1125Y1051D02*
X1151Y1051D01*
X1183Y1051D02*
X1232Y1051D01*
X1259Y1051D02*
X1290Y1051D01*
X1297Y1051D02*
X1307Y1051D01*
X1338Y1051D02*
X1375Y1051D01*
X1427Y1051D02*
X1437Y1051D01*
X1557Y1051D02*
X1567Y1051D01*
X1632Y1051D02*
X1642Y1051D01*
X1708Y1051D02*
X1717Y1051D01*
X1812Y1051D02*
X1825Y1051D01*
X1860Y1051D02*
X1910Y1051D01*
X130Y1050D02*
X170Y1050D01*
X200Y1050D02*
X241Y1050D01*
X280Y1050D02*
X316Y1050D01*
X364Y1050D02*
X399Y1050D01*
X429Y1050D02*
X462Y1050D01*
X468Y1050D02*
X477Y1050D01*
X507Y1050D02*
X547Y1050D01*
X583Y1050D02*
X628Y1050D01*
X749Y1050D02*
X755Y1050D01*
X899Y1050D02*
X909Y1050D01*
X958Y1050D02*
X994Y1050D01*
X1033Y1050D02*
X1067Y1050D01*
X1071Y1050D02*
X1080Y1050D01*
X1125Y1050D02*
X1150Y1050D01*
X1182Y1050D02*
X1232Y1050D01*
X1258Y1050D02*
X1291Y1050D01*
X1297Y1050D02*
X1307Y1050D01*
X1336Y1050D02*
X1376Y1050D01*
X1427Y1050D02*
X1437Y1050D01*
X1557Y1050D02*
X1567Y1050D01*
X1632Y1050D02*
X1642Y1050D01*
X1708Y1050D02*
X1717Y1050D01*
X1812Y1050D02*
X1824Y1050D01*
X1861Y1050D02*
X1910Y1050D01*
X129Y1049D02*
X171Y1049D01*
X201Y1049D02*
X242Y1049D01*
X279Y1049D02*
X316Y1049D01*
X365Y1049D02*
X399Y1049D01*
X428Y1049D02*
X463Y1049D01*
X468Y1049D02*
X477Y1049D01*
X506Y1049D02*
X548Y1049D01*
X583Y1049D02*
X627Y1049D01*
X749Y1049D02*
X755Y1049D01*
X899Y1049D02*
X909Y1049D01*
X957Y1049D02*
X994Y1049D01*
X1033Y1049D02*
X1068Y1049D01*
X1071Y1049D02*
X1080Y1049D01*
X1125Y1049D02*
X1150Y1049D01*
X1182Y1049D02*
X1232Y1049D01*
X1258Y1049D02*
X1292Y1049D01*
X1297Y1049D02*
X1307Y1049D01*
X1335Y1049D02*
X1377Y1049D01*
X1427Y1049D02*
X1437Y1049D01*
X1557Y1049D02*
X1567Y1049D01*
X1632Y1049D02*
X1642Y1049D01*
X1708Y1049D02*
X1717Y1049D01*
X1811Y1049D02*
X1823Y1049D01*
X1861Y1049D02*
X1910Y1049D01*
X128Y1048D02*
X172Y1048D01*
X202Y1048D02*
X243Y1048D01*
X278Y1048D02*
X315Y1048D01*
X366Y1048D02*
X398Y1048D01*
X428Y1048D02*
X464Y1048D01*
X468Y1048D02*
X477Y1048D01*
X505Y1048D02*
X549Y1048D01*
X584Y1048D02*
X627Y1048D01*
X655Y1048D02*
X655Y1048D01*
X749Y1048D02*
X756Y1048D01*
X899Y1048D02*
X909Y1048D01*
X957Y1048D02*
X993Y1048D01*
X1032Y1048D02*
X1080Y1048D01*
X1125Y1048D02*
X1149Y1048D01*
X1181Y1048D02*
X1232Y1048D01*
X1257Y1048D02*
X1293Y1048D01*
X1297Y1048D02*
X1307Y1048D01*
X1334Y1048D02*
X1378Y1048D01*
X1427Y1048D02*
X1437Y1048D01*
X1557Y1048D02*
X1567Y1048D01*
X1632Y1048D02*
X1642Y1048D01*
X1708Y1048D02*
X1717Y1048D01*
X1810Y1048D02*
X1823Y1048D01*
X1862Y1048D02*
X1910Y1048D01*
X128Y1047D02*
X173Y1047D01*
X203Y1047D02*
X244Y1047D01*
X278Y1047D02*
X313Y1047D01*
X367Y1047D02*
X397Y1047D01*
X427Y1047D02*
X465Y1047D01*
X468Y1047D02*
X477Y1047D01*
X505Y1047D02*
X550Y1047D01*
X585Y1047D02*
X625Y1047D01*
X655Y1047D02*
X656Y1047D01*
X749Y1047D02*
X756Y1047D01*
X899Y1047D02*
X909Y1047D01*
X956Y1047D02*
X992Y1047D01*
X1032Y1047D02*
X1080Y1047D01*
X1125Y1047D02*
X1148Y1047D01*
X1181Y1047D02*
X1232Y1047D01*
X1257Y1047D02*
X1294Y1047D01*
X1297Y1047D02*
X1307Y1047D01*
X1334Y1047D02*
X1379Y1047D01*
X1427Y1047D02*
X1437Y1047D01*
X1557Y1047D02*
X1567Y1047D01*
X1632Y1047D02*
X1642Y1047D01*
X1708Y1047D02*
X1717Y1047D01*
X1809Y1047D02*
X1822Y1047D01*
X1863Y1047D02*
X1910Y1047D01*
X127Y1046D02*
X141Y1046D01*
X159Y1046D02*
X174Y1046D01*
X230Y1046D02*
X245Y1046D01*
X278Y1046D02*
X289Y1046D01*
X380Y1046D02*
X389Y1046D01*
X427Y1046D02*
X439Y1046D01*
X451Y1046D02*
X466Y1046D01*
X468Y1046D02*
X477Y1046D01*
X504Y1046D02*
X518Y1046D01*
X536Y1046D02*
X550Y1046D01*
X608Y1046D02*
X618Y1046D01*
X655Y1046D02*
X656Y1046D01*
X749Y1046D02*
X757Y1046D01*
X899Y1046D02*
X909Y1046D01*
X956Y1046D02*
X968Y1046D01*
X1031Y1046D02*
X1044Y1046D01*
X1054Y1046D02*
X1080Y1046D01*
X1125Y1046D02*
X1135Y1046D01*
X1181Y1046D02*
X1191Y1046D01*
X1194Y1046D02*
X1211Y1046D01*
X1215Y1046D02*
X1232Y1046D01*
X1256Y1046D02*
X1268Y1046D01*
X1280Y1046D02*
X1295Y1046D01*
X1297Y1046D02*
X1307Y1046D01*
X1333Y1046D02*
X1347Y1046D01*
X1365Y1046D02*
X1380Y1046D01*
X1427Y1046D02*
X1437Y1046D01*
X1557Y1046D02*
X1567Y1046D01*
X1633Y1046D02*
X1643Y1046D01*
X1708Y1046D02*
X1717Y1046D01*
X1808Y1046D02*
X1821Y1046D01*
X1864Y1046D02*
X1910Y1046D01*
X126Y1045D02*
X140Y1045D01*
X161Y1045D02*
X174Y1045D01*
X231Y1045D02*
X246Y1045D01*
X277Y1045D02*
X288Y1045D01*
X380Y1045D02*
X389Y1045D01*
X427Y1045D02*
X438Y1045D01*
X452Y1045D02*
X477Y1045D01*
X503Y1045D02*
X516Y1045D01*
X538Y1045D02*
X551Y1045D01*
X608Y1045D02*
X618Y1045D01*
X654Y1045D02*
X657Y1045D01*
X749Y1045D02*
X757Y1045D01*
X899Y1045D02*
X909Y1045D01*
X956Y1045D02*
X966Y1045D01*
X1031Y1045D02*
X1042Y1045D01*
X1056Y1045D02*
X1080Y1045D01*
X1125Y1045D02*
X1135Y1045D01*
X1181Y1045D02*
X1190Y1045D01*
X1195Y1045D02*
X1211Y1045D01*
X1216Y1045D02*
X1232Y1045D01*
X1256Y1045D02*
X1267Y1045D01*
X1281Y1045D02*
X1307Y1045D01*
X1332Y1045D02*
X1346Y1045D01*
X1367Y1045D02*
X1380Y1045D01*
X1427Y1045D02*
X1437Y1045D01*
X1557Y1045D02*
X1567Y1045D01*
X1633Y1045D02*
X1644Y1045D01*
X1708Y1045D02*
X1717Y1045D01*
X1808Y1045D02*
X1820Y1045D01*
X1865Y1045D02*
X1910Y1045D01*
X126Y1044D02*
X138Y1044D01*
X162Y1044D02*
X175Y1044D01*
X232Y1044D02*
X247Y1044D01*
X277Y1044D02*
X287Y1044D01*
X380Y1044D02*
X389Y1044D01*
X427Y1044D02*
X437Y1044D01*
X453Y1044D02*
X477Y1044D01*
X503Y1044D02*
X515Y1044D01*
X539Y1044D02*
X551Y1044D01*
X608Y1044D02*
X618Y1044D01*
X654Y1044D02*
X658Y1044D01*
X749Y1044D02*
X758Y1044D01*
X899Y1044D02*
X909Y1044D01*
X956Y1044D02*
X966Y1044D01*
X1031Y1044D02*
X1041Y1044D01*
X1058Y1044D02*
X1080Y1044D01*
X1125Y1044D02*
X1135Y1044D01*
X1181Y1044D02*
X1190Y1044D01*
X1197Y1044D02*
X1210Y1044D01*
X1217Y1044D02*
X1232Y1044D01*
X1256Y1044D02*
X1266Y1044D01*
X1282Y1044D02*
X1307Y1044D01*
X1332Y1044D02*
X1344Y1044D01*
X1368Y1044D02*
X1381Y1044D01*
X1427Y1044D02*
X1437Y1044D01*
X1557Y1044D02*
X1567Y1044D01*
X1633Y1044D02*
X1646Y1044D01*
X1708Y1044D02*
X1717Y1044D01*
X1807Y1044D02*
X1819Y1044D01*
X1867Y1044D02*
X1910Y1044D01*
X126Y1043D02*
X137Y1043D01*
X163Y1043D02*
X175Y1043D01*
X233Y1043D02*
X248Y1043D01*
X277Y1043D02*
X287Y1043D01*
X380Y1043D02*
X389Y1043D01*
X426Y1043D02*
X436Y1043D01*
X454Y1043D02*
X477Y1043D01*
X503Y1043D02*
X514Y1043D01*
X540Y1043D02*
X552Y1043D01*
X608Y1043D02*
X618Y1043D01*
X654Y1043D02*
X658Y1043D01*
X749Y1043D02*
X758Y1043D01*
X899Y1043D02*
X909Y1043D01*
X955Y1043D02*
X965Y1043D01*
X1031Y1043D02*
X1041Y1043D01*
X1059Y1043D02*
X1080Y1043D01*
X1125Y1043D02*
X1135Y1043D01*
X1181Y1043D02*
X1190Y1043D01*
X1198Y1043D02*
X1210Y1043D01*
X1219Y1043D02*
X1232Y1043D01*
X1256Y1043D02*
X1265Y1043D01*
X1284Y1043D02*
X1307Y1043D01*
X1332Y1043D02*
X1343Y1043D01*
X1369Y1043D02*
X1381Y1043D01*
X1427Y1043D02*
X1437Y1043D01*
X1557Y1043D02*
X1601Y1043D01*
X1633Y1043D02*
X1670Y1043D01*
X1708Y1043D02*
X1752Y1043D01*
X1806Y1043D02*
X1819Y1043D01*
X1869Y1043D02*
X1910Y1043D01*
X125Y1042D02*
X136Y1042D01*
X164Y1042D02*
X175Y1042D01*
X235Y1042D02*
X249Y1042D01*
X277Y1042D02*
X287Y1042D01*
X380Y1042D02*
X389Y1042D01*
X426Y1042D02*
X436Y1042D01*
X456Y1042D02*
X477Y1042D01*
X502Y1042D02*
X513Y1042D01*
X541Y1042D02*
X552Y1042D01*
X608Y1042D02*
X618Y1042D01*
X654Y1042D02*
X659Y1042D01*
X749Y1042D02*
X758Y1042D01*
X899Y1042D02*
X909Y1042D01*
X955Y1042D02*
X965Y1042D01*
X1031Y1042D02*
X1040Y1042D01*
X1061Y1042D02*
X1080Y1042D01*
X1125Y1042D02*
X1135Y1042D01*
X1181Y1042D02*
X1190Y1042D01*
X1199Y1042D02*
X1210Y1042D01*
X1220Y1042D02*
X1232Y1042D01*
X1255Y1042D02*
X1265Y1042D01*
X1285Y1042D02*
X1307Y1042D01*
X1331Y1042D02*
X1342Y1042D01*
X1370Y1042D02*
X1381Y1042D01*
X1427Y1042D02*
X1437Y1042D01*
X1557Y1042D02*
X1603Y1042D01*
X1634Y1042D02*
X1672Y1042D01*
X1708Y1042D02*
X1754Y1042D01*
X1805Y1042D02*
X1818Y1042D01*
X1873Y1042D02*
X1910Y1042D01*
X125Y1041D02*
X135Y1041D01*
X165Y1041D02*
X176Y1041D01*
X236Y1041D02*
X249Y1041D01*
X277Y1041D02*
X287Y1041D01*
X380Y1041D02*
X389Y1041D01*
X426Y1041D02*
X436Y1041D01*
X457Y1041D02*
X477Y1041D01*
X502Y1041D02*
X512Y1041D01*
X542Y1041D02*
X552Y1041D01*
X608Y1041D02*
X618Y1041D01*
X654Y1041D02*
X659Y1041D01*
X749Y1041D02*
X758Y1041D01*
X899Y1041D02*
X909Y1041D01*
X955Y1041D02*
X965Y1041D01*
X1031Y1041D02*
X1040Y1041D01*
X1062Y1041D02*
X1080Y1041D01*
X1125Y1041D02*
X1135Y1041D01*
X1181Y1041D02*
X1190Y1041D01*
X1200Y1041D02*
X1210Y1041D01*
X1221Y1041D02*
X1232Y1041D01*
X1255Y1041D02*
X1265Y1041D01*
X1286Y1041D02*
X1307Y1041D01*
X1331Y1041D02*
X1341Y1041D01*
X1371Y1041D02*
X1382Y1041D01*
X1427Y1041D02*
X1437Y1041D01*
X1557Y1041D02*
X1604Y1041D01*
X1635Y1041D02*
X1672Y1041D01*
X1708Y1041D02*
X1755Y1041D01*
X1805Y1041D02*
X1817Y1041D01*
X1880Y1041D02*
X1891Y1041D01*
X1900Y1041D02*
X1910Y1041D01*
X125Y1040D02*
X135Y1040D01*
X166Y1040D02*
X176Y1040D01*
X237Y1040D02*
X250Y1040D01*
X277Y1040D02*
X286Y1040D01*
X380Y1040D02*
X389Y1040D01*
X426Y1040D02*
X436Y1040D01*
X458Y1040D02*
X477Y1040D01*
X502Y1040D02*
X512Y1040D01*
X543Y1040D02*
X553Y1040D01*
X608Y1040D02*
X618Y1040D01*
X654Y1040D02*
X660Y1040D01*
X749Y1040D02*
X758Y1040D01*
X899Y1040D02*
X909Y1040D01*
X955Y1040D02*
X965Y1040D01*
X1031Y1040D02*
X1040Y1040D01*
X1064Y1040D02*
X1080Y1040D01*
X1125Y1040D02*
X1135Y1040D01*
X1181Y1040D02*
X1190Y1040D01*
X1201Y1040D02*
X1210Y1040D01*
X1222Y1040D02*
X1232Y1040D01*
X1255Y1040D02*
X1265Y1040D01*
X1287Y1040D02*
X1307Y1040D01*
X1331Y1040D02*
X1341Y1040D01*
X1372Y1040D02*
X1382Y1040D01*
X1427Y1040D02*
X1437Y1040D01*
X1558Y1040D02*
X1605Y1040D01*
X1635Y1040D02*
X1673Y1040D01*
X1708Y1040D02*
X1756Y1040D01*
X1804Y1040D02*
X1816Y1040D01*
X1879Y1040D02*
X1891Y1040D01*
X1900Y1040D02*
X1910Y1040D01*
X125Y1039D02*
X134Y1039D01*
X166Y1039D02*
X176Y1039D01*
X238Y1039D02*
X250Y1039D01*
X277Y1039D02*
X286Y1039D01*
X380Y1039D02*
X389Y1039D01*
X426Y1039D02*
X436Y1039D01*
X459Y1039D02*
X477Y1039D01*
X502Y1039D02*
X511Y1039D01*
X543Y1039D02*
X553Y1039D01*
X608Y1039D02*
X618Y1039D01*
X654Y1039D02*
X661Y1039D01*
X749Y1039D02*
X758Y1039D01*
X899Y1039D02*
X909Y1039D01*
X955Y1039D02*
X965Y1039D01*
X1031Y1039D02*
X1040Y1039D01*
X1065Y1039D02*
X1080Y1039D01*
X1125Y1039D02*
X1135Y1039D01*
X1181Y1039D02*
X1190Y1039D01*
X1201Y1039D02*
X1210Y1039D01*
X1222Y1039D02*
X1232Y1039D01*
X1255Y1039D02*
X1265Y1039D01*
X1288Y1039D02*
X1307Y1039D01*
X1331Y1039D02*
X1341Y1039D01*
X1372Y1039D02*
X1382Y1039D01*
X1427Y1039D02*
X1437Y1039D01*
X1558Y1039D02*
X1606Y1039D01*
X1636Y1039D02*
X1673Y1039D01*
X1709Y1039D02*
X1757Y1039D01*
X1803Y1039D02*
X1816Y1039D01*
X1879Y1039D02*
X1890Y1039D01*
X1900Y1039D02*
X1910Y1039D01*
X125Y1038D02*
X134Y1038D01*
X166Y1038D02*
X176Y1038D01*
X239Y1038D02*
X251Y1038D01*
X277Y1038D02*
X286Y1038D01*
X380Y1038D02*
X389Y1038D01*
X426Y1038D02*
X436Y1038D01*
X460Y1038D02*
X477Y1038D01*
X502Y1038D02*
X511Y1038D01*
X543Y1038D02*
X553Y1038D01*
X608Y1038D02*
X618Y1038D01*
X654Y1038D02*
X662Y1038D01*
X749Y1038D02*
X758Y1038D01*
X899Y1038D02*
X909Y1038D01*
X955Y1038D02*
X965Y1038D01*
X1031Y1038D02*
X1040Y1038D01*
X1067Y1038D02*
X1080Y1038D01*
X1125Y1038D02*
X1135Y1038D01*
X1181Y1038D02*
X1190Y1038D01*
X1201Y1038D02*
X1210Y1038D01*
X1222Y1038D02*
X1232Y1038D01*
X1255Y1038D02*
X1265Y1038D01*
X1289Y1038D02*
X1307Y1038D01*
X1331Y1038D02*
X1340Y1038D01*
X1372Y1038D02*
X1382Y1038D01*
X1427Y1038D02*
X1437Y1038D01*
X1559Y1038D02*
X1607Y1038D01*
X1636Y1038D02*
X1673Y1038D01*
X1709Y1038D02*
X1758Y1038D01*
X1802Y1038D02*
X1815Y1038D01*
X1878Y1038D02*
X1890Y1038D01*
X1900Y1038D02*
X1910Y1038D01*
X125Y1037D02*
X134Y1037D01*
X166Y1037D02*
X176Y1037D01*
X240Y1037D02*
X251Y1037D01*
X277Y1037D02*
X286Y1037D01*
X380Y1037D02*
X389Y1037D01*
X427Y1037D02*
X436Y1037D01*
X461Y1037D02*
X477Y1037D01*
X502Y1037D02*
X511Y1037D01*
X543Y1037D02*
X553Y1037D01*
X608Y1037D02*
X618Y1037D01*
X654Y1037D02*
X663Y1037D01*
X749Y1037D02*
X758Y1037D01*
X899Y1037D02*
X909Y1037D01*
X955Y1037D02*
X965Y1037D01*
X1030Y1037D02*
X1040Y1037D01*
X1068Y1037D02*
X1080Y1037D01*
X1125Y1037D02*
X1135Y1037D01*
X1181Y1037D02*
X1190Y1037D01*
X1201Y1037D02*
X1210Y1037D01*
X1222Y1037D02*
X1232Y1037D01*
X1256Y1037D02*
X1265Y1037D01*
X1291Y1037D02*
X1307Y1037D01*
X1331Y1037D02*
X1340Y1037D01*
X1372Y1037D02*
X1382Y1037D01*
X1427Y1037D02*
X1437Y1037D01*
X1559Y1037D02*
X1607Y1037D01*
X1635Y1037D02*
X1673Y1037D01*
X1710Y1037D02*
X1758Y1037D01*
X1801Y1037D02*
X1814Y1037D01*
X1878Y1037D02*
X1889Y1037D01*
X1900Y1037D02*
X1910Y1037D01*
X125Y1036D02*
X134Y1036D01*
X166Y1036D02*
X176Y1036D01*
X241Y1036D02*
X251Y1036D01*
X277Y1036D02*
X286Y1036D01*
X380Y1036D02*
X389Y1036D01*
X427Y1036D02*
X435Y1036D01*
X463Y1036D02*
X477Y1036D01*
X502Y1036D02*
X511Y1036D01*
X543Y1036D02*
X553Y1036D01*
X608Y1036D02*
X618Y1036D01*
X654Y1036D02*
X663Y1036D01*
X749Y1036D02*
X758Y1036D01*
X899Y1036D02*
X909Y1036D01*
X955Y1036D02*
X965Y1036D01*
X1030Y1036D02*
X1040Y1036D01*
X1070Y1036D02*
X1080Y1036D01*
X1125Y1036D02*
X1135Y1036D01*
X1181Y1036D02*
X1190Y1036D01*
X1201Y1036D02*
X1210Y1036D01*
X1222Y1036D02*
X1232Y1036D01*
X1256Y1036D02*
X1264Y1036D01*
X1292Y1036D02*
X1307Y1036D01*
X1331Y1036D02*
X1340Y1036D01*
X1372Y1036D02*
X1382Y1036D01*
X1427Y1036D02*
X1437Y1036D01*
X1560Y1036D02*
X1608Y1036D01*
X1635Y1036D02*
X1672Y1036D01*
X1711Y1036D02*
X1758Y1036D01*
X1801Y1036D02*
X1813Y1036D01*
X1877Y1036D02*
X1888Y1036D01*
X1900Y1036D02*
X1910Y1036D01*
X125Y1035D02*
X134Y1035D01*
X166Y1035D02*
X176Y1035D01*
X242Y1035D02*
X251Y1035D01*
X277Y1035D02*
X286Y1035D01*
X380Y1035D02*
X389Y1035D01*
X428Y1035D02*
X435Y1035D01*
X464Y1035D02*
X477Y1035D01*
X502Y1035D02*
X511Y1035D01*
X543Y1035D02*
X553Y1035D01*
X608Y1035D02*
X618Y1035D01*
X654Y1035D02*
X663Y1035D01*
X749Y1035D02*
X758Y1035D01*
X899Y1035D02*
X909Y1035D01*
X955Y1035D02*
X965Y1035D01*
X1030Y1035D02*
X1040Y1035D01*
X1071Y1035D02*
X1080Y1035D01*
X1125Y1035D02*
X1135Y1035D01*
X1181Y1035D02*
X1190Y1035D01*
X1201Y1035D02*
X1210Y1035D01*
X1222Y1035D02*
X1232Y1035D01*
X1257Y1035D02*
X1264Y1035D01*
X1293Y1035D02*
X1307Y1035D01*
X1331Y1035D02*
X1340Y1035D01*
X1372Y1035D02*
X1382Y1035D01*
X1427Y1035D02*
X1437Y1035D01*
X1562Y1035D02*
X1608Y1035D01*
X1634Y1035D02*
X1672Y1035D01*
X1712Y1035D02*
X1759Y1035D01*
X1800Y1035D02*
X1812Y1035D01*
X1876Y1035D02*
X1888Y1035D01*
X1900Y1035D02*
X1910Y1035D01*
X125Y1034D02*
X134Y1034D01*
X166Y1034D02*
X176Y1034D01*
X242Y1034D02*
X251Y1034D01*
X277Y1034D02*
X316Y1034D01*
X380Y1034D02*
X389Y1034D01*
X429Y1034D02*
X433Y1034D01*
X465Y1034D02*
X477Y1034D01*
X502Y1034D02*
X511Y1034D01*
X543Y1034D02*
X553Y1034D01*
X608Y1034D02*
X618Y1034D01*
X654Y1034D02*
X663Y1034D01*
X749Y1034D02*
X758Y1034D01*
X899Y1034D02*
X909Y1034D01*
X955Y1034D02*
X994Y1034D01*
X1030Y1034D02*
X1040Y1034D01*
X1071Y1034D02*
X1080Y1034D01*
X1125Y1034D02*
X1135Y1034D01*
X1180Y1034D02*
X1190Y1034D01*
X1201Y1034D02*
X1210Y1034D01*
X1222Y1034D02*
X1232Y1034D01*
X1258Y1034D02*
X1263Y1034D01*
X1294Y1034D02*
X1307Y1034D01*
X1331Y1034D02*
X1340Y1034D01*
X1372Y1034D02*
X1382Y1034D01*
X1427Y1034D02*
X1437Y1034D01*
X1563Y1034D02*
X1608Y1034D01*
X1634Y1034D02*
X1671Y1034D01*
X1714Y1034D02*
X1759Y1034D01*
X1799Y1034D02*
X1812Y1034D01*
X1876Y1034D02*
X1887Y1034D01*
X1900Y1034D02*
X1910Y1034D01*
X125Y1033D02*
X134Y1033D01*
X166Y1033D02*
X176Y1033D01*
X242Y1033D02*
X251Y1033D01*
X277Y1033D02*
X318Y1033D01*
X380Y1033D02*
X389Y1033D01*
X466Y1033D02*
X477Y1033D01*
X502Y1033D02*
X511Y1033D01*
X543Y1033D02*
X553Y1033D01*
X608Y1033D02*
X618Y1033D01*
X653Y1033D02*
X663Y1033D01*
X749Y1033D02*
X758Y1033D01*
X899Y1033D02*
X909Y1033D01*
X955Y1033D02*
X997Y1033D01*
X1030Y1033D02*
X1040Y1033D01*
X1071Y1033D02*
X1080Y1033D01*
X1125Y1033D02*
X1135Y1033D01*
X1180Y1033D02*
X1190Y1033D01*
X1201Y1033D02*
X1210Y1033D01*
X1222Y1033D02*
X1232Y1033D01*
X1295Y1033D02*
X1307Y1033D01*
X1331Y1033D02*
X1340Y1033D01*
X1372Y1033D02*
X1382Y1033D01*
X1427Y1033D02*
X1437Y1033D01*
X1598Y1033D02*
X1608Y1033D01*
X1633Y1033D02*
X1647Y1033D01*
X1749Y1033D02*
X1759Y1033D01*
X1798Y1033D02*
X1811Y1033D01*
X1875Y1033D02*
X1887Y1033D01*
X1900Y1033D02*
X1910Y1033D01*
X125Y1032D02*
X134Y1032D01*
X166Y1032D02*
X176Y1032D01*
X242Y1032D02*
X251Y1032D01*
X277Y1032D02*
X320Y1032D01*
X380Y1032D02*
X389Y1032D01*
X467Y1032D02*
X477Y1032D01*
X502Y1032D02*
X511Y1032D01*
X543Y1032D02*
X553Y1032D01*
X608Y1032D02*
X618Y1032D01*
X653Y1032D02*
X663Y1032D01*
X749Y1032D02*
X758Y1032D01*
X899Y1032D02*
X909Y1032D01*
X955Y1032D02*
X998Y1032D01*
X1030Y1032D02*
X1040Y1032D01*
X1071Y1032D02*
X1080Y1032D01*
X1125Y1032D02*
X1135Y1032D01*
X1180Y1032D02*
X1190Y1032D01*
X1201Y1032D02*
X1210Y1032D01*
X1222Y1032D02*
X1232Y1032D01*
X1296Y1032D02*
X1307Y1032D01*
X1331Y1032D02*
X1340Y1032D01*
X1372Y1032D02*
X1382Y1032D01*
X1427Y1032D02*
X1437Y1032D01*
X1598Y1032D02*
X1608Y1032D01*
X1633Y1032D02*
X1644Y1032D01*
X1749Y1032D02*
X1759Y1032D01*
X1798Y1032D02*
X1810Y1032D01*
X1875Y1032D02*
X1886Y1032D01*
X1900Y1032D02*
X1910Y1032D01*
X125Y1031D02*
X134Y1031D01*
X166Y1031D02*
X176Y1031D01*
X242Y1031D02*
X251Y1031D01*
X276Y1031D02*
X321Y1031D01*
X380Y1031D02*
X389Y1031D01*
X468Y1031D02*
X477Y1031D01*
X502Y1031D02*
X511Y1031D01*
X543Y1031D02*
X553Y1031D01*
X608Y1031D02*
X618Y1031D01*
X653Y1031D02*
X663Y1031D01*
X749Y1031D02*
X758Y1031D01*
X899Y1031D02*
X909Y1031D01*
X955Y1031D02*
X999Y1031D01*
X1030Y1031D02*
X1040Y1031D01*
X1071Y1031D02*
X1080Y1031D01*
X1125Y1031D02*
X1135Y1031D01*
X1180Y1031D02*
X1190Y1031D01*
X1201Y1031D02*
X1210Y1031D01*
X1222Y1031D02*
X1232Y1031D01*
X1297Y1031D02*
X1307Y1031D01*
X1331Y1031D02*
X1340Y1031D01*
X1372Y1031D02*
X1382Y1031D01*
X1427Y1031D02*
X1437Y1031D01*
X1598Y1031D02*
X1608Y1031D01*
X1633Y1031D02*
X1643Y1031D01*
X1749Y1031D02*
X1759Y1031D01*
X1797Y1031D02*
X1809Y1031D01*
X1874Y1031D02*
X1885Y1031D01*
X1900Y1031D02*
X1910Y1031D01*
X125Y1030D02*
X176Y1030D01*
X242Y1030D02*
X251Y1030D01*
X276Y1030D02*
X322Y1030D01*
X380Y1030D02*
X389Y1030D01*
X468Y1030D02*
X477Y1030D01*
X502Y1030D02*
X553Y1030D01*
X608Y1030D02*
X618Y1030D01*
X653Y1030D02*
X663Y1030D01*
X749Y1030D02*
X758Y1030D01*
X899Y1030D02*
X909Y1030D01*
X955Y1030D02*
X1001Y1030D01*
X1030Y1030D02*
X1040Y1030D01*
X1071Y1030D02*
X1080Y1030D01*
X1125Y1030D02*
X1135Y1030D01*
X1180Y1030D02*
X1190Y1030D01*
X1201Y1030D02*
X1210Y1030D01*
X1222Y1030D02*
X1232Y1030D01*
X1297Y1030D02*
X1307Y1030D01*
X1331Y1030D02*
X1382Y1030D01*
X1427Y1030D02*
X1437Y1030D01*
X1598Y1030D02*
X1608Y1030D01*
X1633Y1030D02*
X1642Y1030D01*
X1749Y1030D02*
X1759Y1030D01*
X1796Y1030D02*
X1809Y1030D01*
X1874Y1030D02*
X1885Y1030D01*
X1900Y1030D02*
X1910Y1030D01*
X125Y1029D02*
X176Y1029D01*
X242Y1029D02*
X251Y1029D01*
X276Y1029D02*
X323Y1029D01*
X380Y1029D02*
X389Y1029D01*
X468Y1029D02*
X477Y1029D01*
X502Y1029D02*
X553Y1029D01*
X608Y1029D02*
X618Y1029D01*
X653Y1029D02*
X663Y1029D01*
X749Y1029D02*
X758Y1029D01*
X899Y1029D02*
X909Y1029D01*
X955Y1029D02*
X1001Y1029D01*
X1030Y1029D02*
X1040Y1029D01*
X1071Y1029D02*
X1080Y1029D01*
X1125Y1029D02*
X1135Y1029D01*
X1180Y1029D02*
X1190Y1029D01*
X1201Y1029D02*
X1210Y1029D01*
X1222Y1029D02*
X1232Y1029D01*
X1297Y1029D02*
X1307Y1029D01*
X1331Y1029D02*
X1382Y1029D01*
X1427Y1029D02*
X1437Y1029D01*
X1598Y1029D02*
X1608Y1029D01*
X1632Y1029D02*
X1642Y1029D01*
X1749Y1029D02*
X1759Y1029D01*
X1795Y1029D02*
X1808Y1029D01*
X1873Y1029D02*
X1884Y1029D01*
X1900Y1029D02*
X1910Y1029D01*
X125Y1028D02*
X176Y1028D01*
X242Y1028D02*
X251Y1028D01*
X276Y1028D02*
X324Y1028D01*
X380Y1028D02*
X389Y1028D01*
X468Y1028D02*
X477Y1028D01*
X502Y1028D02*
X553Y1028D01*
X608Y1028D02*
X618Y1028D01*
X653Y1028D02*
X663Y1028D01*
X749Y1028D02*
X758Y1028D01*
X899Y1028D02*
X909Y1028D01*
X955Y1028D02*
X1002Y1028D01*
X1030Y1028D02*
X1040Y1028D01*
X1071Y1028D02*
X1080Y1028D01*
X1125Y1028D02*
X1135Y1028D01*
X1180Y1028D02*
X1190Y1028D01*
X1201Y1028D02*
X1210Y1028D01*
X1222Y1028D02*
X1232Y1028D01*
X1297Y1028D02*
X1307Y1028D01*
X1331Y1028D02*
X1382Y1028D01*
X1427Y1028D02*
X1437Y1028D01*
X1598Y1028D02*
X1608Y1028D01*
X1632Y1028D02*
X1642Y1028D01*
X1749Y1028D02*
X1759Y1028D01*
X1794Y1028D02*
X1807Y1028D01*
X1872Y1028D02*
X1884Y1028D01*
X1900Y1028D02*
X1910Y1028D01*
X125Y1027D02*
X176Y1027D01*
X242Y1027D02*
X251Y1027D01*
X276Y1027D02*
X324Y1027D01*
X380Y1027D02*
X389Y1027D01*
X468Y1027D02*
X477Y1027D01*
X502Y1027D02*
X553Y1027D01*
X608Y1027D02*
X618Y1027D01*
X653Y1027D02*
X663Y1027D01*
X749Y1027D02*
X758Y1027D01*
X899Y1027D02*
X909Y1027D01*
X955Y1027D02*
X1003Y1027D01*
X1030Y1027D02*
X1040Y1027D01*
X1071Y1027D02*
X1080Y1027D01*
X1125Y1027D02*
X1135Y1027D01*
X1180Y1027D02*
X1190Y1027D01*
X1201Y1027D02*
X1210Y1027D01*
X1222Y1027D02*
X1232Y1027D01*
X1297Y1027D02*
X1307Y1027D01*
X1331Y1027D02*
X1382Y1027D01*
X1427Y1027D02*
X1437Y1027D01*
X1598Y1027D02*
X1608Y1027D01*
X1632Y1027D02*
X1642Y1027D01*
X1749Y1027D02*
X1759Y1027D01*
X1794Y1027D02*
X1806Y1027D01*
X1872Y1027D02*
X1883Y1027D01*
X1900Y1027D02*
X1910Y1027D01*
X125Y1026D02*
X176Y1026D01*
X242Y1026D02*
X251Y1026D01*
X276Y1026D02*
X325Y1026D01*
X380Y1026D02*
X389Y1026D01*
X468Y1026D02*
X477Y1026D01*
X502Y1026D02*
X553Y1026D01*
X608Y1026D02*
X618Y1026D01*
X653Y1026D02*
X663Y1026D01*
X749Y1026D02*
X758Y1026D01*
X899Y1026D02*
X909Y1026D01*
X955Y1026D02*
X1003Y1026D01*
X1030Y1026D02*
X1040Y1026D01*
X1071Y1026D02*
X1080Y1026D01*
X1125Y1026D02*
X1135Y1026D01*
X1180Y1026D02*
X1190Y1026D01*
X1201Y1026D02*
X1210Y1026D01*
X1222Y1026D02*
X1232Y1026D01*
X1297Y1026D02*
X1307Y1026D01*
X1331Y1026D02*
X1382Y1026D01*
X1427Y1026D02*
X1437Y1026D01*
X1598Y1026D02*
X1608Y1026D01*
X1632Y1026D02*
X1642Y1026D01*
X1749Y1026D02*
X1759Y1026D01*
X1793Y1026D02*
X1805Y1026D01*
X1871Y1026D02*
X1883Y1026D01*
X1900Y1026D02*
X1910Y1026D01*
X125Y1025D02*
X176Y1025D01*
X242Y1025D02*
X251Y1025D01*
X276Y1025D02*
X326Y1025D01*
X380Y1025D02*
X389Y1025D01*
X468Y1025D02*
X477Y1025D01*
X502Y1025D02*
X553Y1025D01*
X608Y1025D02*
X618Y1025D01*
X653Y1025D02*
X663Y1025D01*
X702Y1025D02*
X704Y1025D01*
X749Y1025D02*
X758Y1025D01*
X899Y1025D02*
X909Y1025D01*
X955Y1025D02*
X1004Y1025D01*
X1030Y1025D02*
X1040Y1025D01*
X1071Y1025D02*
X1080Y1025D01*
X1125Y1025D02*
X1135Y1025D01*
X1180Y1025D02*
X1190Y1025D01*
X1201Y1025D02*
X1210Y1025D01*
X1222Y1025D02*
X1232Y1025D01*
X1297Y1025D02*
X1307Y1025D01*
X1331Y1025D02*
X1382Y1025D01*
X1427Y1025D02*
X1437Y1025D01*
X1598Y1025D02*
X1608Y1025D01*
X1632Y1025D02*
X1642Y1025D01*
X1749Y1025D02*
X1759Y1025D01*
X1792Y1025D02*
X1805Y1025D01*
X1871Y1025D02*
X1882Y1025D01*
X1900Y1025D02*
X1910Y1025D01*
X125Y1024D02*
X176Y1024D01*
X242Y1024D02*
X251Y1024D01*
X276Y1024D02*
X290Y1024D01*
X313Y1024D02*
X326Y1024D01*
X380Y1024D02*
X389Y1024D01*
X468Y1024D02*
X477Y1024D01*
X502Y1024D02*
X553Y1024D01*
X608Y1024D02*
X618Y1024D01*
X653Y1024D02*
X663Y1024D01*
X694Y1024D02*
X704Y1024D01*
X749Y1024D02*
X758Y1024D01*
X899Y1024D02*
X909Y1024D01*
X955Y1024D02*
X968Y1024D01*
X991Y1024D02*
X1004Y1024D01*
X1030Y1024D02*
X1040Y1024D01*
X1071Y1024D02*
X1080Y1024D01*
X1125Y1024D02*
X1135Y1024D01*
X1180Y1024D02*
X1190Y1024D01*
X1201Y1024D02*
X1210Y1024D01*
X1222Y1024D02*
X1232Y1024D01*
X1297Y1024D02*
X1307Y1024D01*
X1331Y1024D02*
X1382Y1024D01*
X1427Y1024D02*
X1437Y1024D01*
X1598Y1024D02*
X1608Y1024D01*
X1632Y1024D02*
X1642Y1024D01*
X1749Y1024D02*
X1759Y1024D01*
X1791Y1024D02*
X1804Y1024D01*
X1870Y1024D02*
X1881Y1024D01*
X1900Y1024D02*
X1910Y1024D01*
X125Y1023D02*
X176Y1023D01*
X242Y1023D02*
X251Y1023D01*
X276Y1023D02*
X288Y1023D01*
X315Y1023D02*
X326Y1023D01*
X380Y1023D02*
X389Y1023D01*
X468Y1023D02*
X477Y1023D01*
X502Y1023D02*
X553Y1023D01*
X608Y1023D02*
X618Y1023D01*
X653Y1023D02*
X663Y1023D01*
X694Y1023D02*
X704Y1023D01*
X749Y1023D02*
X758Y1023D01*
X899Y1023D02*
X909Y1023D01*
X955Y1023D02*
X966Y1023D01*
X994Y1023D02*
X1005Y1023D01*
X1030Y1023D02*
X1040Y1023D01*
X1071Y1023D02*
X1080Y1023D01*
X1125Y1023D02*
X1135Y1023D01*
X1180Y1023D02*
X1190Y1023D01*
X1201Y1023D02*
X1210Y1023D01*
X1222Y1023D02*
X1232Y1023D01*
X1297Y1023D02*
X1307Y1023D01*
X1331Y1023D02*
X1382Y1023D01*
X1427Y1023D02*
X1437Y1023D01*
X1598Y1023D02*
X1608Y1023D01*
X1632Y1023D02*
X1642Y1023D01*
X1749Y1023D02*
X1759Y1023D01*
X1791Y1023D02*
X1803Y1023D01*
X1869Y1023D02*
X1881Y1023D01*
X1900Y1023D02*
X1910Y1023D01*
X126Y1022D02*
X176Y1022D01*
X242Y1022D02*
X251Y1022D01*
X276Y1022D02*
X287Y1022D01*
X316Y1022D02*
X326Y1022D01*
X380Y1022D02*
X389Y1022D01*
X468Y1022D02*
X477Y1022D01*
X503Y1022D02*
X553Y1022D01*
X608Y1022D02*
X618Y1022D01*
X653Y1022D02*
X663Y1022D01*
X694Y1022D02*
X704Y1022D01*
X749Y1022D02*
X758Y1022D01*
X899Y1022D02*
X909Y1022D01*
X955Y1022D02*
X965Y1022D01*
X994Y1022D02*
X1005Y1022D01*
X1030Y1022D02*
X1040Y1022D01*
X1071Y1022D02*
X1080Y1022D01*
X1125Y1022D02*
X1135Y1022D01*
X1180Y1022D02*
X1190Y1022D01*
X1201Y1022D02*
X1210Y1022D01*
X1222Y1022D02*
X1232Y1022D01*
X1297Y1022D02*
X1307Y1022D01*
X1332Y1022D02*
X1382Y1022D01*
X1427Y1022D02*
X1437Y1022D01*
X1598Y1022D02*
X1608Y1022D01*
X1632Y1022D02*
X1642Y1022D01*
X1749Y1022D02*
X1759Y1022D01*
X1790Y1022D02*
X1802Y1022D01*
X1869Y1022D02*
X1880Y1022D01*
X1900Y1022D02*
X1910Y1022D01*
X127Y1021D02*
X176Y1021D01*
X242Y1021D02*
X251Y1021D01*
X276Y1021D02*
X286Y1021D01*
X317Y1021D02*
X326Y1021D01*
X380Y1021D02*
X389Y1021D01*
X468Y1021D02*
X477Y1021D01*
X504Y1021D02*
X553Y1021D01*
X608Y1021D02*
X618Y1021D01*
X653Y1021D02*
X663Y1021D01*
X694Y1021D02*
X704Y1021D01*
X749Y1021D02*
X758Y1021D01*
X899Y1021D02*
X909Y1021D01*
X955Y1021D02*
X965Y1021D01*
X995Y1021D02*
X1005Y1021D01*
X1030Y1021D02*
X1040Y1021D01*
X1071Y1021D02*
X1080Y1021D01*
X1125Y1021D02*
X1135Y1021D01*
X1180Y1021D02*
X1190Y1021D01*
X1201Y1021D02*
X1210Y1021D01*
X1222Y1021D02*
X1232Y1021D01*
X1297Y1021D02*
X1307Y1021D01*
X1333Y1021D02*
X1382Y1021D01*
X1427Y1021D02*
X1437Y1021D01*
X1598Y1021D02*
X1608Y1021D01*
X1632Y1021D02*
X1642Y1021D01*
X1749Y1021D02*
X1759Y1021D01*
X1789Y1021D02*
X1802Y1021D01*
X1868Y1021D02*
X1880Y1021D01*
X1900Y1021D02*
X1910Y1021D01*
X129Y1020D02*
X176Y1020D01*
X242Y1020D02*
X251Y1020D01*
X276Y1020D02*
X286Y1020D01*
X317Y1020D02*
X327Y1020D01*
X380Y1020D02*
X389Y1020D01*
X468Y1020D02*
X477Y1020D01*
X505Y1020D02*
X553Y1020D01*
X608Y1020D02*
X618Y1020D01*
X653Y1020D02*
X663Y1020D01*
X694Y1020D02*
X704Y1020D01*
X749Y1020D02*
X758Y1020D01*
X899Y1020D02*
X909Y1020D01*
X955Y1020D02*
X964Y1020D01*
X995Y1020D02*
X1005Y1020D01*
X1030Y1020D02*
X1039Y1020D01*
X1071Y1020D02*
X1080Y1020D01*
X1125Y1020D02*
X1135Y1020D01*
X1180Y1020D02*
X1189Y1020D01*
X1201Y1020D02*
X1210Y1020D01*
X1222Y1020D02*
X1232Y1020D01*
X1297Y1020D02*
X1307Y1020D01*
X1335Y1020D02*
X1382Y1020D01*
X1427Y1020D02*
X1437Y1020D01*
X1598Y1020D02*
X1608Y1020D01*
X1632Y1020D02*
X1642Y1020D01*
X1749Y1020D02*
X1759Y1020D01*
X1788Y1020D02*
X1801Y1020D01*
X1868Y1020D02*
X1879Y1020D01*
X1900Y1020D02*
X1910Y1020D01*
X166Y1019D02*
X176Y1019D01*
X241Y1019D02*
X251Y1019D01*
X276Y1019D02*
X286Y1019D01*
X317Y1019D02*
X327Y1019D01*
X380Y1019D02*
X389Y1019D01*
X468Y1019D02*
X477Y1019D01*
X543Y1019D02*
X553Y1019D01*
X608Y1019D02*
X618Y1019D01*
X653Y1019D02*
X663Y1019D01*
X694Y1019D02*
X704Y1019D01*
X749Y1019D02*
X758Y1019D01*
X899Y1019D02*
X909Y1019D01*
X954Y1019D02*
X964Y1019D01*
X995Y1019D02*
X1005Y1019D01*
X1030Y1019D02*
X1039Y1019D01*
X1071Y1019D02*
X1080Y1019D01*
X1125Y1019D02*
X1135Y1019D01*
X1180Y1019D02*
X1189Y1019D01*
X1201Y1019D02*
X1210Y1019D01*
X1222Y1019D02*
X1232Y1019D01*
X1297Y1019D02*
X1307Y1019D01*
X1372Y1019D02*
X1382Y1019D01*
X1427Y1019D02*
X1437Y1019D01*
X1598Y1019D02*
X1608Y1019D01*
X1632Y1019D02*
X1642Y1019D01*
X1749Y1019D02*
X1759Y1019D01*
X1787Y1019D02*
X1800Y1019D01*
X1867Y1019D02*
X1878Y1019D01*
X1900Y1019D02*
X1910Y1019D01*
X166Y1018D02*
X176Y1018D01*
X241Y1018D02*
X251Y1018D01*
X276Y1018D02*
X286Y1018D01*
X317Y1018D02*
X327Y1018D01*
X380Y1018D02*
X389Y1018D01*
X468Y1018D02*
X477Y1018D01*
X543Y1018D02*
X553Y1018D01*
X608Y1018D02*
X618Y1018D01*
X653Y1018D02*
X663Y1018D01*
X694Y1018D02*
X704Y1018D01*
X749Y1018D02*
X758Y1018D01*
X899Y1018D02*
X909Y1018D01*
X954Y1018D02*
X964Y1018D01*
X995Y1018D02*
X1005Y1018D01*
X1030Y1018D02*
X1039Y1018D01*
X1071Y1018D02*
X1080Y1018D01*
X1125Y1018D02*
X1135Y1018D01*
X1180Y1018D02*
X1189Y1018D01*
X1201Y1018D02*
X1210Y1018D01*
X1222Y1018D02*
X1232Y1018D01*
X1297Y1018D02*
X1307Y1018D01*
X1372Y1018D02*
X1382Y1018D01*
X1427Y1018D02*
X1437Y1018D01*
X1598Y1018D02*
X1608Y1018D01*
X1632Y1018D02*
X1642Y1018D01*
X1749Y1018D02*
X1759Y1018D01*
X1787Y1018D02*
X1799Y1018D01*
X1867Y1018D02*
X1878Y1018D01*
X1900Y1018D02*
X1910Y1018D01*
X166Y1017D02*
X176Y1017D01*
X240Y1017D02*
X251Y1017D01*
X276Y1017D02*
X286Y1017D01*
X317Y1017D02*
X327Y1017D01*
X380Y1017D02*
X389Y1017D01*
X468Y1017D02*
X477Y1017D01*
X543Y1017D02*
X553Y1017D01*
X608Y1017D02*
X618Y1017D01*
X653Y1017D02*
X662Y1017D01*
X694Y1017D02*
X704Y1017D01*
X749Y1017D02*
X758Y1017D01*
X899Y1017D02*
X909Y1017D01*
X954Y1017D02*
X964Y1017D01*
X995Y1017D02*
X1005Y1017D01*
X1030Y1017D02*
X1039Y1017D01*
X1071Y1017D02*
X1080Y1017D01*
X1125Y1017D02*
X1135Y1017D01*
X1180Y1017D02*
X1189Y1017D01*
X1201Y1017D02*
X1210Y1017D01*
X1222Y1017D02*
X1232Y1017D01*
X1297Y1017D02*
X1307Y1017D01*
X1372Y1017D02*
X1382Y1017D01*
X1427Y1017D02*
X1437Y1017D01*
X1598Y1017D02*
X1608Y1017D01*
X1632Y1017D02*
X1642Y1017D01*
X1749Y1017D02*
X1759Y1017D01*
X1786Y1017D02*
X1799Y1017D01*
X1866Y1017D02*
X1877Y1017D01*
X1900Y1017D02*
X1910Y1017D01*
X166Y1016D02*
X176Y1016D01*
X239Y1016D02*
X250Y1016D01*
X276Y1016D02*
X286Y1016D01*
X317Y1016D02*
X327Y1016D01*
X380Y1016D02*
X389Y1016D01*
X468Y1016D02*
X477Y1016D01*
X543Y1016D02*
X553Y1016D01*
X579Y1016D02*
X584Y1016D01*
X608Y1016D02*
X618Y1016D01*
X653Y1016D02*
X662Y1016D01*
X694Y1016D02*
X704Y1016D01*
X749Y1016D02*
X758Y1016D01*
X899Y1016D02*
X909Y1016D01*
X954Y1016D02*
X964Y1016D01*
X995Y1016D02*
X1005Y1016D01*
X1030Y1016D02*
X1039Y1016D01*
X1071Y1016D02*
X1080Y1016D01*
X1125Y1016D02*
X1135Y1016D01*
X1180Y1016D02*
X1189Y1016D01*
X1201Y1016D02*
X1210Y1016D01*
X1222Y1016D02*
X1232Y1016D01*
X1297Y1016D02*
X1307Y1016D01*
X1372Y1016D02*
X1382Y1016D01*
X1427Y1016D02*
X1437Y1016D01*
X1598Y1016D02*
X1608Y1016D01*
X1632Y1016D02*
X1642Y1016D01*
X1749Y1016D02*
X1759Y1016D01*
X1785Y1016D02*
X1798Y1016D01*
X1827Y1016D02*
X1832Y1016D01*
X1865Y1016D02*
X1877Y1016D01*
X1900Y1016D02*
X1910Y1016D01*
X166Y1015D02*
X176Y1015D01*
X238Y1015D02*
X250Y1015D01*
X276Y1015D02*
X286Y1015D01*
X317Y1015D02*
X327Y1015D01*
X380Y1015D02*
X389Y1015D01*
X468Y1015D02*
X477Y1015D01*
X543Y1015D02*
X553Y1015D01*
X578Y1015D02*
X585Y1015D01*
X608Y1015D02*
X618Y1015D01*
X653Y1015D02*
X662Y1015D01*
X694Y1015D02*
X704Y1015D01*
X749Y1015D02*
X758Y1015D01*
X899Y1015D02*
X909Y1015D01*
X954Y1015D02*
X964Y1015D01*
X995Y1015D02*
X1005Y1015D01*
X1030Y1015D02*
X1039Y1015D01*
X1071Y1015D02*
X1080Y1015D01*
X1125Y1015D02*
X1135Y1015D01*
X1180Y1015D02*
X1189Y1015D01*
X1201Y1015D02*
X1210Y1015D01*
X1222Y1015D02*
X1232Y1015D01*
X1297Y1015D02*
X1307Y1015D01*
X1372Y1015D02*
X1382Y1015D01*
X1427Y1015D02*
X1437Y1015D01*
X1598Y1015D02*
X1608Y1015D01*
X1632Y1015D02*
X1642Y1015D01*
X1749Y1015D02*
X1759Y1015D01*
X1785Y1015D02*
X1797Y1015D01*
X1826Y1015D02*
X1833Y1015D01*
X1865Y1015D02*
X1876Y1015D01*
X1900Y1015D02*
X1910Y1015D01*
X166Y1014D02*
X176Y1014D01*
X236Y1014D02*
X250Y1014D01*
X276Y1014D02*
X287Y1014D01*
X317Y1014D02*
X327Y1014D01*
X380Y1014D02*
X389Y1014D01*
X468Y1014D02*
X477Y1014D01*
X543Y1014D02*
X553Y1014D01*
X578Y1014D02*
X586Y1014D01*
X608Y1014D02*
X618Y1014D01*
X653Y1014D02*
X662Y1014D01*
X694Y1014D02*
X704Y1014D01*
X749Y1014D02*
X758Y1014D01*
X899Y1014D02*
X909Y1014D01*
X954Y1014D02*
X965Y1014D01*
X995Y1014D02*
X1005Y1014D01*
X1030Y1014D02*
X1039Y1014D01*
X1071Y1014D02*
X1080Y1014D01*
X1125Y1014D02*
X1135Y1014D01*
X1180Y1014D02*
X1189Y1014D01*
X1201Y1014D02*
X1210Y1014D01*
X1222Y1014D02*
X1232Y1014D01*
X1297Y1014D02*
X1307Y1014D01*
X1372Y1014D02*
X1382Y1014D01*
X1427Y1014D02*
X1437Y1014D01*
X1598Y1014D02*
X1608Y1014D01*
X1632Y1014D02*
X1642Y1014D01*
X1749Y1014D02*
X1759Y1014D01*
X1784Y1014D02*
X1796Y1014D01*
X1825Y1014D02*
X1834Y1014D01*
X1864Y1014D02*
X1875Y1014D01*
X1900Y1014D02*
X1910Y1014D01*
X165Y1013D02*
X176Y1013D01*
X235Y1013D02*
X249Y1013D01*
X276Y1013D02*
X289Y1013D01*
X317Y1013D02*
X327Y1013D01*
X380Y1013D02*
X389Y1013D01*
X468Y1013D02*
X477Y1013D01*
X542Y1013D02*
X552Y1013D01*
X577Y1013D02*
X586Y1013D01*
X608Y1013D02*
X618Y1013D01*
X653Y1013D02*
X662Y1013D01*
X694Y1013D02*
X704Y1013D01*
X749Y1013D02*
X758Y1013D01*
X899Y1013D02*
X909Y1013D01*
X954Y1013D02*
X967Y1013D01*
X995Y1013D02*
X1005Y1013D01*
X1030Y1013D02*
X1039Y1013D01*
X1071Y1013D02*
X1080Y1013D01*
X1125Y1013D02*
X1135Y1013D01*
X1180Y1013D02*
X1189Y1013D01*
X1201Y1013D02*
X1210Y1013D01*
X1222Y1013D02*
X1232Y1013D01*
X1297Y1013D02*
X1307Y1013D01*
X1371Y1013D02*
X1382Y1013D01*
X1427Y1013D02*
X1437Y1013D01*
X1598Y1013D02*
X1608Y1013D01*
X1632Y1013D02*
X1642Y1013D01*
X1749Y1013D02*
X1759Y1013D01*
X1784Y1013D02*
X1795Y1013D01*
X1825Y1013D02*
X1834Y1013D01*
X1864Y1013D02*
X1875Y1013D01*
X1900Y1013D02*
X1910Y1013D01*
X164Y1012D02*
X175Y1012D01*
X234Y1012D02*
X249Y1012D01*
X276Y1012D02*
X290Y1012D01*
X317Y1012D02*
X327Y1012D01*
X380Y1012D02*
X389Y1012D01*
X468Y1012D02*
X477Y1012D01*
X541Y1012D02*
X552Y1012D01*
X577Y1012D02*
X587Y1012D01*
X608Y1012D02*
X618Y1012D01*
X653Y1012D02*
X662Y1012D01*
X694Y1012D02*
X704Y1012D01*
X749Y1012D02*
X758Y1012D01*
X899Y1012D02*
X909Y1012D01*
X954Y1012D02*
X969Y1012D01*
X995Y1012D02*
X1005Y1012D01*
X1030Y1012D02*
X1039Y1012D01*
X1071Y1012D02*
X1080Y1012D01*
X1125Y1012D02*
X1135Y1012D01*
X1180Y1012D02*
X1189Y1012D01*
X1201Y1012D02*
X1210Y1012D01*
X1222Y1012D02*
X1232Y1012D01*
X1297Y1012D02*
X1307Y1012D01*
X1370Y1012D02*
X1381Y1012D01*
X1427Y1012D02*
X1437Y1012D01*
X1598Y1012D02*
X1608Y1012D01*
X1632Y1012D02*
X1642Y1012D01*
X1749Y1012D02*
X1759Y1012D01*
X1783Y1012D02*
X1795Y1012D01*
X1825Y1012D02*
X1834Y1012D01*
X1863Y1012D02*
X1874Y1012D01*
X1900Y1012D02*
X1910Y1012D01*
X163Y1011D02*
X175Y1011D01*
X233Y1011D02*
X248Y1011D01*
X276Y1011D02*
X292Y1011D01*
X317Y1011D02*
X326Y1011D01*
X380Y1011D02*
X389Y1011D01*
X468Y1011D02*
X477Y1011D01*
X540Y1011D02*
X552Y1011D01*
X577Y1011D02*
X587Y1011D01*
X608Y1011D02*
X618Y1011D01*
X653Y1011D02*
X662Y1011D01*
X694Y1011D02*
X704Y1011D01*
X749Y1011D02*
X758Y1011D01*
X899Y1011D02*
X909Y1011D01*
X954Y1011D02*
X970Y1011D01*
X995Y1011D02*
X1005Y1011D01*
X1030Y1011D02*
X1039Y1011D01*
X1071Y1011D02*
X1080Y1011D01*
X1125Y1011D02*
X1135Y1011D01*
X1180Y1011D02*
X1189Y1011D01*
X1201Y1011D02*
X1210Y1011D01*
X1222Y1011D02*
X1232Y1011D01*
X1297Y1011D02*
X1307Y1011D01*
X1369Y1011D02*
X1381Y1011D01*
X1427Y1011D02*
X1437Y1011D01*
X1598Y1011D02*
X1608Y1011D01*
X1632Y1011D02*
X1642Y1011D01*
X1749Y1011D02*
X1759Y1011D01*
X1783Y1011D02*
X1794Y1011D01*
X1825Y1011D02*
X1834Y1011D01*
X1862Y1011D02*
X1874Y1011D01*
X1900Y1011D02*
X1910Y1011D01*
X162Y1010D02*
X175Y1010D01*
X232Y1010D02*
X247Y1010D01*
X276Y1010D02*
X294Y1010D01*
X316Y1010D02*
X326Y1010D01*
X380Y1010D02*
X389Y1010D01*
X468Y1010D02*
X477Y1010D01*
X539Y1010D02*
X551Y1010D01*
X577Y1010D02*
X588Y1010D01*
X607Y1010D02*
X617Y1010D01*
X653Y1010D02*
X662Y1010D01*
X694Y1010D02*
X704Y1010D01*
X749Y1010D02*
X758Y1010D01*
X899Y1010D02*
X909Y1010D01*
X954Y1010D02*
X972Y1010D01*
X994Y1010D02*
X1005Y1010D01*
X1030Y1010D02*
X1039Y1010D01*
X1071Y1010D02*
X1080Y1010D01*
X1125Y1010D02*
X1135Y1010D01*
X1180Y1010D02*
X1189Y1010D01*
X1201Y1010D02*
X1210Y1010D01*
X1222Y1010D02*
X1232Y1010D01*
X1297Y1010D02*
X1307Y1010D01*
X1368Y1010D02*
X1381Y1010D01*
X1427Y1010D02*
X1437Y1010D01*
X1598Y1010D02*
X1608Y1010D01*
X1632Y1010D02*
X1642Y1010D01*
X1749Y1010D02*
X1759Y1010D01*
X1783Y1010D02*
X1793Y1010D01*
X1824Y1010D02*
X1834Y1010D01*
X1862Y1010D02*
X1873Y1010D01*
X1900Y1010D02*
X1910Y1010D01*
X160Y1009D02*
X174Y1009D01*
X230Y1009D02*
X246Y1009D01*
X276Y1009D02*
X295Y1009D01*
X315Y1009D02*
X326Y1009D01*
X380Y1009D02*
X389Y1009D01*
X468Y1009D02*
X477Y1009D01*
X537Y1009D02*
X551Y1009D01*
X578Y1009D02*
X589Y1009D01*
X606Y1009D02*
X617Y1009D01*
X653Y1009D02*
X662Y1009D01*
X694Y1009D02*
X704Y1009D01*
X749Y1009D02*
X758Y1009D01*
X899Y1009D02*
X909Y1009D01*
X954Y1009D02*
X974Y1009D01*
X993Y1009D02*
X1004Y1009D01*
X1030Y1009D02*
X1039Y1009D01*
X1071Y1009D02*
X1080Y1009D01*
X1125Y1009D02*
X1135Y1009D01*
X1180Y1009D02*
X1189Y1009D01*
X1201Y1009D02*
X1210Y1009D01*
X1222Y1009D02*
X1232Y1009D01*
X1297Y1009D02*
X1307Y1009D01*
X1366Y1009D02*
X1380Y1009D01*
X1427Y1009D02*
X1437Y1009D01*
X1598Y1009D02*
X1608Y1009D01*
X1632Y1009D02*
X1642Y1009D01*
X1749Y1009D02*
X1759Y1009D01*
X1783Y1009D02*
X1793Y1009D01*
X1823Y1009D02*
X1834Y1009D01*
X1861Y1009D02*
X1873Y1009D01*
X1900Y1009D02*
X1910Y1009D01*
X130Y1008D02*
X173Y1008D01*
X205Y1008D02*
X245Y1008D01*
X276Y1008D02*
X326Y1008D01*
X380Y1008D02*
X389Y1008D01*
X468Y1008D02*
X477Y1008D01*
X507Y1008D02*
X550Y1008D01*
X578Y1008D02*
X617Y1008D01*
X653Y1008D02*
X662Y1008D01*
X694Y1008D02*
X704Y1008D01*
X733Y1008D02*
X774Y1008D01*
X889Y1008D02*
X920Y1008D01*
X954Y1008D02*
X1004Y1008D01*
X1030Y1008D02*
X1039Y1008D01*
X1071Y1008D02*
X1080Y1008D01*
X1115Y1008D02*
X1146Y1008D01*
X1180Y1008D02*
X1189Y1008D01*
X1201Y1008D02*
X1210Y1008D01*
X1222Y1008D02*
X1232Y1008D01*
X1297Y1008D02*
X1307Y1008D01*
X1336Y1008D02*
X1380Y1008D01*
X1427Y1008D02*
X1437Y1008D01*
X1562Y1008D02*
X1608Y1008D01*
X1632Y1008D02*
X1679Y1008D01*
X1713Y1008D02*
X1759Y1008D01*
X1783Y1008D02*
X1834Y1008D01*
X1861Y1008D02*
X1872Y1008D01*
X1900Y1008D02*
X1910Y1008D01*
X127Y1007D02*
X173Y1007D01*
X202Y1007D02*
X243Y1007D01*
X276Y1007D02*
X325Y1007D01*
X380Y1007D02*
X389Y1007D01*
X468Y1007D02*
X477Y1007D01*
X504Y1007D02*
X550Y1007D01*
X578Y1007D02*
X617Y1007D01*
X653Y1007D02*
X662Y1007D01*
X694Y1007D02*
X704Y1007D01*
X730Y1007D02*
X777Y1007D01*
X886Y1007D02*
X922Y1007D01*
X954Y1007D02*
X1004Y1007D01*
X1030Y1007D02*
X1039Y1007D01*
X1071Y1007D02*
X1080Y1007D01*
X1112Y1007D02*
X1148Y1007D01*
X1179Y1007D02*
X1189Y1007D01*
X1201Y1007D02*
X1210Y1007D01*
X1222Y1007D02*
X1232Y1007D01*
X1297Y1007D02*
X1307Y1007D01*
X1333Y1007D02*
X1379Y1007D01*
X1427Y1007D02*
X1437Y1007D01*
X1559Y1007D02*
X1608Y1007D01*
X1632Y1007D02*
X1681Y1007D01*
X1710Y1007D02*
X1759Y1007D01*
X1783Y1007D02*
X1833Y1007D01*
X1860Y1007D02*
X1871Y1007D01*
X1900Y1007D02*
X1910Y1007D01*
X126Y1006D02*
X172Y1006D01*
X201Y1006D02*
X242Y1006D01*
X276Y1006D02*
X325Y1006D01*
X380Y1006D02*
X389Y1006D01*
X468Y1006D02*
X477Y1006D01*
X503Y1006D02*
X549Y1006D01*
X579Y1006D02*
X616Y1006D01*
X653Y1006D02*
X662Y1006D01*
X694Y1006D02*
X704Y1006D01*
X729Y1006D02*
X778Y1006D01*
X885Y1006D02*
X923Y1006D01*
X954Y1006D02*
X1003Y1006D01*
X1030Y1006D02*
X1039Y1006D01*
X1071Y1006D02*
X1080Y1006D01*
X1111Y1006D02*
X1149Y1006D01*
X1179Y1006D02*
X1189Y1006D01*
X1201Y1006D02*
X1210Y1006D01*
X1222Y1006D02*
X1232Y1006D01*
X1297Y1006D02*
X1307Y1006D01*
X1332Y1006D02*
X1378Y1006D01*
X1427Y1006D02*
X1437Y1006D01*
X1558Y1006D02*
X1608Y1006D01*
X1633Y1006D02*
X1682Y1006D01*
X1709Y1006D02*
X1759Y1006D01*
X1784Y1006D02*
X1833Y1006D01*
X1860Y1006D02*
X1871Y1006D01*
X1900Y1006D02*
X1910Y1006D01*
X125Y1005D02*
X171Y1005D01*
X201Y1005D02*
X241Y1005D01*
X276Y1005D02*
X324Y1005D01*
X380Y1005D02*
X389Y1005D01*
X468Y1005D02*
X477Y1005D01*
X502Y1005D02*
X548Y1005D01*
X579Y1005D02*
X615Y1005D01*
X653Y1005D02*
X662Y1005D01*
X694Y1005D02*
X704Y1005D01*
X728Y1005D02*
X778Y1005D01*
X884Y1005D02*
X924Y1005D01*
X954Y1005D02*
X1003Y1005D01*
X1029Y1005D02*
X1039Y1005D01*
X1071Y1005D02*
X1080Y1005D01*
X1110Y1005D02*
X1150Y1005D01*
X1179Y1005D02*
X1189Y1005D01*
X1201Y1005D02*
X1210Y1005D01*
X1222Y1005D02*
X1232Y1005D01*
X1297Y1005D02*
X1307Y1005D01*
X1331Y1005D02*
X1377Y1005D01*
X1427Y1005D02*
X1437Y1005D01*
X1557Y1005D02*
X1608Y1005D01*
X1633Y1005D02*
X1683Y1005D01*
X1708Y1005D02*
X1759Y1005D01*
X1784Y1005D02*
X1832Y1005D01*
X1859Y1005D02*
X1870Y1005D01*
X1900Y1005D02*
X1910Y1005D01*
X125Y1004D02*
X170Y1004D01*
X200Y1004D02*
X240Y1004D01*
X276Y1004D02*
X324Y1004D01*
X380Y1004D02*
X389Y1004D01*
X468Y1004D02*
X477Y1004D01*
X502Y1004D02*
X547Y1004D01*
X580Y1004D02*
X615Y1004D01*
X653Y1004D02*
X662Y1004D01*
X694Y1004D02*
X704Y1004D01*
X728Y1004D02*
X779Y1004D01*
X884Y1004D02*
X924Y1004D01*
X954Y1004D02*
X1002Y1004D01*
X1029Y1004D02*
X1039Y1004D01*
X1071Y1004D02*
X1080Y1004D01*
X1110Y1004D02*
X1150Y1004D01*
X1179Y1004D02*
X1189Y1004D01*
X1201Y1004D02*
X1210Y1004D01*
X1222Y1004D02*
X1232Y1004D01*
X1297Y1004D02*
X1307Y1004D01*
X1331Y1004D02*
X1376Y1004D01*
X1427Y1004D02*
X1437Y1004D01*
X1557Y1004D02*
X1608Y1004D01*
X1633Y1004D02*
X1683Y1004D01*
X1708Y1004D02*
X1759Y1004D01*
X1785Y1004D02*
X1832Y1004D01*
X1859Y1004D02*
X1870Y1004D01*
X1900Y1004D02*
X1910Y1004D01*
X125Y1003D02*
X169Y1003D01*
X200Y1003D02*
X239Y1003D01*
X276Y1003D02*
X323Y1003D01*
X380Y1003D02*
X389Y1003D01*
X468Y1003D02*
X477Y1003D01*
X502Y1003D02*
X546Y1003D01*
X581Y1003D02*
X614Y1003D01*
X653Y1003D02*
X662Y1003D01*
X702Y1003D02*
X704Y1003D01*
X728Y1003D02*
X779Y1003D01*
X884Y1003D02*
X924Y1003D01*
X954Y1003D02*
X1001Y1003D01*
X1029Y1003D02*
X1039Y1003D01*
X1071Y1003D02*
X1080Y1003D01*
X1110Y1003D02*
X1151Y1003D01*
X1179Y1003D02*
X1189Y1003D01*
X1201Y1003D02*
X1210Y1003D01*
X1222Y1003D02*
X1232Y1003D01*
X1297Y1003D02*
X1307Y1003D01*
X1331Y1003D02*
X1375Y1003D01*
X1427Y1003D02*
X1437Y1003D01*
X1557Y1003D02*
X1608Y1003D01*
X1634Y1003D02*
X1683Y1003D01*
X1708Y1003D02*
X1759Y1003D01*
X1785Y1003D02*
X1831Y1003D01*
X1858Y1003D02*
X1869Y1003D01*
X1900Y1003D02*
X1910Y1003D01*
X125Y1002D02*
X168Y1002D01*
X200Y1002D02*
X238Y1002D01*
X276Y1002D02*
X285Y1002D01*
X287Y1002D02*
X322Y1002D01*
X380Y1002D02*
X389Y1002D01*
X468Y1002D02*
X477Y1002D01*
X502Y1002D02*
X545Y1002D01*
X582Y1002D02*
X613Y1002D01*
X653Y1002D02*
X662Y1002D01*
X728Y1002D02*
X779Y1002D01*
X884Y1002D02*
X924Y1002D01*
X954Y1002D02*
X963Y1002D01*
X966Y1002D02*
X1000Y1002D01*
X1030Y1002D02*
X1039Y1002D01*
X1071Y1002D02*
X1080Y1002D01*
X1110Y1002D02*
X1151Y1002D01*
X1179Y1002D02*
X1189Y1002D01*
X1201Y1002D02*
X1210Y1002D01*
X1223Y1002D02*
X1232Y1002D01*
X1297Y1002D02*
X1306Y1002D01*
X1331Y1002D02*
X1374Y1002D01*
X1427Y1002D02*
X1436Y1002D01*
X1557Y1002D02*
X1608Y1002D01*
X1634Y1002D02*
X1683Y1002D01*
X1708Y1002D02*
X1759Y1002D01*
X1786Y1002D02*
X1830Y1002D01*
X1859Y1002D02*
X1868Y1002D01*
X1900Y1002D02*
X1909Y1002D01*
X125Y1001D02*
X166Y1001D01*
X201Y1001D02*
X236Y1001D01*
X276Y1001D02*
X285Y1001D01*
X289Y1001D02*
X321Y1001D01*
X380Y1001D02*
X389Y1001D01*
X468Y1001D02*
X477Y1001D01*
X502Y1001D02*
X543Y1001D01*
X583Y1001D02*
X612Y1001D01*
X653Y1001D02*
X662Y1001D01*
X728Y1001D02*
X777Y1001D01*
X884Y1001D02*
X924Y1001D01*
X954Y1001D02*
X963Y1001D01*
X967Y1001D02*
X999Y1001D01*
X1030Y1001D02*
X1039Y1001D01*
X1071Y1001D02*
X1080Y1001D01*
X1110Y1001D02*
X1150Y1001D01*
X1180Y1001D02*
X1188Y1001D01*
X1201Y1001D02*
X1210Y1001D01*
X1223Y1001D02*
X1232Y1001D01*
X1297Y1001D02*
X1306Y1001D01*
X1331Y1001D02*
X1372Y1001D01*
X1427Y1001D02*
X1436Y1001D01*
X1557Y1001D02*
X1608Y1001D01*
X1635Y1001D02*
X1683Y1001D01*
X1708Y1001D02*
X1759Y1001D01*
X1787Y1001D02*
X1829Y1001D01*
X1859Y1001D02*
X1868Y1001D01*
X1900Y1001D02*
X1909Y1001D01*
X126Y1000D02*
X165Y1000D01*
X201Y1000D02*
X235Y1000D01*
X276Y1000D02*
X284Y1000D01*
X291Y1000D02*
X319Y1000D01*
X380Y1000D02*
X388Y1000D01*
X469Y1000D02*
X477Y1000D01*
X503Y1000D02*
X542Y1000D01*
X584Y1000D02*
X611Y1000D01*
X653Y1000D02*
X661Y1000D01*
X729Y1000D02*
X775Y1000D01*
X885Y1000D02*
X924Y1000D01*
X955Y1000D02*
X963Y1000D01*
X969Y1000D02*
X998Y1000D01*
X1030Y1000D02*
X1038Y1000D01*
X1072Y1000D02*
X1080Y1000D01*
X1111Y1000D02*
X1150Y1000D01*
X1180Y1000D02*
X1188Y1000D01*
X1202Y1000D02*
X1210Y1000D01*
X1223Y1000D02*
X1231Y1000D01*
X1298Y1000D02*
X1306Y1000D01*
X1332Y1000D02*
X1371Y1000D01*
X1428Y1000D02*
X1436Y1000D01*
X1558Y1000D02*
X1608Y1000D01*
X1636Y1000D02*
X1683Y1000D01*
X1709Y1000D02*
X1759Y1000D01*
X1788Y1000D02*
X1828Y1000D01*
X1859Y1000D02*
X1867Y1000D01*
X1901Y1000D02*
X1909Y1000D01*
X127Y999D02*
X163Y999D01*
X202Y999D02*
X233Y999D01*
X277Y999D02*
X283Y999D01*
X293Y999D02*
X318Y999D01*
X381Y999D02*
X387Y999D01*
X470Y999D02*
X476Y999D01*
X503Y999D02*
X540Y999D01*
X586Y999D02*
X609Y999D01*
X654Y999D02*
X660Y999D01*
X730Y999D02*
X773Y999D01*
X886Y999D02*
X923Y999D01*
X956Y999D02*
X962Y999D01*
X971Y999D02*
X996Y999D01*
X1031Y999D02*
X1037Y999D01*
X1073Y999D02*
X1079Y999D01*
X1112Y999D02*
X1149Y999D01*
X1181Y999D02*
X1187Y999D01*
X1203Y999D02*
X1209Y999D01*
X1224Y999D02*
X1230Y999D01*
X1299Y999D02*
X1305Y999D01*
X1333Y999D02*
X1369Y999D01*
X1429Y999D02*
X1435Y999D01*
X1559Y999D02*
X1608Y999D01*
X1638Y999D02*
X1682Y999D01*
X1709Y999D02*
X1759Y999D01*
X1789Y999D02*
X1826Y999D01*
X1860Y999D02*
X1866Y999D01*
X1902Y999D02*
X1908Y999D01*
X128Y998D02*
X160Y998D01*
X203Y998D02*
X230Y998D01*
X279Y998D02*
X282Y998D01*
X294Y998D02*
X315Y998D01*
X383Y998D02*
X386Y998D01*
X471Y998D02*
X474Y998D01*
X505Y998D02*
X537Y998D01*
X589Y998D02*
X606Y998D01*
X656Y998D02*
X659Y998D01*
X731Y998D02*
X771Y998D01*
X887Y998D02*
X921Y998D01*
X957Y998D02*
X960Y998D01*
X973Y998D02*
X993Y998D01*
X1033Y998D02*
X1036Y998D01*
X1074Y998D02*
X1077Y998D01*
X1113Y998D02*
X1147Y998D01*
X1182Y998D02*
X1186Y998D01*
X1204Y998D02*
X1207Y998D01*
X1226Y998D02*
X1229Y998D01*
X1300Y998D02*
X1303Y998D01*
X1334Y998D02*
X1366Y998D01*
X1430Y998D02*
X1433Y998D01*
X1560Y998D02*
X1608Y998D01*
X1640Y998D02*
X1680Y998D01*
X1711Y998D02*
X1759Y998D01*
X1792Y998D02*
X1824Y998D01*
X1862Y998D02*
X1865Y998D01*
X1903Y998D02*
X1906Y998D01*
X1041Y258D02*
X1050Y258D01*
X1749Y258D02*
X1758Y258D01*
X1040Y257D02*
X1051Y257D01*
X1748Y257D02*
X1759Y257D01*
X1039Y256D02*
X1052Y256D01*
X1747Y256D02*
X1760Y256D01*
X1039Y255D02*
X1052Y255D01*
X1747Y255D02*
X1760Y255D01*
X260Y254D02*
X286Y254D01*
X389Y254D02*
X423Y254D01*
X524Y254D02*
X569Y254D01*
X614Y254D02*
X640Y254D01*
X672Y254D02*
X707Y254D01*
X743Y254D02*
X781Y254D01*
X1039Y254D02*
X1053Y254D01*
X1466Y254D02*
X1484Y254D01*
X1530Y254D02*
X1563Y254D01*
X1662Y254D02*
X1679Y254D01*
X1747Y254D02*
X1761Y254D01*
X1911Y254D02*
X1914Y254D01*
X260Y253D02*
X287Y253D01*
X387Y253D02*
X425Y253D01*
X524Y253D02*
X570Y253D01*
X614Y253D02*
X641Y253D01*
X670Y253D02*
X709Y253D01*
X741Y253D02*
X783Y253D01*
X1039Y253D02*
X1053Y253D01*
X1465Y253D02*
X1486Y253D01*
X1527Y253D02*
X1563Y253D01*
X1660Y253D02*
X1682Y253D01*
X1747Y253D02*
X1761Y253D01*
X1909Y253D02*
X1915Y253D01*
X260Y252D02*
X288Y252D01*
X385Y252D02*
X427Y252D01*
X524Y252D02*
X571Y252D01*
X614Y252D02*
X642Y252D01*
X669Y252D02*
X710Y252D01*
X739Y252D02*
X783Y252D01*
X1039Y252D02*
X1053Y252D01*
X1464Y252D02*
X1487Y252D01*
X1525Y252D02*
X1563Y252D01*
X1660Y252D02*
X1684Y252D01*
X1747Y252D02*
X1761Y252D01*
X1909Y252D02*
X1916Y252D01*
X260Y251D02*
X288Y251D01*
X384Y251D02*
X428Y251D01*
X524Y251D02*
X571Y251D01*
X614Y251D02*
X642Y251D01*
X668Y251D02*
X711Y251D01*
X738Y251D02*
X784Y251D01*
X1039Y251D02*
X1053Y251D01*
X1464Y251D02*
X1487Y251D01*
X1523Y251D02*
X1563Y251D01*
X1659Y251D02*
X1685Y251D01*
X1747Y251D02*
X1761Y251D01*
X1908Y251D02*
X1917Y251D01*
X260Y250D02*
X288Y250D01*
X384Y250D02*
X428Y250D01*
X524Y250D02*
X571Y250D01*
X614Y250D02*
X642Y250D01*
X667Y250D02*
X712Y250D01*
X738Y250D02*
X784Y250D01*
X910Y250D02*
X913Y250D01*
X1039Y250D02*
X1053Y250D01*
X1464Y250D02*
X1487Y250D01*
X1522Y250D02*
X1563Y250D01*
X1659Y250D02*
X1687Y250D01*
X1747Y250D02*
X1761Y250D01*
X1908Y250D02*
X1917Y250D01*
X260Y249D02*
X288Y249D01*
X383Y249D02*
X429Y249D01*
X524Y249D02*
X572Y249D01*
X614Y249D02*
X642Y249D01*
X666Y249D02*
X712Y249D01*
X737Y249D02*
X784Y249D01*
X908Y249D02*
X914Y249D01*
X1039Y249D02*
X1053Y249D01*
X1464Y249D02*
X1487Y249D01*
X1521Y249D02*
X1563Y249D01*
X1659Y249D02*
X1688Y249D01*
X1747Y249D02*
X1761Y249D01*
X1908Y249D02*
X1917Y249D01*
X260Y248D02*
X288Y248D01*
X383Y248D02*
X429Y248D01*
X524Y248D02*
X572Y248D01*
X614Y248D02*
X642Y248D01*
X666Y248D02*
X713Y248D01*
X737Y248D02*
X784Y248D01*
X908Y248D02*
X915Y248D01*
X1039Y248D02*
X1052Y248D01*
X1464Y248D02*
X1487Y248D01*
X1520Y248D02*
X1563Y248D01*
X1659Y248D02*
X1688Y248D01*
X1747Y248D02*
X1760Y248D01*
X1908Y248D02*
X1917Y248D01*
X260Y247D02*
X287Y247D01*
X382Y247D02*
X430Y247D01*
X524Y247D02*
X572Y247D01*
X614Y247D02*
X641Y247D01*
X665Y247D02*
X713Y247D01*
X736Y247D02*
X783Y247D01*
X907Y247D02*
X916Y247D01*
X1040Y247D02*
X1052Y247D01*
X1464Y247D02*
X1486Y247D01*
X1519Y247D02*
X1563Y247D01*
X1660Y247D02*
X1689Y247D01*
X1748Y247D02*
X1760Y247D01*
X1908Y247D02*
X1917Y247D01*
X260Y246D02*
X287Y246D01*
X382Y246D02*
X430Y246D01*
X524Y246D02*
X572Y246D01*
X614Y246D02*
X641Y246D01*
X665Y246D02*
X713Y246D01*
X736Y246D02*
X782Y246D01*
X907Y246D02*
X916Y246D01*
X1041Y246D02*
X1051Y246D01*
X1464Y246D02*
X1485Y246D01*
X1518Y246D02*
X1563Y246D01*
X1661Y246D02*
X1690Y246D01*
X1749Y246D02*
X1759Y246D01*
X1908Y246D02*
X1917Y246D01*
X260Y245D02*
X285Y245D01*
X382Y245D02*
X430Y245D01*
X524Y245D02*
X571Y245D01*
X614Y245D02*
X639Y245D01*
X665Y245D02*
X713Y245D01*
X736Y245D02*
X781Y245D01*
X907Y245D02*
X916Y245D01*
X1042Y245D02*
X1049Y245D01*
X1464Y245D02*
X1484Y245D01*
X1518Y245D02*
X1563Y245D01*
X1662Y245D02*
X1690Y245D01*
X1750Y245D02*
X1757Y245D01*
X1908Y245D02*
X1917Y245D01*
X260Y244D02*
X269Y244D01*
X382Y244D02*
X391Y244D01*
X421Y244D02*
X430Y244D01*
X524Y244D02*
X533Y244D01*
X563Y244D02*
X571Y244D01*
X614Y244D02*
X623Y244D01*
X665Y244D02*
X674Y244D01*
X704Y244D02*
X713Y244D01*
X736Y244D02*
X745Y244D01*
X907Y244D02*
X916Y244D01*
X1464Y244D02*
X1473Y244D01*
X1517Y244D02*
X1530Y244D01*
X1554Y244D02*
X1563Y244D01*
X1679Y244D02*
X1691Y244D01*
X1908Y244D02*
X1917Y244D01*
X260Y243D02*
X269Y243D01*
X382Y243D02*
X391Y243D01*
X421Y243D02*
X430Y243D01*
X524Y243D02*
X533Y243D01*
X563Y243D02*
X571Y243D01*
X614Y243D02*
X623Y243D01*
X665Y243D02*
X674Y243D01*
X704Y243D02*
X713Y243D01*
X736Y243D02*
X745Y243D01*
X907Y243D02*
X916Y243D01*
X1464Y243D02*
X1473Y243D01*
X1517Y243D02*
X1528Y243D01*
X1554Y243D02*
X1563Y243D01*
X1681Y243D02*
X1691Y243D01*
X1908Y243D02*
X1917Y243D01*
X260Y242D02*
X269Y242D01*
X382Y242D02*
X391Y242D01*
X421Y242D02*
X430Y242D01*
X524Y242D02*
X533Y242D01*
X564Y242D02*
X570Y242D01*
X614Y242D02*
X623Y242D01*
X665Y242D02*
X674Y242D01*
X704Y242D02*
X713Y242D01*
X736Y242D02*
X745Y242D01*
X907Y242D02*
X916Y242D01*
X1464Y242D02*
X1473Y242D01*
X1516Y242D02*
X1527Y242D01*
X1554Y242D02*
X1563Y242D01*
X1682Y242D02*
X1692Y242D01*
X1908Y242D02*
X1917Y242D01*
X260Y241D02*
X269Y241D01*
X382Y241D02*
X391Y241D01*
X421Y241D02*
X430Y241D01*
X524Y241D02*
X533Y241D01*
X566Y241D02*
X569Y241D01*
X614Y241D02*
X623Y241D01*
X665Y241D02*
X674Y241D01*
X704Y241D02*
X713Y241D01*
X736Y241D02*
X745Y241D01*
X907Y241D02*
X916Y241D01*
X1464Y241D02*
X1473Y241D01*
X1516Y241D02*
X1526Y241D01*
X1554Y241D02*
X1563Y241D01*
X1682Y241D02*
X1692Y241D01*
X1908Y241D02*
X1917Y241D01*
X260Y240D02*
X269Y240D01*
X382Y240D02*
X391Y240D01*
X421Y240D02*
X430Y240D01*
X524Y240D02*
X533Y240D01*
X614Y240D02*
X623Y240D01*
X665Y240D02*
X674Y240D01*
X704Y240D02*
X713Y240D01*
X736Y240D02*
X745Y240D01*
X907Y240D02*
X916Y240D01*
X1464Y240D02*
X1473Y240D01*
X1516Y240D02*
X1525Y240D01*
X1554Y240D02*
X1563Y240D01*
X1683Y240D02*
X1692Y240D01*
X1908Y240D02*
X1917Y240D01*
X260Y239D02*
X269Y239D01*
X382Y239D02*
X391Y239D01*
X421Y239D02*
X430Y239D01*
X524Y239D02*
X533Y239D01*
X614Y239D02*
X623Y239D01*
X665Y239D02*
X674Y239D01*
X704Y239D02*
X713Y239D01*
X736Y239D02*
X745Y239D01*
X907Y239D02*
X916Y239D01*
X1464Y239D02*
X1473Y239D01*
X1515Y239D02*
X1525Y239D01*
X1554Y239D02*
X1563Y239D01*
X1683Y239D02*
X1692Y239D01*
X1908Y239D02*
X1917Y239D01*
X260Y238D02*
X269Y238D01*
X382Y238D02*
X391Y238D01*
X421Y238D02*
X430Y238D01*
X524Y238D02*
X533Y238D01*
X614Y238D02*
X623Y238D01*
X665Y238D02*
X674Y238D01*
X704Y238D02*
X713Y238D01*
X736Y238D02*
X745Y238D01*
X907Y238D02*
X916Y238D01*
X1464Y238D02*
X1473Y238D01*
X1515Y238D02*
X1524Y238D01*
X1554Y238D02*
X1563Y238D01*
X1683Y238D02*
X1692Y238D01*
X1908Y238D02*
X1917Y238D01*
X260Y237D02*
X269Y237D01*
X382Y237D02*
X391Y237D01*
X421Y237D02*
X430Y237D01*
X524Y237D02*
X533Y237D01*
X614Y237D02*
X623Y237D01*
X665Y237D02*
X674Y237D01*
X704Y237D02*
X713Y237D01*
X736Y237D02*
X745Y237D01*
X907Y237D02*
X916Y237D01*
X1464Y237D02*
X1473Y237D01*
X1515Y237D02*
X1524Y237D01*
X1554Y237D02*
X1563Y237D01*
X1683Y237D02*
X1692Y237D01*
X1908Y237D02*
X1917Y237D01*
X260Y236D02*
X269Y236D01*
X382Y236D02*
X391Y236D01*
X421Y236D02*
X430Y236D01*
X524Y236D02*
X533Y236D01*
X614Y236D02*
X623Y236D01*
X665Y236D02*
X674Y236D01*
X704Y236D02*
X713Y236D01*
X736Y236D02*
X745Y236D01*
X907Y236D02*
X916Y236D01*
X1464Y236D02*
X1473Y236D01*
X1515Y236D02*
X1524Y236D01*
X1554Y236D02*
X1563Y236D01*
X1683Y236D02*
X1692Y236D01*
X1908Y236D02*
X1917Y236D01*
X260Y235D02*
X269Y235D01*
X382Y235D02*
X391Y235D01*
X421Y235D02*
X430Y235D01*
X524Y235D02*
X533Y235D01*
X614Y235D02*
X623Y235D01*
X665Y235D02*
X674Y235D01*
X704Y235D02*
X713Y235D01*
X736Y235D02*
X745Y235D01*
X907Y235D02*
X916Y235D01*
X1464Y235D02*
X1473Y235D01*
X1515Y235D02*
X1524Y235D01*
X1554Y235D02*
X1563Y235D01*
X1683Y235D02*
X1692Y235D01*
X1908Y235D02*
X1917Y235D01*
X260Y234D02*
X269Y234D01*
X382Y234D02*
X391Y234D01*
X421Y234D02*
X430Y234D01*
X524Y234D02*
X533Y234D01*
X614Y234D02*
X623Y234D01*
X665Y234D02*
X674Y234D01*
X704Y234D02*
X713Y234D01*
X736Y234D02*
X745Y234D01*
X907Y234D02*
X916Y234D01*
X1464Y234D02*
X1473Y234D01*
X1515Y234D02*
X1524Y234D01*
X1554Y234D02*
X1563Y234D01*
X1683Y234D02*
X1693Y234D01*
X1908Y234D02*
X1917Y234D01*
X260Y233D02*
X269Y233D01*
X314Y233D02*
X318Y233D01*
X353Y233D02*
X357Y233D01*
X382Y233D02*
X391Y233D01*
X421Y233D02*
X430Y233D01*
X524Y233D02*
X533Y233D01*
X614Y233D02*
X623Y233D01*
X665Y233D02*
X674Y233D01*
X704Y233D02*
X713Y233D01*
X736Y233D02*
X745Y233D01*
X885Y233D02*
X923Y233D01*
X958Y233D02*
X987Y233D01*
X1041Y233D02*
X1060Y233D01*
X1093Y233D02*
X1097Y233D01*
X1132Y233D02*
X1136Y233D01*
X1163Y233D02*
X1167Y233D01*
X1180Y233D02*
X1195Y233D01*
X1241Y233D02*
X1246Y233D01*
X1259Y233D02*
X1266Y233D01*
X1274Y233D02*
X1278Y233D01*
X1316Y233D02*
X1337Y233D01*
X1387Y233D02*
X1408Y233D01*
X1464Y233D02*
X1473Y233D01*
X1515Y233D02*
X1524Y233D01*
X1554Y233D02*
X1563Y233D01*
X1671Y233D02*
X1700Y233D01*
X1749Y233D02*
X1768Y233D01*
X1812Y233D02*
X1832Y233D01*
X1908Y233D02*
X1917Y233D01*
X260Y232D02*
X269Y232D01*
X312Y232D02*
X319Y232D01*
X351Y232D02*
X358Y232D01*
X382Y232D02*
X391Y232D01*
X421Y232D02*
X430Y232D01*
X524Y232D02*
X533Y232D01*
X614Y232D02*
X623Y232D01*
X665Y232D02*
X674Y232D01*
X704Y232D02*
X713Y232D01*
X736Y232D02*
X745Y232D01*
X884Y232D02*
X924Y232D01*
X956Y232D02*
X989Y232D01*
X1040Y232D02*
X1061Y232D01*
X1091Y232D02*
X1098Y232D01*
X1130Y232D02*
X1137Y232D01*
X1162Y232D02*
X1169Y232D01*
X1177Y232D02*
X1197Y232D01*
X1239Y232D02*
X1249Y232D01*
X1257Y232D02*
X1268Y232D01*
X1273Y232D02*
X1279Y232D01*
X1314Y232D02*
X1339Y232D01*
X1385Y232D02*
X1410Y232D01*
X1464Y232D02*
X1473Y232D01*
X1515Y232D02*
X1524Y232D01*
X1554Y232D02*
X1563Y232D01*
X1670Y232D02*
X1701Y232D01*
X1748Y232D02*
X1769Y232D01*
X1810Y232D02*
X1835Y232D01*
X1908Y232D02*
X1917Y232D01*
X260Y231D02*
X269Y231D01*
X312Y231D02*
X320Y231D01*
X351Y231D02*
X359Y231D01*
X382Y231D02*
X391Y231D01*
X421Y231D02*
X430Y231D01*
X524Y231D02*
X533Y231D01*
X614Y231D02*
X623Y231D01*
X665Y231D02*
X674Y231D01*
X704Y231D02*
X713Y231D01*
X736Y231D02*
X745Y231D01*
X883Y231D02*
X925Y231D01*
X954Y231D02*
X990Y231D01*
X1039Y231D02*
X1062Y231D01*
X1091Y231D02*
X1098Y231D01*
X1130Y231D02*
X1137Y231D01*
X1161Y231D02*
X1169Y231D01*
X1176Y231D02*
X1199Y231D01*
X1237Y231D02*
X1250Y231D01*
X1256Y231D02*
X1270Y231D01*
X1272Y231D02*
X1280Y231D01*
X1312Y231D02*
X1341Y231D01*
X1383Y231D02*
X1411Y231D01*
X1464Y231D02*
X1473Y231D01*
X1515Y231D02*
X1524Y231D01*
X1554Y231D02*
X1563Y231D01*
X1669Y231D02*
X1702Y231D01*
X1747Y231D02*
X1770Y231D01*
X1808Y231D02*
X1836Y231D01*
X1908Y231D02*
X1917Y231D01*
X260Y230D02*
X269Y230D01*
X311Y230D02*
X320Y230D01*
X350Y230D02*
X359Y230D01*
X382Y230D02*
X391Y230D01*
X421Y230D02*
X430Y230D01*
X524Y230D02*
X533Y230D01*
X614Y230D02*
X623Y230D01*
X665Y230D02*
X674Y230D01*
X704Y230D02*
X713Y230D01*
X736Y230D02*
X745Y230D01*
X883Y230D02*
X925Y230D01*
X953Y230D02*
X992Y230D01*
X1039Y230D02*
X1062Y230D01*
X1090Y230D02*
X1099Y230D01*
X1129Y230D02*
X1138Y230D01*
X1161Y230D02*
X1170Y230D01*
X1174Y230D02*
X1200Y230D01*
X1236Y230D02*
X1252Y230D01*
X1255Y230D02*
X1280Y230D01*
X1311Y230D02*
X1342Y230D01*
X1382Y230D02*
X1413Y230D01*
X1464Y230D02*
X1473Y230D01*
X1515Y230D02*
X1524Y230D01*
X1554Y230D02*
X1563Y230D01*
X1669Y230D02*
X1702Y230D01*
X1747Y230D02*
X1770Y230D01*
X1807Y230D02*
X1838Y230D01*
X1908Y230D02*
X1917Y230D01*
X260Y229D02*
X269Y229D01*
X311Y229D02*
X320Y229D01*
X350Y229D02*
X359Y229D01*
X382Y229D02*
X391Y229D01*
X421Y229D02*
X430Y229D01*
X524Y229D02*
X533Y229D01*
X614Y229D02*
X623Y229D01*
X665Y229D02*
X674Y229D01*
X704Y229D02*
X713Y229D01*
X736Y229D02*
X745Y229D01*
X883Y229D02*
X926Y229D01*
X952Y229D02*
X992Y229D01*
X1039Y229D02*
X1062Y229D01*
X1090Y229D02*
X1099Y229D01*
X1129Y229D02*
X1138Y229D01*
X1161Y229D02*
X1170Y229D01*
X1173Y229D02*
X1202Y229D01*
X1235Y229D02*
X1280Y229D01*
X1310Y229D02*
X1343Y229D01*
X1381Y229D02*
X1414Y229D01*
X1464Y229D02*
X1473Y229D01*
X1515Y229D02*
X1524Y229D01*
X1554Y229D02*
X1563Y229D01*
X1669Y229D02*
X1702Y229D01*
X1747Y229D02*
X1770Y229D01*
X1805Y229D02*
X1839Y229D01*
X1908Y229D02*
X1917Y229D01*
X260Y228D02*
X269Y228D01*
X311Y228D02*
X320Y228D01*
X350Y228D02*
X359Y228D01*
X382Y228D02*
X391Y228D01*
X421Y228D02*
X430Y228D01*
X524Y228D02*
X533Y228D01*
X614Y228D02*
X623Y228D01*
X665Y228D02*
X674Y228D01*
X704Y228D02*
X713Y228D01*
X736Y228D02*
X745Y228D01*
X883Y228D02*
X925Y228D01*
X951Y228D02*
X993Y228D01*
X1039Y228D02*
X1062Y228D01*
X1090Y228D02*
X1099Y228D01*
X1129Y228D02*
X1138Y228D01*
X1161Y228D02*
X1170Y228D01*
X1172Y228D02*
X1203Y228D01*
X1234Y228D02*
X1280Y228D01*
X1309Y228D02*
X1344Y228D01*
X1379Y228D02*
X1415Y228D01*
X1464Y228D02*
X1473Y228D01*
X1515Y228D02*
X1524Y228D01*
X1554Y228D02*
X1563Y228D01*
X1669Y228D02*
X1702Y228D01*
X1747Y228D02*
X1770Y228D01*
X1804Y228D02*
X1840Y228D01*
X1908Y228D02*
X1917Y228D01*
X260Y227D02*
X269Y227D01*
X311Y227D02*
X320Y227D01*
X350Y227D02*
X359Y227D01*
X382Y227D02*
X391Y227D01*
X421Y227D02*
X430Y227D01*
X524Y227D02*
X533Y227D01*
X614Y227D02*
X623Y227D01*
X665Y227D02*
X674Y227D01*
X704Y227D02*
X713Y227D01*
X736Y227D02*
X745Y227D01*
X883Y227D02*
X925Y227D01*
X950Y227D02*
X994Y227D01*
X1039Y227D02*
X1062Y227D01*
X1090Y227D02*
X1099Y227D01*
X1129Y227D02*
X1138Y227D01*
X1161Y227D02*
X1204Y227D01*
X1234Y227D02*
X1280Y227D01*
X1308Y227D02*
X1345Y227D01*
X1378Y227D02*
X1416Y227D01*
X1464Y227D02*
X1473Y227D01*
X1515Y227D02*
X1525Y227D01*
X1554Y227D02*
X1563Y227D01*
X1669Y227D02*
X1702Y227D01*
X1747Y227D02*
X1770Y227D01*
X1803Y227D02*
X1841Y227D01*
X1908Y227D02*
X1917Y227D01*
X260Y226D02*
X269Y226D01*
X311Y226D02*
X320Y226D01*
X350Y226D02*
X359Y226D01*
X382Y226D02*
X391Y226D01*
X421Y226D02*
X430Y226D01*
X524Y226D02*
X534Y226D01*
X614Y226D02*
X623Y226D01*
X665Y226D02*
X674Y226D01*
X704Y226D02*
X713Y226D01*
X736Y226D02*
X745Y226D01*
X884Y226D02*
X925Y226D01*
X950Y226D02*
X994Y226D01*
X1039Y226D02*
X1061Y226D01*
X1090Y226D02*
X1099Y226D01*
X1129Y226D02*
X1138Y226D01*
X1161Y226D02*
X1205Y226D01*
X1233Y226D02*
X1280Y226D01*
X1307Y226D02*
X1346Y226D01*
X1377Y226D02*
X1417Y226D01*
X1464Y226D02*
X1473Y226D01*
X1516Y226D02*
X1525Y226D01*
X1554Y226D02*
X1563Y226D01*
X1670Y226D02*
X1701Y226D01*
X1747Y226D02*
X1769Y226D01*
X1802Y226D02*
X1842Y226D01*
X1908Y226D02*
X1917Y226D01*
X260Y225D02*
X269Y225D01*
X311Y225D02*
X320Y225D01*
X350Y225D02*
X359Y225D01*
X382Y225D02*
X391Y225D01*
X421Y225D02*
X430Y225D01*
X524Y225D02*
X535Y225D01*
X614Y225D02*
X623Y225D01*
X665Y225D02*
X674Y225D01*
X704Y225D02*
X713Y225D01*
X736Y225D02*
X745Y225D01*
X884Y225D02*
X924Y225D01*
X950Y225D02*
X995Y225D01*
X1039Y225D02*
X1060Y225D01*
X1090Y225D02*
X1099Y225D01*
X1129Y225D02*
X1138Y225D01*
X1161Y225D02*
X1206Y225D01*
X1233Y225D02*
X1280Y225D01*
X1306Y225D02*
X1347Y225D01*
X1376Y225D02*
X1418Y225D01*
X1464Y225D02*
X1473Y225D01*
X1516Y225D02*
X1526Y225D01*
X1554Y225D02*
X1563Y225D01*
X1671Y225D02*
X1700Y225D01*
X1747Y225D02*
X1769Y225D01*
X1801Y225D02*
X1843Y225D01*
X1908Y225D02*
X1917Y225D01*
X260Y224D02*
X269Y224D01*
X311Y224D02*
X320Y224D01*
X350Y224D02*
X359Y224D01*
X382Y224D02*
X391Y224D01*
X421Y224D02*
X430Y224D01*
X524Y224D02*
X536Y224D01*
X614Y224D02*
X623Y224D01*
X665Y224D02*
X674Y224D01*
X704Y224D02*
X713Y224D01*
X736Y224D02*
X745Y224D01*
X887Y224D02*
X922Y224D01*
X950Y224D02*
X995Y224D01*
X1039Y224D02*
X1058Y224D01*
X1090Y224D02*
X1099Y224D01*
X1129Y224D02*
X1138Y224D01*
X1161Y224D02*
X1206Y224D01*
X1233Y224D02*
X1280Y224D01*
X1305Y224D02*
X1348Y224D01*
X1376Y224D02*
X1419Y224D01*
X1464Y224D02*
X1473Y224D01*
X1516Y224D02*
X1527Y224D01*
X1554Y224D02*
X1563Y224D01*
X1673Y224D02*
X1698Y224D01*
X1747Y224D02*
X1766Y224D01*
X1801Y224D02*
X1843Y224D01*
X1908Y224D02*
X1917Y224D01*
X260Y223D02*
X269Y223D01*
X311Y223D02*
X320Y223D01*
X350Y223D02*
X359Y223D01*
X382Y223D02*
X391Y223D01*
X421Y223D02*
X430Y223D01*
X524Y223D02*
X537Y223D01*
X614Y223D02*
X623Y223D01*
X665Y223D02*
X674Y223D01*
X704Y223D02*
X713Y223D01*
X736Y223D02*
X745Y223D01*
X907Y223D02*
X916Y223D01*
X950Y223D02*
X959Y223D01*
X986Y223D02*
X995Y223D01*
X1039Y223D02*
X1048Y223D01*
X1090Y223D02*
X1099Y223D01*
X1129Y223D02*
X1138Y223D01*
X1161Y223D02*
X1181Y223D01*
X1194Y223D02*
X1207Y223D01*
X1232Y223D02*
X1242Y223D01*
X1245Y223D02*
X1261Y223D01*
X1265Y223D02*
X1280Y223D01*
X1304Y223D02*
X1317Y223D01*
X1336Y223D02*
X1348Y223D01*
X1375Y223D02*
X1388Y223D01*
X1407Y223D02*
X1419Y223D01*
X1464Y223D02*
X1473Y223D01*
X1517Y223D02*
X1528Y223D01*
X1554Y223D02*
X1563Y223D01*
X1683Y223D02*
X1692Y223D01*
X1747Y223D02*
X1756Y223D01*
X1800Y223D02*
X1813Y223D01*
X1832Y223D02*
X1844Y223D01*
X1908Y223D02*
X1917Y223D01*
X260Y222D02*
X269Y222D01*
X311Y222D02*
X320Y222D01*
X350Y222D02*
X359Y222D01*
X382Y222D02*
X391Y222D01*
X421Y222D02*
X430Y222D01*
X524Y222D02*
X538Y222D01*
X614Y222D02*
X623Y222D01*
X665Y222D02*
X674Y222D01*
X704Y222D02*
X713Y222D01*
X736Y222D02*
X745Y222D01*
X907Y222D02*
X916Y222D01*
X950Y222D02*
X958Y222D01*
X986Y222D02*
X995Y222D01*
X1039Y222D02*
X1048Y222D01*
X1090Y222D02*
X1099Y222D01*
X1129Y222D02*
X1138Y222D01*
X1161Y222D02*
X1179Y222D01*
X1196Y222D02*
X1208Y222D01*
X1232Y222D02*
X1241Y222D01*
X1247Y222D02*
X1260Y222D01*
X1266Y222D02*
X1280Y222D01*
X1304Y222D02*
X1316Y222D01*
X1337Y222D02*
X1349Y222D01*
X1375Y222D02*
X1386Y222D01*
X1408Y222D02*
X1420Y222D01*
X1464Y222D02*
X1473Y222D01*
X1517Y222D02*
X1530Y222D01*
X1554Y222D02*
X1563Y222D01*
X1683Y222D02*
X1692Y222D01*
X1747Y222D02*
X1756Y222D01*
X1799Y222D02*
X1811Y222D01*
X1833Y222D02*
X1845Y222D01*
X1908Y222D02*
X1917Y222D01*
X260Y221D02*
X269Y221D01*
X311Y221D02*
X320Y221D01*
X350Y221D02*
X359Y221D01*
X382Y221D02*
X391Y221D01*
X421Y221D02*
X430Y221D01*
X525Y221D02*
X539Y221D01*
X614Y221D02*
X623Y221D01*
X665Y221D02*
X674Y221D01*
X704Y221D02*
X713Y221D01*
X736Y221D02*
X776Y221D01*
X907Y221D02*
X916Y221D01*
X951Y221D02*
X957Y221D01*
X986Y221D02*
X995Y221D01*
X1039Y221D02*
X1048Y221D01*
X1090Y221D02*
X1099Y221D01*
X1129Y221D02*
X1138Y221D01*
X1161Y221D02*
X1178Y221D01*
X1197Y221D02*
X1208Y221D01*
X1232Y221D02*
X1241Y221D01*
X1248Y221D02*
X1260Y221D01*
X1267Y221D02*
X1280Y221D01*
X1303Y221D02*
X1314Y221D01*
X1338Y221D02*
X1349Y221D01*
X1374Y221D02*
X1385Y221D01*
X1409Y221D02*
X1420Y221D01*
X1464Y221D02*
X1473Y221D01*
X1518Y221D02*
X1563Y221D01*
X1683Y221D02*
X1692Y221D01*
X1747Y221D02*
X1756Y221D01*
X1799Y221D02*
X1810Y221D01*
X1834Y221D02*
X1845Y221D01*
X1908Y221D02*
X1917Y221D01*
X260Y220D02*
X269Y220D01*
X311Y220D02*
X321Y220D01*
X350Y220D02*
X359Y220D01*
X382Y220D02*
X391Y220D01*
X421Y220D02*
X430Y220D01*
X526Y220D02*
X541Y220D01*
X614Y220D02*
X623Y220D01*
X665Y220D02*
X674Y220D01*
X704Y220D02*
X713Y220D01*
X736Y220D02*
X779Y220D01*
X907Y220D02*
X916Y220D01*
X953Y220D02*
X955Y220D01*
X986Y220D02*
X995Y220D01*
X1039Y220D02*
X1048Y220D01*
X1090Y220D02*
X1099Y220D01*
X1129Y220D02*
X1138Y220D01*
X1161Y220D02*
X1177Y220D01*
X1198Y220D02*
X1208Y220D01*
X1232Y220D02*
X1241Y220D01*
X1249Y220D02*
X1260Y220D01*
X1269Y220D02*
X1280Y220D01*
X1303Y220D02*
X1313Y220D01*
X1339Y220D02*
X1350Y220D01*
X1374Y220D02*
X1384Y220D01*
X1410Y220D02*
X1421Y220D01*
X1464Y220D02*
X1473Y220D01*
X1518Y220D02*
X1563Y220D01*
X1683Y220D02*
X1692Y220D01*
X1747Y220D02*
X1756Y220D01*
X1799Y220D02*
X1809Y220D01*
X1835Y220D02*
X1845Y220D01*
X1908Y220D02*
X1917Y220D01*
X260Y219D02*
X269Y219D01*
X311Y219D02*
X321Y219D01*
X349Y219D02*
X359Y219D01*
X382Y219D02*
X391Y219D01*
X421Y219D02*
X430Y219D01*
X527Y219D02*
X542Y219D01*
X614Y219D02*
X623Y219D01*
X665Y219D02*
X674Y219D01*
X704Y219D02*
X713Y219D01*
X736Y219D02*
X780Y219D01*
X907Y219D02*
X916Y219D01*
X985Y219D02*
X995Y219D01*
X1039Y219D02*
X1048Y219D01*
X1090Y219D02*
X1099Y219D01*
X1129Y219D02*
X1138Y219D01*
X1161Y219D02*
X1176Y219D01*
X1199Y219D02*
X1209Y219D01*
X1232Y219D02*
X1241Y219D01*
X1250Y219D02*
X1260Y219D01*
X1270Y219D02*
X1280Y219D01*
X1303Y219D02*
X1312Y219D01*
X1340Y219D02*
X1350Y219D01*
X1374Y219D02*
X1383Y219D01*
X1411Y219D02*
X1421Y219D01*
X1464Y219D02*
X1473Y219D01*
X1519Y219D02*
X1563Y219D01*
X1683Y219D02*
X1692Y219D01*
X1747Y219D02*
X1756Y219D01*
X1798Y219D02*
X1808Y219D01*
X1836Y219D02*
X1846Y219D01*
X1908Y219D02*
X1917Y219D01*
X260Y218D02*
X269Y218D01*
X312Y218D02*
X322Y218D01*
X349Y218D02*
X359Y218D01*
X382Y218D02*
X391Y218D01*
X421Y218D02*
X430Y218D01*
X529Y218D02*
X543Y218D01*
X614Y218D02*
X623Y218D01*
X665Y218D02*
X674Y218D01*
X704Y218D02*
X713Y218D01*
X737Y218D02*
X781Y218D01*
X907Y218D02*
X916Y218D01*
X983Y218D02*
X995Y218D01*
X1039Y218D02*
X1048Y218D01*
X1090Y218D02*
X1099Y218D01*
X1129Y218D02*
X1138Y218D01*
X1161Y218D02*
X1175Y218D01*
X1199Y218D02*
X1209Y218D01*
X1232Y218D02*
X1241Y218D01*
X1251Y218D02*
X1260Y218D01*
X1271Y218D02*
X1280Y218D01*
X1303Y218D02*
X1312Y218D01*
X1341Y218D02*
X1350Y218D01*
X1373Y218D02*
X1383Y218D01*
X1412Y218D02*
X1421Y218D01*
X1464Y218D02*
X1473Y218D01*
X1520Y218D02*
X1563Y218D01*
X1683Y218D02*
X1692Y218D01*
X1747Y218D02*
X1756Y218D01*
X1798Y218D02*
X1808Y218D01*
X1837Y218D02*
X1846Y218D01*
X1908Y218D02*
X1917Y218D01*
X260Y217D02*
X269Y217D01*
X312Y217D02*
X322Y217D01*
X348Y217D02*
X358Y217D01*
X382Y217D02*
X391Y217D01*
X421Y217D02*
X430Y217D01*
X530Y217D02*
X544Y217D01*
X614Y217D02*
X623Y217D01*
X665Y217D02*
X674Y217D01*
X704Y217D02*
X713Y217D01*
X737Y217D02*
X782Y217D01*
X907Y217D02*
X916Y217D01*
X981Y217D02*
X994Y217D01*
X1039Y217D02*
X1048Y217D01*
X1090Y217D02*
X1099Y217D01*
X1129Y217D02*
X1138Y217D01*
X1161Y217D02*
X1173Y217D01*
X1200Y217D02*
X1209Y217D01*
X1232Y217D02*
X1241Y217D01*
X1251Y217D02*
X1260Y217D01*
X1271Y217D02*
X1280Y217D01*
X1303Y217D02*
X1312Y217D01*
X1341Y217D02*
X1350Y217D01*
X1373Y217D02*
X1382Y217D01*
X1412Y217D02*
X1421Y217D01*
X1464Y217D02*
X1473Y217D01*
X1521Y217D02*
X1563Y217D01*
X1683Y217D02*
X1692Y217D01*
X1747Y217D02*
X1756Y217D01*
X1798Y217D02*
X1807Y217D01*
X1837Y217D02*
X1846Y217D01*
X1908Y217D02*
X1917Y217D01*
X260Y216D02*
X269Y216D01*
X313Y216D02*
X322Y216D01*
X348Y216D02*
X358Y216D01*
X382Y216D02*
X391Y216D01*
X421Y216D02*
X430Y216D01*
X531Y216D02*
X545Y216D01*
X614Y216D02*
X623Y216D01*
X665Y216D02*
X674Y216D01*
X704Y216D02*
X713Y216D01*
X738Y216D02*
X783Y216D01*
X907Y216D02*
X916Y216D01*
X979Y216D02*
X994Y216D01*
X1039Y216D02*
X1048Y216D01*
X1090Y216D02*
X1099Y216D01*
X1129Y216D02*
X1138Y216D01*
X1161Y216D02*
X1172Y216D01*
X1200Y216D02*
X1209Y216D01*
X1232Y216D02*
X1241Y216D01*
X1251Y216D02*
X1260Y216D01*
X1271Y216D02*
X1280Y216D01*
X1302Y216D02*
X1311Y216D01*
X1341Y216D02*
X1350Y216D01*
X1373Y216D02*
X1382Y216D01*
X1412Y216D02*
X1421Y216D01*
X1464Y216D02*
X1473Y216D01*
X1521Y216D02*
X1563Y216D01*
X1683Y216D02*
X1692Y216D01*
X1747Y216D02*
X1756Y216D01*
X1798Y216D02*
X1807Y216D01*
X1837Y216D02*
X1846Y216D01*
X1908Y216D02*
X1917Y216D01*
X260Y215D02*
X269Y215D01*
X313Y215D02*
X323Y215D01*
X347Y215D02*
X357Y215D01*
X382Y215D02*
X391Y215D01*
X421Y215D02*
X430Y215D01*
X532Y215D02*
X546Y215D01*
X614Y215D02*
X623Y215D01*
X665Y215D02*
X674Y215D01*
X704Y215D02*
X713Y215D01*
X738Y215D02*
X783Y215D01*
X907Y215D02*
X916Y215D01*
X976Y215D02*
X993Y215D01*
X1039Y215D02*
X1048Y215D01*
X1090Y215D02*
X1099Y215D01*
X1129Y215D02*
X1138Y215D01*
X1161Y215D02*
X1171Y215D01*
X1200Y215D02*
X1209Y215D01*
X1232Y215D02*
X1241Y215D01*
X1251Y215D02*
X1260Y215D01*
X1271Y215D02*
X1280Y215D01*
X1302Y215D02*
X1311Y215D01*
X1341Y215D02*
X1350Y215D01*
X1373Y215D02*
X1382Y215D01*
X1412Y215D02*
X1421Y215D01*
X1464Y215D02*
X1473Y215D01*
X1521Y215D02*
X1563Y215D01*
X1683Y215D02*
X1692Y215D01*
X1747Y215D02*
X1756Y215D01*
X1798Y215D02*
X1807Y215D01*
X1837Y215D02*
X1846Y215D01*
X1908Y215D02*
X1917Y215D01*
X260Y214D02*
X269Y214D01*
X314Y214D02*
X323Y214D01*
X347Y214D02*
X357Y214D01*
X382Y214D02*
X391Y214D01*
X421Y214D02*
X430Y214D01*
X533Y214D02*
X548Y214D01*
X614Y214D02*
X623Y214D01*
X665Y214D02*
X674Y214D01*
X704Y214D02*
X713Y214D01*
X739Y214D02*
X784Y214D01*
X907Y214D02*
X916Y214D01*
X974Y214D02*
X993Y214D01*
X1039Y214D02*
X1048Y214D01*
X1090Y214D02*
X1099Y214D01*
X1129Y214D02*
X1138Y214D01*
X1161Y214D02*
X1170Y214D01*
X1200Y214D02*
X1209Y214D01*
X1232Y214D02*
X1241Y214D01*
X1251Y214D02*
X1260Y214D01*
X1271Y214D02*
X1280Y214D01*
X1302Y214D02*
X1311Y214D01*
X1341Y214D02*
X1350Y214D01*
X1373Y214D02*
X1382Y214D01*
X1412Y214D02*
X1421Y214D01*
X1464Y214D02*
X1473Y214D01*
X1520Y214D02*
X1563Y214D01*
X1683Y214D02*
X1692Y214D01*
X1747Y214D02*
X1756Y214D01*
X1798Y214D02*
X1807Y214D01*
X1837Y214D02*
X1846Y214D01*
X1908Y214D02*
X1917Y214D01*
X260Y213D02*
X269Y213D01*
X314Y213D02*
X324Y213D01*
X347Y213D02*
X356Y213D01*
X382Y213D02*
X391Y213D01*
X421Y213D02*
X430Y213D01*
X534Y213D02*
X549Y213D01*
X614Y213D02*
X623Y213D01*
X665Y213D02*
X674Y213D01*
X704Y213D02*
X713Y213D01*
X741Y213D02*
X784Y213D01*
X907Y213D02*
X916Y213D01*
X972Y213D02*
X992Y213D01*
X1039Y213D02*
X1048Y213D01*
X1090Y213D02*
X1099Y213D01*
X1129Y213D02*
X1137Y213D01*
X1161Y213D02*
X1170Y213D01*
X1200Y213D02*
X1209Y213D01*
X1232Y213D02*
X1241Y213D01*
X1251Y213D02*
X1260Y213D01*
X1271Y213D02*
X1280Y213D01*
X1302Y213D02*
X1311Y213D01*
X1341Y213D02*
X1350Y213D01*
X1373Y213D02*
X1382Y213D01*
X1412Y213D02*
X1421Y213D01*
X1464Y213D02*
X1473Y213D01*
X1519Y213D02*
X1563Y213D01*
X1683Y213D02*
X1692Y213D01*
X1747Y213D02*
X1756Y213D01*
X1798Y213D02*
X1807Y213D01*
X1837Y213D02*
X1846Y213D01*
X1908Y213D02*
X1917Y213D01*
X243Y212D02*
X247Y212D01*
X260Y212D02*
X269Y212D01*
X314Y212D02*
X324Y212D01*
X346Y212D02*
X356Y212D01*
X382Y212D02*
X391Y212D01*
X421Y212D02*
X430Y212D01*
X536Y212D02*
X550Y212D01*
X597Y212D02*
X601Y212D01*
X614Y212D02*
X623Y212D01*
X665Y212D02*
X674Y212D01*
X704Y212D02*
X713Y212D01*
X742Y212D02*
X784Y212D01*
X907Y212D02*
X916Y212D01*
X969Y212D02*
X991Y212D01*
X1039Y212D02*
X1048Y212D01*
X1090Y212D02*
X1099Y212D01*
X1129Y212D02*
X1137Y212D01*
X1161Y212D02*
X1170Y212D01*
X1200Y212D02*
X1209Y212D01*
X1232Y212D02*
X1241Y212D01*
X1251Y212D02*
X1260Y212D01*
X1271Y212D02*
X1280Y212D01*
X1302Y212D02*
X1311Y212D01*
X1341Y212D02*
X1350Y212D01*
X1373Y212D02*
X1382Y212D01*
X1412Y212D02*
X1421Y212D01*
X1464Y212D02*
X1473Y212D01*
X1518Y212D02*
X1563Y212D01*
X1683Y212D02*
X1692Y212D01*
X1747Y212D02*
X1756Y212D01*
X1798Y212D02*
X1807Y212D01*
X1837Y212D02*
X1846Y212D01*
X1908Y212D02*
X1917Y212D01*
X242Y211D02*
X248Y211D01*
X260Y211D02*
X269Y211D01*
X315Y211D02*
X325Y211D01*
X346Y211D02*
X355Y211D01*
X382Y211D02*
X391Y211D01*
X421Y211D02*
X430Y211D01*
X537Y211D02*
X551Y211D01*
X596Y211D02*
X602Y211D01*
X614Y211D02*
X623Y211D01*
X665Y211D02*
X674Y211D01*
X704Y211D02*
X713Y211D01*
X775Y211D02*
X784Y211D01*
X907Y211D02*
X916Y211D01*
X967Y211D02*
X990Y211D01*
X1039Y211D02*
X1048Y211D01*
X1090Y211D02*
X1099Y211D01*
X1129Y211D02*
X1137Y211D01*
X1161Y211D02*
X1170Y211D01*
X1200Y211D02*
X1209Y211D01*
X1232Y211D02*
X1241Y211D01*
X1251Y211D02*
X1260Y211D01*
X1271Y211D02*
X1280Y211D01*
X1302Y211D02*
X1311Y211D01*
X1341Y211D02*
X1350Y211D01*
X1373Y211D02*
X1382Y211D01*
X1412Y211D02*
X1421Y211D01*
X1464Y211D02*
X1473Y211D01*
X1517Y211D02*
X1531Y211D01*
X1554Y211D02*
X1563Y211D01*
X1683Y211D02*
X1692Y211D01*
X1747Y211D02*
X1756Y211D01*
X1798Y211D02*
X1807Y211D01*
X1837Y211D02*
X1846Y211D01*
X1908Y211D02*
X1917Y211D01*
X241Y210D02*
X249Y210D01*
X260Y210D02*
X269Y210D01*
X315Y210D02*
X325Y210D01*
X345Y210D02*
X355Y210D01*
X382Y210D02*
X391Y210D01*
X421Y210D02*
X430Y210D01*
X538Y210D02*
X552Y210D01*
X595Y210D02*
X603Y210D01*
X614Y210D02*
X623Y210D01*
X665Y210D02*
X674Y210D01*
X704Y210D02*
X713Y210D01*
X775Y210D02*
X784Y210D01*
X907Y210D02*
X916Y210D01*
X965Y210D02*
X989Y210D01*
X1039Y210D02*
X1048Y210D01*
X1090Y210D02*
X1099Y210D01*
X1129Y210D02*
X1137Y210D01*
X1161Y210D02*
X1170Y210D01*
X1200Y210D02*
X1209Y210D01*
X1232Y210D02*
X1241Y210D01*
X1251Y210D02*
X1260Y210D01*
X1271Y210D02*
X1280Y210D01*
X1302Y210D02*
X1311Y210D01*
X1341Y210D02*
X1350Y210D01*
X1373Y210D02*
X1382Y210D01*
X1412Y210D02*
X1421Y210D01*
X1464Y210D02*
X1473Y210D01*
X1517Y210D02*
X1529Y210D01*
X1554Y210D02*
X1563Y210D01*
X1683Y210D02*
X1692Y210D01*
X1747Y210D02*
X1756Y210D01*
X1798Y210D02*
X1807Y210D01*
X1837Y210D02*
X1846Y210D01*
X1908Y210D02*
X1917Y210D01*
X241Y209D02*
X249Y209D01*
X260Y209D02*
X269Y209D01*
X316Y209D02*
X326Y209D01*
X345Y209D02*
X355Y209D01*
X382Y209D02*
X391Y209D01*
X421Y209D02*
X430Y209D01*
X539Y209D02*
X552Y209D01*
X595Y209D02*
X603Y209D01*
X614Y209D02*
X623Y209D01*
X665Y209D02*
X674Y209D01*
X704Y209D02*
X713Y209D01*
X775Y209D02*
X784Y209D01*
X907Y209D02*
X916Y209D01*
X962Y209D02*
X986Y209D01*
X1039Y209D02*
X1048Y209D01*
X1090Y209D02*
X1099Y209D01*
X1128Y209D02*
X1137Y209D01*
X1161Y209D02*
X1170Y209D01*
X1200Y209D02*
X1209Y209D01*
X1232Y209D02*
X1241Y209D01*
X1251Y209D02*
X1260Y209D01*
X1271Y209D02*
X1280Y209D01*
X1302Y209D02*
X1311Y209D01*
X1341Y209D02*
X1350Y209D01*
X1373Y209D02*
X1382Y209D01*
X1412Y209D02*
X1421Y209D01*
X1464Y209D02*
X1473Y209D01*
X1516Y209D02*
X1527Y209D01*
X1554Y209D02*
X1563Y209D01*
X1683Y209D02*
X1692Y209D01*
X1747Y209D02*
X1756Y209D01*
X1798Y209D02*
X1807Y209D01*
X1837Y209D02*
X1846Y209D01*
X1908Y209D02*
X1917Y209D01*
X240Y208D02*
X249Y208D01*
X260Y208D02*
X269Y208D01*
X316Y208D02*
X326Y208D01*
X344Y208D02*
X354Y208D01*
X382Y208D02*
X391Y208D01*
X421Y208D02*
X430Y208D01*
X540Y208D02*
X552Y208D01*
X594Y208D02*
X603Y208D01*
X614Y208D02*
X623Y208D01*
X665Y208D02*
X674Y208D01*
X704Y208D02*
X713Y208D01*
X775Y208D02*
X784Y208D01*
X907Y208D02*
X916Y208D01*
X960Y208D02*
X984Y208D01*
X1039Y208D02*
X1048Y208D01*
X1090Y208D02*
X1099Y208D01*
X1128Y208D02*
X1137Y208D01*
X1161Y208D02*
X1170Y208D01*
X1200Y208D02*
X1209Y208D01*
X1232Y208D02*
X1241Y208D01*
X1251Y208D02*
X1260Y208D01*
X1271Y208D02*
X1280Y208D01*
X1302Y208D02*
X1311Y208D01*
X1341Y208D02*
X1350Y208D01*
X1373Y208D02*
X1382Y208D01*
X1412Y208D02*
X1421Y208D01*
X1464Y208D02*
X1473Y208D01*
X1516Y208D02*
X1526Y208D01*
X1554Y208D02*
X1563Y208D01*
X1683Y208D02*
X1692Y208D01*
X1747Y208D02*
X1756Y208D01*
X1798Y208D02*
X1846Y208D01*
X1908Y208D02*
X1917Y208D01*
X240Y207D02*
X249Y207D01*
X260Y207D02*
X269Y207D01*
X317Y207D02*
X326Y207D01*
X344Y207D02*
X354Y207D01*
X382Y207D02*
X391Y207D01*
X421Y207D02*
X430Y207D01*
X542Y207D02*
X552Y207D01*
X594Y207D02*
X603Y207D01*
X614Y207D02*
X623Y207D01*
X665Y207D02*
X674Y207D01*
X704Y207D02*
X713Y207D01*
X775Y207D02*
X784Y207D01*
X907Y207D02*
X916Y207D01*
X958Y207D02*
X982Y207D01*
X1039Y207D02*
X1048Y207D01*
X1090Y207D02*
X1099Y207D01*
X1128Y207D02*
X1137Y207D01*
X1161Y207D02*
X1170Y207D01*
X1200Y207D02*
X1209Y207D01*
X1232Y207D02*
X1241Y207D01*
X1251Y207D02*
X1260Y207D01*
X1271Y207D02*
X1280Y207D01*
X1302Y207D02*
X1311Y207D01*
X1341Y207D02*
X1350Y207D01*
X1373Y207D02*
X1382Y207D01*
X1412Y207D02*
X1421Y207D01*
X1464Y207D02*
X1473Y207D01*
X1516Y207D02*
X1526Y207D01*
X1554Y207D02*
X1563Y207D01*
X1683Y207D02*
X1692Y207D01*
X1747Y207D02*
X1756Y207D01*
X1798Y207D02*
X1846Y207D01*
X1908Y207D02*
X1917Y207D01*
X240Y206D02*
X249Y206D01*
X260Y206D02*
X269Y206D01*
X317Y206D02*
X327Y206D01*
X343Y206D02*
X353Y206D01*
X382Y206D02*
X391Y206D01*
X421Y206D02*
X430Y206D01*
X543Y206D02*
X552Y206D01*
X594Y206D02*
X603Y206D01*
X614Y206D02*
X623Y206D01*
X665Y206D02*
X674Y206D01*
X704Y206D02*
X713Y206D01*
X775Y206D02*
X784Y206D01*
X907Y206D02*
X916Y206D01*
X956Y206D02*
X979Y206D01*
X1039Y206D02*
X1048Y206D01*
X1090Y206D02*
X1099Y206D01*
X1128Y206D02*
X1137Y206D01*
X1161Y206D02*
X1170Y206D01*
X1200Y206D02*
X1209Y206D01*
X1232Y206D02*
X1241Y206D01*
X1251Y206D02*
X1260Y206D01*
X1271Y206D02*
X1280Y206D01*
X1302Y206D02*
X1311Y206D01*
X1341Y206D02*
X1350Y206D01*
X1373Y206D02*
X1382Y206D01*
X1412Y206D02*
X1421Y206D01*
X1464Y206D02*
X1473Y206D01*
X1515Y206D02*
X1525Y206D01*
X1554Y206D02*
X1563Y206D01*
X1683Y206D02*
X1692Y206D01*
X1747Y206D02*
X1756Y206D01*
X1798Y206D02*
X1846Y206D01*
X1908Y206D02*
X1917Y206D01*
X240Y205D02*
X249Y205D01*
X260Y205D02*
X269Y205D01*
X318Y205D02*
X327Y205D01*
X343Y205D02*
X353Y205D01*
X382Y205D02*
X391Y205D01*
X421Y205D02*
X430Y205D01*
X543Y205D02*
X552Y205D01*
X594Y205D02*
X603Y205D01*
X614Y205D02*
X623Y205D01*
X665Y205D02*
X674Y205D01*
X704Y205D02*
X713Y205D01*
X775Y205D02*
X784Y205D01*
X907Y205D02*
X916Y205D01*
X954Y205D02*
X977Y205D01*
X1039Y205D02*
X1048Y205D01*
X1090Y205D02*
X1099Y205D01*
X1128Y205D02*
X1137Y205D01*
X1161Y205D02*
X1170Y205D01*
X1200Y205D02*
X1209Y205D01*
X1232Y205D02*
X1241Y205D01*
X1251Y205D02*
X1260Y205D01*
X1271Y205D02*
X1280Y205D01*
X1302Y205D02*
X1311Y205D01*
X1341Y205D02*
X1350Y205D01*
X1373Y205D02*
X1382Y205D01*
X1412Y205D02*
X1421Y205D01*
X1464Y205D02*
X1473Y205D01*
X1515Y205D02*
X1524Y205D01*
X1554Y205D02*
X1563Y205D01*
X1683Y205D02*
X1692Y205D01*
X1747Y205D02*
X1756Y205D01*
X1798Y205D02*
X1846Y205D01*
X1908Y205D02*
X1917Y205D01*
X240Y204D02*
X249Y204D01*
X260Y204D02*
X269Y204D01*
X318Y204D02*
X328Y204D01*
X343Y204D02*
X352Y204D01*
X382Y204D02*
X391Y204D01*
X421Y204D02*
X430Y204D01*
X543Y204D02*
X552Y204D01*
X594Y204D02*
X603Y204D01*
X614Y204D02*
X623Y204D01*
X665Y204D02*
X674Y204D01*
X704Y204D02*
X713Y204D01*
X775Y204D02*
X784Y204D01*
X907Y204D02*
X916Y204D01*
X953Y204D02*
X975Y204D01*
X1039Y204D02*
X1048Y204D01*
X1090Y204D02*
X1099Y204D01*
X1128Y204D02*
X1137Y204D01*
X1161Y204D02*
X1170Y204D01*
X1200Y204D02*
X1209Y204D01*
X1232Y204D02*
X1241Y204D01*
X1251Y204D02*
X1260Y204D01*
X1271Y204D02*
X1280Y204D01*
X1302Y204D02*
X1311Y204D01*
X1341Y204D02*
X1350Y204D01*
X1373Y204D02*
X1382Y204D01*
X1412Y204D02*
X1421Y204D01*
X1464Y204D02*
X1473Y204D01*
X1515Y204D02*
X1524Y204D01*
X1554Y204D02*
X1563Y204D01*
X1683Y204D02*
X1692Y204D01*
X1747Y204D02*
X1756Y204D01*
X1798Y204D02*
X1846Y204D01*
X1908Y204D02*
X1917Y204D01*
X240Y203D02*
X249Y203D01*
X260Y203D02*
X269Y203D01*
X318Y203D02*
X328Y203D01*
X342Y203D02*
X352Y203D01*
X382Y203D02*
X391Y203D01*
X421Y203D02*
X430Y203D01*
X543Y203D02*
X552Y203D01*
X594Y203D02*
X603Y203D01*
X614Y203D02*
X623Y203D01*
X665Y203D02*
X674Y203D01*
X704Y203D02*
X713Y203D01*
X775Y203D02*
X784Y203D01*
X907Y203D02*
X916Y203D01*
X952Y203D02*
X973Y203D01*
X1039Y203D02*
X1048Y203D01*
X1090Y203D02*
X1099Y203D01*
X1128Y203D02*
X1137Y203D01*
X1161Y203D02*
X1170Y203D01*
X1200Y203D02*
X1209Y203D01*
X1232Y203D02*
X1241Y203D01*
X1251Y203D02*
X1260Y203D01*
X1271Y203D02*
X1280Y203D01*
X1302Y203D02*
X1311Y203D01*
X1341Y203D02*
X1350Y203D01*
X1373Y203D02*
X1382Y203D01*
X1412Y203D02*
X1421Y203D01*
X1464Y203D02*
X1473Y203D01*
X1515Y203D02*
X1524Y203D01*
X1554Y203D02*
X1563Y203D01*
X1683Y203D02*
X1692Y203D01*
X1747Y203D02*
X1756Y203D01*
X1798Y203D02*
X1846Y203D01*
X1908Y203D02*
X1917Y203D01*
X240Y202D02*
X249Y202D01*
X260Y202D02*
X269Y202D01*
X319Y202D02*
X329Y202D01*
X342Y202D02*
X352Y202D01*
X382Y202D02*
X391Y202D01*
X421Y202D02*
X430Y202D01*
X543Y202D02*
X552Y202D01*
X594Y202D02*
X603Y202D01*
X614Y202D02*
X623Y202D01*
X665Y202D02*
X674Y202D01*
X704Y202D02*
X713Y202D01*
X775Y202D02*
X784Y202D01*
X907Y202D02*
X916Y202D01*
X952Y202D02*
X970Y202D01*
X1039Y202D02*
X1048Y202D01*
X1090Y202D02*
X1099Y202D01*
X1128Y202D02*
X1137Y202D01*
X1161Y202D02*
X1170Y202D01*
X1200Y202D02*
X1209Y202D01*
X1232Y202D02*
X1241Y202D01*
X1251Y202D02*
X1260Y202D01*
X1271Y202D02*
X1280Y202D01*
X1302Y202D02*
X1311Y202D01*
X1341Y202D02*
X1350Y202D01*
X1373Y202D02*
X1382Y202D01*
X1412Y202D02*
X1421Y202D01*
X1464Y202D02*
X1473Y202D01*
X1515Y202D02*
X1524Y202D01*
X1554Y202D02*
X1563Y202D01*
X1683Y202D02*
X1692Y202D01*
X1747Y202D02*
X1756Y202D01*
X1798Y202D02*
X1846Y202D01*
X1908Y202D02*
X1917Y202D01*
X240Y201D02*
X249Y201D01*
X260Y201D02*
X269Y201D01*
X319Y201D02*
X329Y201D01*
X341Y201D02*
X351Y201D01*
X382Y201D02*
X391Y201D01*
X421Y201D02*
X430Y201D01*
X543Y201D02*
X552Y201D01*
X594Y201D02*
X603Y201D01*
X614Y201D02*
X623Y201D01*
X665Y201D02*
X674Y201D01*
X704Y201D02*
X713Y201D01*
X775Y201D02*
X784Y201D01*
X907Y201D02*
X916Y201D01*
X951Y201D02*
X968Y201D01*
X1039Y201D02*
X1048Y201D01*
X1090Y201D02*
X1099Y201D01*
X1128Y201D02*
X1137Y201D01*
X1161Y201D02*
X1170Y201D01*
X1200Y201D02*
X1209Y201D01*
X1232Y201D02*
X1241Y201D01*
X1251Y201D02*
X1260Y201D01*
X1271Y201D02*
X1280Y201D01*
X1302Y201D02*
X1311Y201D01*
X1341Y201D02*
X1350Y201D01*
X1373Y201D02*
X1382Y201D01*
X1412Y201D02*
X1421Y201D01*
X1464Y201D02*
X1473Y201D01*
X1515Y201D02*
X1524Y201D01*
X1554Y201D02*
X1563Y201D01*
X1683Y201D02*
X1692Y201D01*
X1747Y201D02*
X1756Y201D01*
X1799Y201D02*
X1846Y201D01*
X1908Y201D02*
X1917Y201D01*
X240Y200D02*
X249Y200D01*
X260Y200D02*
X269Y200D01*
X320Y200D02*
X330Y200D01*
X341Y200D02*
X351Y200D01*
X382Y200D02*
X391Y200D01*
X421Y200D02*
X430Y200D01*
X543Y200D02*
X552Y200D01*
X594Y200D02*
X603Y200D01*
X614Y200D02*
X623Y200D01*
X665Y200D02*
X674Y200D01*
X704Y200D02*
X713Y200D01*
X775Y200D02*
X784Y200D01*
X907Y200D02*
X916Y200D01*
X950Y200D02*
X966Y200D01*
X1039Y200D02*
X1048Y200D01*
X1090Y200D02*
X1099Y200D01*
X1128Y200D02*
X1137Y200D01*
X1161Y200D02*
X1170Y200D01*
X1200Y200D02*
X1209Y200D01*
X1232Y200D02*
X1240Y200D01*
X1251Y200D02*
X1260Y200D01*
X1271Y200D02*
X1280Y200D01*
X1302Y200D02*
X1311Y200D01*
X1341Y200D02*
X1350Y200D01*
X1373Y200D02*
X1382Y200D01*
X1412Y200D02*
X1421Y200D01*
X1464Y200D02*
X1473Y200D01*
X1515Y200D02*
X1524Y200D01*
X1554Y200D02*
X1563Y200D01*
X1683Y200D02*
X1692Y200D01*
X1747Y200D02*
X1756Y200D01*
X1800Y200D02*
X1846Y200D01*
X1908Y200D02*
X1917Y200D01*
X240Y199D02*
X249Y199D01*
X260Y199D02*
X269Y199D01*
X320Y199D02*
X330Y199D01*
X340Y199D02*
X350Y199D01*
X382Y199D02*
X391Y199D01*
X421Y199D02*
X430Y199D01*
X543Y199D02*
X552Y199D01*
X594Y199D02*
X603Y199D01*
X614Y199D02*
X623Y199D01*
X665Y199D02*
X674Y199D01*
X704Y199D02*
X713Y199D01*
X775Y199D02*
X784Y199D01*
X907Y199D02*
X916Y199D01*
X950Y199D02*
X963Y199D01*
X1039Y199D02*
X1048Y199D01*
X1090Y199D02*
X1099Y199D01*
X1128Y199D02*
X1137Y199D01*
X1161Y199D02*
X1170Y199D01*
X1200Y199D02*
X1209Y199D01*
X1232Y199D02*
X1240Y199D01*
X1251Y199D02*
X1260Y199D01*
X1271Y199D02*
X1280Y199D01*
X1302Y199D02*
X1311Y199D01*
X1341Y199D02*
X1350Y199D01*
X1373Y199D02*
X1382Y199D01*
X1412Y199D02*
X1421Y199D01*
X1464Y199D02*
X1473Y199D01*
X1515Y199D02*
X1524Y199D01*
X1554Y199D02*
X1563Y199D01*
X1683Y199D02*
X1692Y199D01*
X1747Y199D02*
X1756Y199D01*
X1802Y199D02*
X1846Y199D01*
X1908Y199D02*
X1917Y199D01*
X240Y198D02*
X249Y198D01*
X260Y198D02*
X269Y198D01*
X321Y198D02*
X330Y198D01*
X340Y198D02*
X350Y198D01*
X382Y198D02*
X391Y198D01*
X421Y198D02*
X430Y198D01*
X543Y198D02*
X552Y198D01*
X594Y198D02*
X603Y198D01*
X614Y198D02*
X623Y198D01*
X665Y198D02*
X674Y198D01*
X704Y198D02*
X713Y198D01*
X775Y198D02*
X784Y198D01*
X907Y198D02*
X916Y198D01*
X949Y198D02*
X961Y198D01*
X1039Y198D02*
X1048Y198D01*
X1090Y198D02*
X1099Y198D01*
X1128Y198D02*
X1137Y198D01*
X1161Y198D02*
X1170Y198D01*
X1200Y198D02*
X1209Y198D01*
X1232Y198D02*
X1240Y198D01*
X1251Y198D02*
X1260Y198D01*
X1271Y198D02*
X1280Y198D01*
X1302Y198D02*
X1311Y198D01*
X1341Y198D02*
X1350Y198D01*
X1373Y198D02*
X1382Y198D01*
X1412Y198D02*
X1421Y198D01*
X1464Y198D02*
X1473Y198D01*
X1515Y198D02*
X1524Y198D01*
X1554Y198D02*
X1563Y198D01*
X1683Y198D02*
X1692Y198D01*
X1747Y198D02*
X1756Y198D01*
X1837Y198D02*
X1846Y198D01*
X1908Y198D02*
X1917Y198D01*
X240Y197D02*
X249Y197D01*
X260Y197D02*
X269Y197D01*
X321Y197D02*
X331Y197D01*
X340Y197D02*
X349Y197D01*
X382Y197D02*
X391Y197D01*
X421Y197D02*
X430Y197D01*
X543Y197D02*
X552Y197D01*
X594Y197D02*
X603Y197D01*
X614Y197D02*
X623Y197D01*
X665Y197D02*
X674Y197D01*
X704Y197D02*
X713Y197D01*
X775Y197D02*
X784Y197D01*
X907Y197D02*
X916Y197D01*
X949Y197D02*
X959Y197D01*
X1039Y197D02*
X1048Y197D01*
X1090Y197D02*
X1101Y197D01*
X1128Y197D02*
X1137Y197D01*
X1161Y197D02*
X1171Y197D01*
X1200Y197D02*
X1209Y197D01*
X1231Y197D02*
X1240Y197D01*
X1251Y197D02*
X1260Y197D01*
X1271Y197D02*
X1280Y197D01*
X1302Y197D02*
X1311Y197D01*
X1341Y197D02*
X1350Y197D01*
X1373Y197D02*
X1382Y197D01*
X1412Y197D02*
X1421Y197D01*
X1464Y197D02*
X1473Y197D01*
X1515Y197D02*
X1524Y197D01*
X1554Y197D02*
X1563Y197D01*
X1683Y197D02*
X1692Y197D01*
X1747Y197D02*
X1756Y197D01*
X1837Y197D02*
X1846Y197D01*
X1908Y197D02*
X1917Y197D01*
X240Y196D02*
X249Y196D01*
X260Y196D02*
X269Y196D01*
X321Y196D02*
X331Y196D01*
X339Y196D02*
X349Y196D01*
X382Y196D02*
X391Y196D01*
X421Y196D02*
X430Y196D01*
X543Y196D02*
X552Y196D01*
X594Y196D02*
X603Y196D01*
X614Y196D02*
X623Y196D01*
X665Y196D02*
X674Y196D01*
X704Y196D02*
X713Y196D01*
X775Y196D02*
X784Y196D01*
X882Y196D02*
X883Y196D01*
X907Y196D02*
X916Y196D01*
X949Y196D02*
X958Y196D01*
X1039Y196D02*
X1048Y196D01*
X1090Y196D02*
X1102Y196D01*
X1128Y196D02*
X1137Y196D01*
X1161Y196D02*
X1172Y196D01*
X1200Y196D02*
X1209Y196D01*
X1231Y196D02*
X1240Y196D01*
X1251Y196D02*
X1260Y196D01*
X1271Y196D02*
X1280Y196D01*
X1302Y196D02*
X1311Y196D01*
X1341Y196D02*
X1350Y196D01*
X1373Y196D02*
X1382Y196D01*
X1412Y196D02*
X1421Y196D01*
X1464Y196D02*
X1473Y196D01*
X1515Y196D02*
X1524Y196D01*
X1554Y196D02*
X1563Y196D01*
X1683Y196D02*
X1692Y196D01*
X1747Y196D02*
X1756Y196D01*
X1837Y196D02*
X1846Y196D01*
X1908Y196D02*
X1917Y196D01*
X240Y195D02*
X249Y195D01*
X260Y195D02*
X269Y195D01*
X322Y195D02*
X332Y195D01*
X339Y195D02*
X348Y195D01*
X382Y195D02*
X391Y195D01*
X421Y195D02*
X430Y195D01*
X543Y195D02*
X552Y195D01*
X594Y195D02*
X603Y195D01*
X614Y195D02*
X623Y195D01*
X665Y195D02*
X674Y195D01*
X704Y195D02*
X713Y195D01*
X775Y195D02*
X784Y195D01*
X879Y195D02*
X885Y195D01*
X907Y195D02*
X916Y195D01*
X949Y195D02*
X958Y195D01*
X1039Y195D02*
X1048Y195D01*
X1090Y195D02*
X1104Y195D01*
X1128Y195D02*
X1137Y195D01*
X1161Y195D02*
X1173Y195D01*
X1200Y195D02*
X1209Y195D01*
X1231Y195D02*
X1240Y195D01*
X1251Y195D02*
X1260Y195D01*
X1271Y195D02*
X1280Y195D01*
X1302Y195D02*
X1311Y195D01*
X1341Y195D02*
X1350Y195D01*
X1373Y195D02*
X1382Y195D01*
X1412Y195D02*
X1421Y195D01*
X1464Y195D02*
X1473Y195D01*
X1515Y195D02*
X1524Y195D01*
X1554Y195D02*
X1563Y195D01*
X1683Y195D02*
X1692Y195D01*
X1747Y195D02*
X1756Y195D01*
X1837Y195D02*
X1846Y195D01*
X1908Y195D02*
X1917Y195D01*
X240Y194D02*
X249Y194D01*
X260Y194D02*
X269Y194D01*
X322Y194D02*
X332Y194D01*
X338Y194D02*
X348Y194D01*
X382Y194D02*
X391Y194D01*
X421Y194D02*
X430Y194D01*
X543Y194D02*
X552Y194D01*
X594Y194D02*
X603Y194D01*
X614Y194D02*
X623Y194D01*
X665Y194D02*
X674Y194D01*
X704Y194D02*
X713Y194D01*
X775Y194D02*
X784Y194D01*
X879Y194D02*
X885Y194D01*
X907Y194D02*
X916Y194D01*
X949Y194D02*
X958Y194D01*
X1039Y194D02*
X1048Y194D01*
X1090Y194D02*
X1105Y194D01*
X1128Y194D02*
X1137Y194D01*
X1161Y194D02*
X1174Y194D01*
X1199Y194D02*
X1209Y194D01*
X1231Y194D02*
X1240Y194D01*
X1251Y194D02*
X1260Y194D01*
X1271Y194D02*
X1280Y194D01*
X1303Y194D02*
X1312Y194D01*
X1341Y194D02*
X1350Y194D01*
X1373Y194D02*
X1383Y194D01*
X1412Y194D02*
X1421Y194D01*
X1464Y194D02*
X1473Y194D01*
X1515Y194D02*
X1525Y194D01*
X1554Y194D02*
X1563Y194D01*
X1683Y194D02*
X1692Y194D01*
X1747Y194D02*
X1756Y194D01*
X1837Y194D02*
X1846Y194D01*
X1908Y194D02*
X1917Y194D01*
X240Y193D02*
X249Y193D01*
X260Y193D02*
X269Y193D01*
X323Y193D02*
X333Y193D01*
X338Y193D02*
X348Y193D01*
X382Y193D02*
X391Y193D01*
X421Y193D02*
X430Y193D01*
X543Y193D02*
X552Y193D01*
X594Y193D02*
X603Y193D01*
X614Y193D02*
X623Y193D01*
X665Y193D02*
X674Y193D01*
X704Y193D02*
X713Y193D01*
X775Y193D02*
X784Y193D01*
X878Y193D02*
X886Y193D01*
X907Y193D02*
X916Y193D01*
X949Y193D02*
X958Y193D01*
X1039Y193D02*
X1048Y193D01*
X1090Y193D02*
X1107Y193D01*
X1128Y193D02*
X1137Y193D01*
X1161Y193D02*
X1175Y193D01*
X1199Y193D02*
X1209Y193D01*
X1231Y193D02*
X1240Y193D01*
X1251Y193D02*
X1260Y193D01*
X1271Y193D02*
X1280Y193D01*
X1303Y193D02*
X1312Y193D01*
X1341Y193D02*
X1350Y193D01*
X1373Y193D02*
X1383Y193D01*
X1411Y193D02*
X1421Y193D01*
X1464Y193D02*
X1473Y193D01*
X1515Y193D02*
X1525Y193D01*
X1554Y193D02*
X1563Y193D01*
X1683Y193D02*
X1692Y193D01*
X1747Y193D02*
X1756Y193D01*
X1836Y193D02*
X1846Y193D01*
X1908Y193D02*
X1917Y193D01*
X240Y192D02*
X249Y192D01*
X260Y192D02*
X269Y192D01*
X323Y192D02*
X333Y192D01*
X337Y192D02*
X347Y192D01*
X382Y192D02*
X391Y192D01*
X421Y192D02*
X430Y192D01*
X543Y192D02*
X552Y192D01*
X594Y192D02*
X603Y192D01*
X614Y192D02*
X623Y192D01*
X665Y192D02*
X674Y192D01*
X704Y192D02*
X713Y192D01*
X775Y192D02*
X784Y192D01*
X878Y192D02*
X886Y192D01*
X907Y192D02*
X916Y192D01*
X949Y192D02*
X958Y192D01*
X1039Y192D02*
X1048Y192D01*
X1090Y192D02*
X1109Y192D01*
X1128Y192D02*
X1137Y192D01*
X1161Y192D02*
X1177Y192D01*
X1198Y192D02*
X1208Y192D01*
X1231Y192D02*
X1240Y192D01*
X1251Y192D02*
X1260Y192D01*
X1271Y192D02*
X1280Y192D01*
X1303Y192D02*
X1313Y192D01*
X1340Y192D02*
X1350Y192D01*
X1374Y192D02*
X1384Y192D01*
X1411Y192D02*
X1421Y192D01*
X1464Y192D02*
X1473Y192D01*
X1516Y192D02*
X1526Y192D01*
X1554Y192D02*
X1563Y192D01*
X1683Y192D02*
X1692Y192D01*
X1747Y192D02*
X1756Y192D01*
X1835Y192D02*
X1846Y192D01*
X1908Y192D02*
X1917Y192D01*
X240Y191D02*
X249Y191D01*
X260Y191D02*
X269Y191D01*
X324Y191D02*
X333Y191D01*
X337Y191D02*
X347Y191D01*
X382Y191D02*
X391Y191D01*
X421Y191D02*
X430Y191D01*
X543Y191D02*
X552Y191D01*
X594Y191D02*
X603Y191D01*
X614Y191D02*
X623Y191D01*
X665Y191D02*
X674Y191D01*
X704Y191D02*
X713Y191D01*
X775Y191D02*
X784Y191D01*
X878Y191D02*
X887Y191D01*
X907Y191D02*
X916Y191D01*
X949Y191D02*
X958Y191D01*
X990Y191D02*
X994Y191D01*
X1039Y191D02*
X1048Y191D01*
X1090Y191D02*
X1110Y191D01*
X1127Y191D02*
X1137Y191D01*
X1161Y191D02*
X1178Y191D01*
X1197Y191D02*
X1208Y191D01*
X1231Y191D02*
X1240Y191D01*
X1251Y191D02*
X1260Y191D01*
X1271Y191D02*
X1280Y191D01*
X1303Y191D02*
X1314Y191D01*
X1339Y191D02*
X1350Y191D01*
X1374Y191D02*
X1385Y191D01*
X1410Y191D02*
X1420Y191D01*
X1464Y191D02*
X1473Y191D01*
X1516Y191D02*
X1527Y191D01*
X1554Y191D02*
X1563Y191D01*
X1683Y191D02*
X1692Y191D01*
X1747Y191D02*
X1756Y191D01*
X1834Y191D02*
X1845Y191D01*
X1908Y191D02*
X1917Y191D01*
X240Y190D02*
X249Y190D01*
X260Y190D02*
X269Y190D01*
X324Y190D02*
X334Y190D01*
X337Y190D02*
X346Y190D01*
X382Y190D02*
X391Y190D01*
X421Y190D02*
X430Y190D01*
X543Y190D02*
X552Y190D01*
X594Y190D02*
X603Y190D01*
X614Y190D02*
X623Y190D01*
X665Y190D02*
X674Y190D01*
X704Y190D02*
X713Y190D01*
X775Y190D02*
X784Y190D01*
X878Y190D02*
X888Y190D01*
X906Y190D02*
X916Y190D01*
X949Y190D02*
X959Y190D01*
X988Y190D02*
X995Y190D01*
X1039Y190D02*
X1048Y190D01*
X1090Y190D02*
X1112Y190D01*
X1127Y190D02*
X1137Y190D01*
X1161Y190D02*
X1179Y190D01*
X1196Y190D02*
X1208Y190D01*
X1231Y190D02*
X1240Y190D01*
X1251Y190D02*
X1260Y190D01*
X1271Y190D02*
X1280Y190D01*
X1304Y190D02*
X1315Y190D01*
X1338Y190D02*
X1349Y190D01*
X1374Y190D02*
X1386Y190D01*
X1408Y190D02*
X1420Y190D01*
X1464Y190D02*
X1473Y190D01*
X1516Y190D02*
X1528Y190D01*
X1554Y190D02*
X1563Y190D01*
X1683Y190D02*
X1692Y190D01*
X1747Y190D02*
X1756Y190D01*
X1833Y190D02*
X1845Y190D01*
X1908Y190D02*
X1917Y190D01*
X240Y189D02*
X249Y189D01*
X260Y189D02*
X269Y189D01*
X325Y189D02*
X334Y189D01*
X336Y189D02*
X346Y189D01*
X382Y189D02*
X391Y189D01*
X421Y189D02*
X430Y189D01*
X543Y189D02*
X552Y189D01*
X594Y189D02*
X603Y189D01*
X614Y189D02*
X623Y189D01*
X665Y189D02*
X674Y189D01*
X704Y189D02*
X713Y189D01*
X775Y189D02*
X784Y189D01*
X878Y189D02*
X888Y189D01*
X905Y189D02*
X915Y189D01*
X949Y189D02*
X960Y189D01*
X986Y189D02*
X996Y189D01*
X1039Y189D02*
X1048Y189D01*
X1090Y189D02*
X1113Y189D01*
X1126Y189D02*
X1136Y189D01*
X1161Y189D02*
X1180Y189D01*
X1195Y189D02*
X1207Y189D01*
X1231Y189D02*
X1240Y189D01*
X1251Y189D02*
X1260Y189D01*
X1271Y189D02*
X1280Y189D01*
X1304Y189D02*
X1317Y189D01*
X1336Y189D02*
X1349Y189D01*
X1375Y189D02*
X1387Y189D01*
X1407Y189D02*
X1420Y189D01*
X1464Y189D02*
X1473Y189D01*
X1517Y189D02*
X1529Y189D01*
X1554Y189D02*
X1563Y189D01*
X1683Y189D02*
X1692Y189D01*
X1747Y189D02*
X1756Y189D01*
X1832Y189D02*
X1845Y189D01*
X1908Y189D02*
X1917Y189D01*
X240Y188D02*
X250Y188D01*
X260Y188D02*
X269Y188D01*
X325Y188D02*
X345Y188D01*
X382Y188D02*
X391Y188D01*
X421Y188D02*
X430Y188D01*
X543Y188D02*
X552Y188D01*
X594Y188D02*
X604Y188D01*
X614Y188D02*
X623Y188D01*
X665Y188D02*
X674Y188D01*
X704Y188D02*
X713Y188D01*
X775Y188D02*
X784Y188D01*
X878Y188D02*
X891Y188D01*
X903Y188D02*
X915Y188D01*
X949Y188D02*
X962Y188D01*
X984Y188D02*
X996Y188D01*
X1039Y188D02*
X1048Y188D01*
X1090Y188D02*
X1115Y188D01*
X1124Y188D02*
X1136Y188D01*
X1161Y188D02*
X1182Y188D01*
X1192Y188D02*
X1207Y188D01*
X1231Y188D02*
X1240Y188D01*
X1251Y188D02*
X1260Y188D01*
X1271Y188D02*
X1280Y188D01*
X1305Y188D02*
X1319Y188D01*
X1334Y188D02*
X1348Y188D01*
X1376Y188D02*
X1389Y188D01*
X1405Y188D02*
X1419Y188D01*
X1463Y188D02*
X1473Y188D01*
X1518Y188D02*
X1532Y188D01*
X1554Y188D02*
X1563Y188D01*
X1683Y188D02*
X1692Y188D01*
X1747Y188D02*
X1756Y188D01*
X1830Y188D02*
X1844Y188D01*
X1908Y188D02*
X1917Y188D01*
X240Y187D02*
X286Y187D01*
X325Y187D02*
X345Y187D01*
X382Y187D02*
X430Y187D01*
X543Y187D02*
X552Y187D01*
X594Y187D02*
X640Y187D01*
X665Y187D02*
X713Y187D01*
X738Y187D02*
X784Y187D01*
X879Y187D02*
X915Y187D01*
X950Y187D02*
X996Y187D01*
X1027Y187D02*
X1060Y187D01*
X1090Y187D02*
X1136Y187D01*
X1161Y187D02*
X1206Y187D01*
X1231Y187D02*
X1240Y187D01*
X1251Y187D02*
X1260Y187D01*
X1271Y187D02*
X1280Y187D01*
X1306Y187D02*
X1348Y187D01*
X1376Y187D02*
X1418Y187D01*
X1451Y187D02*
X1485Y187D01*
X1518Y187D02*
X1563Y187D01*
X1683Y187D02*
X1692Y187D01*
X1735Y187D02*
X1768Y187D01*
X1800Y187D02*
X1843Y187D01*
X1871Y187D02*
X1917Y187D01*
X240Y186D02*
X287Y186D01*
X326Y186D02*
X345Y186D01*
X382Y186D02*
X430Y186D01*
X543Y186D02*
X552Y186D01*
X594Y186D02*
X641Y186D01*
X665Y186D02*
X713Y186D01*
X737Y186D02*
X784Y186D01*
X879Y186D02*
X914Y186D01*
X950Y186D02*
X996Y186D01*
X1025Y186D02*
X1061Y186D01*
X1090Y186D02*
X1099Y186D01*
X1101Y186D02*
X1135Y186D01*
X1161Y186D02*
X1205Y186D01*
X1231Y186D02*
X1240Y186D01*
X1251Y186D02*
X1260Y186D01*
X1271Y186D02*
X1280Y186D01*
X1306Y186D02*
X1347Y186D01*
X1377Y186D02*
X1418Y186D01*
X1450Y186D02*
X1486Y186D01*
X1519Y186D02*
X1563Y186D01*
X1683Y186D02*
X1692Y186D01*
X1733Y186D02*
X1769Y186D01*
X1799Y186D02*
X1842Y186D01*
X1870Y186D02*
X1917Y186D01*
X240Y185D02*
X288Y185D01*
X326Y185D02*
X344Y185D01*
X382Y185D02*
X429Y185D01*
X543Y185D02*
X552Y185D01*
X594Y185D02*
X642Y185D01*
X666Y185D02*
X713Y185D01*
X737Y185D02*
X784Y185D01*
X880Y185D02*
X914Y185D01*
X951Y185D02*
X996Y185D01*
X1025Y185D02*
X1062Y185D01*
X1090Y185D02*
X1099Y185D01*
X1102Y185D02*
X1135Y185D01*
X1161Y185D02*
X1204Y185D01*
X1231Y185D02*
X1240Y185D01*
X1251Y185D02*
X1260Y185D01*
X1271Y185D02*
X1280Y185D01*
X1307Y185D02*
X1346Y185D01*
X1378Y185D02*
X1417Y185D01*
X1450Y185D02*
X1487Y185D01*
X1520Y185D02*
X1563Y185D01*
X1683Y185D02*
X1692Y185D01*
X1733Y185D02*
X1770Y185D01*
X1799Y185D02*
X1841Y185D01*
X1869Y185D02*
X1917Y185D01*
X240Y184D02*
X288Y184D01*
X327Y184D02*
X344Y184D01*
X383Y184D02*
X429Y184D01*
X543Y184D02*
X552Y184D01*
X594Y184D02*
X642Y184D01*
X666Y184D02*
X712Y184D01*
X736Y184D02*
X784Y184D01*
X881Y184D02*
X913Y184D01*
X952Y184D02*
X995Y184D01*
X1024Y184D02*
X1062Y184D01*
X1090Y184D02*
X1099Y184D01*
X1104Y184D02*
X1134Y184D01*
X1161Y184D02*
X1203Y184D01*
X1231Y184D02*
X1240Y184D01*
X1251Y184D02*
X1260Y184D01*
X1271Y184D02*
X1280Y184D01*
X1308Y184D02*
X1345Y184D01*
X1379Y184D02*
X1416Y184D01*
X1449Y184D02*
X1487Y184D01*
X1521Y184D02*
X1563Y184D01*
X1683Y184D02*
X1692Y184D01*
X1732Y184D02*
X1770Y184D01*
X1798Y184D02*
X1840Y184D01*
X1869Y184D02*
X1917Y184D01*
X240Y183D02*
X288Y183D01*
X327Y183D02*
X343Y183D01*
X383Y183D02*
X429Y183D01*
X543Y183D02*
X552Y183D01*
X594Y183D02*
X642Y183D01*
X667Y183D02*
X712Y183D01*
X736Y183D02*
X784Y183D01*
X881Y183D02*
X912Y183D01*
X952Y183D02*
X994Y183D01*
X1024Y183D02*
X1062Y183D01*
X1090Y183D02*
X1099Y183D01*
X1105Y183D02*
X1133Y183D01*
X1161Y183D02*
X1170Y183D01*
X1172Y183D02*
X1202Y183D01*
X1231Y183D02*
X1240Y183D01*
X1251Y183D02*
X1260Y183D01*
X1271Y183D02*
X1280Y183D01*
X1309Y183D02*
X1344Y183D01*
X1380Y183D02*
X1414Y183D01*
X1449Y183D02*
X1487Y183D01*
X1522Y183D02*
X1563Y183D01*
X1683Y183D02*
X1692Y183D01*
X1732Y183D02*
X1770Y183D01*
X1798Y183D02*
X1839Y183D01*
X1869Y183D02*
X1917Y183D01*
X241Y182D02*
X288Y182D01*
X328Y182D02*
X343Y182D01*
X384Y182D02*
X428Y182D01*
X543Y182D02*
X552Y182D01*
X595Y182D02*
X642Y182D01*
X667Y182D02*
X711Y182D01*
X736Y182D02*
X784Y182D01*
X882Y182D02*
X911Y182D01*
X953Y182D02*
X993Y182D01*
X1024Y182D02*
X1062Y182D01*
X1090Y182D02*
X1099Y182D01*
X1107Y182D02*
X1132Y182D01*
X1161Y182D02*
X1170Y182D01*
X1174Y182D02*
X1201Y182D01*
X1231Y182D02*
X1240Y182D01*
X1251Y182D02*
X1260Y182D01*
X1272Y182D02*
X1280Y182D01*
X1311Y182D02*
X1342Y182D01*
X1381Y182D02*
X1413Y182D01*
X1449Y182D02*
X1487Y182D01*
X1523Y182D02*
X1563Y182D01*
X1684Y182D02*
X1692Y182D01*
X1732Y182D02*
X1770Y182D01*
X1798Y182D02*
X1838Y182D01*
X1869Y182D02*
X1917Y182D01*
X241Y181D02*
X288Y181D01*
X328Y181D02*
X342Y181D01*
X385Y181D02*
X427Y181D01*
X544Y181D02*
X552Y181D01*
X595Y181D02*
X642Y181D01*
X668Y181D02*
X710Y181D01*
X736Y181D02*
X784Y181D01*
X884Y181D02*
X910Y181D01*
X955Y181D02*
X992Y181D01*
X1025Y181D02*
X1062Y181D01*
X1090Y181D02*
X1099Y181D01*
X1108Y181D02*
X1131Y181D01*
X1161Y181D02*
X1170Y181D01*
X1175Y181D02*
X1200Y181D01*
X1231Y181D02*
X1239Y181D01*
X1252Y181D02*
X1260Y181D01*
X1272Y181D02*
X1280Y181D01*
X1312Y181D02*
X1341Y181D01*
X1383Y181D02*
X1412Y181D01*
X1449Y181D02*
X1487Y181D01*
X1524Y181D02*
X1563Y181D01*
X1684Y181D02*
X1692Y181D01*
X1733Y181D02*
X1770Y181D01*
X1799Y181D02*
X1837Y181D01*
X1869Y181D02*
X1917Y181D01*
X241Y180D02*
X287Y180D01*
X329Y180D02*
X342Y180D01*
X386Y180D02*
X426Y180D01*
X544Y180D02*
X551Y180D01*
X595Y180D02*
X641Y180D01*
X669Y180D02*
X709Y180D01*
X737Y180D02*
X784Y180D01*
X885Y180D02*
X909Y180D01*
X956Y180D02*
X990Y180D01*
X1025Y180D02*
X1061Y180D01*
X1091Y180D02*
X1098Y180D01*
X1110Y180D02*
X1130Y180D01*
X1161Y180D02*
X1170Y180D01*
X1176Y180D02*
X1198Y180D01*
X1232Y180D02*
X1239Y180D01*
X1252Y180D02*
X1259Y180D01*
X1273Y180D02*
X1279Y180D01*
X1313Y180D02*
X1340Y180D01*
X1384Y180D02*
X1410Y180D01*
X1450Y180D02*
X1486Y180D01*
X1526Y180D02*
X1563Y180D01*
X1684Y180D02*
X1691Y180D01*
X1733Y180D02*
X1769Y180D01*
X1799Y180D02*
X1835Y180D01*
X1870Y180D02*
X1917Y180D01*
X242Y179D02*
X286Y179D01*
X329Y179D02*
X341Y179D01*
X388Y179D02*
X424Y179D01*
X545Y179D02*
X550Y179D01*
X596Y179D02*
X640Y179D01*
X671Y179D02*
X708Y179D01*
X738Y179D02*
X784Y179D01*
X887Y179D02*
X907Y179D01*
X958Y179D02*
X987Y179D01*
X1026Y179D02*
X1060Y179D01*
X1092Y179D02*
X1097Y179D01*
X1112Y179D02*
X1128Y179D01*
X1161Y179D02*
X1170Y179D01*
X1179Y179D02*
X1196Y179D01*
X1233Y179D02*
X1238Y179D01*
X1253Y179D02*
X1258Y179D01*
X1274Y179D02*
X1278Y179D01*
X1315Y179D02*
X1338Y179D01*
X1386Y179D02*
X1408Y179D01*
X1451Y179D02*
X1485Y179D01*
X1528Y179D02*
X1563Y179D01*
X1685Y179D02*
X1690Y179D01*
X1734Y179D02*
X1768Y179D01*
X1800Y179D02*
X1833Y179D01*
X1871Y179D02*
X1917Y179D01*
X245Y178D02*
X284Y178D01*
X332Y178D02*
X339Y178D01*
X391Y178D02*
X421Y178D01*
X548Y178D02*
X548Y178D01*
X599Y178D02*
X638Y178D01*
X674Y178D02*
X704Y178D01*
X741Y178D02*
X784Y178D01*
X891Y178D02*
X902Y178D01*
X963Y178D02*
X982Y178D01*
X1029Y178D02*
X1058Y178D01*
X1095Y178D02*
X1095Y178D01*
X1116Y178D02*
X1123Y178D01*
X1161Y178D02*
X1170Y178D01*
X1183Y178D02*
X1192Y178D01*
X1235Y178D02*
X1235Y178D01*
X1256Y178D02*
X1256Y178D01*
X1276Y178D02*
X1276Y178D01*
X1320Y178D02*
X1333Y178D01*
X1391Y178D02*
X1404Y178D01*
X1454Y178D02*
X1483Y178D01*
X1534Y178D02*
X1562Y178D01*
X1688Y178D02*
X1688Y178D01*
X1737Y178D02*
X1766Y178D01*
X1803Y178D02*
X1829Y178D01*
X1873Y178D02*
X1917Y178D01*
X1161Y177D02*
X1170Y177D01*
X1161Y176D02*
X1170Y176D01*
X1161Y175D02*
X1170Y175D01*
X1161Y174D02*
X1170Y174D01*
X1161Y173D02*
X1170Y173D01*
X1161Y172D02*
X1170Y172D01*
X1161Y171D02*
X1170Y171D01*
X1161Y170D02*
X1170Y170D01*
X1161Y169D02*
X1170Y169D01*
X1161Y168D02*
X1170Y168D01*
X1161Y167D02*
X1170Y167D01*
X1161Y166D02*
X1170Y166D01*
X1161Y165D02*
X1170Y165D01*
X1161Y164D02*
X1170Y164D01*
X1161Y163D02*
X1170Y163D01*
X1161Y162D02*
X1170Y162D01*
X1161Y161D02*
X1170Y161D01*
X1161Y160D02*
X1169Y160D01*
X1162Y159D02*
X1169Y159D01*
X1163Y158D02*
X1168Y158D01*
D02*
G04 End of Silk0*
M02*