G04 MADE WITH FRITZING*
G04 WWW.FRITZING.ORG*
G04 DOUBLE SIDED*
G04 HOLES PLATED*
G04 CONTOUR ON CENTER OF CONTOUR VECTOR*
%ASAXBY*%
%FSLAX23Y23*%
%MOIN*%
%OFA0B0*%
%SFA1.0B1.0*%
%ADD10C,0.092000*%
%ADD11C,0.072598*%
%ADD12C,0.080000*%
%ADD13C,0.062000*%
%ADD14C,0.070000*%
%ADD15C,0.140000*%
%ADD16C,0.100551*%
%ADD17R,0.092000X0.092000*%
%ADD18R,0.001000X0.001000*%
%LNMASK0*%
G90*
G70*
G54D10*
X2043Y714D03*
X2043Y814D03*
X2043Y914D03*
G54D11*
X463Y664D03*
X542Y664D03*
X621Y664D03*
X700Y664D03*
X778Y664D03*
X857Y664D03*
X936Y664D03*
X1015Y664D03*
X1093Y664D03*
X1172Y664D03*
X1251Y664D03*
X1329Y664D03*
X1408Y664D03*
X1487Y664D03*
X1566Y664D03*
X1644Y664D03*
X463Y1624D03*
X542Y1624D03*
X621Y1624D03*
X700Y1624D03*
X778Y1624D03*
X857Y1624D03*
X936Y1624D03*
X1015Y1624D03*
X1093Y1624D03*
X1172Y1624D03*
X1251Y1624D03*
X1329Y1624D03*
X1408Y1624D03*
X1487Y1624D03*
X1566Y1624D03*
X1644Y1624D03*
G54D12*
X793Y964D03*
X693Y964D03*
X793Y1064D03*
X693Y1064D03*
X793Y1164D03*
X693Y1164D03*
X1043Y814D03*
X943Y814D03*
X1343Y814D03*
X1243Y814D03*
G54D13*
X943Y914D03*
X1043Y914D03*
X1143Y914D03*
X1243Y914D03*
X1343Y914D03*
X1443Y914D03*
X1543Y914D03*
X1643Y914D03*
X1643Y1214D03*
X1543Y1214D03*
X1443Y1214D03*
X1343Y1214D03*
X1243Y1214D03*
X1143Y1214D03*
X1043Y1214D03*
X943Y1214D03*
G54D14*
X1732Y464D03*
X1623Y464D03*
X1515Y464D03*
X1406Y464D03*
X1297Y464D03*
X1189Y464D03*
X1080Y464D03*
X971Y464D03*
X863Y464D03*
X754Y464D03*
X645Y464D03*
X537Y464D03*
X428Y464D03*
X1678Y364D03*
X1569Y364D03*
X1460Y364D03*
X1352Y364D03*
X1243Y364D03*
X1134Y364D03*
X1026Y364D03*
X917Y364D03*
X808Y364D03*
X700Y364D03*
X591Y364D03*
X482Y364D03*
G54D15*
X2006Y414D03*
X154Y414D03*
G54D16*
X1943Y1114D03*
X2043Y1314D03*
X1843Y1314D03*
G54D17*
X2043Y714D03*
G54D18*
X1835Y1353D02*
X1851Y1353D01*
X2035Y1353D02*
X2051Y1353D01*
X1831Y1352D02*
X1854Y1352D01*
X2031Y1352D02*
X2054Y1352D01*
X1828Y1351D02*
X1857Y1351D01*
X2028Y1351D02*
X2057Y1351D01*
X1826Y1350D02*
X1859Y1350D01*
X2026Y1350D02*
X2059Y1350D01*
X1824Y1349D02*
X1861Y1349D01*
X2024Y1349D02*
X2061Y1349D01*
X1822Y1348D02*
X1863Y1348D01*
X2022Y1348D02*
X2063Y1348D01*
X1821Y1347D02*
X1865Y1347D01*
X2021Y1347D02*
X2065Y1347D01*
X1819Y1346D02*
X1866Y1346D01*
X2019Y1346D02*
X2066Y1346D01*
X1818Y1345D02*
X1867Y1345D01*
X2018Y1345D02*
X2067Y1345D01*
X1817Y1344D02*
X1869Y1344D01*
X2017Y1344D02*
X2069Y1344D01*
X1816Y1343D02*
X1870Y1343D01*
X2016Y1343D02*
X2070Y1343D01*
X1815Y1342D02*
X1871Y1342D01*
X2015Y1342D02*
X2071Y1342D01*
X1814Y1341D02*
X1872Y1341D01*
X2014Y1341D02*
X2072Y1341D01*
X1813Y1340D02*
X1873Y1340D01*
X2013Y1340D02*
X2073Y1340D01*
X1812Y1339D02*
X1873Y1339D01*
X2012Y1339D02*
X2073Y1339D01*
X1811Y1338D02*
X1874Y1338D01*
X2011Y1338D02*
X2074Y1338D01*
X1811Y1337D02*
X1875Y1337D01*
X2011Y1337D02*
X2075Y1337D01*
X1810Y1336D02*
X1876Y1336D01*
X2010Y1336D02*
X2076Y1336D01*
X1809Y1335D02*
X1876Y1335D01*
X2009Y1335D02*
X2076Y1335D01*
X1809Y1334D02*
X1877Y1334D01*
X2009Y1334D02*
X2077Y1334D01*
X1808Y1333D02*
X1877Y1333D01*
X2008Y1333D02*
X2077Y1333D01*
X1808Y1332D02*
X1878Y1332D01*
X2008Y1332D02*
X2078Y1332D01*
X1807Y1331D02*
X1878Y1331D01*
X2007Y1331D02*
X2078Y1331D01*
X1807Y1330D02*
X1879Y1330D01*
X2007Y1330D02*
X2079Y1330D01*
X1806Y1329D02*
X1879Y1329D01*
X2006Y1329D02*
X2079Y1329D01*
X1806Y1328D02*
X1880Y1328D01*
X2006Y1328D02*
X2080Y1328D01*
X1805Y1327D02*
X1880Y1327D01*
X2005Y1327D02*
X2080Y1327D01*
X1805Y1326D02*
X1880Y1326D01*
X2005Y1326D02*
X2080Y1326D01*
X1805Y1325D02*
X1881Y1325D01*
X2005Y1325D02*
X2081Y1325D01*
X1805Y1324D02*
X1881Y1324D01*
X2005Y1324D02*
X2081Y1324D01*
X1804Y1323D02*
X1881Y1323D01*
X2004Y1323D02*
X2081Y1323D01*
X1804Y1322D02*
X1881Y1322D01*
X2004Y1322D02*
X2081Y1322D01*
X1804Y1321D02*
X1882Y1321D01*
X2004Y1321D02*
X2082Y1321D01*
X1804Y1320D02*
X1882Y1320D01*
X2004Y1320D02*
X2082Y1320D01*
X1804Y1319D02*
X1882Y1319D01*
X2004Y1319D02*
X2082Y1319D01*
X1803Y1318D02*
X1882Y1318D01*
X2003Y1318D02*
X2082Y1318D01*
X1803Y1317D02*
X1882Y1317D01*
X2003Y1317D02*
X2082Y1317D01*
X1803Y1316D02*
X1882Y1316D01*
X2003Y1316D02*
X2082Y1316D01*
X1803Y1315D02*
X1882Y1315D01*
X2003Y1315D02*
X2082Y1315D01*
X1803Y1314D02*
X1882Y1314D01*
X2003Y1314D02*
X2082Y1314D01*
X1803Y1313D02*
X1882Y1313D01*
X2003Y1313D02*
X2082Y1313D01*
X1803Y1312D02*
X1882Y1312D01*
X2003Y1312D02*
X2082Y1312D01*
X1803Y1311D02*
X1882Y1311D01*
X2003Y1311D02*
X2082Y1311D01*
X1803Y1310D02*
X1882Y1310D01*
X2003Y1310D02*
X2082Y1310D01*
X1804Y1309D02*
X1882Y1309D01*
X2004Y1309D02*
X2082Y1309D01*
X1804Y1308D02*
X1882Y1308D01*
X2004Y1308D02*
X2082Y1308D01*
X1804Y1307D02*
X1882Y1307D01*
X2004Y1307D02*
X2082Y1307D01*
X1804Y1306D02*
X1881Y1306D01*
X2004Y1306D02*
X2081Y1306D01*
X1804Y1305D02*
X1881Y1305D01*
X2004Y1305D02*
X2081Y1305D01*
X1805Y1304D02*
X1881Y1304D01*
X2005Y1304D02*
X2081Y1304D01*
X1805Y1303D02*
X1881Y1303D01*
X2005Y1303D02*
X2081Y1303D01*
X1805Y1302D02*
X1880Y1302D01*
X2005Y1302D02*
X2080Y1302D01*
X1805Y1301D02*
X1880Y1301D01*
X2005Y1301D02*
X2080Y1301D01*
X1806Y1300D02*
X1880Y1300D01*
X2006Y1300D02*
X2080Y1300D01*
X1806Y1299D02*
X1879Y1299D01*
X2006Y1299D02*
X2079Y1299D01*
X1807Y1298D02*
X1879Y1298D01*
X2007Y1298D02*
X2079Y1298D01*
X1807Y1297D02*
X1878Y1297D01*
X2007Y1297D02*
X2078Y1297D01*
X1808Y1296D02*
X1878Y1296D01*
X2008Y1296D02*
X2078Y1296D01*
X1808Y1295D02*
X1877Y1295D01*
X2008Y1295D02*
X2077Y1295D01*
X1809Y1294D02*
X1877Y1294D01*
X2009Y1294D02*
X2077Y1294D01*
X1809Y1293D02*
X1876Y1293D01*
X2009Y1293D02*
X2076Y1293D01*
X1810Y1292D02*
X1876Y1292D01*
X2010Y1292D02*
X2076Y1292D01*
X1811Y1291D02*
X1875Y1291D01*
X2011Y1291D02*
X2075Y1291D01*
X1811Y1290D02*
X1874Y1290D01*
X2011Y1290D02*
X2074Y1290D01*
X1812Y1289D02*
X1873Y1289D01*
X2012Y1289D02*
X2073Y1289D01*
X1813Y1288D02*
X1873Y1288D01*
X2013Y1288D02*
X2073Y1288D01*
X1814Y1287D02*
X1872Y1287D01*
X2014Y1287D02*
X2072Y1287D01*
X1815Y1286D02*
X1871Y1286D01*
X2015Y1286D02*
X2071Y1286D01*
X1816Y1285D02*
X1870Y1285D01*
X2016Y1285D02*
X2070Y1285D01*
X1817Y1284D02*
X1869Y1284D01*
X2017Y1284D02*
X2069Y1284D01*
X1818Y1283D02*
X1867Y1283D01*
X2018Y1283D02*
X2067Y1283D01*
X1819Y1282D02*
X1866Y1282D01*
X2019Y1282D02*
X2066Y1282D01*
X1821Y1281D02*
X1865Y1281D01*
X2021Y1281D02*
X2065Y1281D01*
X1822Y1280D02*
X1863Y1280D01*
X2022Y1280D02*
X2063Y1280D01*
X1824Y1279D02*
X1862Y1279D01*
X2024Y1279D02*
X2062Y1279D01*
X1826Y1278D02*
X1860Y1278D01*
X2026Y1278D02*
X2060Y1278D01*
X1828Y1277D02*
X1857Y1277D01*
X2028Y1277D02*
X2057Y1277D01*
X1831Y1276D02*
X1855Y1276D01*
X2031Y1276D02*
X2055Y1276D01*
X1835Y1275D02*
X1851Y1275D01*
X2035Y1275D02*
X2051Y1275D01*
X1843Y1274D02*
X1843Y1274D01*
X2043Y1274D02*
X2043Y1274D01*
X936Y1270D02*
X950Y1270D01*
X1036Y1270D02*
X1050Y1270D01*
X1136Y1270D02*
X1150Y1270D01*
X1236Y1270D02*
X1250Y1270D01*
X1336Y1270D02*
X1350Y1270D01*
X1436Y1270D02*
X1450Y1270D01*
X1536Y1270D02*
X1550Y1270D01*
X1636Y1270D02*
X1650Y1270D01*
X933Y1269D02*
X953Y1269D01*
X1033Y1269D02*
X1053Y1269D01*
X1133Y1269D02*
X1153Y1269D01*
X1233Y1269D02*
X1253Y1269D01*
X1333Y1269D02*
X1353Y1269D01*
X1433Y1269D02*
X1453Y1269D01*
X1533Y1269D02*
X1553Y1269D01*
X1633Y1269D02*
X1653Y1269D01*
X930Y1268D02*
X955Y1268D01*
X1030Y1268D02*
X1055Y1268D01*
X1130Y1268D02*
X1155Y1268D01*
X1230Y1268D02*
X1255Y1268D01*
X1330Y1268D02*
X1355Y1268D01*
X1430Y1268D02*
X1455Y1268D01*
X1530Y1268D02*
X1555Y1268D01*
X1630Y1268D02*
X1655Y1268D01*
X928Y1267D02*
X957Y1267D01*
X1028Y1267D02*
X1057Y1267D01*
X1128Y1267D02*
X1157Y1267D01*
X1228Y1267D02*
X1257Y1267D01*
X1328Y1267D02*
X1357Y1267D01*
X1428Y1267D02*
X1457Y1267D01*
X1528Y1267D02*
X1557Y1267D01*
X1628Y1267D02*
X1657Y1267D01*
X927Y1266D02*
X959Y1266D01*
X1027Y1266D02*
X1059Y1266D01*
X1127Y1266D02*
X1159Y1266D01*
X1227Y1266D02*
X1259Y1266D01*
X1327Y1266D02*
X1359Y1266D01*
X1427Y1266D02*
X1459Y1266D01*
X1527Y1266D02*
X1559Y1266D01*
X1627Y1266D02*
X1659Y1266D01*
X925Y1265D02*
X960Y1265D01*
X1025Y1265D02*
X1060Y1265D01*
X1125Y1265D02*
X1160Y1265D01*
X1225Y1265D02*
X1260Y1265D01*
X1325Y1265D02*
X1360Y1265D01*
X1425Y1265D02*
X1460Y1265D01*
X1525Y1265D02*
X1560Y1265D01*
X1625Y1265D02*
X1660Y1265D01*
X924Y1264D02*
X962Y1264D01*
X1024Y1264D02*
X1062Y1264D01*
X1124Y1264D02*
X1162Y1264D01*
X1224Y1264D02*
X1262Y1264D01*
X1324Y1264D02*
X1362Y1264D01*
X1424Y1264D02*
X1462Y1264D01*
X1524Y1264D02*
X1562Y1264D01*
X1624Y1264D02*
X1662Y1264D01*
X923Y1263D02*
X963Y1263D01*
X1023Y1263D02*
X1063Y1263D01*
X1123Y1263D02*
X1163Y1263D01*
X1223Y1263D02*
X1263Y1263D01*
X1323Y1263D02*
X1363Y1263D01*
X1423Y1263D02*
X1463Y1263D01*
X1523Y1263D02*
X1563Y1263D01*
X1623Y1263D02*
X1663Y1263D01*
X921Y1262D02*
X964Y1262D01*
X1021Y1262D02*
X1064Y1262D01*
X1121Y1262D02*
X1164Y1262D01*
X1221Y1262D02*
X1264Y1262D01*
X1321Y1262D02*
X1364Y1262D01*
X1421Y1262D02*
X1464Y1262D01*
X1521Y1262D02*
X1564Y1262D01*
X1621Y1262D02*
X1664Y1262D01*
X921Y1261D02*
X965Y1261D01*
X1021Y1261D02*
X1065Y1261D01*
X1121Y1261D02*
X1165Y1261D01*
X1221Y1261D02*
X1265Y1261D01*
X1321Y1261D02*
X1365Y1261D01*
X1421Y1261D02*
X1465Y1261D01*
X1521Y1261D02*
X1565Y1261D01*
X1621Y1261D02*
X1665Y1261D01*
X920Y1260D02*
X966Y1260D01*
X1020Y1260D02*
X1066Y1260D01*
X1120Y1260D02*
X1166Y1260D01*
X1220Y1260D02*
X1266Y1260D01*
X1320Y1260D02*
X1366Y1260D01*
X1420Y1260D02*
X1466Y1260D01*
X1520Y1260D02*
X1566Y1260D01*
X1620Y1260D02*
X1666Y1260D01*
X919Y1259D02*
X967Y1259D01*
X1019Y1259D02*
X1067Y1259D01*
X1119Y1259D02*
X1167Y1259D01*
X1219Y1259D02*
X1267Y1259D01*
X1319Y1259D02*
X1367Y1259D01*
X1419Y1259D02*
X1467Y1259D01*
X1519Y1259D02*
X1567Y1259D01*
X1619Y1259D02*
X1667Y1259D01*
X918Y1258D02*
X967Y1258D01*
X1018Y1258D02*
X1067Y1258D01*
X1118Y1258D02*
X1167Y1258D01*
X1218Y1258D02*
X1267Y1258D01*
X1318Y1258D02*
X1367Y1258D01*
X1418Y1258D02*
X1467Y1258D01*
X1518Y1258D02*
X1567Y1258D01*
X1618Y1258D02*
X1667Y1258D01*
X917Y1257D02*
X968Y1257D01*
X1017Y1257D02*
X1068Y1257D01*
X1117Y1257D02*
X1168Y1257D01*
X1217Y1257D02*
X1268Y1257D01*
X1317Y1257D02*
X1368Y1257D01*
X1417Y1257D02*
X1468Y1257D01*
X1517Y1257D02*
X1568Y1257D01*
X1617Y1257D02*
X1668Y1257D01*
X917Y1256D02*
X969Y1256D01*
X1017Y1256D02*
X1069Y1256D01*
X1117Y1256D02*
X1169Y1256D01*
X1217Y1256D02*
X1269Y1256D01*
X1317Y1256D02*
X1369Y1256D01*
X1417Y1256D02*
X1469Y1256D01*
X1517Y1256D02*
X1569Y1256D01*
X1617Y1256D02*
X1669Y1256D01*
X916Y1255D02*
X969Y1255D01*
X1016Y1255D02*
X1069Y1255D01*
X1116Y1255D02*
X1169Y1255D01*
X1216Y1255D02*
X1269Y1255D01*
X1316Y1255D02*
X1369Y1255D01*
X1416Y1255D02*
X1469Y1255D01*
X1516Y1255D02*
X1569Y1255D01*
X1616Y1255D02*
X1669Y1255D01*
X916Y1254D02*
X970Y1254D01*
X1016Y1254D02*
X1070Y1254D01*
X1116Y1254D02*
X1170Y1254D01*
X1216Y1254D02*
X1270Y1254D01*
X1316Y1254D02*
X1370Y1254D01*
X1416Y1254D02*
X1470Y1254D01*
X1516Y1254D02*
X1570Y1254D01*
X1616Y1254D02*
X1670Y1254D01*
X915Y1253D02*
X970Y1253D01*
X1015Y1253D02*
X1070Y1253D01*
X1115Y1253D02*
X1170Y1253D01*
X1215Y1253D02*
X1270Y1253D01*
X1315Y1253D02*
X1370Y1253D01*
X1415Y1253D02*
X1470Y1253D01*
X1515Y1253D02*
X1570Y1253D01*
X1615Y1253D02*
X1670Y1253D01*
X915Y1252D02*
X971Y1252D01*
X1015Y1252D02*
X1071Y1252D01*
X1115Y1252D02*
X1171Y1252D01*
X1215Y1252D02*
X1271Y1252D01*
X1315Y1252D02*
X1371Y1252D01*
X1415Y1252D02*
X1471Y1252D01*
X1515Y1252D02*
X1571Y1252D01*
X1615Y1252D02*
X1671Y1252D01*
X914Y1251D02*
X971Y1251D01*
X1014Y1251D02*
X1071Y1251D01*
X1114Y1251D02*
X1171Y1251D01*
X1214Y1251D02*
X1271Y1251D01*
X1314Y1251D02*
X1371Y1251D01*
X1414Y1251D02*
X1471Y1251D01*
X1514Y1251D02*
X1571Y1251D01*
X1614Y1251D02*
X1671Y1251D01*
X914Y1250D02*
X971Y1250D01*
X1014Y1250D02*
X1071Y1250D01*
X1114Y1250D02*
X1171Y1250D01*
X1214Y1250D02*
X1271Y1250D01*
X1314Y1250D02*
X1371Y1250D01*
X1414Y1250D02*
X1471Y1250D01*
X1514Y1250D02*
X1571Y1250D01*
X1614Y1250D02*
X1671Y1250D01*
X914Y1249D02*
X972Y1249D01*
X1014Y1249D02*
X1072Y1249D01*
X1114Y1249D02*
X1172Y1249D01*
X1214Y1249D02*
X1272Y1249D01*
X1314Y1249D02*
X1372Y1249D01*
X1414Y1249D02*
X1472Y1249D01*
X1514Y1249D02*
X1572Y1249D01*
X1614Y1249D02*
X1672Y1249D01*
X913Y1248D02*
X972Y1248D01*
X1013Y1248D02*
X1072Y1248D01*
X1113Y1248D02*
X1172Y1248D01*
X1213Y1248D02*
X1272Y1248D01*
X1313Y1248D02*
X1372Y1248D01*
X1413Y1248D02*
X1472Y1248D01*
X1513Y1248D02*
X1572Y1248D01*
X1613Y1248D02*
X1672Y1248D01*
X913Y1247D02*
X972Y1247D01*
X1013Y1247D02*
X1072Y1247D01*
X1113Y1247D02*
X1172Y1247D01*
X1213Y1247D02*
X1272Y1247D01*
X1313Y1247D02*
X1372Y1247D01*
X1413Y1247D02*
X1472Y1247D01*
X1513Y1247D02*
X1572Y1247D01*
X1613Y1247D02*
X1672Y1247D01*
X913Y1246D02*
X973Y1246D01*
X1013Y1246D02*
X1073Y1246D01*
X1113Y1246D02*
X1173Y1246D01*
X1213Y1246D02*
X1273Y1246D01*
X1313Y1246D02*
X1373Y1246D01*
X1413Y1246D02*
X1473Y1246D01*
X1513Y1246D02*
X1573Y1246D01*
X1613Y1246D02*
X1673Y1246D01*
X913Y1245D02*
X973Y1245D01*
X1013Y1245D02*
X1073Y1245D01*
X1113Y1245D02*
X1173Y1245D01*
X1213Y1245D02*
X1273Y1245D01*
X1313Y1245D02*
X1373Y1245D01*
X1413Y1245D02*
X1473Y1245D01*
X1513Y1245D02*
X1573Y1245D01*
X1613Y1245D02*
X1673Y1245D01*
X913Y1244D02*
X973Y1244D01*
X1013Y1244D02*
X1073Y1244D01*
X1113Y1244D02*
X1173Y1244D01*
X1213Y1244D02*
X1273Y1244D01*
X1313Y1244D02*
X1373Y1244D01*
X1413Y1244D02*
X1473Y1244D01*
X1513Y1244D02*
X1573Y1244D01*
X1613Y1244D02*
X1673Y1244D01*
X912Y1243D02*
X973Y1243D01*
X1012Y1243D02*
X1073Y1243D01*
X1112Y1243D02*
X1173Y1243D01*
X1212Y1243D02*
X1273Y1243D01*
X1312Y1243D02*
X1373Y1243D01*
X1412Y1243D02*
X1473Y1243D01*
X1512Y1243D02*
X1573Y1243D01*
X1612Y1243D02*
X1673Y1243D01*
X912Y1242D02*
X973Y1242D01*
X1012Y1242D02*
X1073Y1242D01*
X1112Y1242D02*
X1173Y1242D01*
X1212Y1242D02*
X1273Y1242D01*
X1312Y1242D02*
X1373Y1242D01*
X1412Y1242D02*
X1473Y1242D01*
X1512Y1242D02*
X1573Y1242D01*
X1612Y1242D02*
X1673Y1242D01*
X912Y1241D02*
X973Y1241D01*
X1012Y1241D02*
X1073Y1241D01*
X1112Y1241D02*
X1173Y1241D01*
X1212Y1241D02*
X1273Y1241D01*
X1312Y1241D02*
X1373Y1241D01*
X1412Y1241D02*
X1473Y1241D01*
X1512Y1241D02*
X1573Y1241D01*
X1612Y1241D02*
X1673Y1241D01*
X912Y1240D02*
X973Y1240D01*
X1012Y1240D02*
X1073Y1240D01*
X1112Y1240D02*
X1173Y1240D01*
X1212Y1240D02*
X1273Y1240D01*
X1312Y1240D02*
X1373Y1240D01*
X1412Y1240D02*
X1473Y1240D01*
X1512Y1240D02*
X1573Y1240D01*
X1612Y1240D02*
X1673Y1240D01*
X912Y1239D02*
X973Y1239D01*
X1012Y1239D02*
X1073Y1239D01*
X1112Y1239D02*
X1173Y1239D01*
X1212Y1239D02*
X1273Y1239D01*
X1312Y1239D02*
X1373Y1239D01*
X1412Y1239D02*
X1473Y1239D01*
X1512Y1239D02*
X1573Y1239D01*
X1612Y1239D02*
X1673Y1239D01*
X912Y1238D02*
X973Y1238D01*
X1012Y1238D02*
X1073Y1238D01*
X1112Y1238D02*
X1173Y1238D01*
X1212Y1238D02*
X1273Y1238D01*
X1312Y1238D02*
X1373Y1238D01*
X1412Y1238D02*
X1473Y1238D01*
X1512Y1238D02*
X1573Y1238D01*
X1612Y1238D02*
X1673Y1238D01*
X912Y1237D02*
X973Y1237D01*
X1012Y1237D02*
X1073Y1237D01*
X1112Y1237D02*
X1173Y1237D01*
X1212Y1237D02*
X1273Y1237D01*
X1312Y1237D02*
X1373Y1237D01*
X1412Y1237D02*
X1473Y1237D01*
X1512Y1237D02*
X1573Y1237D01*
X1612Y1237D02*
X1673Y1237D01*
X912Y1236D02*
X973Y1236D01*
X1012Y1236D02*
X1073Y1236D01*
X1112Y1236D02*
X1173Y1236D01*
X1212Y1236D02*
X1273Y1236D01*
X1312Y1236D02*
X1373Y1236D01*
X1412Y1236D02*
X1473Y1236D01*
X1512Y1236D02*
X1573Y1236D01*
X1612Y1236D02*
X1673Y1236D01*
X912Y1235D02*
X973Y1235D01*
X1012Y1235D02*
X1073Y1235D01*
X1112Y1235D02*
X1173Y1235D01*
X1212Y1235D02*
X1273Y1235D01*
X1312Y1235D02*
X1373Y1235D01*
X1412Y1235D02*
X1473Y1235D01*
X1512Y1235D02*
X1573Y1235D01*
X1612Y1235D02*
X1673Y1235D01*
X912Y1234D02*
X973Y1234D01*
X1012Y1234D02*
X1073Y1234D01*
X1112Y1234D02*
X1173Y1234D01*
X1212Y1234D02*
X1273Y1234D01*
X1312Y1234D02*
X1373Y1234D01*
X1412Y1234D02*
X1473Y1234D01*
X1512Y1234D02*
X1573Y1234D01*
X1612Y1234D02*
X1673Y1234D01*
X912Y1233D02*
X973Y1233D01*
X1012Y1233D02*
X1073Y1233D01*
X1112Y1233D02*
X1173Y1233D01*
X1212Y1233D02*
X1273Y1233D01*
X1312Y1233D02*
X1373Y1233D01*
X1412Y1233D02*
X1473Y1233D01*
X1512Y1233D02*
X1573Y1233D01*
X1612Y1233D02*
X1673Y1233D01*
X912Y1232D02*
X973Y1232D01*
X1012Y1232D02*
X1073Y1232D01*
X1112Y1232D02*
X1173Y1232D01*
X1212Y1232D02*
X1273Y1232D01*
X1312Y1232D02*
X1373Y1232D01*
X1412Y1232D02*
X1473Y1232D01*
X1512Y1232D02*
X1573Y1232D01*
X1612Y1232D02*
X1673Y1232D01*
X912Y1231D02*
X973Y1231D01*
X1012Y1231D02*
X1073Y1231D01*
X1112Y1231D02*
X1173Y1231D01*
X1212Y1231D02*
X1273Y1231D01*
X1312Y1231D02*
X1373Y1231D01*
X1412Y1231D02*
X1473Y1231D01*
X1512Y1231D02*
X1573Y1231D01*
X1612Y1231D02*
X1673Y1231D01*
X912Y1230D02*
X973Y1230D01*
X1012Y1230D02*
X1073Y1230D01*
X1112Y1230D02*
X1173Y1230D01*
X1212Y1230D02*
X1273Y1230D01*
X1312Y1230D02*
X1373Y1230D01*
X1412Y1230D02*
X1473Y1230D01*
X1512Y1230D02*
X1573Y1230D01*
X1612Y1230D02*
X1673Y1230D01*
X912Y1229D02*
X973Y1229D01*
X1012Y1229D02*
X1073Y1229D01*
X1112Y1229D02*
X1173Y1229D01*
X1212Y1229D02*
X1273Y1229D01*
X1312Y1229D02*
X1373Y1229D01*
X1412Y1229D02*
X1473Y1229D01*
X1512Y1229D02*
X1573Y1229D01*
X1612Y1229D02*
X1673Y1229D01*
X912Y1228D02*
X973Y1228D01*
X1012Y1228D02*
X1073Y1228D01*
X1112Y1228D02*
X1173Y1228D01*
X1212Y1228D02*
X1273Y1228D01*
X1312Y1228D02*
X1373Y1228D01*
X1412Y1228D02*
X1473Y1228D01*
X1512Y1228D02*
X1573Y1228D01*
X1612Y1228D02*
X1673Y1228D01*
X912Y1227D02*
X973Y1227D01*
X1012Y1227D02*
X1073Y1227D01*
X1112Y1227D02*
X1173Y1227D01*
X1212Y1227D02*
X1273Y1227D01*
X1312Y1227D02*
X1373Y1227D01*
X1412Y1227D02*
X1473Y1227D01*
X1512Y1227D02*
X1573Y1227D01*
X1612Y1227D02*
X1673Y1227D01*
X912Y1226D02*
X973Y1226D01*
X1012Y1226D02*
X1073Y1226D01*
X1112Y1226D02*
X1173Y1226D01*
X1212Y1226D02*
X1273Y1226D01*
X1312Y1226D02*
X1373Y1226D01*
X1412Y1226D02*
X1473Y1226D01*
X1512Y1226D02*
X1573Y1226D01*
X1612Y1226D02*
X1673Y1226D01*
X912Y1225D02*
X973Y1225D01*
X1012Y1225D02*
X1073Y1225D01*
X1112Y1225D02*
X1173Y1225D01*
X1212Y1225D02*
X1273Y1225D01*
X1312Y1225D02*
X1373Y1225D01*
X1412Y1225D02*
X1473Y1225D01*
X1512Y1225D02*
X1573Y1225D01*
X1612Y1225D02*
X1673Y1225D01*
X912Y1224D02*
X938Y1224D01*
X948Y1224D02*
X973Y1224D01*
X1012Y1224D02*
X1038Y1224D01*
X1048Y1224D02*
X1073Y1224D01*
X1112Y1224D02*
X1138Y1224D01*
X1148Y1224D02*
X1173Y1224D01*
X1212Y1224D02*
X1238Y1224D01*
X1248Y1224D02*
X1273Y1224D01*
X1312Y1224D02*
X1338Y1224D01*
X1348Y1224D02*
X1373Y1224D01*
X1412Y1224D02*
X1438Y1224D01*
X1448Y1224D02*
X1473Y1224D01*
X1512Y1224D02*
X1538Y1224D01*
X1548Y1224D02*
X1573Y1224D01*
X1612Y1224D02*
X1638Y1224D01*
X1648Y1224D02*
X1673Y1224D01*
X912Y1223D02*
X936Y1223D01*
X950Y1223D02*
X973Y1223D01*
X1012Y1223D02*
X1036Y1223D01*
X1050Y1223D02*
X1073Y1223D01*
X1112Y1223D02*
X1136Y1223D01*
X1150Y1223D02*
X1173Y1223D01*
X1212Y1223D02*
X1236Y1223D01*
X1250Y1223D02*
X1273Y1223D01*
X1312Y1223D02*
X1336Y1223D01*
X1350Y1223D02*
X1373Y1223D01*
X1412Y1223D02*
X1436Y1223D01*
X1450Y1223D02*
X1473Y1223D01*
X1512Y1223D02*
X1536Y1223D01*
X1550Y1223D02*
X1573Y1223D01*
X1612Y1223D02*
X1636Y1223D01*
X1650Y1223D02*
X1673Y1223D01*
X912Y1222D02*
X935Y1222D01*
X951Y1222D02*
X973Y1222D01*
X1012Y1222D02*
X1035Y1222D01*
X1051Y1222D02*
X1073Y1222D01*
X1112Y1222D02*
X1135Y1222D01*
X1151Y1222D02*
X1173Y1222D01*
X1212Y1222D02*
X1235Y1222D01*
X1251Y1222D02*
X1273Y1222D01*
X1312Y1222D02*
X1335Y1222D01*
X1351Y1222D02*
X1373Y1222D01*
X1412Y1222D02*
X1435Y1222D01*
X1451Y1222D02*
X1473Y1222D01*
X1512Y1222D02*
X1535Y1222D01*
X1551Y1222D02*
X1573Y1222D01*
X1612Y1222D02*
X1635Y1222D01*
X1651Y1222D02*
X1673Y1222D01*
X912Y1221D02*
X934Y1221D01*
X952Y1221D02*
X973Y1221D01*
X1012Y1221D02*
X1034Y1221D01*
X1052Y1221D02*
X1073Y1221D01*
X1112Y1221D02*
X1134Y1221D01*
X1152Y1221D02*
X1173Y1221D01*
X1212Y1221D02*
X1234Y1221D01*
X1252Y1221D02*
X1273Y1221D01*
X1312Y1221D02*
X1334Y1221D01*
X1352Y1221D02*
X1373Y1221D01*
X1412Y1221D02*
X1434Y1221D01*
X1452Y1221D02*
X1473Y1221D01*
X1512Y1221D02*
X1534Y1221D01*
X1552Y1221D02*
X1573Y1221D01*
X1612Y1221D02*
X1634Y1221D01*
X1652Y1221D02*
X1673Y1221D01*
X912Y1220D02*
X933Y1220D01*
X952Y1220D02*
X973Y1220D01*
X1012Y1220D02*
X1033Y1220D01*
X1052Y1220D02*
X1073Y1220D01*
X1112Y1220D02*
X1133Y1220D01*
X1152Y1220D02*
X1173Y1220D01*
X1212Y1220D02*
X1233Y1220D01*
X1252Y1220D02*
X1273Y1220D01*
X1312Y1220D02*
X1333Y1220D01*
X1352Y1220D02*
X1373Y1220D01*
X1412Y1220D02*
X1433Y1220D01*
X1452Y1220D02*
X1473Y1220D01*
X1512Y1220D02*
X1533Y1220D01*
X1552Y1220D02*
X1573Y1220D01*
X1612Y1220D02*
X1633Y1220D01*
X1652Y1220D02*
X1673Y1220D01*
X912Y1219D02*
X932Y1219D01*
X953Y1219D02*
X973Y1219D01*
X1012Y1219D02*
X1032Y1219D01*
X1053Y1219D02*
X1073Y1219D01*
X1112Y1219D02*
X1132Y1219D01*
X1153Y1219D02*
X1173Y1219D01*
X1212Y1219D02*
X1232Y1219D01*
X1253Y1219D02*
X1273Y1219D01*
X1312Y1219D02*
X1332Y1219D01*
X1353Y1219D02*
X1373Y1219D01*
X1412Y1219D02*
X1432Y1219D01*
X1453Y1219D02*
X1473Y1219D01*
X1512Y1219D02*
X1532Y1219D01*
X1553Y1219D02*
X1573Y1219D01*
X1612Y1219D02*
X1632Y1219D01*
X1653Y1219D02*
X1673Y1219D01*
X912Y1218D02*
X932Y1218D01*
X954Y1218D02*
X973Y1218D01*
X1012Y1218D02*
X1032Y1218D01*
X1054Y1218D02*
X1073Y1218D01*
X1112Y1218D02*
X1132Y1218D01*
X1154Y1218D02*
X1173Y1218D01*
X1212Y1218D02*
X1232Y1218D01*
X1254Y1218D02*
X1273Y1218D01*
X1312Y1218D02*
X1332Y1218D01*
X1354Y1218D02*
X1373Y1218D01*
X1412Y1218D02*
X1432Y1218D01*
X1454Y1218D02*
X1473Y1218D01*
X1512Y1218D02*
X1532Y1218D01*
X1554Y1218D02*
X1573Y1218D01*
X1612Y1218D02*
X1632Y1218D01*
X1654Y1218D02*
X1673Y1218D01*
X912Y1217D02*
X932Y1217D01*
X954Y1217D02*
X973Y1217D01*
X1012Y1217D02*
X1032Y1217D01*
X1054Y1217D02*
X1073Y1217D01*
X1112Y1217D02*
X1132Y1217D01*
X1154Y1217D02*
X1173Y1217D01*
X1212Y1217D02*
X1232Y1217D01*
X1254Y1217D02*
X1273Y1217D01*
X1312Y1217D02*
X1332Y1217D01*
X1354Y1217D02*
X1373Y1217D01*
X1412Y1217D02*
X1432Y1217D01*
X1454Y1217D02*
X1473Y1217D01*
X1512Y1217D02*
X1532Y1217D01*
X1554Y1217D02*
X1573Y1217D01*
X1612Y1217D02*
X1632Y1217D01*
X1654Y1217D02*
X1673Y1217D01*
X912Y1216D02*
X931Y1216D01*
X954Y1216D02*
X973Y1216D01*
X1012Y1216D02*
X1031Y1216D01*
X1054Y1216D02*
X1073Y1216D01*
X1112Y1216D02*
X1131Y1216D01*
X1154Y1216D02*
X1173Y1216D01*
X1212Y1216D02*
X1231Y1216D01*
X1254Y1216D02*
X1273Y1216D01*
X1312Y1216D02*
X1331Y1216D01*
X1354Y1216D02*
X1373Y1216D01*
X1412Y1216D02*
X1431Y1216D01*
X1454Y1216D02*
X1473Y1216D01*
X1512Y1216D02*
X1531Y1216D01*
X1554Y1216D02*
X1573Y1216D01*
X1612Y1216D02*
X1631Y1216D01*
X1654Y1216D02*
X1673Y1216D01*
X912Y1215D02*
X931Y1215D01*
X954Y1215D02*
X973Y1215D01*
X1012Y1215D02*
X1031Y1215D01*
X1054Y1215D02*
X1073Y1215D01*
X1112Y1215D02*
X1131Y1215D01*
X1154Y1215D02*
X1173Y1215D01*
X1212Y1215D02*
X1231Y1215D01*
X1254Y1215D02*
X1273Y1215D01*
X1312Y1215D02*
X1331Y1215D01*
X1354Y1215D02*
X1373Y1215D01*
X1412Y1215D02*
X1431Y1215D01*
X1454Y1215D02*
X1473Y1215D01*
X1512Y1215D02*
X1531Y1215D01*
X1554Y1215D02*
X1573Y1215D01*
X1612Y1215D02*
X1631Y1215D01*
X1654Y1215D02*
X1673Y1215D01*
X912Y1214D02*
X931Y1214D01*
X954Y1214D02*
X973Y1214D01*
X1012Y1214D02*
X1031Y1214D01*
X1054Y1214D02*
X1073Y1214D01*
X1112Y1214D02*
X1131Y1214D01*
X1154Y1214D02*
X1173Y1214D01*
X1212Y1214D02*
X1231Y1214D01*
X1254Y1214D02*
X1273Y1214D01*
X1312Y1214D02*
X1331Y1214D01*
X1354Y1214D02*
X1373Y1214D01*
X1412Y1214D02*
X1431Y1214D01*
X1454Y1214D02*
X1473Y1214D01*
X1512Y1214D02*
X1531Y1214D01*
X1554Y1214D02*
X1573Y1214D01*
X1612Y1214D02*
X1631Y1214D01*
X1654Y1214D02*
X1673Y1214D01*
X912Y1213D02*
X931Y1213D01*
X954Y1213D02*
X973Y1213D01*
X1012Y1213D02*
X1031Y1213D01*
X1054Y1213D02*
X1073Y1213D01*
X1112Y1213D02*
X1131Y1213D01*
X1154Y1213D02*
X1173Y1213D01*
X1212Y1213D02*
X1231Y1213D01*
X1254Y1213D02*
X1273Y1213D01*
X1312Y1213D02*
X1331Y1213D01*
X1354Y1213D02*
X1373Y1213D01*
X1412Y1213D02*
X1431Y1213D01*
X1454Y1213D02*
X1473Y1213D01*
X1512Y1213D02*
X1531Y1213D01*
X1554Y1213D02*
X1573Y1213D01*
X1612Y1213D02*
X1631Y1213D01*
X1654Y1213D02*
X1673Y1213D01*
X912Y1212D02*
X931Y1212D01*
X954Y1212D02*
X973Y1212D01*
X1012Y1212D02*
X1031Y1212D01*
X1054Y1212D02*
X1073Y1212D01*
X1112Y1212D02*
X1131Y1212D01*
X1154Y1212D02*
X1173Y1212D01*
X1212Y1212D02*
X1231Y1212D01*
X1254Y1212D02*
X1273Y1212D01*
X1312Y1212D02*
X1331Y1212D01*
X1354Y1212D02*
X1373Y1212D01*
X1412Y1212D02*
X1431Y1212D01*
X1454Y1212D02*
X1473Y1212D01*
X1512Y1212D02*
X1531Y1212D01*
X1554Y1212D02*
X1573Y1212D01*
X1612Y1212D02*
X1631Y1212D01*
X1654Y1212D02*
X1673Y1212D01*
X912Y1211D02*
X932Y1211D01*
X954Y1211D02*
X973Y1211D01*
X1012Y1211D02*
X1032Y1211D01*
X1054Y1211D02*
X1073Y1211D01*
X1112Y1211D02*
X1132Y1211D01*
X1154Y1211D02*
X1173Y1211D01*
X1212Y1211D02*
X1232Y1211D01*
X1254Y1211D02*
X1273Y1211D01*
X1312Y1211D02*
X1332Y1211D01*
X1354Y1211D02*
X1373Y1211D01*
X1412Y1211D02*
X1432Y1211D01*
X1454Y1211D02*
X1473Y1211D01*
X1512Y1211D02*
X1532Y1211D01*
X1554Y1211D02*
X1573Y1211D01*
X1612Y1211D02*
X1632Y1211D01*
X1654Y1211D02*
X1673Y1211D01*
X912Y1210D02*
X932Y1210D01*
X954Y1210D02*
X973Y1210D01*
X1012Y1210D02*
X1032Y1210D01*
X1054Y1210D02*
X1073Y1210D01*
X1112Y1210D02*
X1132Y1210D01*
X1154Y1210D02*
X1173Y1210D01*
X1212Y1210D02*
X1232Y1210D01*
X1254Y1210D02*
X1273Y1210D01*
X1312Y1210D02*
X1332Y1210D01*
X1354Y1210D02*
X1373Y1210D01*
X1412Y1210D02*
X1432Y1210D01*
X1454Y1210D02*
X1473Y1210D01*
X1512Y1210D02*
X1532Y1210D01*
X1554Y1210D02*
X1573Y1210D01*
X1612Y1210D02*
X1632Y1210D01*
X1654Y1210D02*
X1673Y1210D01*
X912Y1209D02*
X932Y1209D01*
X953Y1209D02*
X973Y1209D01*
X1012Y1209D02*
X1032Y1209D01*
X1053Y1209D02*
X1073Y1209D01*
X1112Y1209D02*
X1132Y1209D01*
X1153Y1209D02*
X1173Y1209D01*
X1212Y1209D02*
X1232Y1209D01*
X1253Y1209D02*
X1273Y1209D01*
X1312Y1209D02*
X1332Y1209D01*
X1353Y1209D02*
X1373Y1209D01*
X1412Y1209D02*
X1432Y1209D01*
X1453Y1209D02*
X1473Y1209D01*
X1512Y1209D02*
X1532Y1209D01*
X1553Y1209D02*
X1573Y1209D01*
X1612Y1209D02*
X1632Y1209D01*
X1653Y1209D02*
X1673Y1209D01*
X912Y1208D02*
X933Y1208D01*
X953Y1208D02*
X973Y1208D01*
X1012Y1208D02*
X1033Y1208D01*
X1053Y1208D02*
X1073Y1208D01*
X1112Y1208D02*
X1133Y1208D01*
X1153Y1208D02*
X1173Y1208D01*
X1212Y1208D02*
X1233Y1208D01*
X1253Y1208D02*
X1273Y1208D01*
X1312Y1208D02*
X1333Y1208D01*
X1353Y1208D02*
X1373Y1208D01*
X1412Y1208D02*
X1433Y1208D01*
X1453Y1208D02*
X1473Y1208D01*
X1512Y1208D02*
X1533Y1208D01*
X1553Y1208D02*
X1573Y1208D01*
X1612Y1208D02*
X1633Y1208D01*
X1653Y1208D02*
X1673Y1208D01*
X912Y1207D02*
X934Y1207D01*
X952Y1207D02*
X973Y1207D01*
X1012Y1207D02*
X1034Y1207D01*
X1052Y1207D02*
X1073Y1207D01*
X1112Y1207D02*
X1134Y1207D01*
X1152Y1207D02*
X1173Y1207D01*
X1212Y1207D02*
X1234Y1207D01*
X1252Y1207D02*
X1273Y1207D01*
X1312Y1207D02*
X1334Y1207D01*
X1352Y1207D02*
X1373Y1207D01*
X1412Y1207D02*
X1434Y1207D01*
X1452Y1207D02*
X1473Y1207D01*
X1512Y1207D02*
X1534Y1207D01*
X1552Y1207D02*
X1573Y1207D01*
X1612Y1207D02*
X1634Y1207D01*
X1652Y1207D02*
X1673Y1207D01*
X912Y1206D02*
X935Y1206D01*
X951Y1206D02*
X973Y1206D01*
X1012Y1206D02*
X1035Y1206D01*
X1051Y1206D02*
X1073Y1206D01*
X1112Y1206D02*
X1135Y1206D01*
X1151Y1206D02*
X1173Y1206D01*
X1212Y1206D02*
X1235Y1206D01*
X1251Y1206D02*
X1273Y1206D01*
X1312Y1206D02*
X1335Y1206D01*
X1351Y1206D02*
X1373Y1206D01*
X1412Y1206D02*
X1435Y1206D01*
X1451Y1206D02*
X1473Y1206D01*
X1512Y1206D02*
X1535Y1206D01*
X1551Y1206D02*
X1573Y1206D01*
X1612Y1206D02*
X1635Y1206D01*
X1651Y1206D02*
X1673Y1206D01*
X912Y1205D02*
X936Y1205D01*
X950Y1205D02*
X973Y1205D01*
X1012Y1205D02*
X1036Y1205D01*
X1050Y1205D02*
X1073Y1205D01*
X1112Y1205D02*
X1136Y1205D01*
X1150Y1205D02*
X1173Y1205D01*
X1212Y1205D02*
X1236Y1205D01*
X1250Y1205D02*
X1273Y1205D01*
X1312Y1205D02*
X1336Y1205D01*
X1350Y1205D02*
X1373Y1205D01*
X1412Y1205D02*
X1436Y1205D01*
X1450Y1205D02*
X1473Y1205D01*
X1512Y1205D02*
X1536Y1205D01*
X1550Y1205D02*
X1573Y1205D01*
X1612Y1205D02*
X1636Y1205D01*
X1650Y1205D02*
X1673Y1205D01*
X912Y1204D02*
X937Y1204D01*
X948Y1204D02*
X973Y1204D01*
X1012Y1204D02*
X1037Y1204D01*
X1048Y1204D02*
X1073Y1204D01*
X1112Y1204D02*
X1137Y1204D01*
X1148Y1204D02*
X1173Y1204D01*
X1212Y1204D02*
X1237Y1204D01*
X1248Y1204D02*
X1273Y1204D01*
X1312Y1204D02*
X1337Y1204D01*
X1348Y1204D02*
X1373Y1204D01*
X1412Y1204D02*
X1437Y1204D01*
X1448Y1204D02*
X1473Y1204D01*
X1512Y1204D02*
X1537Y1204D01*
X1548Y1204D02*
X1573Y1204D01*
X1612Y1204D02*
X1637Y1204D01*
X1648Y1204D02*
X1673Y1204D01*
X912Y1203D02*
X942Y1203D01*
X944Y1203D02*
X973Y1203D01*
X1012Y1203D02*
X1042Y1203D01*
X1044Y1203D02*
X1073Y1203D01*
X1112Y1203D02*
X1142Y1203D01*
X1144Y1203D02*
X1173Y1203D01*
X1212Y1203D02*
X1242Y1203D01*
X1244Y1203D02*
X1273Y1203D01*
X1312Y1203D02*
X1342Y1203D01*
X1344Y1203D02*
X1373Y1203D01*
X1412Y1203D02*
X1442Y1203D01*
X1444Y1203D02*
X1473Y1203D01*
X1512Y1203D02*
X1542Y1203D01*
X1544Y1203D02*
X1573Y1203D01*
X1612Y1203D02*
X1642Y1203D01*
X1644Y1203D02*
X1673Y1203D01*
X912Y1202D02*
X973Y1202D01*
X1012Y1202D02*
X1073Y1202D01*
X1112Y1202D02*
X1173Y1202D01*
X1212Y1202D02*
X1273Y1202D01*
X1312Y1202D02*
X1373Y1202D01*
X1412Y1202D02*
X1473Y1202D01*
X1512Y1202D02*
X1573Y1202D01*
X1612Y1202D02*
X1673Y1202D01*
X912Y1201D02*
X973Y1201D01*
X1012Y1201D02*
X1073Y1201D01*
X1112Y1201D02*
X1173Y1201D01*
X1212Y1201D02*
X1273Y1201D01*
X1312Y1201D02*
X1373Y1201D01*
X1412Y1201D02*
X1473Y1201D01*
X1512Y1201D02*
X1573Y1201D01*
X1612Y1201D02*
X1673Y1201D01*
X912Y1200D02*
X973Y1200D01*
X1012Y1200D02*
X1073Y1200D01*
X1112Y1200D02*
X1173Y1200D01*
X1212Y1200D02*
X1273Y1200D01*
X1312Y1200D02*
X1373Y1200D01*
X1412Y1200D02*
X1473Y1200D01*
X1512Y1200D02*
X1573Y1200D01*
X1612Y1200D02*
X1673Y1200D01*
X912Y1199D02*
X973Y1199D01*
X1012Y1199D02*
X1073Y1199D01*
X1112Y1199D02*
X1173Y1199D01*
X1212Y1199D02*
X1273Y1199D01*
X1312Y1199D02*
X1373Y1199D01*
X1412Y1199D02*
X1473Y1199D01*
X1512Y1199D02*
X1573Y1199D01*
X1612Y1199D02*
X1673Y1199D01*
X912Y1198D02*
X973Y1198D01*
X1012Y1198D02*
X1073Y1198D01*
X1112Y1198D02*
X1173Y1198D01*
X1212Y1198D02*
X1273Y1198D01*
X1312Y1198D02*
X1373Y1198D01*
X1412Y1198D02*
X1473Y1198D01*
X1512Y1198D02*
X1573Y1198D01*
X1612Y1198D02*
X1673Y1198D01*
X912Y1197D02*
X973Y1197D01*
X1012Y1197D02*
X1073Y1197D01*
X1112Y1197D02*
X1173Y1197D01*
X1212Y1197D02*
X1273Y1197D01*
X1312Y1197D02*
X1373Y1197D01*
X1412Y1197D02*
X1473Y1197D01*
X1512Y1197D02*
X1573Y1197D01*
X1612Y1197D02*
X1673Y1197D01*
X912Y1196D02*
X973Y1196D01*
X1012Y1196D02*
X1073Y1196D01*
X1112Y1196D02*
X1173Y1196D01*
X1212Y1196D02*
X1273Y1196D01*
X1312Y1196D02*
X1373Y1196D01*
X1412Y1196D02*
X1473Y1196D01*
X1512Y1196D02*
X1573Y1196D01*
X1612Y1196D02*
X1673Y1196D01*
X912Y1195D02*
X973Y1195D01*
X1012Y1195D02*
X1073Y1195D01*
X1112Y1195D02*
X1173Y1195D01*
X1212Y1195D02*
X1273Y1195D01*
X1312Y1195D02*
X1373Y1195D01*
X1412Y1195D02*
X1473Y1195D01*
X1512Y1195D02*
X1573Y1195D01*
X1612Y1195D02*
X1673Y1195D01*
X912Y1194D02*
X973Y1194D01*
X1012Y1194D02*
X1073Y1194D01*
X1112Y1194D02*
X1173Y1194D01*
X1212Y1194D02*
X1273Y1194D01*
X1312Y1194D02*
X1373Y1194D01*
X1412Y1194D02*
X1473Y1194D01*
X1512Y1194D02*
X1573Y1194D01*
X1612Y1194D02*
X1673Y1194D01*
X912Y1193D02*
X973Y1193D01*
X1012Y1193D02*
X1073Y1193D01*
X1112Y1193D02*
X1173Y1193D01*
X1212Y1193D02*
X1273Y1193D01*
X1312Y1193D02*
X1373Y1193D01*
X1412Y1193D02*
X1473Y1193D01*
X1512Y1193D02*
X1573Y1193D01*
X1612Y1193D02*
X1673Y1193D01*
X912Y1192D02*
X973Y1192D01*
X1012Y1192D02*
X1073Y1192D01*
X1112Y1192D02*
X1173Y1192D01*
X1212Y1192D02*
X1273Y1192D01*
X1312Y1192D02*
X1373Y1192D01*
X1412Y1192D02*
X1473Y1192D01*
X1512Y1192D02*
X1573Y1192D01*
X1612Y1192D02*
X1673Y1192D01*
X912Y1191D02*
X973Y1191D01*
X1012Y1191D02*
X1073Y1191D01*
X1112Y1191D02*
X1173Y1191D01*
X1212Y1191D02*
X1273Y1191D01*
X1312Y1191D02*
X1373Y1191D01*
X1412Y1191D02*
X1473Y1191D01*
X1512Y1191D02*
X1573Y1191D01*
X1612Y1191D02*
X1673Y1191D01*
X912Y1190D02*
X973Y1190D01*
X1012Y1190D02*
X1073Y1190D01*
X1112Y1190D02*
X1173Y1190D01*
X1212Y1190D02*
X1273Y1190D01*
X1312Y1190D02*
X1373Y1190D01*
X1412Y1190D02*
X1473Y1190D01*
X1512Y1190D02*
X1573Y1190D01*
X1612Y1190D02*
X1673Y1190D01*
X912Y1189D02*
X973Y1189D01*
X1012Y1189D02*
X1073Y1189D01*
X1112Y1189D02*
X1173Y1189D01*
X1212Y1189D02*
X1273Y1189D01*
X1312Y1189D02*
X1373Y1189D01*
X1412Y1189D02*
X1473Y1189D01*
X1512Y1189D02*
X1573Y1189D01*
X1612Y1189D02*
X1673Y1189D01*
X912Y1188D02*
X973Y1188D01*
X1012Y1188D02*
X1073Y1188D01*
X1112Y1188D02*
X1173Y1188D01*
X1212Y1188D02*
X1273Y1188D01*
X1312Y1188D02*
X1373Y1188D01*
X1412Y1188D02*
X1473Y1188D01*
X1512Y1188D02*
X1573Y1188D01*
X1612Y1188D02*
X1673Y1188D01*
X912Y1187D02*
X973Y1187D01*
X1012Y1187D02*
X1073Y1187D01*
X1112Y1187D02*
X1173Y1187D01*
X1212Y1187D02*
X1273Y1187D01*
X1312Y1187D02*
X1373Y1187D01*
X1412Y1187D02*
X1473Y1187D01*
X1512Y1187D02*
X1573Y1187D01*
X1612Y1187D02*
X1673Y1187D01*
X912Y1186D02*
X973Y1186D01*
X1012Y1186D02*
X1073Y1186D01*
X1112Y1186D02*
X1173Y1186D01*
X1212Y1186D02*
X1273Y1186D01*
X1312Y1186D02*
X1373Y1186D01*
X1412Y1186D02*
X1473Y1186D01*
X1512Y1186D02*
X1573Y1186D01*
X1612Y1186D02*
X1673Y1186D01*
X912Y1185D02*
X973Y1185D01*
X1012Y1185D02*
X1073Y1185D01*
X1112Y1185D02*
X1173Y1185D01*
X1212Y1185D02*
X1273Y1185D01*
X1312Y1185D02*
X1373Y1185D01*
X1412Y1185D02*
X1473Y1185D01*
X1512Y1185D02*
X1573Y1185D01*
X1612Y1185D02*
X1673Y1185D01*
X913Y1184D02*
X973Y1184D01*
X1013Y1184D02*
X1073Y1184D01*
X1113Y1184D02*
X1173Y1184D01*
X1213Y1184D02*
X1273Y1184D01*
X1313Y1184D02*
X1373Y1184D01*
X1413Y1184D02*
X1473Y1184D01*
X1513Y1184D02*
X1573Y1184D01*
X1613Y1184D02*
X1673Y1184D01*
X913Y1183D02*
X973Y1183D01*
X1013Y1183D02*
X1073Y1183D01*
X1113Y1183D02*
X1173Y1183D01*
X1213Y1183D02*
X1273Y1183D01*
X1313Y1183D02*
X1373Y1183D01*
X1413Y1183D02*
X1473Y1183D01*
X1513Y1183D02*
X1573Y1183D01*
X1613Y1183D02*
X1673Y1183D01*
X913Y1182D02*
X973Y1182D01*
X1013Y1182D02*
X1073Y1182D01*
X1113Y1182D02*
X1173Y1182D01*
X1213Y1182D02*
X1273Y1182D01*
X1313Y1182D02*
X1373Y1182D01*
X1413Y1182D02*
X1473Y1182D01*
X1513Y1182D02*
X1573Y1182D01*
X1613Y1182D02*
X1673Y1182D01*
X913Y1181D02*
X972Y1181D01*
X1013Y1181D02*
X1072Y1181D01*
X1113Y1181D02*
X1172Y1181D01*
X1213Y1181D02*
X1272Y1181D01*
X1313Y1181D02*
X1372Y1181D01*
X1413Y1181D02*
X1472Y1181D01*
X1513Y1181D02*
X1572Y1181D01*
X1613Y1181D02*
X1672Y1181D01*
X913Y1180D02*
X972Y1180D01*
X1013Y1180D02*
X1072Y1180D01*
X1113Y1180D02*
X1172Y1180D01*
X1213Y1180D02*
X1272Y1180D01*
X1313Y1180D02*
X1372Y1180D01*
X1413Y1180D02*
X1472Y1180D01*
X1513Y1180D02*
X1572Y1180D01*
X1613Y1180D02*
X1672Y1180D01*
X914Y1179D02*
X972Y1179D01*
X1014Y1179D02*
X1072Y1179D01*
X1114Y1179D02*
X1172Y1179D01*
X1214Y1179D02*
X1272Y1179D01*
X1314Y1179D02*
X1372Y1179D01*
X1414Y1179D02*
X1472Y1179D01*
X1514Y1179D02*
X1572Y1179D01*
X1614Y1179D02*
X1672Y1179D01*
X914Y1178D02*
X971Y1178D01*
X1014Y1178D02*
X1071Y1178D01*
X1114Y1178D02*
X1171Y1178D01*
X1214Y1178D02*
X1271Y1178D01*
X1314Y1178D02*
X1371Y1178D01*
X1414Y1178D02*
X1471Y1178D01*
X1514Y1178D02*
X1571Y1178D01*
X1614Y1178D02*
X1671Y1178D01*
X914Y1177D02*
X971Y1177D01*
X1014Y1177D02*
X1071Y1177D01*
X1114Y1177D02*
X1171Y1177D01*
X1214Y1177D02*
X1271Y1177D01*
X1314Y1177D02*
X1371Y1177D01*
X1414Y1177D02*
X1471Y1177D01*
X1514Y1177D02*
X1571Y1177D01*
X1614Y1177D02*
X1671Y1177D01*
X915Y1176D02*
X971Y1176D01*
X1015Y1176D02*
X1071Y1176D01*
X1115Y1176D02*
X1171Y1176D01*
X1215Y1176D02*
X1271Y1176D01*
X1315Y1176D02*
X1371Y1176D01*
X1415Y1176D02*
X1471Y1176D01*
X1515Y1176D02*
X1571Y1176D01*
X1615Y1176D02*
X1671Y1176D01*
X915Y1175D02*
X970Y1175D01*
X1015Y1175D02*
X1070Y1175D01*
X1115Y1175D02*
X1170Y1175D01*
X1215Y1175D02*
X1270Y1175D01*
X1315Y1175D02*
X1370Y1175D01*
X1415Y1175D02*
X1470Y1175D01*
X1515Y1175D02*
X1570Y1175D01*
X1615Y1175D02*
X1670Y1175D01*
X916Y1174D02*
X970Y1174D01*
X1016Y1174D02*
X1070Y1174D01*
X1116Y1174D02*
X1170Y1174D01*
X1216Y1174D02*
X1270Y1174D01*
X1316Y1174D02*
X1370Y1174D01*
X1416Y1174D02*
X1470Y1174D01*
X1516Y1174D02*
X1570Y1174D01*
X1616Y1174D02*
X1670Y1174D01*
X916Y1173D02*
X969Y1173D01*
X1016Y1173D02*
X1069Y1173D01*
X1116Y1173D02*
X1169Y1173D01*
X1216Y1173D02*
X1269Y1173D01*
X1316Y1173D02*
X1369Y1173D01*
X1416Y1173D02*
X1469Y1173D01*
X1516Y1173D02*
X1569Y1173D01*
X1616Y1173D02*
X1669Y1173D01*
X917Y1172D02*
X969Y1172D01*
X1017Y1172D02*
X1069Y1172D01*
X1117Y1172D02*
X1169Y1172D01*
X1217Y1172D02*
X1269Y1172D01*
X1317Y1172D02*
X1369Y1172D01*
X1417Y1172D02*
X1469Y1172D01*
X1517Y1172D02*
X1569Y1172D01*
X1617Y1172D02*
X1669Y1172D01*
X917Y1171D02*
X968Y1171D01*
X1017Y1171D02*
X1068Y1171D01*
X1117Y1171D02*
X1168Y1171D01*
X1217Y1171D02*
X1268Y1171D01*
X1317Y1171D02*
X1368Y1171D01*
X1417Y1171D02*
X1468Y1171D01*
X1517Y1171D02*
X1568Y1171D01*
X1617Y1171D02*
X1668Y1171D01*
X918Y1170D02*
X967Y1170D01*
X1018Y1170D02*
X1067Y1170D01*
X1118Y1170D02*
X1167Y1170D01*
X1218Y1170D02*
X1267Y1170D01*
X1318Y1170D02*
X1367Y1170D01*
X1418Y1170D02*
X1467Y1170D01*
X1518Y1170D02*
X1567Y1170D01*
X1618Y1170D02*
X1667Y1170D01*
X919Y1169D02*
X967Y1169D01*
X1019Y1169D02*
X1067Y1169D01*
X1119Y1169D02*
X1167Y1169D01*
X1219Y1169D02*
X1267Y1169D01*
X1319Y1169D02*
X1367Y1169D01*
X1419Y1169D02*
X1467Y1169D01*
X1519Y1169D02*
X1567Y1169D01*
X1619Y1169D02*
X1667Y1169D01*
X920Y1168D02*
X966Y1168D01*
X1020Y1168D02*
X1066Y1168D01*
X1120Y1168D02*
X1166Y1168D01*
X1220Y1168D02*
X1266Y1168D01*
X1320Y1168D02*
X1366Y1168D01*
X1420Y1168D02*
X1466Y1168D01*
X1520Y1168D02*
X1566Y1168D01*
X1620Y1168D02*
X1666Y1168D01*
X920Y1167D02*
X965Y1167D01*
X1020Y1167D02*
X1065Y1167D01*
X1120Y1167D02*
X1165Y1167D01*
X1220Y1167D02*
X1265Y1167D01*
X1320Y1167D02*
X1365Y1167D01*
X1420Y1167D02*
X1465Y1167D01*
X1520Y1167D02*
X1565Y1167D01*
X1620Y1167D02*
X1665Y1167D01*
X921Y1166D02*
X964Y1166D01*
X1021Y1166D02*
X1064Y1166D01*
X1121Y1166D02*
X1164Y1166D01*
X1221Y1166D02*
X1264Y1166D01*
X1321Y1166D02*
X1364Y1166D01*
X1421Y1166D02*
X1464Y1166D01*
X1521Y1166D02*
X1564Y1166D01*
X1621Y1166D02*
X1664Y1166D01*
X922Y1165D02*
X963Y1165D01*
X1022Y1165D02*
X1063Y1165D01*
X1122Y1165D02*
X1163Y1165D01*
X1222Y1165D02*
X1263Y1165D01*
X1322Y1165D02*
X1363Y1165D01*
X1422Y1165D02*
X1463Y1165D01*
X1522Y1165D02*
X1563Y1165D01*
X1622Y1165D02*
X1663Y1165D01*
X924Y1164D02*
X962Y1164D01*
X1024Y1164D02*
X1062Y1164D01*
X1124Y1164D02*
X1162Y1164D01*
X1224Y1164D02*
X1262Y1164D01*
X1324Y1164D02*
X1362Y1164D01*
X1424Y1164D02*
X1462Y1164D01*
X1524Y1164D02*
X1562Y1164D01*
X1624Y1164D02*
X1662Y1164D01*
X925Y1163D02*
X960Y1163D01*
X1025Y1163D02*
X1060Y1163D01*
X1125Y1163D02*
X1160Y1163D01*
X1225Y1163D02*
X1260Y1163D01*
X1325Y1163D02*
X1360Y1163D01*
X1425Y1163D02*
X1460Y1163D01*
X1525Y1163D02*
X1560Y1163D01*
X1625Y1163D02*
X1660Y1163D01*
X926Y1162D02*
X959Y1162D01*
X1026Y1162D02*
X1059Y1162D01*
X1126Y1162D02*
X1159Y1162D01*
X1226Y1162D02*
X1259Y1162D01*
X1326Y1162D02*
X1359Y1162D01*
X1426Y1162D02*
X1459Y1162D01*
X1526Y1162D02*
X1559Y1162D01*
X1626Y1162D02*
X1659Y1162D01*
X928Y1161D02*
X957Y1161D01*
X1028Y1161D02*
X1057Y1161D01*
X1128Y1161D02*
X1157Y1161D01*
X1228Y1161D02*
X1257Y1161D01*
X1328Y1161D02*
X1357Y1161D01*
X1428Y1161D02*
X1457Y1161D01*
X1528Y1161D02*
X1557Y1161D01*
X1628Y1161D02*
X1657Y1161D01*
X930Y1160D02*
X955Y1160D01*
X1030Y1160D02*
X1055Y1160D01*
X1130Y1160D02*
X1155Y1160D01*
X1230Y1160D02*
X1255Y1160D01*
X1330Y1160D02*
X1355Y1160D01*
X1430Y1160D02*
X1455Y1160D01*
X1530Y1160D02*
X1555Y1160D01*
X1630Y1160D02*
X1655Y1160D01*
X933Y1159D02*
X953Y1159D01*
X1033Y1159D02*
X1053Y1159D01*
X1133Y1159D02*
X1153Y1159D01*
X1233Y1159D02*
X1253Y1159D01*
X1333Y1159D02*
X1353Y1159D01*
X1433Y1159D02*
X1453Y1159D01*
X1533Y1159D02*
X1553Y1159D01*
X1633Y1159D02*
X1653Y1159D01*
X936Y1158D02*
X950Y1158D01*
X1036Y1158D02*
X1050Y1158D01*
X1136Y1158D02*
X1150Y1158D01*
X1236Y1158D02*
X1250Y1158D01*
X1336Y1158D02*
X1350Y1158D01*
X1436Y1158D02*
X1450Y1158D01*
X1536Y1158D02*
X1550Y1158D01*
X1636Y1158D02*
X1650Y1158D01*
X943Y1157D02*
X943Y1157D01*
X1043Y1157D02*
X1043Y1157D01*
X1143Y1157D02*
X1143Y1157D01*
X1243Y1157D02*
X1243Y1157D01*
X1343Y1157D02*
X1343Y1157D01*
X1443Y1157D02*
X1443Y1157D01*
X1543Y1157D02*
X1543Y1157D01*
X1643Y1157D02*
X1643Y1157D01*
X1935Y1153D02*
X1951Y1153D01*
X1931Y1152D02*
X1955Y1152D01*
X1928Y1151D02*
X1957Y1151D01*
X1926Y1150D02*
X1959Y1150D01*
X1924Y1149D02*
X1961Y1149D01*
X1922Y1148D02*
X1963Y1148D01*
X1921Y1147D02*
X1965Y1147D01*
X1919Y1146D02*
X1966Y1146D01*
X1918Y1145D02*
X1967Y1145D01*
X1917Y1144D02*
X1969Y1144D01*
X1916Y1143D02*
X1970Y1143D01*
X1915Y1142D02*
X1971Y1142D01*
X1914Y1141D02*
X1972Y1141D01*
X1913Y1140D02*
X1973Y1140D01*
X1912Y1139D02*
X1973Y1139D01*
X1911Y1138D02*
X1974Y1138D01*
X1911Y1137D02*
X1975Y1137D01*
X1910Y1136D02*
X1976Y1136D01*
X1909Y1135D02*
X1976Y1135D01*
X1909Y1134D02*
X1977Y1134D01*
X1908Y1133D02*
X1977Y1133D01*
X1908Y1132D02*
X1978Y1132D01*
X1907Y1131D02*
X1978Y1131D01*
X1907Y1130D02*
X1979Y1130D01*
X1906Y1129D02*
X1979Y1129D01*
X1906Y1128D02*
X1980Y1128D01*
X1905Y1127D02*
X1980Y1127D01*
X1905Y1126D02*
X1980Y1126D01*
X1905Y1125D02*
X1981Y1125D01*
X1905Y1124D02*
X1981Y1124D01*
X1904Y1123D02*
X1981Y1123D01*
X1904Y1122D02*
X1981Y1122D01*
X1904Y1121D02*
X1982Y1121D01*
X1904Y1120D02*
X1982Y1120D01*
X1904Y1119D02*
X1982Y1119D01*
X1903Y1118D02*
X1982Y1118D01*
X1903Y1117D02*
X1982Y1117D01*
X1903Y1116D02*
X1982Y1116D01*
X1903Y1115D02*
X1982Y1115D01*
X1903Y1114D02*
X1982Y1114D01*
X1903Y1113D02*
X1982Y1113D01*
X1903Y1112D02*
X1982Y1112D01*
X1903Y1111D02*
X1982Y1111D01*
X1903Y1110D02*
X1982Y1110D01*
X1904Y1109D02*
X1982Y1109D01*
X1904Y1108D02*
X1982Y1108D01*
X1904Y1107D02*
X1982Y1107D01*
X1904Y1106D02*
X1981Y1106D01*
X1904Y1105D02*
X1981Y1105D01*
X1905Y1104D02*
X1981Y1104D01*
X1905Y1103D02*
X1981Y1103D01*
X1905Y1102D02*
X1980Y1102D01*
X1905Y1101D02*
X1980Y1101D01*
X1906Y1100D02*
X1980Y1100D01*
X1906Y1099D02*
X1979Y1099D01*
X1907Y1098D02*
X1979Y1098D01*
X1907Y1097D02*
X1978Y1097D01*
X1908Y1096D02*
X1978Y1096D01*
X1908Y1095D02*
X1977Y1095D01*
X1909Y1094D02*
X1977Y1094D01*
X1909Y1093D02*
X1976Y1093D01*
X1910Y1092D02*
X1976Y1092D01*
X1911Y1091D02*
X1975Y1091D01*
X1911Y1090D02*
X1974Y1090D01*
X1912Y1089D02*
X1973Y1089D01*
X1913Y1088D02*
X1973Y1088D01*
X1914Y1087D02*
X1972Y1087D01*
X1915Y1086D02*
X1971Y1086D01*
X1916Y1085D02*
X1970Y1085D01*
X1917Y1084D02*
X1969Y1084D01*
X1918Y1083D02*
X1967Y1083D01*
X1919Y1082D02*
X1966Y1082D01*
X1921Y1081D02*
X1965Y1081D01*
X1922Y1080D02*
X1963Y1080D01*
X1924Y1079D02*
X1961Y1079D01*
X1926Y1078D02*
X1960Y1078D01*
X1928Y1077D02*
X1957Y1077D01*
X1931Y1076D02*
X1955Y1076D01*
X1935Y1075D02*
X1951Y1075D01*
X936Y970D02*
X950Y970D01*
X1036Y970D02*
X1050Y970D01*
X1136Y970D02*
X1150Y970D01*
X1236Y970D02*
X1250Y970D01*
X1336Y970D02*
X1350Y970D01*
X1436Y970D02*
X1450Y970D01*
X1536Y970D02*
X1550Y970D01*
X1636Y970D02*
X1650Y970D01*
X933Y969D02*
X953Y969D01*
X1033Y969D02*
X1053Y969D01*
X1133Y969D02*
X1153Y969D01*
X1233Y969D02*
X1253Y969D01*
X1333Y969D02*
X1353Y969D01*
X1433Y969D02*
X1453Y969D01*
X1533Y969D02*
X1553Y969D01*
X1633Y969D02*
X1653Y969D01*
X930Y968D02*
X955Y968D01*
X1030Y968D02*
X1055Y968D01*
X1130Y968D02*
X1155Y968D01*
X1230Y968D02*
X1255Y968D01*
X1330Y968D02*
X1355Y968D01*
X1430Y968D02*
X1455Y968D01*
X1530Y968D02*
X1555Y968D01*
X1630Y968D02*
X1655Y968D01*
X928Y967D02*
X957Y967D01*
X1028Y967D02*
X1057Y967D01*
X1128Y967D02*
X1157Y967D01*
X1228Y967D02*
X1257Y967D01*
X1328Y967D02*
X1357Y967D01*
X1428Y967D02*
X1457Y967D01*
X1528Y967D02*
X1557Y967D01*
X1628Y967D02*
X1657Y967D01*
X926Y966D02*
X959Y966D01*
X1026Y966D02*
X1059Y966D01*
X1126Y966D02*
X1159Y966D01*
X1226Y966D02*
X1259Y966D01*
X1326Y966D02*
X1359Y966D01*
X1426Y966D02*
X1459Y966D01*
X1526Y966D02*
X1559Y966D01*
X1626Y966D02*
X1659Y966D01*
X925Y965D02*
X960Y965D01*
X1025Y965D02*
X1060Y965D01*
X1125Y965D02*
X1160Y965D01*
X1225Y965D02*
X1260Y965D01*
X1325Y965D02*
X1360Y965D01*
X1425Y965D02*
X1460Y965D01*
X1525Y965D02*
X1560Y965D01*
X1625Y965D02*
X1660Y965D01*
X924Y964D02*
X962Y964D01*
X1024Y964D02*
X1062Y964D01*
X1124Y964D02*
X1162Y964D01*
X1224Y964D02*
X1262Y964D01*
X1324Y964D02*
X1362Y964D01*
X1424Y964D02*
X1462Y964D01*
X1524Y964D02*
X1562Y964D01*
X1624Y964D02*
X1662Y964D01*
X922Y963D02*
X963Y963D01*
X1022Y963D02*
X1063Y963D01*
X1122Y963D02*
X1163Y963D01*
X1222Y963D02*
X1263Y963D01*
X1322Y963D02*
X1363Y963D01*
X1422Y963D02*
X1463Y963D01*
X1522Y963D02*
X1563Y963D01*
X1622Y963D02*
X1663Y963D01*
X921Y962D02*
X964Y962D01*
X1021Y962D02*
X1064Y962D01*
X1121Y962D02*
X1164Y962D01*
X1221Y962D02*
X1264Y962D01*
X1321Y962D02*
X1364Y962D01*
X1421Y962D02*
X1464Y962D01*
X1521Y962D02*
X1564Y962D01*
X1621Y962D02*
X1664Y962D01*
X920Y961D02*
X965Y961D01*
X1020Y961D02*
X1065Y961D01*
X1120Y961D02*
X1165Y961D01*
X1220Y961D02*
X1265Y961D01*
X1320Y961D02*
X1365Y961D01*
X1420Y961D02*
X1465Y961D01*
X1520Y961D02*
X1565Y961D01*
X1620Y961D02*
X1665Y961D01*
X920Y960D02*
X966Y960D01*
X1020Y960D02*
X1066Y960D01*
X1120Y960D02*
X1166Y960D01*
X1220Y960D02*
X1266Y960D01*
X1320Y960D02*
X1366Y960D01*
X1420Y960D02*
X1466Y960D01*
X1520Y960D02*
X1566Y960D01*
X1620Y960D02*
X1666Y960D01*
X919Y959D02*
X967Y959D01*
X1019Y959D02*
X1067Y959D01*
X1119Y959D02*
X1167Y959D01*
X1219Y959D02*
X1267Y959D01*
X1319Y959D02*
X1367Y959D01*
X1419Y959D02*
X1467Y959D01*
X1519Y959D02*
X1567Y959D01*
X1619Y959D02*
X1667Y959D01*
X918Y958D02*
X967Y958D01*
X1018Y958D02*
X1067Y958D01*
X1118Y958D02*
X1167Y958D01*
X1218Y958D02*
X1267Y958D01*
X1318Y958D02*
X1367Y958D01*
X1418Y958D02*
X1467Y958D01*
X1518Y958D02*
X1567Y958D01*
X1618Y958D02*
X1667Y958D01*
X917Y957D02*
X968Y957D01*
X1017Y957D02*
X1068Y957D01*
X1117Y957D02*
X1168Y957D01*
X1217Y957D02*
X1268Y957D01*
X1317Y957D02*
X1368Y957D01*
X1417Y957D02*
X1468Y957D01*
X1517Y957D02*
X1568Y957D01*
X1617Y957D02*
X1668Y957D01*
X917Y956D02*
X969Y956D01*
X1017Y956D02*
X1069Y956D01*
X1117Y956D02*
X1169Y956D01*
X1217Y956D02*
X1269Y956D01*
X1317Y956D02*
X1369Y956D01*
X1417Y956D02*
X1469Y956D01*
X1517Y956D02*
X1569Y956D01*
X1617Y956D02*
X1669Y956D01*
X916Y955D02*
X969Y955D01*
X1016Y955D02*
X1069Y955D01*
X1116Y955D02*
X1169Y955D01*
X1216Y955D02*
X1269Y955D01*
X1316Y955D02*
X1369Y955D01*
X1416Y955D02*
X1469Y955D01*
X1516Y955D02*
X1569Y955D01*
X1616Y955D02*
X1669Y955D01*
X916Y954D02*
X970Y954D01*
X1016Y954D02*
X1070Y954D01*
X1116Y954D02*
X1170Y954D01*
X1216Y954D02*
X1270Y954D01*
X1316Y954D02*
X1370Y954D01*
X1416Y954D02*
X1470Y954D01*
X1516Y954D02*
X1570Y954D01*
X1616Y954D02*
X1670Y954D01*
X915Y953D02*
X970Y953D01*
X1015Y953D02*
X1070Y953D01*
X1115Y953D02*
X1170Y953D01*
X1215Y953D02*
X1270Y953D01*
X1315Y953D02*
X1370Y953D01*
X1415Y953D02*
X1470Y953D01*
X1515Y953D02*
X1570Y953D01*
X1615Y953D02*
X1670Y953D01*
X915Y952D02*
X971Y952D01*
X1015Y952D02*
X1071Y952D01*
X1115Y952D02*
X1171Y952D01*
X1215Y952D02*
X1271Y952D01*
X1315Y952D02*
X1371Y952D01*
X1415Y952D02*
X1471Y952D01*
X1515Y952D02*
X1571Y952D01*
X1615Y952D02*
X1671Y952D01*
X914Y951D02*
X971Y951D01*
X1014Y951D02*
X1071Y951D01*
X1114Y951D02*
X1171Y951D01*
X1214Y951D02*
X1271Y951D01*
X1314Y951D02*
X1371Y951D01*
X1414Y951D02*
X1471Y951D01*
X1514Y951D02*
X1571Y951D01*
X1614Y951D02*
X1671Y951D01*
X914Y950D02*
X971Y950D01*
X1014Y950D02*
X1071Y950D01*
X1114Y950D02*
X1171Y950D01*
X1214Y950D02*
X1271Y950D01*
X1314Y950D02*
X1371Y950D01*
X1414Y950D02*
X1471Y950D01*
X1514Y950D02*
X1571Y950D01*
X1614Y950D02*
X1671Y950D01*
X914Y949D02*
X972Y949D01*
X1014Y949D02*
X1072Y949D01*
X1114Y949D02*
X1172Y949D01*
X1214Y949D02*
X1272Y949D01*
X1314Y949D02*
X1372Y949D01*
X1414Y949D02*
X1472Y949D01*
X1514Y949D02*
X1572Y949D01*
X1614Y949D02*
X1672Y949D01*
X913Y948D02*
X972Y948D01*
X1013Y948D02*
X1072Y948D01*
X1113Y948D02*
X1172Y948D01*
X1213Y948D02*
X1272Y948D01*
X1313Y948D02*
X1372Y948D01*
X1413Y948D02*
X1472Y948D01*
X1513Y948D02*
X1572Y948D01*
X1613Y948D02*
X1672Y948D01*
X913Y947D02*
X972Y947D01*
X1013Y947D02*
X1072Y947D01*
X1113Y947D02*
X1172Y947D01*
X1213Y947D02*
X1272Y947D01*
X1313Y947D02*
X1372Y947D01*
X1413Y947D02*
X1472Y947D01*
X1513Y947D02*
X1572Y947D01*
X1613Y947D02*
X1672Y947D01*
X913Y946D02*
X973Y946D01*
X1013Y946D02*
X1073Y946D01*
X1113Y946D02*
X1173Y946D01*
X1213Y946D02*
X1273Y946D01*
X1313Y946D02*
X1373Y946D01*
X1413Y946D02*
X1473Y946D01*
X1513Y946D02*
X1573Y946D01*
X1613Y946D02*
X1673Y946D01*
X913Y945D02*
X973Y945D01*
X1013Y945D02*
X1073Y945D01*
X1113Y945D02*
X1173Y945D01*
X1213Y945D02*
X1273Y945D01*
X1313Y945D02*
X1373Y945D01*
X1413Y945D02*
X1473Y945D01*
X1513Y945D02*
X1573Y945D01*
X1613Y945D02*
X1673Y945D01*
X913Y944D02*
X973Y944D01*
X1013Y944D02*
X1073Y944D01*
X1113Y944D02*
X1173Y944D01*
X1213Y944D02*
X1273Y944D01*
X1313Y944D02*
X1373Y944D01*
X1413Y944D02*
X1473Y944D01*
X1513Y944D02*
X1573Y944D01*
X1613Y944D02*
X1673Y944D01*
X912Y943D02*
X973Y943D01*
X1012Y943D02*
X1073Y943D01*
X1112Y943D02*
X1173Y943D01*
X1212Y943D02*
X1273Y943D01*
X1312Y943D02*
X1373Y943D01*
X1412Y943D02*
X1473Y943D01*
X1512Y943D02*
X1573Y943D01*
X1612Y943D02*
X1673Y943D01*
X912Y942D02*
X973Y942D01*
X1012Y942D02*
X1073Y942D01*
X1112Y942D02*
X1173Y942D01*
X1212Y942D02*
X1273Y942D01*
X1312Y942D02*
X1373Y942D01*
X1412Y942D02*
X1473Y942D01*
X1512Y942D02*
X1573Y942D01*
X1612Y942D02*
X1673Y942D01*
X912Y941D02*
X973Y941D01*
X1012Y941D02*
X1073Y941D01*
X1112Y941D02*
X1173Y941D01*
X1212Y941D02*
X1273Y941D01*
X1312Y941D02*
X1373Y941D01*
X1412Y941D02*
X1473Y941D01*
X1512Y941D02*
X1573Y941D01*
X1612Y941D02*
X1673Y941D01*
X912Y940D02*
X973Y940D01*
X1012Y940D02*
X1073Y940D01*
X1112Y940D02*
X1173Y940D01*
X1212Y940D02*
X1273Y940D01*
X1312Y940D02*
X1373Y940D01*
X1412Y940D02*
X1473Y940D01*
X1512Y940D02*
X1573Y940D01*
X1612Y940D02*
X1673Y940D01*
X912Y939D02*
X973Y939D01*
X1012Y939D02*
X1073Y939D01*
X1112Y939D02*
X1173Y939D01*
X1212Y939D02*
X1273Y939D01*
X1312Y939D02*
X1373Y939D01*
X1412Y939D02*
X1473Y939D01*
X1512Y939D02*
X1573Y939D01*
X1612Y939D02*
X1673Y939D01*
X912Y938D02*
X973Y938D01*
X1012Y938D02*
X1073Y938D01*
X1112Y938D02*
X1173Y938D01*
X1212Y938D02*
X1273Y938D01*
X1312Y938D02*
X1373Y938D01*
X1412Y938D02*
X1473Y938D01*
X1512Y938D02*
X1573Y938D01*
X1612Y938D02*
X1673Y938D01*
X912Y937D02*
X973Y937D01*
X1012Y937D02*
X1073Y937D01*
X1112Y937D02*
X1173Y937D01*
X1212Y937D02*
X1273Y937D01*
X1312Y937D02*
X1373Y937D01*
X1412Y937D02*
X1473Y937D01*
X1512Y937D02*
X1573Y937D01*
X1612Y937D02*
X1673Y937D01*
X912Y936D02*
X973Y936D01*
X1012Y936D02*
X1073Y936D01*
X1112Y936D02*
X1173Y936D01*
X1212Y936D02*
X1273Y936D01*
X1312Y936D02*
X1373Y936D01*
X1412Y936D02*
X1473Y936D01*
X1512Y936D02*
X1573Y936D01*
X1612Y936D02*
X1673Y936D01*
X912Y935D02*
X973Y935D01*
X1012Y935D02*
X1073Y935D01*
X1112Y935D02*
X1173Y935D01*
X1212Y935D02*
X1273Y935D01*
X1312Y935D02*
X1373Y935D01*
X1412Y935D02*
X1473Y935D01*
X1512Y935D02*
X1573Y935D01*
X1612Y935D02*
X1673Y935D01*
X912Y934D02*
X973Y934D01*
X1012Y934D02*
X1073Y934D01*
X1112Y934D02*
X1173Y934D01*
X1212Y934D02*
X1273Y934D01*
X1312Y934D02*
X1373Y934D01*
X1412Y934D02*
X1473Y934D01*
X1512Y934D02*
X1573Y934D01*
X1612Y934D02*
X1673Y934D01*
X912Y933D02*
X973Y933D01*
X1012Y933D02*
X1073Y933D01*
X1112Y933D02*
X1173Y933D01*
X1212Y933D02*
X1273Y933D01*
X1312Y933D02*
X1373Y933D01*
X1412Y933D02*
X1473Y933D01*
X1512Y933D02*
X1573Y933D01*
X1612Y933D02*
X1673Y933D01*
X912Y932D02*
X973Y932D01*
X1012Y932D02*
X1073Y932D01*
X1112Y932D02*
X1173Y932D01*
X1212Y932D02*
X1273Y932D01*
X1312Y932D02*
X1373Y932D01*
X1412Y932D02*
X1473Y932D01*
X1512Y932D02*
X1573Y932D01*
X1612Y932D02*
X1673Y932D01*
X912Y931D02*
X973Y931D01*
X1012Y931D02*
X1073Y931D01*
X1112Y931D02*
X1173Y931D01*
X1212Y931D02*
X1273Y931D01*
X1312Y931D02*
X1373Y931D01*
X1412Y931D02*
X1473Y931D01*
X1512Y931D02*
X1573Y931D01*
X1612Y931D02*
X1673Y931D01*
X912Y930D02*
X973Y930D01*
X1012Y930D02*
X1073Y930D01*
X1112Y930D02*
X1173Y930D01*
X1212Y930D02*
X1273Y930D01*
X1312Y930D02*
X1373Y930D01*
X1412Y930D02*
X1473Y930D01*
X1512Y930D02*
X1573Y930D01*
X1612Y930D02*
X1673Y930D01*
X912Y929D02*
X973Y929D01*
X1012Y929D02*
X1073Y929D01*
X1112Y929D02*
X1173Y929D01*
X1212Y929D02*
X1273Y929D01*
X1312Y929D02*
X1373Y929D01*
X1412Y929D02*
X1473Y929D01*
X1512Y929D02*
X1573Y929D01*
X1612Y929D02*
X1673Y929D01*
X912Y928D02*
X973Y928D01*
X1012Y928D02*
X1073Y928D01*
X1112Y928D02*
X1173Y928D01*
X1212Y928D02*
X1273Y928D01*
X1312Y928D02*
X1373Y928D01*
X1412Y928D02*
X1473Y928D01*
X1512Y928D02*
X1573Y928D01*
X1612Y928D02*
X1673Y928D01*
X912Y927D02*
X973Y927D01*
X1012Y927D02*
X1073Y927D01*
X1112Y927D02*
X1173Y927D01*
X1212Y927D02*
X1273Y927D01*
X1312Y927D02*
X1373Y927D01*
X1412Y927D02*
X1473Y927D01*
X1512Y927D02*
X1573Y927D01*
X1612Y927D02*
X1673Y927D01*
X912Y926D02*
X973Y926D01*
X1012Y926D02*
X1073Y926D01*
X1112Y926D02*
X1173Y926D01*
X1212Y926D02*
X1273Y926D01*
X1312Y926D02*
X1373Y926D01*
X1412Y926D02*
X1473Y926D01*
X1512Y926D02*
X1573Y926D01*
X1612Y926D02*
X1673Y926D01*
X912Y925D02*
X973Y925D01*
X1012Y925D02*
X1073Y925D01*
X1112Y925D02*
X1173Y925D01*
X1212Y925D02*
X1273Y925D01*
X1312Y925D02*
X1373Y925D01*
X1412Y925D02*
X1473Y925D01*
X1512Y925D02*
X1573Y925D01*
X1612Y925D02*
X1673Y925D01*
X912Y924D02*
X938Y924D01*
X948Y924D02*
X973Y924D01*
X1012Y924D02*
X1038Y924D01*
X1048Y924D02*
X1073Y924D01*
X1112Y924D02*
X1138Y924D01*
X1148Y924D02*
X1173Y924D01*
X1212Y924D02*
X1238Y924D01*
X1248Y924D02*
X1273Y924D01*
X1312Y924D02*
X1338Y924D01*
X1348Y924D02*
X1373Y924D01*
X1412Y924D02*
X1438Y924D01*
X1448Y924D02*
X1473Y924D01*
X1512Y924D02*
X1538Y924D01*
X1548Y924D02*
X1573Y924D01*
X1612Y924D02*
X1638Y924D01*
X1648Y924D02*
X1673Y924D01*
X912Y923D02*
X936Y923D01*
X950Y923D02*
X973Y923D01*
X1012Y923D02*
X1036Y923D01*
X1050Y923D02*
X1073Y923D01*
X1112Y923D02*
X1136Y923D01*
X1150Y923D02*
X1173Y923D01*
X1212Y923D02*
X1236Y923D01*
X1250Y923D02*
X1273Y923D01*
X1312Y923D02*
X1336Y923D01*
X1350Y923D02*
X1373Y923D01*
X1412Y923D02*
X1436Y923D01*
X1450Y923D02*
X1473Y923D01*
X1512Y923D02*
X1536Y923D01*
X1550Y923D02*
X1573Y923D01*
X1612Y923D02*
X1636Y923D01*
X1650Y923D02*
X1673Y923D01*
X912Y922D02*
X935Y922D01*
X951Y922D02*
X973Y922D01*
X1012Y922D02*
X1035Y922D01*
X1051Y922D02*
X1073Y922D01*
X1112Y922D02*
X1135Y922D01*
X1151Y922D02*
X1173Y922D01*
X1212Y922D02*
X1235Y922D01*
X1251Y922D02*
X1273Y922D01*
X1312Y922D02*
X1335Y922D01*
X1351Y922D02*
X1373Y922D01*
X1412Y922D02*
X1435Y922D01*
X1451Y922D02*
X1473Y922D01*
X1512Y922D02*
X1535Y922D01*
X1551Y922D02*
X1573Y922D01*
X1612Y922D02*
X1635Y922D01*
X1651Y922D02*
X1673Y922D01*
X912Y921D02*
X934Y921D01*
X952Y921D02*
X973Y921D01*
X1012Y921D02*
X1034Y921D01*
X1052Y921D02*
X1073Y921D01*
X1112Y921D02*
X1134Y921D01*
X1152Y921D02*
X1173Y921D01*
X1212Y921D02*
X1234Y921D01*
X1252Y921D02*
X1273Y921D01*
X1312Y921D02*
X1334Y921D01*
X1352Y921D02*
X1373Y921D01*
X1412Y921D02*
X1434Y921D01*
X1452Y921D02*
X1473Y921D01*
X1512Y921D02*
X1534Y921D01*
X1552Y921D02*
X1573Y921D01*
X1612Y921D02*
X1634Y921D01*
X1652Y921D02*
X1673Y921D01*
X912Y920D02*
X933Y920D01*
X952Y920D02*
X973Y920D01*
X1012Y920D02*
X1033Y920D01*
X1052Y920D02*
X1073Y920D01*
X1112Y920D02*
X1133Y920D01*
X1152Y920D02*
X1173Y920D01*
X1212Y920D02*
X1233Y920D01*
X1252Y920D02*
X1273Y920D01*
X1312Y920D02*
X1333Y920D01*
X1352Y920D02*
X1373Y920D01*
X1412Y920D02*
X1433Y920D01*
X1452Y920D02*
X1473Y920D01*
X1512Y920D02*
X1533Y920D01*
X1552Y920D02*
X1573Y920D01*
X1612Y920D02*
X1633Y920D01*
X1652Y920D02*
X1673Y920D01*
X912Y919D02*
X932Y919D01*
X953Y919D02*
X973Y919D01*
X1012Y919D02*
X1032Y919D01*
X1053Y919D02*
X1073Y919D01*
X1112Y919D02*
X1132Y919D01*
X1153Y919D02*
X1173Y919D01*
X1212Y919D02*
X1232Y919D01*
X1253Y919D02*
X1273Y919D01*
X1312Y919D02*
X1332Y919D01*
X1353Y919D02*
X1373Y919D01*
X1412Y919D02*
X1432Y919D01*
X1453Y919D02*
X1473Y919D01*
X1512Y919D02*
X1532Y919D01*
X1553Y919D02*
X1573Y919D01*
X1612Y919D02*
X1632Y919D01*
X1653Y919D02*
X1673Y919D01*
X912Y918D02*
X932Y918D01*
X954Y918D02*
X973Y918D01*
X1012Y918D02*
X1032Y918D01*
X1054Y918D02*
X1073Y918D01*
X1112Y918D02*
X1132Y918D01*
X1154Y918D02*
X1173Y918D01*
X1212Y918D02*
X1232Y918D01*
X1254Y918D02*
X1273Y918D01*
X1312Y918D02*
X1332Y918D01*
X1354Y918D02*
X1373Y918D01*
X1412Y918D02*
X1432Y918D01*
X1454Y918D02*
X1473Y918D01*
X1512Y918D02*
X1532Y918D01*
X1554Y918D02*
X1573Y918D01*
X1612Y918D02*
X1632Y918D01*
X1654Y918D02*
X1673Y918D01*
X912Y917D02*
X932Y917D01*
X954Y917D02*
X973Y917D01*
X1012Y917D02*
X1032Y917D01*
X1054Y917D02*
X1073Y917D01*
X1112Y917D02*
X1132Y917D01*
X1154Y917D02*
X1173Y917D01*
X1212Y917D02*
X1232Y917D01*
X1254Y917D02*
X1273Y917D01*
X1312Y917D02*
X1332Y917D01*
X1354Y917D02*
X1373Y917D01*
X1412Y917D02*
X1432Y917D01*
X1454Y917D02*
X1473Y917D01*
X1512Y917D02*
X1532Y917D01*
X1554Y917D02*
X1573Y917D01*
X1612Y917D02*
X1632Y917D01*
X1654Y917D02*
X1673Y917D01*
X912Y916D02*
X931Y916D01*
X954Y916D02*
X973Y916D01*
X1012Y916D02*
X1031Y916D01*
X1054Y916D02*
X1073Y916D01*
X1112Y916D02*
X1131Y916D01*
X1154Y916D02*
X1173Y916D01*
X1212Y916D02*
X1231Y916D01*
X1254Y916D02*
X1273Y916D01*
X1312Y916D02*
X1331Y916D01*
X1354Y916D02*
X1373Y916D01*
X1412Y916D02*
X1431Y916D01*
X1454Y916D02*
X1473Y916D01*
X1512Y916D02*
X1531Y916D01*
X1554Y916D02*
X1573Y916D01*
X1612Y916D02*
X1631Y916D01*
X1654Y916D02*
X1673Y916D01*
X912Y915D02*
X931Y915D01*
X954Y915D02*
X973Y915D01*
X1012Y915D02*
X1031Y915D01*
X1054Y915D02*
X1073Y915D01*
X1112Y915D02*
X1131Y915D01*
X1154Y915D02*
X1173Y915D01*
X1212Y915D02*
X1231Y915D01*
X1254Y915D02*
X1273Y915D01*
X1312Y915D02*
X1331Y915D01*
X1354Y915D02*
X1373Y915D01*
X1412Y915D02*
X1431Y915D01*
X1454Y915D02*
X1473Y915D01*
X1512Y915D02*
X1531Y915D01*
X1554Y915D02*
X1573Y915D01*
X1612Y915D02*
X1631Y915D01*
X1654Y915D02*
X1673Y915D01*
X912Y914D02*
X931Y914D01*
X954Y914D02*
X973Y914D01*
X1012Y914D02*
X1031Y914D01*
X1054Y914D02*
X1073Y914D01*
X1112Y914D02*
X1131Y914D01*
X1154Y914D02*
X1173Y914D01*
X1212Y914D02*
X1231Y914D01*
X1254Y914D02*
X1273Y914D01*
X1312Y914D02*
X1331Y914D01*
X1354Y914D02*
X1373Y914D01*
X1412Y914D02*
X1431Y914D01*
X1454Y914D02*
X1473Y914D01*
X1512Y914D02*
X1531Y914D01*
X1554Y914D02*
X1573Y914D01*
X1612Y914D02*
X1631Y914D01*
X1654Y914D02*
X1673Y914D01*
X912Y913D02*
X931Y913D01*
X954Y913D02*
X973Y913D01*
X1012Y913D02*
X1031Y913D01*
X1054Y913D02*
X1073Y913D01*
X1112Y913D02*
X1131Y913D01*
X1154Y913D02*
X1173Y913D01*
X1212Y913D02*
X1231Y913D01*
X1254Y913D02*
X1273Y913D01*
X1312Y913D02*
X1331Y913D01*
X1354Y913D02*
X1373Y913D01*
X1412Y913D02*
X1431Y913D01*
X1454Y913D02*
X1473Y913D01*
X1512Y913D02*
X1531Y913D01*
X1554Y913D02*
X1573Y913D01*
X1612Y913D02*
X1631Y913D01*
X1654Y913D02*
X1673Y913D01*
X912Y912D02*
X931Y912D01*
X954Y912D02*
X973Y912D01*
X1012Y912D02*
X1031Y912D01*
X1054Y912D02*
X1073Y912D01*
X1112Y912D02*
X1131Y912D01*
X1154Y912D02*
X1173Y912D01*
X1212Y912D02*
X1231Y912D01*
X1254Y912D02*
X1273Y912D01*
X1312Y912D02*
X1331Y912D01*
X1354Y912D02*
X1373Y912D01*
X1412Y912D02*
X1431Y912D01*
X1454Y912D02*
X1473Y912D01*
X1512Y912D02*
X1531Y912D01*
X1554Y912D02*
X1573Y912D01*
X1612Y912D02*
X1631Y912D01*
X1654Y912D02*
X1673Y912D01*
X912Y911D02*
X932Y911D01*
X954Y911D02*
X973Y911D01*
X1012Y911D02*
X1032Y911D01*
X1054Y911D02*
X1073Y911D01*
X1112Y911D02*
X1132Y911D01*
X1154Y911D02*
X1173Y911D01*
X1212Y911D02*
X1232Y911D01*
X1254Y911D02*
X1273Y911D01*
X1312Y911D02*
X1332Y911D01*
X1354Y911D02*
X1373Y911D01*
X1412Y911D02*
X1432Y911D01*
X1454Y911D02*
X1473Y911D01*
X1512Y911D02*
X1532Y911D01*
X1554Y911D02*
X1573Y911D01*
X1612Y911D02*
X1632Y911D01*
X1654Y911D02*
X1673Y911D01*
X912Y910D02*
X932Y910D01*
X954Y910D02*
X973Y910D01*
X1012Y910D02*
X1032Y910D01*
X1054Y910D02*
X1073Y910D01*
X1112Y910D02*
X1132Y910D01*
X1154Y910D02*
X1173Y910D01*
X1212Y910D02*
X1232Y910D01*
X1254Y910D02*
X1273Y910D01*
X1312Y910D02*
X1332Y910D01*
X1354Y910D02*
X1373Y910D01*
X1412Y910D02*
X1432Y910D01*
X1454Y910D02*
X1473Y910D01*
X1512Y910D02*
X1532Y910D01*
X1554Y910D02*
X1573Y910D01*
X1612Y910D02*
X1632Y910D01*
X1654Y910D02*
X1673Y910D01*
X912Y909D02*
X932Y909D01*
X953Y909D02*
X973Y909D01*
X1012Y909D02*
X1032Y909D01*
X1053Y909D02*
X1073Y909D01*
X1112Y909D02*
X1132Y909D01*
X1153Y909D02*
X1173Y909D01*
X1212Y909D02*
X1232Y909D01*
X1253Y909D02*
X1273Y909D01*
X1312Y909D02*
X1332Y909D01*
X1353Y909D02*
X1373Y909D01*
X1412Y909D02*
X1432Y909D01*
X1453Y909D02*
X1473Y909D01*
X1512Y909D02*
X1532Y909D01*
X1553Y909D02*
X1573Y909D01*
X1612Y909D02*
X1632Y909D01*
X1653Y909D02*
X1673Y909D01*
X912Y908D02*
X933Y908D01*
X952Y908D02*
X973Y908D01*
X1012Y908D02*
X1033Y908D01*
X1052Y908D02*
X1073Y908D01*
X1112Y908D02*
X1133Y908D01*
X1152Y908D02*
X1173Y908D01*
X1212Y908D02*
X1233Y908D01*
X1252Y908D02*
X1273Y908D01*
X1312Y908D02*
X1333Y908D01*
X1352Y908D02*
X1373Y908D01*
X1412Y908D02*
X1433Y908D01*
X1452Y908D02*
X1473Y908D01*
X1512Y908D02*
X1533Y908D01*
X1552Y908D02*
X1573Y908D01*
X1612Y908D02*
X1633Y908D01*
X1652Y908D02*
X1673Y908D01*
X912Y907D02*
X934Y907D01*
X952Y907D02*
X973Y907D01*
X1012Y907D02*
X1034Y907D01*
X1052Y907D02*
X1073Y907D01*
X1112Y907D02*
X1134Y907D01*
X1152Y907D02*
X1173Y907D01*
X1212Y907D02*
X1234Y907D01*
X1252Y907D02*
X1273Y907D01*
X1312Y907D02*
X1334Y907D01*
X1352Y907D02*
X1373Y907D01*
X1412Y907D02*
X1434Y907D01*
X1452Y907D02*
X1473Y907D01*
X1512Y907D02*
X1534Y907D01*
X1552Y907D02*
X1573Y907D01*
X1612Y907D02*
X1634Y907D01*
X1652Y907D02*
X1673Y907D01*
X912Y906D02*
X935Y906D01*
X951Y906D02*
X973Y906D01*
X1012Y906D02*
X1035Y906D01*
X1051Y906D02*
X1073Y906D01*
X1112Y906D02*
X1135Y906D01*
X1151Y906D02*
X1173Y906D01*
X1212Y906D02*
X1235Y906D01*
X1251Y906D02*
X1273Y906D01*
X1312Y906D02*
X1335Y906D01*
X1351Y906D02*
X1373Y906D01*
X1412Y906D02*
X1435Y906D01*
X1451Y906D02*
X1473Y906D01*
X1512Y906D02*
X1535Y906D01*
X1551Y906D02*
X1573Y906D01*
X1612Y906D02*
X1635Y906D01*
X1651Y906D02*
X1673Y906D01*
X912Y905D02*
X936Y905D01*
X950Y905D02*
X973Y905D01*
X1012Y905D02*
X1036Y905D01*
X1050Y905D02*
X1073Y905D01*
X1112Y905D02*
X1136Y905D01*
X1150Y905D02*
X1173Y905D01*
X1212Y905D02*
X1236Y905D01*
X1250Y905D02*
X1273Y905D01*
X1312Y905D02*
X1336Y905D01*
X1350Y905D02*
X1373Y905D01*
X1412Y905D02*
X1436Y905D01*
X1450Y905D02*
X1473Y905D01*
X1512Y905D02*
X1536Y905D01*
X1550Y905D02*
X1573Y905D01*
X1612Y905D02*
X1636Y905D01*
X1650Y905D02*
X1673Y905D01*
X912Y904D02*
X938Y904D01*
X948Y904D02*
X973Y904D01*
X1012Y904D02*
X1038Y904D01*
X1048Y904D02*
X1073Y904D01*
X1112Y904D02*
X1138Y904D01*
X1148Y904D02*
X1173Y904D01*
X1212Y904D02*
X1238Y904D01*
X1248Y904D02*
X1273Y904D01*
X1312Y904D02*
X1338Y904D01*
X1348Y904D02*
X1373Y904D01*
X1412Y904D02*
X1438Y904D01*
X1448Y904D02*
X1473Y904D01*
X1512Y904D02*
X1538Y904D01*
X1548Y904D02*
X1573Y904D01*
X1612Y904D02*
X1638Y904D01*
X1648Y904D02*
X1673Y904D01*
X912Y903D02*
X973Y903D01*
X1012Y903D02*
X1073Y903D01*
X1112Y903D02*
X1173Y903D01*
X1212Y903D02*
X1273Y903D01*
X1312Y903D02*
X1373Y903D01*
X1412Y903D02*
X1473Y903D01*
X1512Y903D02*
X1573Y903D01*
X1612Y903D02*
X1673Y903D01*
X912Y902D02*
X973Y902D01*
X1012Y902D02*
X1073Y902D01*
X1112Y902D02*
X1173Y902D01*
X1212Y902D02*
X1273Y902D01*
X1312Y902D02*
X1373Y902D01*
X1412Y902D02*
X1473Y902D01*
X1512Y902D02*
X1573Y902D01*
X1612Y902D02*
X1673Y902D01*
X912Y901D02*
X973Y901D01*
X1012Y901D02*
X1073Y901D01*
X1112Y901D02*
X1173Y901D01*
X1212Y901D02*
X1273Y901D01*
X1312Y901D02*
X1373Y901D01*
X1412Y901D02*
X1473Y901D01*
X1512Y901D02*
X1573Y901D01*
X1612Y901D02*
X1673Y901D01*
X912Y900D02*
X973Y900D01*
X1012Y900D02*
X1073Y900D01*
X1112Y900D02*
X1173Y900D01*
X1212Y900D02*
X1273Y900D01*
X1312Y900D02*
X1373Y900D01*
X1412Y900D02*
X1473Y900D01*
X1512Y900D02*
X1573Y900D01*
X1612Y900D02*
X1673Y900D01*
X912Y899D02*
X973Y899D01*
X1012Y899D02*
X1073Y899D01*
X1112Y899D02*
X1173Y899D01*
X1212Y899D02*
X1273Y899D01*
X1312Y899D02*
X1373Y899D01*
X1412Y899D02*
X1473Y899D01*
X1512Y899D02*
X1573Y899D01*
X1612Y899D02*
X1673Y899D01*
X912Y898D02*
X973Y898D01*
X1012Y898D02*
X1073Y898D01*
X1112Y898D02*
X1173Y898D01*
X1212Y898D02*
X1273Y898D01*
X1312Y898D02*
X1373Y898D01*
X1412Y898D02*
X1473Y898D01*
X1512Y898D02*
X1573Y898D01*
X1612Y898D02*
X1673Y898D01*
X912Y897D02*
X973Y897D01*
X1012Y897D02*
X1073Y897D01*
X1112Y897D02*
X1173Y897D01*
X1212Y897D02*
X1273Y897D01*
X1312Y897D02*
X1373Y897D01*
X1412Y897D02*
X1473Y897D01*
X1512Y897D02*
X1573Y897D01*
X1612Y897D02*
X1673Y897D01*
X912Y896D02*
X973Y896D01*
X1012Y896D02*
X1073Y896D01*
X1112Y896D02*
X1173Y896D01*
X1212Y896D02*
X1273Y896D01*
X1312Y896D02*
X1373Y896D01*
X1412Y896D02*
X1473Y896D01*
X1512Y896D02*
X1573Y896D01*
X1612Y896D02*
X1673Y896D01*
X912Y895D02*
X973Y895D01*
X1012Y895D02*
X1073Y895D01*
X1112Y895D02*
X1173Y895D01*
X1212Y895D02*
X1273Y895D01*
X1312Y895D02*
X1373Y895D01*
X1412Y895D02*
X1473Y895D01*
X1512Y895D02*
X1573Y895D01*
X1612Y895D02*
X1673Y895D01*
X912Y894D02*
X973Y894D01*
X1012Y894D02*
X1073Y894D01*
X1112Y894D02*
X1173Y894D01*
X1212Y894D02*
X1273Y894D01*
X1312Y894D02*
X1373Y894D01*
X1412Y894D02*
X1473Y894D01*
X1512Y894D02*
X1573Y894D01*
X1612Y894D02*
X1673Y894D01*
X912Y893D02*
X973Y893D01*
X1012Y893D02*
X1073Y893D01*
X1112Y893D02*
X1173Y893D01*
X1212Y893D02*
X1273Y893D01*
X1312Y893D02*
X1373Y893D01*
X1412Y893D02*
X1473Y893D01*
X1512Y893D02*
X1573Y893D01*
X1612Y893D02*
X1673Y893D01*
X912Y892D02*
X973Y892D01*
X1012Y892D02*
X1073Y892D01*
X1112Y892D02*
X1173Y892D01*
X1212Y892D02*
X1273Y892D01*
X1312Y892D02*
X1373Y892D01*
X1412Y892D02*
X1473Y892D01*
X1512Y892D02*
X1573Y892D01*
X1612Y892D02*
X1673Y892D01*
X912Y891D02*
X973Y891D01*
X1012Y891D02*
X1073Y891D01*
X1112Y891D02*
X1173Y891D01*
X1212Y891D02*
X1273Y891D01*
X1312Y891D02*
X1373Y891D01*
X1412Y891D02*
X1473Y891D01*
X1512Y891D02*
X1573Y891D01*
X1612Y891D02*
X1673Y891D01*
X912Y890D02*
X973Y890D01*
X1012Y890D02*
X1073Y890D01*
X1112Y890D02*
X1173Y890D01*
X1212Y890D02*
X1273Y890D01*
X1312Y890D02*
X1373Y890D01*
X1412Y890D02*
X1473Y890D01*
X1512Y890D02*
X1573Y890D01*
X1612Y890D02*
X1673Y890D01*
X912Y889D02*
X973Y889D01*
X1012Y889D02*
X1073Y889D01*
X1112Y889D02*
X1173Y889D01*
X1212Y889D02*
X1273Y889D01*
X1312Y889D02*
X1373Y889D01*
X1412Y889D02*
X1473Y889D01*
X1512Y889D02*
X1573Y889D01*
X1612Y889D02*
X1673Y889D01*
X912Y888D02*
X973Y888D01*
X1012Y888D02*
X1073Y888D01*
X1112Y888D02*
X1173Y888D01*
X1212Y888D02*
X1273Y888D01*
X1312Y888D02*
X1373Y888D01*
X1412Y888D02*
X1473Y888D01*
X1512Y888D02*
X1573Y888D01*
X1612Y888D02*
X1673Y888D01*
X912Y887D02*
X973Y887D01*
X1012Y887D02*
X1073Y887D01*
X1112Y887D02*
X1173Y887D01*
X1212Y887D02*
X1273Y887D01*
X1312Y887D02*
X1373Y887D01*
X1412Y887D02*
X1473Y887D01*
X1512Y887D02*
X1573Y887D01*
X1612Y887D02*
X1673Y887D01*
X912Y886D02*
X973Y886D01*
X1012Y886D02*
X1073Y886D01*
X1112Y886D02*
X1173Y886D01*
X1212Y886D02*
X1273Y886D01*
X1312Y886D02*
X1373Y886D01*
X1412Y886D02*
X1473Y886D01*
X1512Y886D02*
X1573Y886D01*
X1612Y886D02*
X1673Y886D01*
X912Y885D02*
X973Y885D01*
X1012Y885D02*
X1073Y885D01*
X1112Y885D02*
X1173Y885D01*
X1212Y885D02*
X1273Y885D01*
X1312Y885D02*
X1373Y885D01*
X1412Y885D02*
X1473Y885D01*
X1512Y885D02*
X1573Y885D01*
X1612Y885D02*
X1673Y885D01*
X913Y884D02*
X973Y884D01*
X1013Y884D02*
X1073Y884D01*
X1113Y884D02*
X1173Y884D01*
X1213Y884D02*
X1273Y884D01*
X1313Y884D02*
X1373Y884D01*
X1413Y884D02*
X1473Y884D01*
X1513Y884D02*
X1573Y884D01*
X1613Y884D02*
X1673Y884D01*
X913Y883D02*
X973Y883D01*
X1013Y883D02*
X1073Y883D01*
X1113Y883D02*
X1173Y883D01*
X1213Y883D02*
X1273Y883D01*
X1313Y883D02*
X1373Y883D01*
X1413Y883D02*
X1473Y883D01*
X1513Y883D02*
X1573Y883D01*
X1613Y883D02*
X1673Y883D01*
X913Y882D02*
X973Y882D01*
X1013Y882D02*
X1073Y882D01*
X1113Y882D02*
X1173Y882D01*
X1213Y882D02*
X1273Y882D01*
X1313Y882D02*
X1373Y882D01*
X1413Y882D02*
X1473Y882D01*
X1513Y882D02*
X1573Y882D01*
X1613Y882D02*
X1673Y882D01*
X913Y881D02*
X972Y881D01*
X1013Y881D02*
X1072Y881D01*
X1113Y881D02*
X1172Y881D01*
X1213Y881D02*
X1272Y881D01*
X1313Y881D02*
X1372Y881D01*
X1413Y881D02*
X1472Y881D01*
X1513Y881D02*
X1572Y881D01*
X1613Y881D02*
X1672Y881D01*
X913Y880D02*
X972Y880D01*
X1013Y880D02*
X1072Y880D01*
X1113Y880D02*
X1172Y880D01*
X1213Y880D02*
X1272Y880D01*
X1313Y880D02*
X1372Y880D01*
X1413Y880D02*
X1472Y880D01*
X1513Y880D02*
X1572Y880D01*
X1613Y880D02*
X1672Y880D01*
X914Y879D02*
X972Y879D01*
X1014Y879D02*
X1072Y879D01*
X1114Y879D02*
X1172Y879D01*
X1214Y879D02*
X1272Y879D01*
X1314Y879D02*
X1372Y879D01*
X1414Y879D02*
X1472Y879D01*
X1514Y879D02*
X1572Y879D01*
X1614Y879D02*
X1672Y879D01*
X914Y878D02*
X971Y878D01*
X1014Y878D02*
X1071Y878D01*
X1114Y878D02*
X1171Y878D01*
X1214Y878D02*
X1271Y878D01*
X1314Y878D02*
X1371Y878D01*
X1414Y878D02*
X1471Y878D01*
X1514Y878D02*
X1571Y878D01*
X1614Y878D02*
X1671Y878D01*
X914Y877D02*
X971Y877D01*
X1014Y877D02*
X1071Y877D01*
X1114Y877D02*
X1171Y877D01*
X1214Y877D02*
X1271Y877D01*
X1314Y877D02*
X1371Y877D01*
X1414Y877D02*
X1471Y877D01*
X1514Y877D02*
X1571Y877D01*
X1614Y877D02*
X1671Y877D01*
X915Y876D02*
X971Y876D01*
X1015Y876D02*
X1071Y876D01*
X1115Y876D02*
X1171Y876D01*
X1215Y876D02*
X1271Y876D01*
X1315Y876D02*
X1371Y876D01*
X1415Y876D02*
X1471Y876D01*
X1515Y876D02*
X1571Y876D01*
X1615Y876D02*
X1671Y876D01*
X915Y875D02*
X970Y875D01*
X1015Y875D02*
X1070Y875D01*
X1115Y875D02*
X1170Y875D01*
X1215Y875D02*
X1270Y875D01*
X1315Y875D02*
X1370Y875D01*
X1415Y875D02*
X1470Y875D01*
X1515Y875D02*
X1570Y875D01*
X1615Y875D02*
X1670Y875D01*
X916Y874D02*
X970Y874D01*
X1016Y874D02*
X1070Y874D01*
X1116Y874D02*
X1170Y874D01*
X1216Y874D02*
X1270Y874D01*
X1316Y874D02*
X1370Y874D01*
X1416Y874D02*
X1470Y874D01*
X1516Y874D02*
X1570Y874D01*
X1616Y874D02*
X1670Y874D01*
X916Y873D02*
X969Y873D01*
X1016Y873D02*
X1069Y873D01*
X1116Y873D02*
X1169Y873D01*
X1216Y873D02*
X1269Y873D01*
X1316Y873D02*
X1369Y873D01*
X1416Y873D02*
X1469Y873D01*
X1516Y873D02*
X1569Y873D01*
X1616Y873D02*
X1669Y873D01*
X917Y872D02*
X969Y872D01*
X1017Y872D02*
X1069Y872D01*
X1117Y872D02*
X1169Y872D01*
X1217Y872D02*
X1269Y872D01*
X1317Y872D02*
X1369Y872D01*
X1417Y872D02*
X1469Y872D01*
X1517Y872D02*
X1569Y872D01*
X1617Y872D02*
X1669Y872D01*
X917Y871D02*
X968Y871D01*
X1017Y871D02*
X1068Y871D01*
X1117Y871D02*
X1168Y871D01*
X1217Y871D02*
X1268Y871D01*
X1317Y871D02*
X1368Y871D01*
X1417Y871D02*
X1468Y871D01*
X1517Y871D02*
X1568Y871D01*
X1617Y871D02*
X1668Y871D01*
X918Y870D02*
X967Y870D01*
X1018Y870D02*
X1067Y870D01*
X1118Y870D02*
X1167Y870D01*
X1218Y870D02*
X1267Y870D01*
X1318Y870D02*
X1367Y870D01*
X1418Y870D02*
X1467Y870D01*
X1518Y870D02*
X1567Y870D01*
X1618Y870D02*
X1667Y870D01*
X919Y869D02*
X967Y869D01*
X1019Y869D02*
X1067Y869D01*
X1119Y869D02*
X1167Y869D01*
X1219Y869D02*
X1267Y869D01*
X1319Y869D02*
X1367Y869D01*
X1419Y869D02*
X1467Y869D01*
X1519Y869D02*
X1567Y869D01*
X1619Y869D02*
X1667Y869D01*
X920Y868D02*
X966Y868D01*
X1020Y868D02*
X1066Y868D01*
X1120Y868D02*
X1166Y868D01*
X1220Y868D02*
X1266Y868D01*
X1320Y868D02*
X1366Y868D01*
X1420Y868D02*
X1466Y868D01*
X1520Y868D02*
X1566Y868D01*
X1620Y868D02*
X1666Y868D01*
X920Y867D02*
X965Y867D01*
X1020Y867D02*
X1065Y867D01*
X1120Y867D02*
X1165Y867D01*
X1220Y867D02*
X1265Y867D01*
X1320Y867D02*
X1365Y867D01*
X1420Y867D02*
X1465Y867D01*
X1520Y867D02*
X1565Y867D01*
X1620Y867D02*
X1665Y867D01*
X921Y866D02*
X964Y866D01*
X1021Y866D02*
X1064Y866D01*
X1121Y866D02*
X1164Y866D01*
X1221Y866D02*
X1264Y866D01*
X1321Y866D02*
X1364Y866D01*
X1421Y866D02*
X1464Y866D01*
X1521Y866D02*
X1564Y866D01*
X1621Y866D02*
X1664Y866D01*
X923Y865D02*
X963Y865D01*
X1023Y865D02*
X1063Y865D01*
X1123Y865D02*
X1163Y865D01*
X1223Y865D02*
X1263Y865D01*
X1323Y865D02*
X1363Y865D01*
X1423Y865D02*
X1463Y865D01*
X1523Y865D02*
X1563Y865D01*
X1623Y865D02*
X1663Y865D01*
X924Y864D02*
X962Y864D01*
X1024Y864D02*
X1062Y864D01*
X1124Y864D02*
X1162Y864D01*
X1224Y864D02*
X1262Y864D01*
X1324Y864D02*
X1362Y864D01*
X1424Y864D02*
X1462Y864D01*
X1524Y864D02*
X1562Y864D01*
X1624Y864D02*
X1662Y864D01*
X925Y863D02*
X960Y863D01*
X1025Y863D02*
X1060Y863D01*
X1125Y863D02*
X1160Y863D01*
X1225Y863D02*
X1260Y863D01*
X1325Y863D02*
X1360Y863D01*
X1425Y863D02*
X1460Y863D01*
X1525Y863D02*
X1560Y863D01*
X1625Y863D02*
X1660Y863D01*
X927Y862D02*
X959Y862D01*
X1027Y862D02*
X1059Y862D01*
X1127Y862D02*
X1159Y862D01*
X1227Y862D02*
X1259Y862D01*
X1327Y862D02*
X1359Y862D01*
X1427Y862D02*
X1459Y862D01*
X1527Y862D02*
X1559Y862D01*
X1627Y862D02*
X1659Y862D01*
X928Y861D02*
X957Y861D01*
X1028Y861D02*
X1057Y861D01*
X1128Y861D02*
X1157Y861D01*
X1228Y861D02*
X1257Y861D01*
X1328Y861D02*
X1357Y861D01*
X1428Y861D02*
X1457Y861D01*
X1528Y861D02*
X1557Y861D01*
X1628Y861D02*
X1657Y861D01*
X930Y860D02*
X955Y860D01*
X1030Y860D02*
X1055Y860D01*
X1130Y860D02*
X1155Y860D01*
X1230Y860D02*
X1255Y860D01*
X1330Y860D02*
X1355Y860D01*
X1430Y860D02*
X1455Y860D01*
X1530Y860D02*
X1555Y860D01*
X1630Y860D02*
X1655Y860D01*
X933Y859D02*
X953Y859D01*
X1033Y859D02*
X1053Y859D01*
X1133Y859D02*
X1153Y859D01*
X1233Y859D02*
X1253Y859D01*
X1333Y859D02*
X1353Y859D01*
X1433Y859D02*
X1453Y859D01*
X1533Y859D02*
X1553Y859D01*
X1633Y859D02*
X1653Y859D01*
X936Y858D02*
X950Y858D01*
X1036Y858D02*
X1050Y858D01*
X1136Y858D02*
X1150Y858D01*
X1236Y858D02*
X1250Y858D01*
X1336Y858D02*
X1350Y858D01*
X1436Y858D02*
X1450Y858D01*
X1536Y858D02*
X1550Y858D01*
X1636Y858D02*
X1650Y858D01*
D02*
G04 End of Mask0*
M02*