; NON-PLATED HOLES START AT T1
; THROUGH (PLATED) HOLES START AT T100
M48
INCH
T1C0.130000
T100C0.059055
T101C0.042000
T102C0.032000
T103C0.030000
T104C0.040000
T105C0.035039
%
T1
X001540Y004136
X020060Y004136
T100
X018432Y013136
X019432Y011136
X020432Y013136
T101
X020432Y008136
X020432Y009136
X020432Y007136
T102
X010432Y009136
X014432Y012136
X013432Y009136
X010432Y012136
X015432Y009136
X016432Y009136
X015432Y012136
X012432Y009136
X011432Y012136
X009432Y009136
X009432Y012136
X014432Y009136
X013432Y012136
X012432Y012136
X011432Y009136
X016432Y012136
T103
X007932Y010636
X006930Y009636
X007932Y011636
X012430Y008136
X006930Y011636
X013432Y008136
X018432Y013136
X010432Y008136
X007932Y009636
X019432Y011136
X020432Y013136
X006930Y010636
X009430Y008136
T104
X012970Y004636
X015150Y004636
X010260Y003636
X005910Y003636
X004820Y003636
X014060Y004636
X016230Y004636
X012430Y003636
X011340Y003636
X013520Y003636
X005370Y004636
X007540Y004636
X015690Y003636
X006450Y004636
X016780Y003636
X017320Y004636
X004280Y004636
X008080Y003636
X009170Y003636
X014600Y003636
X008630Y004636
X007000Y003636
X010800Y004636
X011890Y004636
X009710Y004636
T105
X006995Y016242
X010932Y006636
X006207Y016242
X014869Y016242
X007782Y016242
X011719Y016242
X016444Y006636
X015656Y006636
X014869Y006636
X014082Y016242
X010932Y016242
X010145Y016242
X006995Y006636
X011719Y006636
X015656Y016242
X007782Y006636
X006207Y006636
X009357Y016242
X014082Y006636
X008570Y006636
X009357Y006636
X004633Y006636
X012507Y016242
X016444Y016242
X013294Y016242
X013294Y006636
X008570Y016242
X005420Y006636
X012507Y006636
X004633Y016242
X010145Y006636
X005420Y016242
T00
M30
